<?xml version="1.0" encoding="utf-8" standalone="no"?>
<!DOCTYPE svg PUBLIC "-//W3C//DTD SVG 1.1//EN"
  "http://www.w3.org/Graphics/SVG/1.1/DTD/svg11.dtd">
<svg xmlns:xlink="http://www.w3.org/1999/xlink" width="896.360937pt" height="600.59625pt" viewBox="0 0 896.360937 600.59625" xmlns="http://www.w3.org/2000/svg" version="1.1">
 <metadata>
  <rdf:RDF xmlns:dc="http://purl.org/dc/elements/1.1/" xmlns:cc="http://creativecommons.org/ns#" xmlns:rdf="http://www.w3.org/1999/02/22-rdf-syntax-ns#">
   <cc:Work>
    <dc:type rdf:resource="http://purl.org/dc/dcmitype/StillImage"/>
    <dc:date>2026-03-05T08:57:36.613576</dc:date>
    <dc:format>image/svg+xml</dc:format>
    <dc:creator>
     <cc:Agent>
      <dc:title>Matplotlib v3.10.6, https://matplotlib.org/</dc:title>
     </cc:Agent>
    </dc:creator>
   </cc:Work>
  </rdf:RDF>
 </metadata>
 <defs>
  <style type="text/css">*{stroke-linejoin: round; stroke-linecap: butt}</style>
 </defs>
 <g id="figure_1">
  <g id="patch_1">
   <path d="M 0 600.59625 
L 896.360937 600.59625 
L 896.360937 0 
L 0 0 
z
" style="fill: #ffffff"/>
  </g>
  <g id="axes_1">
   <g id="patch_2">
    <path d="M 52.160938 576.718125 
L 889.160938 576.718125 
L 889.160938 22.318125 
L 52.160938 22.318125 
z
" style="fill: #ffffff"/>
   </g>
   <g id="matplotlib.axis_1">
    <g id="xtick_1">
     <g id="line2d_1">
      <defs>
       <path id="m91d72d2572" d="M 0 0 
L 0 3.5 
" style="stroke: #000000; stroke-width: 0.8"/>
      </defs>
      <g>
       <use xlink:href="#m91d72d2572" x="52.160938" y="576.718125" style="stroke: #000000; stroke-width: 0.8"/>
      </g>
     </g>
     <g id="text_1">
      <!-- 0 -->
      <g transform="translate(48.979688 591.316563) scale(0.1 -0.1)">
       <defs>
        <path id="DejaVuSans-30" d="M 2034 4250 
Q 1547 4250 1301 3770 
Q 1056 3291 1056 2328 
Q 1056 1369 1301 889 
Q 1547 409 2034 409 
Q 2525 409 2770 889 
Q 3016 1369 3016 2328 
Q 3016 3291 2770 3770 
Q 2525 4250 2034 4250 
z
M 2034 4750 
Q 2819 4750 3233 4129 
Q 3647 3509 3647 2328 
Q 3647 1150 3233 529 
Q 2819 -91 2034 -91 
Q 1250 -91 836 529 
Q 422 1150 422 2328 
Q 422 3509 836 4129 
Q 1250 4750 2034 4750 
z
" transform="scale(0.015625)"/>
       </defs>
       <use xlink:href="#DejaVuSans-30"/>
      </g>
     </g>
    </g>
    <g id="xtick_2">
     <g id="line2d_2">
      <g>
       <use xlink:href="#m91d72d2572" x="224.916355" y="576.718125" style="stroke: #000000; stroke-width: 0.8"/>
      </g>
     </g>
     <g id="text_2">
      <!-- 200 -->
      <g transform="translate(215.372605 591.316563) scale(0.1 -0.1)">
       <defs>
        <path id="DejaVuSans-32" d="M 1228 531 
L 3431 531 
L 3431 0 
L 469 0 
L 469 531 
Q 828 903 1448 1529 
Q 2069 2156 2228 2338 
Q 2531 2678 2651 2914 
Q 2772 3150 2772 3378 
Q 2772 3750 2511 3984 
Q 2250 4219 1831 4219 
Q 1534 4219 1204 4116 
Q 875 4013 500 3803 
L 500 4441 
Q 881 4594 1212 4672 
Q 1544 4750 1819 4750 
Q 2544 4750 2975 4387 
Q 3406 4025 3406 3419 
Q 3406 3131 3298 2873 
Q 3191 2616 2906 2266 
Q 2828 2175 2409 1742 
Q 1991 1309 1228 531 
z
" transform="scale(0.015625)"/>
       </defs>
       <use xlink:href="#DejaVuSans-32"/>
       <use xlink:href="#DejaVuSans-30" transform="translate(63.623047 0)"/>
       <use xlink:href="#DejaVuSans-30" transform="translate(127.246094 0)"/>
      </g>
     </g>
    </g>
    <g id="xtick_3">
     <g id="line2d_3">
      <g>
       <use xlink:href="#m91d72d2572" x="397.671773" y="576.718125" style="stroke: #000000; stroke-width: 0.8"/>
      </g>
     </g>
     <g id="text_3">
      <!-- 400 -->
      <g transform="translate(388.128023 591.316563) scale(0.1 -0.1)">
       <defs>
        <path id="DejaVuSans-34" d="M 2419 4116 
L 825 1625 
L 2419 1625 
L 2419 4116 
z
M 2253 4666 
L 3047 4666 
L 3047 1625 
L 3713 1625 
L 3713 1100 
L 3047 1100 
L 3047 0 
L 2419 0 
L 2419 1100 
L 313 1100 
L 313 1709 
L 2253 4666 
z
" transform="scale(0.015625)"/>
       </defs>
       <use xlink:href="#DejaVuSans-34"/>
       <use xlink:href="#DejaVuSans-30" transform="translate(63.623047 0)"/>
       <use xlink:href="#DejaVuSans-30" transform="translate(127.246094 0)"/>
      </g>
     </g>
    </g>
    <g id="xtick_4">
     <g id="line2d_4">
      <g>
       <use xlink:href="#m91d72d2572" x="570.427191" y="576.718125" style="stroke: #000000; stroke-width: 0.8"/>
      </g>
     </g>
     <g id="text_4">
      <!-- 600 -->
      <g transform="translate(560.883441 591.316563) scale(0.1 -0.1)">
       <defs>
        <path id="DejaVuSans-36" d="M 2113 2584 
Q 1688 2584 1439 2293 
Q 1191 2003 1191 1497 
Q 1191 994 1439 701 
Q 1688 409 2113 409 
Q 2538 409 2786 701 
Q 3034 994 3034 1497 
Q 3034 2003 2786 2293 
Q 2538 2584 2113 2584 
z
M 3366 4563 
L 3366 3988 
Q 3128 4100 2886 4159 
Q 2644 4219 2406 4219 
Q 1781 4219 1451 3797 
Q 1122 3375 1075 2522 
Q 1259 2794 1537 2939 
Q 1816 3084 2150 3084 
Q 2853 3084 3261 2657 
Q 3669 2231 3669 1497 
Q 3669 778 3244 343 
Q 2819 -91 2113 -91 
Q 1303 -91 875 529 
Q 447 1150 447 2328 
Q 447 3434 972 4092 
Q 1497 4750 2381 4750 
Q 2619 4750 2861 4703 
Q 3103 4656 3366 4563 
z
" transform="scale(0.015625)"/>
       </defs>
       <use xlink:href="#DejaVuSans-36"/>
       <use xlink:href="#DejaVuSans-30" transform="translate(63.623047 0)"/>
       <use xlink:href="#DejaVuSans-30" transform="translate(127.246094 0)"/>
      </g>
     </g>
    </g>
    <g id="xtick_5">
     <g id="line2d_5">
      <g>
       <use xlink:href="#m91d72d2572" x="743.182609" y="576.718125" style="stroke: #000000; stroke-width: 0.8"/>
      </g>
     </g>
     <g id="text_5">
      <!-- 800 -->
      <g transform="translate(733.638859 591.316563) scale(0.1 -0.1)">
       <defs>
        <path id="DejaVuSans-38" d="M 2034 2216 
Q 1584 2216 1326 1975 
Q 1069 1734 1069 1313 
Q 1069 891 1326 650 
Q 1584 409 2034 409 
Q 2484 409 2743 651 
Q 3003 894 3003 1313 
Q 3003 1734 2745 1975 
Q 2488 2216 2034 2216 
z
M 1403 2484 
Q 997 2584 770 2862 
Q 544 3141 544 3541 
Q 544 4100 942 4425 
Q 1341 4750 2034 4750 
Q 2731 4750 3128 4425 
Q 3525 4100 3525 3541 
Q 3525 3141 3298 2862 
Q 3072 2584 2669 2484 
Q 3125 2378 3379 2068 
Q 3634 1759 3634 1313 
Q 3634 634 3220 271 
Q 2806 -91 2034 -91 
Q 1263 -91 848 271 
Q 434 634 434 1313 
Q 434 1759 690 2068 
Q 947 2378 1403 2484 
z
M 1172 3481 
Q 1172 3119 1398 2916 
Q 1625 2713 2034 2713 
Q 2441 2713 2670 2916 
Q 2900 3119 2900 3481 
Q 2900 3844 2670 4047 
Q 2441 4250 2034 4250 
Q 1625 4250 1398 4047 
Q 1172 3844 1172 3481 
z
" transform="scale(0.015625)"/>
       </defs>
       <use xlink:href="#DejaVuSans-38"/>
       <use xlink:href="#DejaVuSans-30" transform="translate(63.623047 0)"/>
       <use xlink:href="#DejaVuSans-30" transform="translate(127.246094 0)"/>
      </g>
     </g>
    </g>
   </g>
   <g id="matplotlib.axis_2">
    <g id="ytick_1">
     <g id="line2d_6">
      <defs>
       <path id="m3950a2617e" d="M 0 0 
L -3.5 0 
" style="stroke: #000000; stroke-width: 0.8"/>
      </defs>
      <g>
       <use xlink:href="#m3950a2617e" x="52.160938" y="576.718125" style="stroke: #000000; stroke-width: 0.8"/>
      </g>
     </g>
     <g id="text_6">
      <!-- −0.1 -->
      <g transform="translate(20.878125 580.517344) scale(0.1 -0.1)">
       <defs>
        <path id="DejaVuSans-2212" d="M 678 2272 
L 4684 2272 
L 4684 1741 
L 678 1741 
L 678 2272 
z
" transform="scale(0.015625)"/>
        <path id="DejaVuSans-2e" d="M 684 794 
L 1344 794 
L 1344 0 
L 684 0 
L 684 794 
z
" transform="scale(0.015625)"/>
        <path id="DejaVuSans-31" d="M 794 531 
L 1825 531 
L 1825 4091 
L 703 3866 
L 703 4441 
L 1819 4666 
L 2450 4666 
L 2450 531 
L 3481 531 
L 3481 0 
L 794 0 
L 794 531 
z
" transform="scale(0.015625)"/>
       </defs>
       <use xlink:href="#DejaVuSans-2212"/>
       <use xlink:href="#DejaVuSans-30" transform="translate(83.789062 0)"/>
       <use xlink:href="#DejaVuSans-2e" transform="translate(147.412109 0)"/>
       <use xlink:href="#DejaVuSans-31" transform="translate(179.199219 0)"/>
      </g>
     </g>
    </g>
    <g id="ytick_2">
     <g id="line2d_7">
      <g>
       <use xlink:href="#m3950a2617e" x="52.160938" y="497.518125" style="stroke: #000000; stroke-width: 0.8"/>
      </g>
     </g>
     <g id="text_7">
      <!-- 0.0 -->
      <g transform="translate(29.257813 501.317344) scale(0.1 -0.1)">
       <use xlink:href="#DejaVuSans-30"/>
       <use xlink:href="#DejaVuSans-2e" transform="translate(63.623047 0)"/>
       <use xlink:href="#DejaVuSans-30" transform="translate(95.410156 0)"/>
      </g>
     </g>
    </g>
    <g id="ytick_3">
     <g id="line2d_8">
      <g>
       <use xlink:href="#m3950a2617e" x="52.160938" y="418.318125" style="stroke: #000000; stroke-width: 0.8"/>
      </g>
     </g>
     <g id="text_8">
      <!-- 0.1 -->
      <g transform="translate(29.257813 422.117344) scale(0.1 -0.1)">
       <use xlink:href="#DejaVuSans-30"/>
       <use xlink:href="#DejaVuSans-2e" transform="translate(63.623047 0)"/>
       <use xlink:href="#DejaVuSans-31" transform="translate(95.410156 0)"/>
      </g>
     </g>
    </g>
    <g id="ytick_4">
     <g id="line2d_9">
      <g>
       <use xlink:href="#m3950a2617e" x="52.160938" y="339.118125" style="stroke: #000000; stroke-width: 0.8"/>
      </g>
     </g>
     <g id="text_9">
      <!-- 0.2 -->
      <g transform="translate(29.257813 342.917344) scale(0.1 -0.1)">
       <use xlink:href="#DejaVuSans-30"/>
       <use xlink:href="#DejaVuSans-2e" transform="translate(63.623047 0)"/>
       <use xlink:href="#DejaVuSans-32" transform="translate(95.410156 0)"/>
      </g>
     </g>
    </g>
    <g id="ytick_5">
     <g id="line2d_10">
      <g>
       <use xlink:href="#m3950a2617e" x="52.160938" y="259.918125" style="stroke: #000000; stroke-width: 0.8"/>
      </g>
     </g>
     <g id="text_10">
      <!-- 0.3 -->
      <g transform="translate(29.257813 263.717344) scale(0.1 -0.1)">
       <defs>
        <path id="DejaVuSans-33" d="M 2597 2516 
Q 3050 2419 3304 2112 
Q 3559 1806 3559 1356 
Q 3559 666 3084 287 
Q 2609 -91 1734 -91 
Q 1441 -91 1130 -33 
Q 819 25 488 141 
L 488 750 
Q 750 597 1062 519 
Q 1375 441 1716 441 
Q 2309 441 2620 675 
Q 2931 909 2931 1356 
Q 2931 1769 2642 2001 
Q 2353 2234 1838 2234 
L 1294 2234 
L 1294 2753 
L 1863 2753 
Q 2328 2753 2575 2939 
Q 2822 3125 2822 3475 
Q 2822 3834 2567 4026 
Q 2313 4219 1838 4219 
Q 1578 4219 1281 4162 
Q 984 4106 628 3988 
L 628 4550 
Q 988 4650 1302 4700 
Q 1616 4750 1894 4750 
Q 2613 4750 3031 4423 
Q 3450 4097 3450 3541 
Q 3450 3153 3228 2886 
Q 3006 2619 2597 2516 
z
" transform="scale(0.015625)"/>
       </defs>
       <use xlink:href="#DejaVuSans-30"/>
       <use xlink:href="#DejaVuSans-2e" transform="translate(63.623047 0)"/>
       <use xlink:href="#DejaVuSans-33" transform="translate(95.410156 0)"/>
      </g>
     </g>
    </g>
    <g id="ytick_6">
     <g id="line2d_11">
      <g>
       <use xlink:href="#m3950a2617e" x="52.160938" y="180.718125" style="stroke: #000000; stroke-width: 0.8"/>
      </g>
     </g>
     <g id="text_11">
      <!-- 0.4 -->
      <g transform="translate(29.257813 184.517344) scale(0.1 -0.1)">
       <use xlink:href="#DejaVuSans-30"/>
       <use xlink:href="#DejaVuSans-2e" transform="translate(63.623047 0)"/>
       <use xlink:href="#DejaVuSans-34" transform="translate(95.410156 0)"/>
      </g>
     </g>
    </g>
    <g id="ytick_7">
     <g id="line2d_12">
      <g>
       <use xlink:href="#m3950a2617e" x="52.160938" y="101.518125" style="stroke: #000000; stroke-width: 0.8"/>
      </g>
     </g>
     <g id="text_12">
      <!-- 0.5 -->
      <g transform="translate(29.257813 105.317344) scale(0.1 -0.1)">
       <defs>
        <path id="DejaVuSans-35" d="M 691 4666 
L 3169 4666 
L 3169 4134 
L 1269 4134 
L 1269 2991 
Q 1406 3038 1543 3061 
Q 1681 3084 1819 3084 
Q 2600 3084 3056 2656 
Q 3513 2228 3513 1497 
Q 3513 744 3044 326 
Q 2575 -91 1722 -91 
Q 1428 -91 1123 -41 
Q 819 9 494 109 
L 494 744 
Q 775 591 1075 516 
Q 1375 441 1709 441 
Q 2250 441 2565 725 
Q 2881 1009 2881 1497 
Q 2881 1984 2565 2268 
Q 2250 2553 1709 2553 
Q 1456 2553 1204 2497 
Q 953 2441 691 2322 
L 691 4666 
z
" transform="scale(0.015625)"/>
       </defs>
       <use xlink:href="#DejaVuSans-30"/>
       <use xlink:href="#DejaVuSans-2e" transform="translate(63.623047 0)"/>
       <use xlink:href="#DejaVuSans-35" transform="translate(95.410156 0)"/>
      </g>
     </g>
    </g>
    <g id="ytick_8">
     <g id="line2d_13">
      <g>
       <use xlink:href="#m3950a2617e" x="52.160938" y="22.318125" style="stroke: #000000; stroke-width: 0.8"/>
      </g>
     </g>
     <g id="text_13">
      <!-- 0.6 -->
      <g transform="translate(29.257813 26.117344) scale(0.1 -0.1)">
       <use xlink:href="#DejaVuSans-30"/>
       <use xlink:href="#DejaVuSans-2e" transform="translate(63.623047 0)"/>
       <use xlink:href="#DejaVuSans-36" transform="translate(95.410156 0)"/>
      </g>
     </g>
    </g>
    <g id="text_14">
     <!-- Value of PV [°C] -->
     <g transform="translate(14.798438 339.164219) rotate(-90) scale(0.1 -0.1)">
      <defs>
       <path id="DejaVuSans-56" d="M 1831 0 
L 50 4666 
L 709 4666 
L 2188 738 
L 3669 4666 
L 4325 4666 
L 2547 0 
L 1831 0 
z
" transform="scale(0.015625)"/>
       <path id="DejaVuSans-61" d="M 2194 1759 
Q 1497 1759 1228 1600 
Q 959 1441 959 1056 
Q 959 750 1161 570 
Q 1363 391 1709 391 
Q 2188 391 2477 730 
Q 2766 1069 2766 1631 
L 2766 1759 
L 2194 1759 
z
M 3341 1997 
L 3341 0 
L 2766 0 
L 2766 531 
Q 2569 213 2275 61 
Q 1981 -91 1556 -91 
Q 1019 -91 701 211 
Q 384 513 384 1019 
Q 384 1609 779 1909 
Q 1175 2209 1959 2209 
L 2766 2209 
L 2766 2266 
Q 2766 2663 2505 2880 
Q 2244 3097 1772 3097 
Q 1472 3097 1187 3025 
Q 903 2953 641 2809 
L 641 3341 
Q 956 3463 1253 3523 
Q 1550 3584 1831 3584 
Q 2591 3584 2966 3190 
Q 3341 2797 3341 1997 
z
" transform="scale(0.015625)"/>
       <path id="DejaVuSans-6c" d="M 603 4863 
L 1178 4863 
L 1178 0 
L 603 0 
L 603 4863 
z
" transform="scale(0.015625)"/>
       <path id="DejaVuSans-75" d="M 544 1381 
L 544 3500 
L 1119 3500 
L 1119 1403 
Q 1119 906 1312 657 
Q 1506 409 1894 409 
Q 2359 409 2629 706 
Q 2900 1003 2900 1516 
L 2900 3500 
L 3475 3500 
L 3475 0 
L 2900 0 
L 2900 538 
Q 2691 219 2414 64 
Q 2138 -91 1772 -91 
Q 1169 -91 856 284 
Q 544 659 544 1381 
z
M 1991 3584 
L 1991 3584 
z
" transform="scale(0.015625)"/>
       <path id="DejaVuSans-65" d="M 3597 1894 
L 3597 1613 
L 953 1613 
Q 991 1019 1311 708 
Q 1631 397 2203 397 
Q 2534 397 2845 478 
Q 3156 559 3463 722 
L 3463 178 
Q 3153 47 2828 -22 
Q 2503 -91 2169 -91 
Q 1331 -91 842 396 
Q 353 884 353 1716 
Q 353 2575 817 3079 
Q 1281 3584 2069 3584 
Q 2775 3584 3186 3129 
Q 3597 2675 3597 1894 
z
M 3022 2063 
Q 3016 2534 2758 2815 
Q 2500 3097 2075 3097 
Q 1594 3097 1305 2825 
Q 1016 2553 972 2059 
L 3022 2063 
z
" transform="scale(0.015625)"/>
       <path id="DejaVuSans-20" transform="scale(0.015625)"/>
       <path id="DejaVuSans-6f" d="M 1959 3097 
Q 1497 3097 1228 2736 
Q 959 2375 959 1747 
Q 959 1119 1226 758 
Q 1494 397 1959 397 
Q 2419 397 2687 759 
Q 2956 1122 2956 1747 
Q 2956 2369 2687 2733 
Q 2419 3097 1959 3097 
z
M 1959 3584 
Q 2709 3584 3137 3096 
Q 3566 2609 3566 1747 
Q 3566 888 3137 398 
Q 2709 -91 1959 -91 
Q 1206 -91 779 398 
Q 353 888 353 1747 
Q 353 2609 779 3096 
Q 1206 3584 1959 3584 
z
" transform="scale(0.015625)"/>
       <path id="DejaVuSans-66" d="M 2375 4863 
L 2375 4384 
L 1825 4384 
Q 1516 4384 1395 4259 
Q 1275 4134 1275 3809 
L 1275 3500 
L 2222 3500 
L 2222 3053 
L 1275 3053 
L 1275 0 
L 697 0 
L 697 3053 
L 147 3053 
L 147 3500 
L 697 3500 
L 697 3744 
Q 697 4328 969 4595 
Q 1241 4863 1831 4863 
L 2375 4863 
z
" transform="scale(0.015625)"/>
       <path id="DejaVuSans-50" d="M 1259 4147 
L 1259 2394 
L 2053 2394 
Q 2494 2394 2734 2622 
Q 2975 2850 2975 3272 
Q 2975 3691 2734 3919 
Q 2494 4147 2053 4147 
L 1259 4147 
z
M 628 4666 
L 2053 4666 
Q 2838 4666 3239 4311 
Q 3641 3956 3641 3272 
Q 3641 2581 3239 2228 
Q 2838 1875 2053 1875 
L 1259 1875 
L 1259 0 
L 628 0 
L 628 4666 
z
" transform="scale(0.015625)"/>
       <path id="DejaVuSans-5b" d="M 550 4863 
L 1875 4863 
L 1875 4416 
L 1125 4416 
L 1125 -397 
L 1875 -397 
L 1875 -844 
L 550 -844 
L 550 4863 
z
" transform="scale(0.015625)"/>
       <path id="DejaVuSans-b0" d="M 1600 4347 
Q 1350 4347 1178 4173 
Q 1006 4000 1006 3750 
Q 1006 3503 1178 3333 
Q 1350 3163 1600 3163 
Q 1850 3163 2022 3333 
Q 2194 3503 2194 3750 
Q 2194 3997 2020 4172 
Q 1847 4347 1600 4347 
z
M 1600 4750 
Q 1800 4750 1984 4673 
Q 2169 4597 2303 4453 
Q 2447 4313 2519 4134 
Q 2591 3956 2591 3750 
Q 2591 3338 2302 3052 
Q 2013 2766 1594 2766 
Q 1172 2766 890 3047 
Q 609 3328 609 3750 
Q 609 4169 896 4459 
Q 1184 4750 1600 4750 
z
" transform="scale(0.015625)"/>
       <path id="DejaVuSans-43" d="M 4122 4306 
L 4122 3641 
Q 3803 3938 3442 4084 
Q 3081 4231 2675 4231 
Q 1875 4231 1450 3742 
Q 1025 3253 1025 2328 
Q 1025 1406 1450 917 
Q 1875 428 2675 428 
Q 3081 428 3442 575 
Q 3803 722 4122 1019 
L 4122 359 
Q 3791 134 3420 21 
Q 3050 -91 2638 -91 
Q 1578 -91 968 557 
Q 359 1206 359 2328 
Q 359 3453 968 4101 
Q 1578 4750 2638 4750 
Q 3056 4750 3426 4639 
Q 3797 4528 4122 4306 
z
" transform="scale(0.015625)"/>
       <path id="DejaVuSans-5d" d="M 1947 4863 
L 1947 -844 
L 622 -844 
L 622 -397 
L 1369 -397 
L 1369 4416 
L 622 4416 
L 622 4863 
L 1947 4863 
z
" transform="scale(0.015625)"/>
      </defs>
      <use xlink:href="#DejaVuSans-56"/>
      <use xlink:href="#DejaVuSans-61" transform="translate(60.658203 0)"/>
      <use xlink:href="#DejaVuSans-6c" transform="translate(121.9375 0)"/>
      <use xlink:href="#DejaVuSans-75" transform="translate(149.720703 0)"/>
      <use xlink:href="#DejaVuSans-65" transform="translate(213.099609 0)"/>
      <use xlink:href="#DejaVuSans-20" transform="translate(274.623047 0)"/>
      <use xlink:href="#DejaVuSans-6f" transform="translate(306.410156 0)"/>
      <use xlink:href="#DejaVuSans-66" transform="translate(367.591797 0)"/>
      <use xlink:href="#DejaVuSans-20" transform="translate(402.796875 0)"/>
      <use xlink:href="#DejaVuSans-50" transform="translate(434.583984 0)"/>
      <use xlink:href="#DejaVuSans-56" transform="translate(494.886719 0)"/>
      <use xlink:href="#DejaVuSans-20" transform="translate(563.294922 0)"/>
      <use xlink:href="#DejaVuSans-5b" transform="translate(595.082031 0)"/>
      <use xlink:href="#DejaVuSans-b0" transform="translate(634.095703 0)"/>
      <use xlink:href="#DejaVuSans-43" transform="translate(684.095703 0)"/>
      <use xlink:href="#DejaVuSans-5d" transform="translate(753.919922 0)"/>
     </g>
    </g>
   </g>
   <g id="line2d_14">
    <path d="M 52.160938 497.518125 
L 53.888492 497.518125 
L 53.888492 495.597525 
L 54.752269 495.597525 
L 54.752269 494.963925 
L 55.616046 494.963925 
L 55.616046 494.330325 
L 56.479823 494.330325 
L 56.479823 496.231125 
L 57.3436 496.231125 
L 57.3436 494.963925 
L 59.071154 494.963925 
L 59.071154 496.884525 
L 59.934931 496.884525 
L 59.934931 495.597525 
L 60.798708 495.597525 
L 60.798708 493.676925 
L 61.662485 493.676925 
L 61.662485 491.122725 
L 64.253817 491.122725 
L 64.253817 490.489125 
L 65.117594 490.489125 
L 65.117594 488.588325 
L 65.981371 488.588325 
L 65.981371 485.380725 
L 66.845148 485.380725 
L 66.845148 487.301325 
L 67.708925 487.301325 
L 67.708925 488.588325 
L 68.572702 488.588325 
L 68.572702 489.855525 
L 69.436479 489.855525 
L 69.436479 486.667725 
L 70.300256 486.667725 
L 70.300256 491.122725 
L 72.027811 491.122725 
L 72.027811 489.221925 
L 72.891588 489.221925 
L 72.891588 487.934925 
L 73.755365 487.934925 
L 73.755365 487.301325 
L 74.619142 487.301325 
L 74.619142 486.034125 
L 75.482919 486.034125 
L 75.482919 484.747125 
L 79.801804 484.747125 
L 79.801804 482.192925 
L 81.529359 482.192925 
L 81.529359 483.479925 
L 82.393136 483.479925 
L 82.393136 479.638725 
L 83.256913 479.638725 
L 83.256913 479.005125 
L 84.12069 479.005125 
L 84.12069 478.371525 
L 87.575798 478.371525 
L 87.575798 477.737925 
L 88.439575 477.737925 
L 88.439575 476.450925 
L 89.303352 476.450925 
L 89.303352 474.550125 
L 90.167129 474.550125 
L 90.167129 472.629525 
L 91.030907 472.629525 
L 91.030907 471.995925 
L 94.486015 471.995925 
L 94.486015 470.708925 
L 95.349792 470.708925 
L 95.349792 468.154725 
L 96.213569 468.154725 
L 96.213569 466.253925 
L 97.941123 466.253925 
L 97.941123 465.600525 
L 99.668677 465.600525 
L 99.668677 463.066125 
L 100.532455 463.066125 
L 100.532455 459.224925 
L 103.123786 459.224925 
L 103.123786 456.670725 
L 104.85134 456.670725 
L 104.85134 454.116525 
L 105.715117 454.116525 
L 105.715117 453.482925 
L 106.578894 453.482925 
L 106.578894 452.849325 
L 108.306448 452.849325 
L 108.306448 451.562325 
L 109.170225 451.562325 
L 109.170225 448.374525 
L 110.034003 448.374525 
L 110.034003 447.740925 
L 110.89778 447.740925 
L 110.89778 446.473725 
L 115.216665 446.473725 
L 115.216665 445.820325 
L 116.080442 445.820325 
L 116.080442 443.919525 
L 116.944219 443.919525 
L 116.944219 440.731725 
L 117.807996 440.731725 
L 117.807996 441.365325 
L 118.671773 441.365325 
L 118.671773 440.078325 
L 121.263105 440.078325 
L 121.263105 439.444725 
L 122.126882 439.444725 
L 122.126882 436.256925 
L 122.990659 436.256925 
L 122.990659 435.623325 
L 123.854436 435.623325 
L 123.854436 434.336325 
L 124.718213 434.336325 
L 124.718213 433.702725 
L 125.58199 433.702725 
L 125.58199 433.069125 
L 126.445767 433.069125 
L 126.445767 431.148525 
L 127.309544 431.148525 
L 127.309544 429.247725 
L 128.173321 429.247725 
L 128.173321 427.327125 
L 129.900876 427.327125 
L 129.900876 426.040125 
L 130.764653 426.040125 
L 130.764653 424.139325 
L 131.62843 424.139325 
L 131.62843 420.951525 
L 134.219761 420.951525 
L 134.219761 420.298125 
L 135.083538 420.298125 
L 135.083538 420.951525 
L 135.947315 420.951525 
L 135.947315 418.397325 
L 136.811092 418.397325 
L 136.811092 417.110325 
L 137.674869 417.110325 
L 137.674869 414.556125 
L 140.266201 414.556125 
L 140.266201 411.368325 
L 141.129978 411.368325 
L 141.129978 409.447725 
L 141.993755 409.447725 
L 141.993755 408.180525 
L 143.721309 408.180525 
L 143.721309 407.546925 
L 144.585086 407.546925 
L 144.585086 403.072125 
L 145.448863 403.072125 
L 145.448863 401.804925 
L 147.176417 401.804925 
L 147.176417 399.884325 
L 148.040194 399.884325 
L 148.040194 396.062925 
L 148.903972 396.062925 
L 148.903972 395.429325 
L 151.495303 395.429325 
L 151.495303 394.775925 
L 152.35908 394.775925 
L 152.35908 389.033925 
L 156.677965 389.033925 
L 156.677965 388.400325 
L 157.541742 388.400325 
L 157.541742 385.212525 
L 158.40552 385.212525 
L 158.40552 383.291925 
L 159.269297 383.291925 
L 159.269297 382.658325 
L 160.133074 382.658325 
L 160.133074 382.024725 
L 160.996851 382.024725 
L 160.996851 379.470525 
L 161.860628 379.470525 
L 161.860628 376.916325 
L 162.724405 376.916325 
L 162.724405 377.549925 
L 163.588182 377.549925 
L 163.588182 376.282725 
L 167.04329 376.282725 
L 167.04329 375.629325 
L 167.907068 375.629325 
L 167.907068 370.540725 
L 168.770845 370.540725 
L 168.770845 369.887325 
L 171.362176 369.887325 
L 171.362176 369.253725 
L 172.225953 369.253725 
L 172.225953 365.432325 
L 173.08973 365.432325 
L 173.08973 366.065925 
L 173.953507 366.065925 
L 173.953507 364.145325 
L 174.817284 364.145325 
L 174.817284 363.511725 
L 176.544838 363.511725 
L 176.544838 362.878125 
L 178.272393 362.878125 
L 178.272393 359.056725 
L 179.13617 359.056725 
L 179.13617 357.769725 
L 179.999947 357.769725 
L 179.999947 357.136125 
L 181.727501 357.136125 
L 181.727501 355.215525 
L 182.591278 355.215525 
L 182.591278 354.581925 
L 183.455055 354.581925 
L 183.455055 352.027725 
L 184.318832 352.027725 
L 184.318832 350.760525 
L 186.910164 350.760525 
L 186.910164 348.839925 
L 187.773941 348.839925 
L 187.773941 346.285725 
L 188.637718 346.285725 
L 188.637718 344.365125 
L 192.092826 344.365125 
L 192.092826 341.810925 
L 192.956603 341.810925 
L 192.956603 337.989525 
L 196.411711 337.989525 
L 196.411711 337.355925 
L 197.275489 337.355925 
L 197.275489 332.881125 
L 198.139266 332.881125 
L 198.139266 331.613925 
L 203.321928 331.613925 
L 203.321928 330.980325 
L 205.049482 330.980325 
L 205.049482 329.059725 
L 205.913259 329.059725 
L 205.913259 326.505525 
L 206.777037 326.505525 
L 206.777037 325.238325 
L 210.232145 325.238325 
L 210.232145 324.584925 
L 211.095922 324.584925 
L 211.095922 322.684125 
L 211.959699 322.684125 
L 211.959699 320.129925 
L 212.823476 320.129925 
L 212.823476 319.496325 
L 214.55103 319.496325 
L 214.55103 318.842925 
L 218.869916 318.842925 
L 218.869916 316.942125 
L 219.733693 316.942125 
L 219.733693 313.754325 
L 220.59747 313.754325 
L 220.59747 312.467325 
L 224.052578 312.467325 
L 224.052578 310.546725 
L 224.916355 310.546725 
L 224.916355 306.725325 
L 226.64391 306.725325 
L 226.64391 306.091725 
L 228.371464 306.091725 
L 228.371464 305.458125 
L 229.235241 305.458125 
L 229.235241 306.091725 
L 230.099018 306.091725 
L 230.099018 304.804725 
L 230.962795 304.804725 
L 230.962795 302.250525 
L 231.826572 302.250525 
L 231.826572 299.716125 
L 235.281681 299.716125 
L 235.281681 299.062725 
L 237.009235 299.062725 
L 237.009235 295.874925 
L 237.873012 295.874925 
L 237.873012 295.241325 
L 238.736789 295.241325 
L 238.736789 293.320725 
L 239.600566 293.320725 
L 239.600566 293.954325 
L 240.464343 293.954325 
L 240.464343 293.320725 
L 241.32812 293.320725 
L 241.32812 292.687125 
L 242.191897 292.687125 
L 242.191897 292.053525 
L 243.055674 292.053525 
L 243.055674 290.132925 
L 243.919451 290.132925 
L 243.919451 286.945125 
L 249.965891 286.945125 
L 249.965891 281.836725 
L 250.829668 281.836725 
L 250.829668 280.569525 
L 256.876108 280.569525 
L 256.876108 279.935925 
L 258.603662 279.935925 
L 258.603662 278.015325 
L 259.467439 278.015325 
L 259.467439 275.461125 
L 261.194993 275.461125 
L 261.194993 274.174125 
L 266.377656 274.174125 
L 266.377656 273.540525 
L 268.10521 273.540525 
L 268.10521 272.273325 
L 268.968987 272.273325 
L 268.968987 272.906925 
L 269.832764 272.906925 
L 269.832764 267.798525 
L 275.015427 267.798525 
L 275.015427 266.531325 
L 275.879204 266.531325 
L 275.879204 265.244325 
L 276.742981 265.244325 
L 276.742981 263.977125 
L 277.606758 263.977125 
L 277.606758 264.610725 
L 278.470535 264.610725 
L 278.470535 263.343525 
L 279.334312 263.343525 
L 279.334312 261.422925 
L 284.516975 261.422925 
L 284.516975 260.789325 
L 285.380752 260.789325 
L 285.380752 259.502325 
L 286.244529 259.502325 
L 286.244529 258.868725 
L 287.108306 258.868725 
L 287.108306 258.235125 
L 288.83586 258.235125 
L 288.83586 256.314525 
L 289.699637 256.314525 
L 289.699637 258.235125 
L 290.563414 258.235125 
L 290.563414 258.868725 
L 291.427191 258.868725 
L 291.427191 258.235125 
L 292.290968 258.235125 
L 292.290968 256.314525 
L 293.154746 256.314525 
L 293.154746 255.047325 
L 294.018523 255.047325 
L 294.018523 255.680925 
L 294.8823 255.680925 
L 294.8823 255.047325 
L 300.928739 255.047325 
L 300.928739 254.393925 
L 302.656294 254.393925 
L 302.656294 255.047325 
L 304.383848 255.047325 
L 304.383848 253.760325 
L 305.247625 253.760325 
L 305.247625 253.126725 
L 306.111402 253.126725 
L 306.111402 249.305325 
L 306.975179 249.305325 
L 306.975179 248.651925 
L 308.702733 248.651925 
L 308.702733 249.305325 
L 309.56651 249.305325 
L 309.56651 248.651925 
L 315.61295 248.651925 
L 315.61295 249.305325 
L 316.476727 249.305325 
L 316.476727 248.651925 
L 325.114498 248.651925 
L 325.114498 246.751125 
L 325.978275 246.751125 
L 325.978275 247.384725 
L 326.842052 247.384725 
L 326.842052 248.651925 
L 328.569606 248.651925 
L 328.569606 248.018325 
L 330.29716 248.018325 
L 330.29716 248.651925 
L 332.024715 248.651925 
L 332.024715 246.751125 
L 332.888492 246.751125 
L 332.888492 246.097725 
L 333.752269 246.097725 
L 333.752269 246.751125 
L 334.616046 246.751125 
L 334.616046 245.464125 
L 335.479823 245.464125 
L 335.479823 246.097725 
L 336.3436 246.097725 
L 336.3436 244.196925 
L 337.207377 244.196925 
L 337.207377 244.830525 
L 338.071154 244.830525 
L 338.071154 242.909925 
L 338.934931 242.909925 
L 338.934931 244.830525 
L 339.798708 244.830525 
L 339.798708 242.909925 
L 340.662485 242.909925 
L 340.662485 243.563325 
L 341.526263 243.563325 
L 341.526263 242.909925 
L 342.39004 242.909925 
L 342.39004 242.276325 
L 351.891588 242.276325 
L 351.891588 241.009125 
L 352.755365 241.009125 
L 352.755365 241.642725 
L 354.482919 241.642725 
L 354.482919 242.276325 
L 355.346696 242.276325 
L 355.346696 241.642725 
L 356.210473 241.642725 
L 356.210473 239.722125 
L 357.07425 239.722125 
L 357.07425 237.167925 
L 357.938027 237.167925 
L 357.938027 237.821325 
L 358.801804 237.821325 
L 358.801804 237.167925 
L 359.665581 237.167925 
L 359.665581 236.534325 
L 360.529359 236.534325 
L 360.529359 235.900725 
L 376.077346 235.900725 
L 376.077346 235.267125 
L 376.941123 235.267125 
L 376.941123 230.792325 
L 377.8049 230.792325 
L 377.8049 230.158725 
L 379.532455 230.158725 
L 379.532455 229.525125 
L 399.399328 229.525125 
L 399.399328 228.871725 
L 400.263105 228.871725 
L 400.263105 228.238125 
L 401.126882 228.238125 
L 401.126882 229.525125 
L 401.990659 229.525125 
L 401.990659 228.871725 
L 402.854436 228.871725 
L 402.854436 229.525125 
L 403.718213 229.525125 
L 403.718213 226.970925 
L 405.445767 226.970925 
L 405.445767 224.416725 
L 406.309544 224.416725 
L 406.309544 223.783125 
L 407.173321 223.783125 
L 407.173321 223.129725 
L 408.900876 223.129725 
L 408.900876 223.783125 
L 409.764653 223.783125 
L 409.764653 223.129725 
L 412.355984 223.129725 
L 412.355984 222.496125 
L 413.219761 222.496125 
L 413.219761 223.129725 
L 414.083538 223.129725 
L 414.083538 222.496125 
L 414.947315 222.496125 
L 414.947315 223.129725 
L 415.811092 223.129725 
L 415.811092 221.862525 
L 416.674869 221.862525 
L 416.674869 218.041125 
L 417.538646 218.041125 
L 417.538646 219.941925 
L 418.402424 219.941925 
L 418.402424 218.674725 
L 419.266201 218.674725 
L 419.266201 218.041125 
L 420.993755 218.041125 
L 420.993755 216.754125 
L 427.040194 216.754125 
L 427.040194 216.120525 
L 427.903972 216.120525 
L 427.903972 214.199925 
L 428.767749 214.199925 
L 428.767749 216.754125 
L 429.631526 216.754125 
L 429.631526 215.486925 
L 431.35908 215.486925 
L 431.35908 214.199925 
L 432.222857 214.199925 
L 432.222857 216.120525 
L 433.950411 216.120525 
L 433.950411 215.486925 
L 434.814188 215.486925 
L 434.814188 214.199925 
L 435.677965 214.199925 
L 435.677965 216.120525 
L 436.541742 216.120525 
L 436.541742 211.645725 
L 437.40552 211.645725 
L 437.40552 214.199925 
L 438.269297 214.199925 
L 438.269297 212.932725 
L 439.133074 212.932725 
L 439.133074 212.279325 
L 439.996851 212.279325 
L 439.996851 210.378525 
L 440.860628 210.378525 
L 440.860628 211.645725 
L 441.724405 211.645725 
L 441.724405 211.012125 
L 442.588182 211.012125 
L 442.588182 211.645725 
L 444.315736 211.645725 
L 444.315736 210.378525 
L 454.681061 210.378525 
L 454.681061 209.091525 
L 456.408616 209.091525 
L 456.408616 209.744925 
L 457.272393 209.744925 
L 457.272393 209.091525 
L 458.13617 209.091525 
L 458.13617 209.744925 
L 458.999947 209.744925 
L 458.999947 209.091525 
L 460.727501 209.091525 
L 460.727501 208.457925 
L 462.455055 208.457925 
L 462.455055 207.190725 
L 463.318832 207.190725 
L 463.318832 209.091525 
L 464.182609 209.091525 
L 464.182609 206.537325 
L 465.046386 206.537325 
L 465.046386 209.091525 
L 465.910164 209.091525 
L 465.910164 210.378525 
L 466.773941 210.378525 
L 466.773941 209.744925 
L 469.365272 209.744925 
L 469.365272 210.378525 
L 470.229049 210.378525 
L 470.229049 209.744925 
L 471.092826 209.744925 
L 471.092826 210.378525 
L 471.956603 210.378525 
L 471.956603 208.457925 
L 473.684157 208.457925 
L 473.684157 207.190725 
L 474.547934 207.190725 
L 474.547934 209.091525 
L 476.275489 209.091525 
L 476.275489 205.903725 
L 478.003043 205.903725 
L 478.003043 204.002925 
L 479.730597 204.002925 
L 479.730597 204.636525 
L 480.594374 204.636525 
L 480.594374 204.002925 
L 484.049482 204.002925 
L 484.049482 204.636525 
L 484.913259 204.636525 
L 484.913259 204.002925 
L 485.777037 204.002925 
L 485.777037 204.636525 
L 486.640814 204.636525 
L 486.640814 204.002925 
L 487.504591 204.002925 
L 487.504591 204.636525 
L 489.232145 204.636525 
L 489.232145 204.002925 
L 490.095922 204.002925 
L 490.095922 204.636525 
L 490.959699 204.636525 
L 490.959699 204.002925 
L 501.325024 204.002925 
L 501.325024 204.636525 
L 502.188801 204.636525 
L 502.188801 204.002925 
L 505.64391 204.002925 
L 505.64391 204.636525 
L 506.507687 204.636525 
L 506.507687 204.002925 
L 510.826572 204.002925 
L 510.826572 204.636525 
L 511.690349 204.636525 
L 511.690349 204.002925 
L 524.647006 204.002925 
L 524.647006 203.349525 
L 525.510783 203.349525 
L 525.510783 204.002925 
L 526.37456 204.002925 
L 526.37456 202.082325 
L 527.238337 202.082325 
L 527.238337 203.349525 
L 528.102114 203.349525 
L 528.102114 199.528125 
L 528.965891 199.528125 
L 528.965891 198.894525 
L 529.829668 198.894525 
L 529.829668 201.448725 
L 530.693445 201.448725 
L 530.693445 200.795325 
L 532.420999 200.795325 
L 532.420999 201.448725 
L 533.284777 201.448725 
L 533.284777 200.161725 
L 534.148554 200.161725 
L 534.148554 198.894525 
L 535.012331 198.894525 
L 535.012331 199.528125 
L 535.876108 199.528125 
L 535.876108 198.260925 
L 536.739885 198.260925 
L 536.739885 197.607525 
L 537.603662 197.607525 
L 537.603662 198.260925 
L 538.467439 198.260925 
L 538.467439 197.607525 
L 550.560318 197.607525 
L 550.560318 198.260925 
L 552.287872 198.260925 
L 552.287872 197.607525 
L 554.879204 197.607525 
L 554.879204 198.260925 
L 555.742981 198.260925 
L 555.742981 198.894525 
L 556.606758 198.894525 
L 556.606758 200.161725 
L 557.470535 200.161725 
L 557.470535 197.607525 
L 558.334312 197.607525 
L 558.334312 200.795325 
L 559.198089 200.795325 
L 559.198089 198.260925 
L 561.78942 198.260925 
L 561.78942 199.528125 
L 562.653198 199.528125 
L 562.653198 197.607525 
L 564.380752 197.607525 
L 564.380752 198.260925 
L 565.244529 198.260925 
L 565.244529 197.607525 
L 570.427191 197.607525 
L 570.427191 198.260925 
L 571.290968 198.260925 
L 571.290968 197.607525 
L 580.792516 197.607525 
L 580.792516 196.973925 
L 581.656294 196.973925 
L 581.656294 196.340325 
L 583.383848 196.340325 
L 583.383848 197.607525 
L 584.247625 197.607525 
L 584.247625 196.973925 
L 585.975179 196.973925 
L 585.975179 197.607525 
L 590.294064 197.607525 
L 590.294064 196.973925 
L 591.157842 196.973925 
L 591.157842 197.607525 
L 592.021619 197.607525 
L 592.021619 195.053325 
L 592.885396 195.053325 
L 592.885396 196.340325 
L 594.61295 196.340325 
L 594.61295 197.607525 
L 597.204281 197.607525 
L 597.204281 196.973925 
L 598.068058 196.973925 
L 598.068058 197.607525 
L 599.795612 197.607525 
L 599.795612 196.973925 
L 600.65939 196.973925 
L 600.65939 196.340325 
L 602.386944 196.340325 
L 602.386944 195.706725 
L 603.250721 195.706725 
L 603.250721 194.419725 
L 604.114498 194.419725 
L 604.114498 195.706725 
L 604.978275 195.706725 
L 604.978275 196.340325 
L 605.842052 196.340325 
L 605.842052 195.053325 
L 606.705829 195.053325 
L 606.705829 193.152525 
L 607.569606 193.152525 
L 607.569606 191.865525 
L 608.433383 191.865525 
L 608.433383 192.499125 
L 609.29716 192.499125 
L 609.29716 191.231925 
L 623.117594 191.231925 
L 623.117594 190.598325 
L 623.981371 190.598325 
L 623.981371 191.231925 
L 624.845148 191.231925 
L 624.845148 190.598325 
L 625.708925 190.598325 
L 625.708925 191.231925 
L 626.572702 191.231925 
L 626.572702 188.677725 
L 627.436479 188.677725 
L 627.436479 190.598325 
L 628.300256 190.598325 
L 628.300256 189.964725 
L 629.164033 189.964725 
L 629.164033 188.677725 
L 630.027811 188.677725 
L 630.027811 188.044125 
L 630.891588 188.044125 
L 630.891588 188.677725 
L 632.619142 188.677725 
L 632.619142 187.410525 
L 633.482919 187.410525 
L 633.482919 189.311325 
L 635.210473 189.311325 
L 635.210473 191.231925 
L 636.07425 191.231925 
L 636.07425 189.964725 
L 636.938027 189.964725 
L 636.938027 190.598325 
L 639.529359 190.598325 
L 639.529359 189.964725 
L 641.256913 189.964725 
L 641.256913 191.231925 
L 642.12069 191.231925 
L 642.12069 189.964725 
L 642.984467 189.964725 
L 642.984467 190.598325 
L 643.848244 190.598325 
L 643.848244 188.044125 
L 644.712021 188.044125 
L 644.712021 188.677725 
L 646.439575 188.677725 
L 646.439575 191.231925 
L 649.030907 191.231925 
L 649.030907 190.598325 
L 649.894684 190.598325 
L 649.894684 189.964725 
L 651.622238 189.964725 
L 651.622238 191.231925 
L 653.349792 191.231925 
L 653.349792 189.964725 
L 654.213569 189.964725 
L 654.213569 191.231925 
L 662.85134 191.231925 
L 662.85134 191.865525 
L 663.715117 191.865525 
L 663.715117 192.499125 
L 664.578894 192.499125 
L 664.578894 191.231925 
L 665.442671 191.231925 
L 665.442671 191.865525 
L 666.306448 191.865525 
L 666.306448 192.499125 
L 667.170225 192.499125 
L 667.170225 191.231925 
L 668.034003 191.231925 
L 668.034003 193.786125 
L 668.89778 193.786125 
L 668.89778 193.152525 
L 669.761557 193.152525 
L 669.761557 196.340325 
L 670.625334 196.340325 
L 670.625334 192.499125 
L 671.489111 192.499125 
L 671.489111 193.152525 
L 672.352888 193.152525 
L 672.352888 193.786125 
L 673.216665 193.786125 
L 673.216665 191.231925 
L 674.080442 191.231925 
L 674.080442 195.053325 
L 674.944219 195.053325 
L 674.944219 192.499125 
L 676.671773 192.499125 
L 676.671773 191.231925 
L 677.535551 191.231925 
L 677.535551 191.865525 
L 678.399328 191.865525 
L 678.399328 191.231925 
L 680.126882 191.231925 
L 680.126882 192.499125 
L 681.854436 192.499125 
L 681.854436 191.865525 
L 682.718213 191.865525 
L 682.718213 195.053325 
L 683.58199 195.053325 
L 683.58199 191.231925 
L 685.309544 191.231925 
L 685.309544 193.152525 
L 686.173321 193.152525 
L 686.173321 195.706725 
L 687.037098 195.706725 
L 687.037098 196.340325 
L 687.900876 196.340325 
L 687.900876 194.419725 
L 688.764653 194.419725 
L 688.764653 191.865525 
L 689.62843 191.865525 
L 689.62843 192.499125 
L 692.219761 192.499125 
L 692.219761 193.786125 
L 693.083538 193.786125 
L 693.083538 195.053325 
L 693.947315 195.053325 
L 693.947315 191.865525 
L 694.811092 191.865525 
L 694.811092 192.499125 
L 695.674869 192.499125 
L 695.674869 193.786125 
L 696.538646 193.786125 
L 696.538646 194.419725 
L 697.402424 194.419725 
L 697.402424 196.340325 
L 698.266201 196.340325 
L 698.266201 194.419725 
L 699.129978 194.419725 
L 699.129978 192.499125 
L 699.993755 192.499125 
L 699.993755 191.865525 
L 700.857532 191.865525 
L 700.857532 194.419725 
L 703.448863 194.419725 
L 703.448863 193.786125 
L 704.31264 193.786125 
L 704.31264 191.865525 
L 705.176417 191.865525 
L 705.176417 193.152525 
L 706.040194 193.152525 
L 706.040194 195.053325 
L 706.903972 195.053325 
L 706.903972 193.152525 
L 707.767749 193.152525 
L 707.767749 195.053325 
L 708.631526 195.053325 
L 708.631526 196.340325 
L 709.495303 196.340325 
L 709.495303 195.053325 
L 710.35908 195.053325 
L 710.35908 195.706725 
L 711.222857 195.706725 
L 711.222857 193.152525 
L 712.086634 193.152525 
L 712.086634 197.607525 
L 712.950411 197.607525 
L 712.950411 196.973925 
L 713.814188 196.973925 
L 713.814188 195.706725 
L 714.677965 195.706725 
L 714.677965 196.340325 
L 715.541742 196.340325 
L 715.541742 195.706725 
L 717.269297 195.706725 
L 717.269297 197.607525 
L 718.996851 197.607525 
L 718.996851 196.973925 
L 719.860628 196.973925 
L 719.860628 197.607525 
L 720.724405 197.607525 
L 720.724405 195.706725 
L 721.588182 195.706725 
L 721.588182 193.786125 
L 722.451959 193.786125 
L 722.451959 195.706725 
L 723.315736 195.706725 
L 723.315736 194.419725 
L 724.179513 194.419725 
L 724.179513 196.973925 
L 725.907068 196.973925 
L 725.907068 197.607525 
L 726.770845 197.607525 
L 726.770845 196.340325 
L 728.498399 196.340325 
L 728.498399 193.786125 
L 729.362176 193.786125 
L 729.362176 196.973925 
L 730.225953 196.973925 
L 730.225953 197.607525 
L 731.953507 197.607525 
L 731.953507 196.973925 
L 732.817284 196.973925 
L 732.817284 197.607525 
L 735.408616 197.607525 
L 735.408616 196.973925 
L 736.272393 196.973925 
L 736.272393 197.607525 
L 737.999947 197.607525 
L 737.999947 196.340325 
L 738.863724 196.340325 
L 738.863724 194.419725 
L 739.727501 194.419725 
L 739.727501 195.706725 
L 740.591278 195.706725 
L 740.591278 195.053325 
L 741.455055 195.053325 
L 741.455055 194.419725 
L 744.046386 194.419725 
L 744.046386 195.053325 
L 744.910164 195.053325 
L 744.910164 196.973925 
L 745.773941 196.973925 
L 745.773941 195.706725 
L 746.637718 195.706725 
L 746.637718 197.607525 
L 747.501495 197.607525 
L 747.501495 196.340325 
L 749.229049 196.340325 
L 749.229049 193.786125 
L 750.092826 193.786125 
L 750.092826 191.231925 
L 750.956603 191.231925 
L 750.956603 191.865525 
L 751.82038 191.865525 
L 751.82038 191.231925 
L 758.730597 191.231925 
L 758.730597 190.598325 
L 760.458151 190.598325 
L 760.458151 188.044125 
L 761.321928 188.044125 
L 761.321928 187.410525 
L 763.049482 187.410525 
L 763.049482 186.757125 
L 763.913259 186.757125 
L 763.913259 188.044125 
L 765.640814 188.044125 
L 765.640814 186.757125 
L 766.504591 186.757125 
L 766.504591 185.489925 
L 767.368368 185.489925 
L 767.368368 184.856325 
L 780.325024 184.856325 
L 780.325024 182.935725 
L 781.188801 182.935725 
L 781.188801 184.222725 
L 782.052578 184.222725 
L 782.052578 184.856325 
L 784.64391 184.856325 
L 784.64391 186.123525 
L 785.507687 186.123525 
L 785.507687 185.489925 
L 786.371464 185.489925 
L 786.371464 184.856325 
L 788.099018 184.856325 
L 788.099018 187.410525 
L 788.962795 187.410525 
L 788.962795 189.964725 
L 789.826572 189.964725 
L 789.826572 190.598325 
L 790.690349 190.598325 
L 790.690349 191.231925 
L 792.417903 191.231925 
L 792.417903 196.340325 
L 793.281681 196.340325 
L 793.281681 197.607525 
L 794.145458 197.607525 
L 794.145458 196.973925 
L 795.009235 196.973925 
L 795.009235 197.607525 
L 795.873012 197.607525 
L 795.873012 196.973925 
L 797.600566 196.973925 
L 797.600566 196.340325 
L 799.32812 196.340325 
L 799.32812 193.786125 
L 800.191897 193.786125 
L 800.191897 191.865525 
L 801.055674 191.865525 
L 801.055674 191.231925 
L 807.965891 191.231925 
L 807.965891 190.598325 
L 808.829668 190.598325 
L 808.829668 189.964725 
L 809.693445 189.964725 
L 809.693445 188.677725 
L 810.557222 188.677725 
L 810.557222 189.311325 
L 811.420999 189.311325 
L 811.420999 188.677725 
L 813.148554 188.677725 
L 813.148554 189.311325 
L 814.012331 189.311325 
L 814.012331 191.231925 
L 815.739885 191.231925 
L 815.739885 189.964725 
L 816.603662 189.964725 
L 816.603662 190.598325 
L 817.467439 190.598325 
L 817.467439 188.677725 
L 818.331216 188.677725 
L 818.331216 185.489925 
L 819.194993 185.489925 
L 819.194993 184.856325 
L 821.786324 184.856325 
L 821.786324 186.123525 
L 822.650102 186.123525 
L 822.650102 184.856325 
L 823.513879 184.856325 
L 823.513879 185.489925 
L 824.377656 185.489925 
L 824.377656 186.757125 
L 825.241433 186.757125 
L 825.241433 186.123525 
L 826.968987 186.123525 
L 826.968987 185.489925 
L 827.832764 185.489925 
L 827.832764 189.964725 
L 828.696541 189.964725 
L 828.696541 189.311325 
L 829.560318 189.311325 
L 829.560318 188.677725 
L 830.424095 188.677725 
L 830.424095 185.489925 
L 831.287872 185.489925 
L 831.287872 186.757125 
L 832.15165 186.757125 
L 832.15165 188.677725 
L 833.015427 188.677725 
L 833.015427 186.123525 
L 833.879204 186.123525 
L 833.879204 184.856325 
L 834.742981 184.856325 
L 834.742981 186.757125 
L 835.606758 186.757125 
L 835.606758 184.856325 
L 836.470535 184.856325 
L 836.470535 186.123525 
L 837.334312 186.123525 
L 837.334312 185.489925 
L 839.061866 185.489925 
L 839.061866 184.856325 
L 841.653198 184.856325 
L 841.653198 185.489925 
L 842.516975 185.489925 
L 842.516975 184.856325 
L 849.427191 184.856325 
L 849.427191 182.935725 
L 850.290968 182.935725 
L 850.290968 184.856325 
L 851.154746 184.856325 
L 851.154746 182.935725 
L 852.018523 182.935725 
L 852.018523 180.381525 
L 852.8823 180.381525 
L 852.8823 179.114325 
L 853.746077 179.114325 
L 853.746077 181.668525 
L 854.609854 181.668525 
L 854.609854 180.381525 
L 855.473631 180.381525 
L 855.473631 179.747925 
L 856.337408 179.747925 
L 856.337408 179.114325 
L 857.201185 179.114325 
L 857.201185 178.460925 
L 864.975179 178.460925 
L 864.975179 177.827325 
L 865.838956 177.827325 
L 865.838956 178.460925 
L 866.702733 178.460925 
L 866.702733 175.273125 
L 868.430287 175.273125 
L 868.430287 173.372325 
L 869.294064 173.372325 
L 869.294064 174.005925 
L 870.157842 174.005925 
L 870.157842 173.372325 
L 871.021619 173.372325 
L 871.021619 175.273125 
L 871.885396 175.273125 
L 871.885396 172.718925 
L 872.749173 172.718925 
L 872.749173 173.372325 
L 875.340504 173.372325 
L 875.340504 174.639525 
L 876.204281 174.639525 
L 876.204281 172.718925 
L 877.068058 172.718925 
L 877.068058 172.085325 
L 888.29716 172.085325 
L 888.29716 172.085325 
" clip-path="url(#pc684966813)" style="fill: none; stroke: #008000; stroke-width: 2; stroke-linecap: square"/>
   </g>
   <g id="line2d_15">
    <path d="M 52.160938 497.518125 
L 86.712021 497.518125 
L 86.712021 495.732122 
L 87.575798 495.732122 
L 87.575798 493.9563 
L 88.439575 493.9563 
L 88.439575 492.190601 
L 89.303352 492.190601 
L 89.303352 490.434965 
L 90.167129 490.434965 
L 90.167129 488.689337 
L 91.030907 488.689337 
L 91.030907 486.95366 
L 91.894684 486.95366 
L 91.894684 485.227876 
L 92.758461 485.227876 
L 92.758461 483.511929 
L 93.622238 483.511929 
L 93.622238 481.805763 
L 94.486015 481.805763 
L 94.486015 480.109322 
L 95.349792 480.109322 
L 95.349792 478.422551 
L 96.213569 478.422551 
L 96.213569 476.745395 
L 97.077346 476.745395 
L 97.077346 475.077799 
L 97.941123 475.077799 
L 97.941123 473.419708 
L 98.8049 473.419708 
L 98.8049 471.771069 
L 99.668677 471.771069 
L 99.668677 470.131827 
L 100.532455 470.131827 
L 100.532455 468.501929 
L 101.396232 468.501929 
L 101.396232 466.881321 
L 102.260009 466.881321 
L 102.260009 465.269951 
L 103.123786 465.269951 
L 103.123786 463.667766 
L 103.987563 463.667766 
L 103.987563 462.074714 
L 104.85134 462.074714 
L 104.85134 460.490742 
L 105.715117 460.490742 
L 105.715117 458.915799 
L 106.578894 458.915799 
L 106.578894 457.349833 
L 107.442671 457.349833 
L 107.442671 455.792793 
L 108.306448 455.792793 
L 108.306448 454.244629 
L 109.170225 454.244629 
L 109.170225 452.705289 
L 110.034003 452.705289 
L 110.034003 451.174724 
L 110.89778 451.174724 
L 110.89778 449.652883 
L 111.761557 449.652883 
L 111.761557 448.139716 
L 112.625334 448.139716 
L 112.625334 446.635175 
L 113.489111 446.635175 
L 113.489111 445.13921 
L 114.352888 445.13921 
L 114.352888 443.651772 
L 115.216665 443.651772 
L 115.216665 442.172813 
L 116.080442 442.172813 
L 116.080442 440.702283 
L 116.944219 440.702283 
L 116.944219 439.240136 
L 117.807996 439.240136 
L 117.807996 437.786323 
L 118.671773 437.786323 
L 118.671773 436.340797 
L 119.535551 436.340797 
L 119.535551 434.903511 
L 120.399328 434.903511 
L 120.399328 433.474417 
L 121.263105 433.474417 
L 121.263105 432.05347 
L 122.126882 432.05347 
L 122.126882 430.640622 
L 122.990659 430.640622 
L 122.990659 429.235827 
L 123.854436 429.235827 
L 123.854436 427.83904 
L 124.718213 427.83904 
L 124.718213 426.450214 
L 125.58199 426.450214 
L 125.58199 425.069305 
L 126.445767 425.069305 
L 126.445767 423.696267 
L 127.309544 423.696267 
L 127.309544 422.331056 
L 128.173321 422.331056 
L 128.173321 420.973626 
L 129.037098 420.973626 
L 129.037098 419.623934 
L 129.900876 419.623934 
L 129.900876 418.281936 
L 130.764653 418.281936 
L 130.764653 416.947587 
L 131.62843 416.947587 
L 131.62843 415.620843 
L 132.492207 415.620843 
L 132.492207 414.301663 
L 133.355984 414.301663 
L 133.355984 412.990001 
L 134.219761 412.990001 
L 134.219761 411.685817 
L 135.083538 411.685817 
L 135.083538 410.389066 
L 135.947315 410.389066 
L 135.947315 409.099707 
L 136.811092 409.099707 
L 136.811092 407.817697 
L 137.674869 407.817697 
L 137.674869 406.542995 
L 138.538646 406.542995 
L 138.538646 405.275559 
L 139.402424 405.275559 
L 139.402424 404.015347 
L 140.266201 404.015347 
L 140.266201 402.762319 
L 141.129978 402.762319 
L 141.129978 401.516433 
L 141.993755 401.516433 
L 141.993755 400.277649 
L 142.857532 400.277649 
L 142.857532 399.045926 
L 143.721309 399.045926 
L 143.721309 397.821224 
L 144.585086 397.821224 
L 144.585086 396.603502 
L 145.448863 396.603502 
L 145.448863 395.392722 
L 146.31264 395.392722 
L 146.31264 394.188844 
L 147.176417 394.188844 
L 147.176417 392.991827 
L 148.040194 392.991827 
L 148.040194 391.801634 
L 148.903972 391.801634 
L 148.903972 390.618225 
L 149.767749 390.618225 
L 149.767749 389.441561 
L 150.631526 389.441561 
L 150.631526 388.271605 
L 151.495303 388.271605 
L 151.495303 387.108317 
L 152.35908 387.108317 
L 152.35908 385.95166 
L 153.222857 385.95166 
L 153.222857 384.801597 
L 154.086634 384.801597 
L 154.086634 383.658089 
L 154.950411 383.658089 
L 154.950411 382.521098 
L 155.814188 382.521098 
L 155.814188 381.390589 
L 156.677965 381.390589 
L 156.677965 380.266524 
L 157.541742 380.266524 
L 157.541742 379.148866 
L 158.40552 379.148866 
L 158.40552 378.037579 
L 159.269297 378.037579 
L 159.269297 376.932626 
L 160.133074 376.932626 
L 160.133074 375.833972 
L 160.996851 375.833972 
L 160.996851 374.74158 
L 161.860628 374.74158 
L 161.860628 373.655415 
L 162.724405 373.655415 
L 162.724405 372.575441 
L 163.588182 372.575441 
L 163.588182 371.501623 
L 164.451959 371.501623 
L 164.451959 370.433925 
L 165.315736 370.433925 
L 165.315736 369.372314 
L 166.179513 369.372314 
L 166.179513 368.316754 
L 167.04329 368.316754 
L 167.04329 367.267211 
L 167.907068 367.267211 
L 167.907068 366.22365 
L 168.770845 366.22365 
L 168.770845 365.186038 
L 169.634622 365.186038 
L 169.634622 364.15434 
L 170.498399 364.15434 
L 170.498399 363.128523 
L 171.362176 363.128523 
L 171.362176 362.108554 
L 172.225953 362.108554 
L 172.225953 361.094398 
L 173.08973 361.094398 
L 173.08973 360.086023 
L 173.953507 360.086023 
L 173.953507 359.083395 
L 174.817284 359.083395 
L 174.817284 358.086483 
L 175.681061 358.086483 
L 175.681061 357.095254 
L 176.544838 357.095254 
L 176.544838 356.109674 
L 177.408616 356.109674 
L 177.408616 355.129712 
L 178.272393 355.129712 
L 178.272393 354.155336 
L 179.13617 354.155336 
L 179.13617 353.186515 
L 179.999947 353.186515 
L 179.999947 352.223215 
L 180.863724 352.223215 
L 180.863724 351.265407 
L 181.727501 351.265407 
L 181.727501 350.313058 
L 182.591278 350.313058 
L 182.591278 349.366137 
L 183.455055 349.366137 
L 183.455055 348.424614 
L 184.318832 348.424614 
L 184.318832 347.488458 
L 185.182609 347.488458 
L 185.182609 346.557638 
L 186.046386 346.557638 
L 186.046386 345.632124 
L 186.910164 345.632124 
L 186.910164 344.711885 
L 187.773941 344.711885 
L 187.773941 343.796892 
L 188.637718 343.796892 
L 188.637718 342.887114 
L 189.501495 342.887114 
L 189.501495 341.982522 
L 190.365272 341.982522 
L 190.365272 341.083087 
L 191.229049 341.083087 
L 191.229049 340.188778 
L 192.092826 340.188778 
L 192.092826 339.299567 
L 192.956603 339.299567 
L 192.956603 338.415424 
L 193.82038 338.415424 
L 193.82038 337.536321 
L 194.684157 337.536321 
L 194.684157 336.662229 
L 195.547934 336.662229 
L 195.547934 335.79312 
L 196.411711 335.79312 
L 196.411711 334.928964 
L 197.275489 334.928964 
L 197.275489 334.069734 
L 198.139266 334.069734 
L 198.139266 333.215402 
L 199.003043 333.215402 
L 199.003043 332.36594 
L 199.86682 332.36594 
L 199.86682 331.52132 
L 200.730597 331.52132 
L 200.730597 330.681514 
L 201.594374 330.681514 
L 201.594374 329.846495 
L 202.458151 329.846495 
L 202.458151 329.016236 
L 203.321928 329.016236 
L 203.321928 328.190709 
L 204.185705 328.190709 
L 204.185705 327.369888 
L 205.049482 327.369888 
L 205.049482 326.553745 
L 205.913259 326.553745 
L 205.913259 325.742255 
L 206.777037 325.742255 
L 206.777037 324.935391 
L 207.640814 324.935391 
L 207.640814 324.133125 
L 208.504591 324.133125 
L 208.504591 323.335433 
L 209.368368 323.335433 
L 209.368368 322.542287 
L 210.232145 322.542287 
L 210.232145 321.753662 
L 211.095922 321.753662 
L 211.095922 320.969533 
L 211.959699 320.969533 
L 211.959699 320.189873 
L 212.823476 320.189873 
L 212.823476 319.414658 
L 213.687253 319.414658 
L 213.687253 318.643861 
L 214.55103 318.643861 
L 214.55103 317.877458 
L 215.414807 317.877458 
L 215.414807 317.115423 
L 216.278585 317.115423 
L 216.278585 316.357732 
L 217.142362 316.357732 
L 217.142362 315.60436 
L 218.006139 315.60436 
L 218.006139 314.855282 
L 218.869916 314.855282 
L 218.869916 314.110474 
L 219.733693 314.110474 
L 219.733693 313.369912 
L 220.59747 313.369912 
L 220.59747 312.63357 
L 221.461247 312.63357 
L 221.461247 311.901426 
L 222.325024 311.901426 
L 222.325024 311.173456 
L 223.188801 311.173456 
L 223.188801 310.449634 
L 224.052578 310.449634 
L 224.052578 309.729939 
L 224.916355 309.729939 
L 224.916355 309.014346 
L 225.780133 309.014346 
L 225.780133 308.302832 
L 226.64391 308.302832 
L 226.64391 307.595373 
L 227.507687 307.595373 
L 227.507687 306.891948 
L 228.371464 306.891948 
L 228.371464 306.192531 
L 229.235241 306.192531 
L 229.235241 305.497102 
L 230.099018 305.497102 
L 230.099018 304.805636 
L 230.962795 304.805636 
L 230.962795 304.118112 
L 231.826572 304.118112 
L 231.826572 303.434507 
L 232.690349 303.434507 
L 232.690349 302.754798 
L 233.554126 302.754798 
L 233.554126 302.078964 
L 234.417903 302.078964 
L 234.417903 301.406982 
L 235.281681 301.406982 
L 235.281681 300.738831 
L 236.145458 300.738831 
L 236.145458 300.074488 
L 237.009235 300.074488 
L 237.009235 299.413932 
L 237.873012 299.413932 
L 237.873012 298.757141 
L 238.736789 298.757141 
L 238.736789 298.104094 
L 239.600566 298.104094 
L 239.600566 297.454769 
L 240.464343 297.454769 
L 240.464343 296.809146 
L 241.32812 296.809146 
L 241.32812 296.167202 
L 242.191897 296.167202 
L 242.191897 295.528918 
L 243.055674 295.528918 
L 243.055674 294.894272 
L 243.919451 294.894272 
L 243.919451 294.263244 
L 244.783229 294.263244 
L 244.783229 293.635812 
L 245.647006 293.635812 
L 245.647006 293.011957 
L 246.510783 293.011957 
L 246.510783 292.391658 
L 247.37456 292.391658 
L 247.37456 291.774895 
L 248.238337 291.774895 
L 248.238337 291.161647 
L 249.102114 291.161647 
L 249.102114 290.551895 
L 249.965891 290.551895 
L 249.965891 289.945618 
L 250.829668 289.945618 
L 250.829668 289.342798 
L 251.693445 289.342798 
L 251.693445 288.743413 
L 252.557222 288.743413 
L 252.557222 288.147445 
L 253.420999 288.147445 
L 253.420999 287.554874 
L 254.284777 287.554874 
L 254.284777 286.965681 
L 255.148554 286.965681 
L 255.148554 286.379846 
L 256.012331 286.379846 
L 256.012331 285.797351 
L 256.876108 285.797351 
L 256.876108 285.218176 
L 257.739885 285.218176 
L 257.739885 284.642302 
L 258.603662 284.642302 
L 258.603662 284.069711 
L 259.467439 284.069711 
L 259.467439 283.500383 
L 260.331216 283.500383 
L 260.331216 282.934301 
L 261.194993 282.934301 
L 261.194993 282.371445 
L 262.05877 282.371445 
L 262.05877 281.811798 
L 262.922547 281.811798 
L 262.922547 281.255341 
L 263.786324 281.255341 
L 263.786324 280.702056 
L 264.650102 280.702056 
L 264.650102 280.151924 
L 265.513879 280.151924 
L 265.513879 279.604928 
L 266.377656 279.604928 
L 266.377656 279.061051 
L 267.241433 279.061051 
L 267.241433 278.520273 
L 268.10521 278.520273 
L 268.10521 277.982578 
L 268.968987 277.982578 
L 268.968987 277.447947 
L 269.832764 277.447947 
L 269.832764 276.916365 
L 270.696541 276.916365 
L 270.696541 276.387812 
L 271.560318 276.387812 
L 271.560318 275.862272 
L 272.424095 275.862272 
L 272.424095 275.339728 
L 273.287872 275.339728 
L 273.287872 274.820162 
L 274.15165 274.820162 
L 274.15165 274.303558 
L 275.015427 274.303558 
L 275.015427 273.789898 
L 275.879204 273.789898 
L 275.879204 273.279167 
L 276.742981 273.279167 
L 276.742981 272.771346 
L 277.606758 272.771346 
L 277.606758 272.26642 
L 278.470535 272.26642 
L 278.470535 271.764373 
L 279.334312 271.764373 
L 279.334312 271.265187 
L 280.198089 271.265187 
L 280.198089 270.768846 
L 281.061866 270.768846 
L 281.061866 270.275335 
L 281.925643 270.275335 
L 281.925643 269.784637 
L 282.78942 269.784637 
L 282.78942 269.296735 
L 283.653198 269.296735 
L 283.653198 268.811615 
L 284.516975 268.811615 
L 284.516975 268.32926 
L 285.380752 268.32926 
L 285.380752 267.849655 
L 286.244529 267.849655 
L 286.244529 267.372783 
L 287.108306 267.372783 
L 287.108306 266.89863 
L 287.972083 266.89863 
L 287.972083 266.427179 
L 288.83586 266.427179 
L 288.83586 265.958415 
L 289.699637 265.958415 
L 289.699637 265.492324 
L 290.563414 265.492324 
L 290.563414 265.028889 
L 291.427191 265.028889 
L 291.427191 264.568096 
L 292.290968 264.568096 
L 292.290968 264.10993 
L 293.154746 264.10993 
L 293.154746 263.654375 
L 294.018523 263.654375 
L 294.018523 263.201416 
L 294.8823 263.201416 
L 294.8823 262.75104 
L 295.746077 262.75104 
L 295.746077 262.303231 
L 296.609854 262.303231 
L 296.609854 261.857974 
L 297.473631 261.857974 
L 297.473631 261.415256 
L 298.337408 261.415256 
L 298.337408 260.975061 
L 299.201185 260.975061 
L 299.201185 260.537375 
L 300.064962 260.537375 
L 300.064962 260.102184 
L 300.928739 260.102184 
L 300.928739 259.669473 
L 301.792516 259.669473 
L 301.792516 259.239229 
L 302.656294 259.239229 
L 302.656294 258.811438 
L 303.520071 258.811438 
L 303.520071 258.386085 
L 304.383848 258.386085 
L 304.383848 257.963156 
L 305.247625 257.963156 
L 305.247625 257.542639 
L 306.111402 257.542639 
L 306.111402 257.124518 
L 306.975179 257.124518 
L 306.975179 256.70878 
L 307.838956 256.70878 
L 307.838956 256.295413 
L 308.702733 256.295413 
L 308.702733 255.884401 
L 309.56651 255.884401 
L 309.56651 255.475733 
L 310.430287 255.475733 
L 310.430287 255.069393 
L 311.294064 255.069393 
L 311.294064 254.66537 
L 312.157842 254.66537 
L 312.157842 254.26365 
L 313.021619 254.26365 
L 313.021619 253.86422 
L 313.885396 253.86422 
L 313.885396 253.467066 
L 314.749173 253.467066 
L 314.749173 253.072177 
L 315.61295 253.072177 
L 315.61295 252.679538 
L 316.476727 252.679538 
L 316.476727 252.289137 
L 317.340504 252.289137 
L 317.340504 251.900962 
L 318.204281 251.900962 
L 318.204281 251.514999 
L 319.068058 251.514999 
L 319.068058 251.131237 
L 319.931835 251.131237 
L 319.931835 250.749661 
L 320.795612 250.749661 
L 320.795612 250.370261 
L 321.65939 250.370261 
L 321.65939 249.993024 
L 322.523167 249.993024 
L 322.523167 249.617936 
L 323.386944 249.617936 
L 323.386944 249.244987 
L 324.250721 249.244987 
L 324.250721 248.874164 
L 325.114498 248.874164 
L 325.114498 248.505454 
L 325.978275 248.505454 
L 325.978275 248.138846 
L 326.842052 248.138846 
L 326.842052 247.774328 
L 327.705829 247.774328 
L 327.705829 247.411887 
L 328.569606 247.411887 
L 328.569606 247.051512 
L 329.433383 247.051512 
L 329.433383 246.693192 
L 330.29716 246.693192 
L 330.29716 246.336914 
L 331.160938 246.336914 
L 331.160938 245.982667 
L 332.024715 245.982667 
L 332.024715 245.630439 
L 332.888492 245.630439 
L 332.888492 245.280219 
L 333.752269 245.280219 
L 333.752269 244.931995 
L 334.616046 244.931995 
L 334.616046 244.585756 
L 335.479823 244.585756 
L 335.479823 244.241491 
L 336.3436 244.241491 
L 336.3436 243.899188 
L 337.207377 243.899188 
L 337.207377 243.558836 
L 338.071154 243.558836 
L 338.071154 243.220424 
L 338.934931 243.220424 
L 338.934931 242.883941 
L 339.798708 242.883941 
L 339.798708 242.549376 
L 340.662485 242.549376 
L 340.662485 242.216718 
L 341.526263 242.216718 
L 341.526263 241.885956 
L 342.39004 241.885956 
L 342.39004 241.55708 
L 343.253817 241.55708 
L 343.253817 241.230079 
L 344.117594 241.230079 
L 344.117594 240.904941 
L 344.981371 240.904941 
L 344.981371 240.581656 
L 345.845148 240.581656 
L 345.845148 240.260215 
L 346.708925 240.260215 
L 346.708925 239.940605 
L 347.572702 239.940605 
L 347.572702 239.622818 
L 348.436479 239.622818 
L 348.436479 239.306842 
L 349.300256 239.306842 
L 349.300256 238.992666 
L 350.164033 238.992666 
L 350.164033 238.680282 
L 351.027811 238.680282 
L 351.027811 238.369678 
L 351.891588 238.369678 
L 351.891588 238.060845 
L 352.755365 238.060845 
L 352.755365 237.753772 
L 353.619142 237.753772 
L 353.619142 237.44845 
L 354.482919 237.44845 
L 354.482919 237.144868 
L 355.346696 237.144868 
L 355.346696 236.843016 
L 356.210473 236.843016 
L 356.210473 236.542885 
L 357.07425 236.542885 
L 357.07425 236.244465 
L 357.938027 236.244465 
L 357.938027 235.947746 
L 358.801804 235.947746 
L 358.801804 235.652718 
L 359.665581 235.652718 
L 359.665581 235.359371 
L 360.529359 235.359371 
L 360.529359 235.067697 
L 361.393136 235.067697 
L 361.393136 234.777686 
L 362.256913 234.777686 
L 362.256913 234.489327 
L 363.12069 234.489327 
L 363.12069 234.202612 
L 363.984467 234.202612 
L 363.984467 233.917532 
L 364.848244 233.917532 
L 364.848244 233.634076 
L 365.712021 233.634076 
L 365.712021 233.352236 
L 366.575798 233.352236 
L 366.575798 233.072003 
L 367.439575 233.072003 
L 367.439575 232.793367 
L 368.303352 232.793367 
L 368.303352 232.516319 
L 369.167129 232.516319 
L 369.167129 232.240851 
L 370.030907 232.240851 
L 370.030907 231.966952 
L 370.894684 231.966952 
L 370.894684 231.694615 
L 371.758461 231.694615 
L 371.758461 231.423831 
L 372.622238 231.423831 
L 372.622238 231.154589 
L 373.486015 231.154589 
L 373.486015 230.886883 
L 374.349792 230.886883 
L 374.349792 230.620702 
L 375.213569 230.620702 
L 375.213569 230.356039 
L 376.077346 230.356039 
L 376.077346 230.092884 
L 376.941123 230.092884 
L 376.941123 229.831229 
L 377.8049 229.831229 
L 377.8049 229.571066 
L 378.668677 229.571066 
L 378.668677 229.312386 
L 379.532455 229.312386 
L 379.532455 229.05518 
L 380.396232 229.05518 
L 380.396232 228.79944 
L 381.260009 228.79944 
L 381.260009 228.545158 
L 382.123786 228.545158 
L 382.123786 228.292326 
L 382.987563 228.292326 
L 382.987563 228.040934 
L 383.85134 228.040934 
L 383.85134 227.790976 
L 384.715117 227.790976 
L 384.715117 227.542442 
L 385.578894 227.542442 
L 385.578894 227.295325 
L 386.442671 227.295325 
L 386.442671 227.049617 
L 387.306448 227.049617 
L 387.306448 226.805309 
L 388.170225 226.805309 
L 388.170225 226.562394 
L 389.034003 226.562394 
L 389.034003 226.320863 
L 389.89778 226.320863 
L 389.89778 226.080709 
L 390.761557 226.080709 
L 390.761557 225.841924 
L 391.625334 225.841924 
L 391.625334 225.604501 
L 392.489111 225.604501 
L 392.489111 225.36843 
L 393.352888 225.36843 
L 393.352888 225.133705 
L 394.216665 225.133705 
L 394.216665 224.900318 
L 395.080442 224.900318 
L 395.080442 224.668262 
L 395.944219 224.668262 
L 395.944219 224.437528 
L 396.807996 224.437528 
L 396.807996 224.208109 
L 397.671773 224.208109 
L 397.671773 223.979998 
L 398.535551 223.979998 
L 398.535551 223.753187 
L 399.399328 223.753187 
L 399.399328 223.527669 
L 400.263105 223.527669 
L 400.263105 223.303437 
L 401.126882 223.303437 
L 401.126882 223.080483 
L 401.990659 223.080483 
L 401.990659 222.858799 
L 402.854436 222.858799 
L 402.854436 222.63838 
L 403.718213 222.63838 
L 403.718213 222.419216 
L 404.58199 222.419216 
L 404.58199 222.201302 
L 405.445767 222.201302 
L 405.445767 221.98463 
L 406.309544 221.98463 
L 406.309544 221.769193 
L 407.173321 221.769193 
L 407.173321 221.554984 
L 408.037098 221.554984 
L 408.037098 221.341996 
L 408.900876 221.341996 
L 408.900876 221.130222 
L 409.764653 221.130222 
L 409.764653 220.919656 
L 410.62843 220.919656 
L 410.62843 220.710289 
L 411.492207 220.710289 
L 411.492207 220.502116 
L 412.355984 220.502116 
L 412.355984 220.295129 
L 413.219761 220.295129 
L 413.219761 220.089323 
L 414.083538 220.089323 
L 414.083538 219.884689 
L 414.947315 219.884689 
L 414.947315 219.681222 
L 415.811092 219.681222 
L 415.811092 219.478915 
L 416.674869 219.478915 
L 416.674869 219.277761 
L 417.538646 219.277761 
L 417.538646 219.077753 
L 418.402424 219.077753 
L 418.402424 218.878886 
L 419.266201 218.878886 
L 419.266201 218.681152 
L 420.129978 218.681152 
L 420.129978 218.484545 
L 420.993755 218.484545 
L 420.993755 218.289059 
L 421.857532 218.289059 
L 421.857532 218.094687 
L 422.721309 218.094687 
L 422.721309 217.901423 
L 423.585086 217.901423 
L 423.585086 217.709261 
L 424.448863 217.709261 
L 424.448863 217.518194 
L 425.31264 217.518194 
L 425.31264 217.328216 
L 426.176417 217.328216 
L 426.176417 217.139321 
L 427.040194 217.139321 
L 427.040194 216.951503 
L 427.903972 216.951503 
L 427.903972 216.764755 
L 428.767749 216.764755 
L 428.767749 216.579072 
L 429.631526 216.579072 
L 429.631526 216.394447 
L 430.495303 216.394447 
L 430.495303 216.210875 
L 431.35908 216.210875 
L 431.35908 216.028349 
L 432.222857 216.028349 
L 432.222857 215.846863 
L 433.086634 215.846863 
L 433.086634 215.666412 
L 433.950411 215.666412 
L 433.950411 215.486989 
L 434.814188 215.486989 
L 434.814188 215.308589 
L 435.677965 215.308589 
L 435.677965 215.131207 
L 436.541742 215.131207 
L 436.541742 214.954835 
L 437.40552 214.954835 
L 437.40552 214.779468 
L 438.269297 214.779468 
L 438.269297 214.605101 
L 439.133074 214.605101 
L 439.133074 214.431728 
L 439.996851 214.431728 
L 439.996851 214.259344 
L 440.860628 214.259344 
L 440.860628 214.087942 
L 441.724405 214.087942 
L 441.724405 213.917516 
L 442.588182 213.917516 
L 442.588182 213.748063 
L 443.451959 213.748063 
L 443.451959 213.579575 
L 444.315736 213.579575 
L 444.315736 213.412048 
L 445.179513 213.412048 
L 445.179513 213.245475 
L 446.04329 213.245475 
L 446.04329 213.079852 
L 446.907068 213.079852 
L 446.907068 212.915173 
L 447.770845 212.915173 
L 447.770845 212.751433 
L 448.634622 212.751433 
L 448.634622 212.588626 
L 449.498399 212.588626 
L 449.498399 212.426747 
L 450.362176 212.426747 
L 450.362176 212.265791 
L 451.225953 212.265791 
L 451.225953 212.105752 
L 452.08973 212.105752 
L 452.08973 211.946626 
L 452.953507 211.946626 
L 452.953507 211.788406 
L 453.817284 211.788406 
L 453.817284 211.631089 
L 454.681061 211.631089 
L 454.681061 211.474668 
L 455.544838 211.474668 
L 455.544838 211.319139 
L 456.408616 211.319139 
L 456.408616 211.164496 
L 457.272393 211.164496 
L 457.272393 211.010735 
L 458.13617 211.010735 
L 458.13617 210.85785 
L 458.999947 210.85785 
L 458.999947 210.705837 
L 459.863724 210.705837 
L 459.863724 210.55469 
L 460.727501 210.55469 
L 460.727501 210.404405 
L 461.591278 210.404405 
L 461.591278 210.254976 
L 462.455055 210.254976 
L 462.455055 210.106399 
L 463.318832 210.106399 
L 463.318832 209.958669 
L 464.182609 209.958669 
L 464.182609 209.811781 
L 465.046386 209.811781 
L 465.046386 209.665731 
L 465.910164 209.665731 
L 465.910164 209.520513 
L 466.773941 209.520513 
L 466.773941 209.376122 
L 467.637718 209.376122 
L 467.637718 209.232555 
L 468.501495 209.232555 
L 468.501495 209.089806 
L 469.365272 209.089806 
L 469.365272 208.947871 
L 470.229049 208.947871 
L 470.229049 208.806744 
L 471.092826 208.806744 
L 471.092826 208.666423 
L 471.956603 208.666423 
L 471.956603 208.526901 
L 472.82038 208.526901 
L 472.82038 208.388174 
L 473.684157 208.388174 
L 473.684157 208.250238 
L 474.547934 208.250238 
L 474.547934 208.113088 
L 475.411711 208.113088 
L 475.411711 207.97672 
L 476.275489 207.97672 
L 476.275489 207.84113 
L 477.139266 207.84113 
L 477.139266 207.706312 
L 478.003043 207.706312 
L 478.003043 207.572263 
L 478.86682 207.572263 
L 478.86682 207.438978 
L 479.730597 207.438978 
L 479.730597 207.306452 
L 480.594374 207.306452 
L 480.594374 207.174682 
L 481.458151 207.174682 
L 481.458151 207.043663 
L 482.321928 207.043663 
L 482.321928 206.913391 
L 483.185705 206.913391 
L 483.185705 206.783862 
L 484.049482 206.783862 
L 484.049482 206.65507 
L 484.913259 206.65507 
L 484.913259 206.527013 
L 485.777037 206.527013 
L 485.777037 206.399686 
L 486.640814 206.399686 
L 486.640814 206.273085 
L 487.504591 206.273085 
L 487.504591 206.147205 
L 488.368368 206.147205 
L 488.368368 206.022043 
L 489.232145 206.022043 
L 489.232145 205.897594 
L 490.095922 205.897594 
L 490.095922 205.773855 
L 490.959699 205.773855 
L 490.959699 205.650821 
L 491.823476 205.650821 
L 491.823476 205.528488 
L 492.687253 205.528488 
L 492.687253 205.406852 
L 493.55103 205.406852 
L 493.55103 205.28591 
L 494.414807 205.28591 
L 494.414807 205.165657 
L 495.278585 205.165657 
L 495.278585 205.04609 
L 496.142362 205.04609 
L 496.142362 204.927204 
L 497.006139 204.927204 
L 497.006139 204.808996 
L 497.869916 204.808996 
L 497.869916 204.691462 
L 498.733693 204.691462 
L 498.733693 204.574598 
L 499.59747 204.574598 
L 499.59747 204.458399 
L 500.461247 204.458399 
L 500.461247 204.342864 
L 501.325024 204.342864 
L 501.325024 204.227986 
L 502.188801 204.227986 
L 502.188801 204.113764 
L 503.052578 204.113764 
L 503.052578 204.000192 
L 503.916355 204.000192 
L 503.916355 203.887268 
L 504.780133 203.887268 
L 504.780133 203.774988 
L 505.64391 203.774988 
L 505.64391 203.663348 
L 507.371464 203.552344 
L 507.371464 203.441972 
L 509.099018 203.33223 
L 509.099018 203.223114 
L 510.826572 203.114619 
L 510.826572 203.006743 
L 512.554126 202.899481 
L 512.554126 202.792832 
L 514.281681 202.68679 
L 514.281681 202.581352 
L 516.009235 202.476516 
L 516.009235 202.372277 
L 517.736789 202.268632 
L 517.736789 202.165578 
L 519.464343 202.063111 
L 519.464343 201.961229 
L 521.191897 201.859927 
L 521.191897 201.759203 
L 522.919451 201.659052 
L 522.919451 201.559473 
L 524.647006 201.460461 
L 524.647006 201.362014 
L 526.37456 201.264128 
L 526.37456 201.1668 
L 528.102114 201.070026 
L 528.102114 200.973804 
L 529.829668 200.878131 
L 529.829668 200.783003 
L 531.557222 200.688417 
L 531.557222 200.594371 
L 533.284777 200.50086 
L 533.284777 200.407882 
L 535.012331 200.315435 
L 535.012331 200.223514 
L 536.739885 200.132118 
L 536.739885 200.041242 
L 538.467439 199.950884 
L 538.467439 199.861042 
L 540.194993 199.771711 
L 540.194993 199.68289 
L 541.922547 199.594575 
L 541.922547 199.506763 
L 543.650102 199.419452 
L 543.650102 199.332639 
L 545.377656 199.24632 
L 545.377656 199.160494 
L 547.10521 199.075156 
L 547.10521 198.990305 
L 548.832764 198.905938 
L 548.832764 198.822052 
L 550.560318 198.738644 
L 550.560318 198.655711 
L 552.287872 198.573251 
L 552.287872 198.491261 
L 554.015427 198.409738 
L 554.015427 198.32868 
L 555.742981 198.248084 
L 555.742981 198.167948 
L 557.470535 198.088268 
L 557.470535 198.009042 
L 559.198089 197.930269 
L 559.198089 197.851944 
L 560.925643 197.774065 
L 560.925643 197.696631 
L 562.653198 197.619637 
L 562.653198 197.543083 
L 564.380752 197.466965 
L 564.380752 197.391281 
L 566.108306 197.316028 
L 566.108306 197.241205 
L 567.83586 197.166807 
L 567.83586 197.092834 
L 569.563414 197.019283 
L 569.563414 196.946151 
L 571.290968 196.873435 
L 571.290968 196.801134 
L 573.018523 196.729246 
L 573.018523 196.657767 
L 574.746077 196.586695 
L 574.746077 196.516029 
L 576.473631 196.445765 
L 576.473631 196.375902 
L 578.201185 196.306437 
L 578.201185 196.237368 
L 579.928739 196.168693 
L 579.928739 196.100409 
L 581.656294 196.032514 
L 581.656294 195.965007 
L 583.383848 195.897884 
L 583.383848 195.831144 
L 585.111402 195.764784 
L 585.111402 195.698803 
L 586.838956 195.633197 
L 586.838956 195.567966 
L 588.56651 195.503106 
L 588.56651 195.438616 
L 590.294064 195.374494 
L 590.294064 195.310737 
L 592.021619 195.247344 
L 592.021619 195.184312 
L 593.749173 195.121639 
L 593.749173 195.059324 
L 595.476727 194.997363 
L 595.476727 194.935756 
L 597.204281 194.8745 
L 597.204281 194.813593 
L 598.931835 194.753034 
L 598.931835 194.692819 
L 600.65939 194.632948 
L 600.65939 194.573418 
L 602.386944 194.514228 
L 602.386944 194.455375 
L 604.114498 194.396857 
L 604.114498 194.338673 
L 605.842052 194.28082 
L 605.842052 194.223297 
L 607.569606 194.166102 
L 607.569606 194.109234 
L 609.29716 194.052689 
L 609.29716 193.996467 
L 611.024715 193.940565 
L 611.024715 193.884981 
L 613.616046 193.774764 
L 613.616046 193.720125 
L 616.207377 193.611782 
L 616.207377 193.558072 
L 618.798708 193.451571 
L 618.798708 193.398775 
L 621.39004 193.294084 
L 621.39004 193.242186 
L 623.981371 193.139275 
L 623.981371 193.088259 
L 626.572702 192.987098 
L 626.572702 192.93695 
L 629.164033 192.837509 
L 629.164033 192.788213 
L 631.755365 192.690463 
L 631.755365 192.642005 
L 634.346696 192.545917 
L 634.346696 192.498284 
L 636.938027 192.403829 
L 636.938027 192.357006 
L 639.529359 192.264157 
L 639.529359 192.21813 
L 642.12069 192.12686 
L 642.12069 192.081615 
L 644.712021 191.991897 
L 644.712021 191.947422 
L 647.303352 191.859229 
L 647.303352 191.81551 
L 649.894684 191.728817 
L 649.894684 191.685841 
L 652.486015 191.600622 
L 652.486015 191.558377 
L 655.077346 191.474607 
L 655.077346 191.43308 
L 657.668677 191.350735 
L 657.668677 191.309914 
L 660.260009 191.228968 
L 660.260009 191.188841 
L 662.85134 191.109273 
L 662.85134 191.069828 
L 665.442671 190.991612 
L 665.442671 190.952838 
L 668.034003 190.875952 
L 668.034003 190.837837 
L 670.625334 190.762258 
L 670.625334 190.724791 
L 673.216665 190.650498 
L 673.216665 190.613668 
L 676.671773 190.504434 
L 676.671773 190.468437 
L 680.126882 190.361673 
L 680.126882 190.326489 
L 683.58199 190.222138 
L 683.58199 190.18775 
L 687.037098 190.085758 
L 687.037098 190.052148 
L 690.492207 189.952461 
L 690.492207 189.919611 
L 693.947315 189.822178 
L 693.947315 189.79007 
L 697.402424 189.694839 
L 697.402424 189.663457 
L 700.857532 189.570379 
L 700.857532 189.539707 
L 704.31264 189.448733 
L 704.31264 189.418754 
L 707.767749 189.329837 
L 707.767749 189.300535 
L 711.222857 189.213628 
L 711.222857 189.184989 
L 714.677965 189.100047 
L 714.677965 189.072055 
L 718.996851 188.961674 
L 718.996851 188.934471 
L 723.315736 188.8272 
L 723.315736 188.800763 
L 727.634622 188.696515 
L 727.634622 188.670824 
L 731.953507 188.569513 
L 731.953507 188.544545 
L 736.272393 188.446089 
L 736.272393 188.421825 
L 740.591278 188.326143 
L 740.591278 188.302562 
L 744.910164 188.209577 
L 744.910164 188.18666 
L 749.229049 188.096295 
L 749.229049 188.074024 
L 754.411711 187.964562 
L 754.411711 187.943043 
L 759.594374 187.837271 
L 759.594374 187.816477 
L 764.777037 187.714272 
L 764.777037 187.694179 
L 769.959699 187.59542 
L 769.959699 187.576004 
L 775.142362 187.480575 
L 775.142362 187.461814 
L 781.188801 187.351474 
L 781.188801 187.333449 
L 787.235241 187.227437 
L 787.235241 187.21012 
L 793.281681 187.108266 
L 793.281681 187.091627 
L 799.32812 186.993769 
L 799.32812 186.977783 
L 806.238337 186.868404 
L 806.238337 186.853133 
L 813.148554 186.748643 
L 813.148554 186.734055 
L 820.05877 186.634236 
L 820.05877 186.620299 
L 827.832764 186.511629 
L 827.832764 186.498392 
L 835.606758 186.395171 
L 835.606758 186.382597 
L 844.244529 186.272609 
L 844.244529 186.260734 
L 852.8823 186.156857 
L 852.8823 186.145641 
L 862.383848 186.036944 
L 862.383848 186.026412 
L 871.885396 185.924339 
L 871.885396 185.914449 
L 882.250721 185.809309 
L 882.250721 185.800074 
L 888.29716 185.745763 
L 888.29716 185.736891 
" clip-path="url(#pc684966813)" style="fill: none; stroke: #ff0000; stroke-width: 2; stroke-linecap: square"/>
   </g>
   <g id="patch_3">
    <path d="M 52.160938 576.718125 
L 52.160938 22.318125 
" style="fill: none; stroke: #000000; stroke-width: 0.8; stroke-linejoin: miter; stroke-linecap: square"/>
   </g>
   <g id="patch_4">
    <path d="M 889.160938 576.718125 
L 889.160938 22.318125 
" style="fill: none; stroke: #000000; stroke-width: 0.8; stroke-linejoin: miter; stroke-linecap: square"/>
   </g>
   <g id="patch_5">
    <path d="M 52.160938 576.718125 
L 889.160938 576.718125 
" style="fill: none; stroke: #000000; stroke-width: 0.8; stroke-linejoin: miter; stroke-linecap: square"/>
   </g>
   <g id="patch_6">
    <path d="M 52.160938 22.318125 
L 889.160938 22.318125 
" style="fill: none; stroke: #000000; stroke-width: 0.8; stroke-linejoin: miter; stroke-linecap: square"/>
   </g>
   <g id="text_15">
    <!-- Identification of FOPDT model -->
    <g transform="translate(381.056563 16.318125) scale(0.12 -0.12)">
     <defs>
      <path id="DejaVuSans-49" d="M 628 4666 
L 1259 4666 
L 1259 0 
L 628 0 
L 628 4666 
z
" transform="scale(0.015625)"/>
      <path id="DejaVuSans-64" d="M 2906 2969 
L 2906 4863 
L 3481 4863 
L 3481 0 
L 2906 0 
L 2906 525 
Q 2725 213 2448 61 
Q 2172 -91 1784 -91 
Q 1150 -91 751 415 
Q 353 922 353 1747 
Q 353 2572 751 3078 
Q 1150 3584 1784 3584 
Q 2172 3584 2448 3432 
Q 2725 3281 2906 2969 
z
M 947 1747 
Q 947 1113 1208 752 
Q 1469 391 1925 391 
Q 2381 391 2643 752 
Q 2906 1113 2906 1747 
Q 2906 2381 2643 2742 
Q 2381 3103 1925 3103 
Q 1469 3103 1208 2742 
Q 947 2381 947 1747 
z
" transform="scale(0.015625)"/>
      <path id="DejaVuSans-6e" d="M 3513 2113 
L 3513 0 
L 2938 0 
L 2938 2094 
Q 2938 2591 2744 2837 
Q 2550 3084 2163 3084 
Q 1697 3084 1428 2787 
Q 1159 2491 1159 1978 
L 1159 0 
L 581 0 
L 581 3500 
L 1159 3500 
L 1159 2956 
Q 1366 3272 1645 3428 
Q 1925 3584 2291 3584 
Q 2894 3584 3203 3211 
Q 3513 2838 3513 2113 
z
" transform="scale(0.015625)"/>
      <path id="DejaVuSans-74" d="M 1172 4494 
L 1172 3500 
L 2356 3500 
L 2356 3053 
L 1172 3053 
L 1172 1153 
Q 1172 725 1289 603 
Q 1406 481 1766 481 
L 2356 481 
L 2356 0 
L 1766 0 
Q 1100 0 847 248 
Q 594 497 594 1153 
L 594 3053 
L 172 3053 
L 172 3500 
L 594 3500 
L 594 4494 
L 1172 4494 
z
" transform="scale(0.015625)"/>
      <path id="DejaVuSans-69" d="M 603 3500 
L 1178 3500 
L 1178 0 
L 603 0 
L 603 3500 
z
M 603 4863 
L 1178 4863 
L 1178 4134 
L 603 4134 
L 603 4863 
z
" transform="scale(0.015625)"/>
      <path id="DejaVuSans-63" d="M 3122 3366 
L 3122 2828 
Q 2878 2963 2633 3030 
Q 2388 3097 2138 3097 
Q 1578 3097 1268 2742 
Q 959 2388 959 1747 
Q 959 1106 1268 751 
Q 1578 397 2138 397 
Q 2388 397 2633 464 
Q 2878 531 3122 666 
L 3122 134 
Q 2881 22 2623 -34 
Q 2366 -91 2075 -91 
Q 1284 -91 818 406 
Q 353 903 353 1747 
Q 353 2603 823 3093 
Q 1294 3584 2113 3584 
Q 2378 3584 2631 3529 
Q 2884 3475 3122 3366 
z
" transform="scale(0.015625)"/>
      <path id="DejaVuSans-46" d="M 628 4666 
L 3309 4666 
L 3309 4134 
L 1259 4134 
L 1259 2759 
L 3109 2759 
L 3109 2228 
L 1259 2228 
L 1259 0 
L 628 0 
L 628 4666 
z
" transform="scale(0.015625)"/>
      <path id="DejaVuSans-4f" d="M 2522 4238 
Q 1834 4238 1429 3725 
Q 1025 3213 1025 2328 
Q 1025 1447 1429 934 
Q 1834 422 2522 422 
Q 3209 422 3611 934 
Q 4013 1447 4013 2328 
Q 4013 3213 3611 3725 
Q 3209 4238 2522 4238 
z
M 2522 4750 
Q 3503 4750 4090 4092 
Q 4678 3434 4678 2328 
Q 4678 1225 4090 567 
Q 3503 -91 2522 -91 
Q 1538 -91 948 565 
Q 359 1222 359 2328 
Q 359 3434 948 4092 
Q 1538 4750 2522 4750 
z
" transform="scale(0.015625)"/>
      <path id="DejaVuSans-44" d="M 1259 4147 
L 1259 519 
L 2022 519 
Q 2988 519 3436 956 
Q 3884 1394 3884 2338 
Q 3884 3275 3436 3711 
Q 2988 4147 2022 4147 
L 1259 4147 
z
M 628 4666 
L 1925 4666 
Q 3281 4666 3915 4102 
Q 4550 3538 4550 2338 
Q 4550 1131 3912 565 
Q 3275 0 1925 0 
L 628 0 
L 628 4666 
z
" transform="scale(0.015625)"/>
      <path id="DejaVuSans-54" d="M -19 4666 
L 3928 4666 
L 3928 4134 
L 2272 4134 
L 2272 0 
L 1638 0 
L 1638 4134 
L -19 4134 
L -19 4666 
z
" transform="scale(0.015625)"/>
      <path id="DejaVuSans-6d" d="M 3328 2828 
Q 3544 3216 3844 3400 
Q 4144 3584 4550 3584 
Q 5097 3584 5394 3201 
Q 5691 2819 5691 2113 
L 5691 0 
L 5113 0 
L 5113 2094 
Q 5113 2597 4934 2840 
Q 4756 3084 4391 3084 
Q 3944 3084 3684 2787 
Q 3425 2491 3425 1978 
L 3425 0 
L 2847 0 
L 2847 2094 
Q 2847 2600 2669 2842 
Q 2491 3084 2119 3084 
Q 1678 3084 1418 2786 
Q 1159 2488 1159 1978 
L 1159 0 
L 581 0 
L 581 3500 
L 1159 3500 
L 1159 2956 
Q 1356 3278 1631 3431 
Q 1906 3584 2284 3584 
Q 2666 3584 2933 3390 
Q 3200 3197 3328 2828 
z
" transform="scale(0.015625)"/>
     </defs>
     <use xlink:href="#DejaVuSans-49"/>
     <use xlink:href="#DejaVuSans-64" transform="translate(29.492188 0)"/>
     <use xlink:href="#DejaVuSans-65" transform="translate(92.96875 0)"/>
     <use xlink:href="#DejaVuSans-6e" transform="translate(154.492188 0)"/>
     <use xlink:href="#DejaVuSans-74" transform="translate(217.871094 0)"/>
     <use xlink:href="#DejaVuSans-69" transform="translate(257.080078 0)"/>
     <use xlink:href="#DejaVuSans-66" transform="translate(284.863281 0)"/>
     <use xlink:href="#DejaVuSans-69" transform="translate(320.068359 0)"/>
     <use xlink:href="#DejaVuSans-63" transform="translate(347.851562 0)"/>
     <use xlink:href="#DejaVuSans-61" transform="translate(402.832031 0)"/>
     <use xlink:href="#DejaVuSans-74" transform="translate(464.111328 0)"/>
     <use xlink:href="#DejaVuSans-69" transform="translate(503.320312 0)"/>
     <use xlink:href="#DejaVuSans-6f" transform="translate(531.103516 0)"/>
     <use xlink:href="#DejaVuSans-6e" transform="translate(592.285156 0)"/>
     <use xlink:href="#DejaVuSans-20" transform="translate(655.664062 0)"/>
     <use xlink:href="#DejaVuSans-6f" transform="translate(687.451172 0)"/>
     <use xlink:href="#DejaVuSans-66" transform="translate(748.632812 0)"/>
     <use xlink:href="#DejaVuSans-20" transform="translate(783.837891 0)"/>
     <use xlink:href="#DejaVuSans-46" transform="translate(815.625 0)"/>
     <use xlink:href="#DejaVuSans-4f" transform="translate(873.144531 0)"/>
     <use xlink:href="#DejaVuSans-50" transform="translate(951.855469 0)"/>
     <use xlink:href="#DejaVuSans-44" transform="translate(1012.158203 0)"/>
     <use xlink:href="#DejaVuSans-54" transform="translate(1089.160156 0)"/>
     <use xlink:href="#DejaVuSans-20" transform="translate(1150.244141 0)"/>
     <use xlink:href="#DejaVuSans-6d" transform="translate(1182.03125 0)"/>
     <use xlink:href="#DejaVuSans-6f" transform="translate(1279.443359 0)"/>
     <use xlink:href="#DejaVuSans-64" transform="translate(1340.625 0)"/>
     <use xlink:href="#DejaVuSans-65" transform="translate(1404.101562 0)"/>
     <use xlink:href="#DejaVuSans-6c" transform="translate(1465.625 0)"/>
    </g>
   </g>
   <g id="legend_1">
    <g id="patch_7">
     <path d="M 767.426563 59.674375 
L 882.160938 59.674375 
Q 884.160938 59.674375 884.160938 57.674375 
L 884.160938 29.318125 
Q 884.160938 27.318125 882.160938 27.318125 
L 767.426563 27.318125 
Q 765.426563 27.318125 765.426563 29.318125 
L 765.426563 57.674375 
Q 765.426563 59.674375 767.426563 59.674375 
z
" style="fill: #ffffff; opacity: 0.8; stroke: #cccccc; stroke-linejoin: miter"/>
    </g>
    <g id="line2d_16">
     <path d="M 769.426563 35.416563 
L 779.426563 35.416563 
L 779.426563 35.416563 
L 789.426563 35.416563 
L 789.426563 35.416563 
" style="fill: none; stroke: #008000; stroke-width: 2; stroke-linecap: square"/>
    </g>
    <g id="text_16">
     <!-- Experimental PV -->
     <g transform="translate(797.426563 38.916563) scale(0.1 -0.1)">
      <defs>
       <path id="DejaVuSans-45" d="M 628 4666 
L 3578 4666 
L 3578 4134 
L 1259 4134 
L 1259 2753 
L 3481 2753 
L 3481 2222 
L 1259 2222 
L 1259 531 
L 3634 531 
L 3634 0 
L 628 0 
L 628 4666 
z
" transform="scale(0.015625)"/>
       <path id="DejaVuSans-78" d="M 3513 3500 
L 2247 1797 
L 3578 0 
L 2900 0 
L 1881 1375 
L 863 0 
L 184 0 
L 1544 1831 
L 300 3500 
L 978 3500 
L 1906 2253 
L 2834 3500 
L 3513 3500 
z
" transform="scale(0.015625)"/>
       <path id="DejaVuSans-70" d="M 1159 525 
L 1159 -1331 
L 581 -1331 
L 581 3500 
L 1159 3500 
L 1159 2969 
Q 1341 3281 1617 3432 
Q 1894 3584 2278 3584 
Q 2916 3584 3314 3078 
Q 3713 2572 3713 1747 
Q 3713 922 3314 415 
Q 2916 -91 2278 -91 
Q 1894 -91 1617 61 
Q 1341 213 1159 525 
z
M 3116 1747 
Q 3116 2381 2855 2742 
Q 2594 3103 2138 3103 
Q 1681 3103 1420 2742 
Q 1159 2381 1159 1747 
Q 1159 1113 1420 752 
Q 1681 391 2138 391 
Q 2594 391 2855 752 
Q 3116 1113 3116 1747 
z
" transform="scale(0.015625)"/>
       <path id="DejaVuSans-72" d="M 2631 2963 
Q 2534 3019 2420 3045 
Q 2306 3072 2169 3072 
Q 1681 3072 1420 2755 
Q 1159 2438 1159 1844 
L 1159 0 
L 581 0 
L 581 3500 
L 1159 3500 
L 1159 2956 
Q 1341 3275 1631 3429 
Q 1922 3584 2338 3584 
Q 2397 3584 2469 3576 
Q 2541 3569 2628 3553 
L 2631 2963 
z
" transform="scale(0.015625)"/>
      </defs>
      <use xlink:href="#DejaVuSans-45"/>
      <use xlink:href="#DejaVuSans-78" transform="translate(63.183594 0)"/>
      <use xlink:href="#DejaVuSans-70" transform="translate(122.363281 0)"/>
      <use xlink:href="#DejaVuSans-65" transform="translate(185.839844 0)"/>
      <use xlink:href="#DejaVuSans-72" transform="translate(247.363281 0)"/>
      <use xlink:href="#DejaVuSans-69" transform="translate(288.476562 0)"/>
      <use xlink:href="#DejaVuSans-6d" transform="translate(316.259766 0)"/>
      <use xlink:href="#DejaVuSans-65" transform="translate(413.671875 0)"/>
      <use xlink:href="#DejaVuSans-6e" transform="translate(475.195312 0)"/>
      <use xlink:href="#DejaVuSans-74" transform="translate(538.574219 0)"/>
      <use xlink:href="#DejaVuSans-61" transform="translate(577.783203 0)"/>
      <use xlink:href="#DejaVuSans-6c" transform="translate(639.0625 0)"/>
      <use xlink:href="#DejaVuSans-20" transform="translate(666.845703 0)"/>
      <use xlink:href="#DejaVuSans-50" transform="translate(698.632812 0)"/>
      <use xlink:href="#DejaVuSans-56" transform="translate(758.935547 0)"/>
     </g>
    </g>
    <g id="line2d_17">
     <path d="M 769.426563 50.094688 
L 779.426563 50.094688 
L 779.426563 50.094688 
L 789.426563 50.094688 
L 789.426563 50.094688 
" style="fill: none; stroke: #ff0000; stroke-width: 2; stroke-linecap: square"/>
    </g>
    <g id="text_17">
     <!-- Estimated PV -->
     <g transform="translate(797.426563 53.594688) scale(0.1 -0.1)">
      <defs>
       <path id="DejaVuSans-73" d="M 2834 3397 
L 2834 2853 
Q 2591 2978 2328 3040 
Q 2066 3103 1784 3103 
Q 1356 3103 1142 2972 
Q 928 2841 928 2578 
Q 928 2378 1081 2264 
Q 1234 2150 1697 2047 
L 1894 2003 
Q 2506 1872 2764 1633 
Q 3022 1394 3022 966 
Q 3022 478 2636 193 
Q 2250 -91 1575 -91 
Q 1294 -91 989 -36 
Q 684 19 347 128 
L 347 722 
Q 666 556 975 473 
Q 1284 391 1588 391 
Q 1994 391 2212 530 
Q 2431 669 2431 922 
Q 2431 1156 2273 1281 
Q 2116 1406 1581 1522 
L 1381 1569 
Q 847 1681 609 1914 
Q 372 2147 372 2553 
Q 372 3047 722 3315 
Q 1072 3584 1716 3584 
Q 2034 3584 2315 3537 
Q 2597 3491 2834 3397 
z
" transform="scale(0.015625)"/>
      </defs>
      <use xlink:href="#DejaVuSans-45"/>
      <use xlink:href="#DejaVuSans-73" transform="translate(63.183594 0)"/>
      <use xlink:href="#DejaVuSans-74" transform="translate(115.283203 0)"/>
      <use xlink:href="#DejaVuSans-69" transform="translate(154.492188 0)"/>
      <use xlink:href="#DejaVuSans-6d" transform="translate(182.275391 0)"/>
      <use xlink:href="#DejaVuSans-61" transform="translate(279.6875 0)"/>
      <use xlink:href="#DejaVuSans-74" transform="translate(340.966797 0)"/>
      <use xlink:href="#DejaVuSans-65" transform="translate(380.175781 0)"/>
      <use xlink:href="#DejaVuSans-64" transform="translate(441.699219 0)"/>
      <use xlink:href="#DejaVuSans-20" transform="translate(505.175781 0)"/>
      <use xlink:href="#DejaVuSans-50" transform="translate(536.962891 0)"/>
      <use xlink:href="#DejaVuSans-56" transform="translate(597.265625 0)"/>
     </g>
    </g>
   </g>
  </g>
 </g>
 <defs>
  <clipPath id="pc684966813">
   <rect x="52.160938" y="22.318125" width="837" height="554.4"/>
  </clipPath>
 </defs>
</svg>
