<?xml version="1.0" encoding="utf-8" standalone="no"?>
<!DOCTYPE svg PUBLIC "-//W3C//DTD SVG 1.1//EN"
  "http://www.w3.org/Graphics/SVG/1.1/DTD/svg11.dtd">
<svg xmlns:xlink="http://www.w3.org/1999/xlink" width="896.360937pt" height="600.59625pt" viewBox="0 0 896.360937 600.59625" xmlns="http://www.w3.org/2000/svg" version="1.1">
 <metadata>
  <rdf:RDF xmlns:dc="http://purl.org/dc/elements/1.1/" xmlns:cc="http://creativecommons.org/ns#" xmlns:rdf="http://www.w3.org/1999/02/22-rdf-syntax-ns#">
   <cc:Work>
    <dc:type rdf:resource="http://purl.org/dc/dcmitype/StillImage"/>
    <dc:date>2026-03-05T08:51:31.599661</dc:date>
    <dc:format>image/svg+xml</dc:format>
    <dc:creator>
     <cc:Agent>
      <dc:title>Matplotlib v3.10.6, https://matplotlib.org/</dc:title>
     </cc:Agent>
    </dc:creator>
   </cc:Work>
  </rdf:RDF>
 </metadata>
 <defs>
  <style type="text/css">*{stroke-linejoin: round; stroke-linecap: butt}</style>
 </defs>
 <g id="figure_1">
  <g id="patch_1">
   <path d="M 0 600.59625 
L 896.360937 600.59625 
L 896.360937 0 
L 0 0 
z
" style="fill: #ffffff"/>
  </g>
  <g id="axes_1">
   <g id="patch_2">
    <path d="M 52.160938 576.718125 
L 889.160938 576.718125 
L 889.160938 22.318125 
L 52.160938 22.318125 
z
" style="fill: #ffffff"/>
   </g>
   <g id="matplotlib.axis_1">
    <g id="xtick_1">
     <g id="line2d_1">
      <defs>
       <path id="m98119cc028" d="M 0 0 
L 0 3.5 
" style="stroke: #000000; stroke-width: 0.8"/>
      </defs>
      <g>
       <use xlink:href="#m98119cc028" x="52.160938" y="576.718125" style="stroke: #000000; stroke-width: 0.8"/>
      </g>
     </g>
     <g id="text_1">
      <!-- 0 -->
      <g transform="translate(48.979688 591.316563) scale(0.1 -0.1)">
       <defs>
        <path id="DejaVuSans-30" d="M 2034 4250 
Q 1547 4250 1301 3770 
Q 1056 3291 1056 2328 
Q 1056 1369 1301 889 
Q 1547 409 2034 409 
Q 2525 409 2770 889 
Q 3016 1369 3016 2328 
Q 3016 3291 2770 3770 
Q 2525 4250 2034 4250 
z
M 2034 4750 
Q 2819 4750 3233 4129 
Q 3647 3509 3647 2328 
Q 3647 1150 3233 529 
Q 2819 -91 2034 -91 
Q 1250 -91 836 529 
Q 422 1150 422 2328 
Q 422 3509 836 4129 
Q 1250 4750 2034 4750 
z
" transform="scale(0.015625)"/>
       </defs>
       <use xlink:href="#DejaVuSans-30"/>
      </g>
     </g>
    </g>
    <g id="xtick_2">
     <g id="line2d_2">
      <g>
       <use xlink:href="#m98119cc028" x="224.916355" y="576.718125" style="stroke: #000000; stroke-width: 0.8"/>
      </g>
     </g>
     <g id="text_2">
      <!-- 200 -->
      <g transform="translate(215.372605 591.316563) scale(0.1 -0.1)">
       <defs>
        <path id="DejaVuSans-32" d="M 1228 531 
L 3431 531 
L 3431 0 
L 469 0 
L 469 531 
Q 828 903 1448 1529 
Q 2069 2156 2228 2338 
Q 2531 2678 2651 2914 
Q 2772 3150 2772 3378 
Q 2772 3750 2511 3984 
Q 2250 4219 1831 4219 
Q 1534 4219 1204 4116 
Q 875 4013 500 3803 
L 500 4441 
Q 881 4594 1212 4672 
Q 1544 4750 1819 4750 
Q 2544 4750 2975 4387 
Q 3406 4025 3406 3419 
Q 3406 3131 3298 2873 
Q 3191 2616 2906 2266 
Q 2828 2175 2409 1742 
Q 1991 1309 1228 531 
z
" transform="scale(0.015625)"/>
       </defs>
       <use xlink:href="#DejaVuSans-32"/>
       <use xlink:href="#DejaVuSans-30" transform="translate(63.623047 0)"/>
       <use xlink:href="#DejaVuSans-30" transform="translate(127.246094 0)"/>
      </g>
     </g>
    </g>
    <g id="xtick_3">
     <g id="line2d_3">
      <g>
       <use xlink:href="#m98119cc028" x="397.671773" y="576.718125" style="stroke: #000000; stroke-width: 0.8"/>
      </g>
     </g>
     <g id="text_3">
      <!-- 400 -->
      <g transform="translate(388.128023 591.316563) scale(0.1 -0.1)">
       <defs>
        <path id="DejaVuSans-34" d="M 2419 4116 
L 825 1625 
L 2419 1625 
L 2419 4116 
z
M 2253 4666 
L 3047 4666 
L 3047 1625 
L 3713 1625 
L 3713 1100 
L 3047 1100 
L 3047 0 
L 2419 0 
L 2419 1100 
L 313 1100 
L 313 1709 
L 2253 4666 
z
" transform="scale(0.015625)"/>
       </defs>
       <use xlink:href="#DejaVuSans-34"/>
       <use xlink:href="#DejaVuSans-30" transform="translate(63.623047 0)"/>
       <use xlink:href="#DejaVuSans-30" transform="translate(127.246094 0)"/>
      </g>
     </g>
    </g>
    <g id="xtick_4">
     <g id="line2d_4">
      <g>
       <use xlink:href="#m98119cc028" x="570.427191" y="576.718125" style="stroke: #000000; stroke-width: 0.8"/>
      </g>
     </g>
     <g id="text_4">
      <!-- 600 -->
      <g transform="translate(560.883441 591.316563) scale(0.1 -0.1)">
       <defs>
        <path id="DejaVuSans-36" d="M 2113 2584 
Q 1688 2584 1439 2293 
Q 1191 2003 1191 1497 
Q 1191 994 1439 701 
Q 1688 409 2113 409 
Q 2538 409 2786 701 
Q 3034 994 3034 1497 
Q 3034 2003 2786 2293 
Q 2538 2584 2113 2584 
z
M 3366 4563 
L 3366 3988 
Q 3128 4100 2886 4159 
Q 2644 4219 2406 4219 
Q 1781 4219 1451 3797 
Q 1122 3375 1075 2522 
Q 1259 2794 1537 2939 
Q 1816 3084 2150 3084 
Q 2853 3084 3261 2657 
Q 3669 2231 3669 1497 
Q 3669 778 3244 343 
Q 2819 -91 2113 -91 
Q 1303 -91 875 529 
Q 447 1150 447 2328 
Q 447 3434 972 4092 
Q 1497 4750 2381 4750 
Q 2619 4750 2861 4703 
Q 3103 4656 3366 4563 
z
" transform="scale(0.015625)"/>
       </defs>
       <use xlink:href="#DejaVuSans-36"/>
       <use xlink:href="#DejaVuSans-30" transform="translate(63.623047 0)"/>
       <use xlink:href="#DejaVuSans-30" transform="translate(127.246094 0)"/>
      </g>
     </g>
    </g>
    <g id="xtick_5">
     <g id="line2d_5">
      <g>
       <use xlink:href="#m98119cc028" x="743.182609" y="576.718125" style="stroke: #000000; stroke-width: 0.8"/>
      </g>
     </g>
     <g id="text_5">
      <!-- 800 -->
      <g transform="translate(733.638859 591.316563) scale(0.1 -0.1)">
       <defs>
        <path id="DejaVuSans-38" d="M 2034 2216 
Q 1584 2216 1326 1975 
Q 1069 1734 1069 1313 
Q 1069 891 1326 650 
Q 1584 409 2034 409 
Q 2484 409 2743 651 
Q 3003 894 3003 1313 
Q 3003 1734 2745 1975 
Q 2488 2216 2034 2216 
z
M 1403 2484 
Q 997 2584 770 2862 
Q 544 3141 544 3541 
Q 544 4100 942 4425 
Q 1341 4750 2034 4750 
Q 2731 4750 3128 4425 
Q 3525 4100 3525 3541 
Q 3525 3141 3298 2862 
Q 3072 2584 2669 2484 
Q 3125 2378 3379 2068 
Q 3634 1759 3634 1313 
Q 3634 634 3220 271 
Q 2806 -91 2034 -91 
Q 1263 -91 848 271 
Q 434 634 434 1313 
Q 434 1759 690 2068 
Q 947 2378 1403 2484 
z
M 1172 3481 
Q 1172 3119 1398 2916 
Q 1625 2713 2034 2713 
Q 2441 2713 2670 2916 
Q 2900 3119 2900 3481 
Q 2900 3844 2670 4047 
Q 2441 4250 2034 4250 
Q 1625 4250 1398 4047 
Q 1172 3844 1172 3481 
z
" transform="scale(0.015625)"/>
       </defs>
       <use xlink:href="#DejaVuSans-38"/>
       <use xlink:href="#DejaVuSans-30" transform="translate(63.623047 0)"/>
       <use xlink:href="#DejaVuSans-30" transform="translate(127.246094 0)"/>
      </g>
     </g>
    </g>
   </g>
   <g id="matplotlib.axis_2">
    <g id="ytick_1">
     <g id="line2d_6">
      <defs>
       <path id="m0c0d5e49ef" d="M 0 0 
L -3.5 0 
" style="stroke: #000000; stroke-width: 0.8"/>
      </defs>
      <g>
       <use xlink:href="#m0c0d5e49ef" x="52.160938" y="576.718125" style="stroke: #000000; stroke-width: 0.8"/>
      </g>
     </g>
     <g id="text_6">
      <!-- −0.1 -->
      <g transform="translate(20.878125 580.517344) scale(0.1 -0.1)">
       <defs>
        <path id="DejaVuSans-2212" d="M 678 2272 
L 4684 2272 
L 4684 1741 
L 678 1741 
L 678 2272 
z
" transform="scale(0.015625)"/>
        <path id="DejaVuSans-2e" d="M 684 794 
L 1344 794 
L 1344 0 
L 684 0 
L 684 794 
z
" transform="scale(0.015625)"/>
        <path id="DejaVuSans-31" d="M 794 531 
L 1825 531 
L 1825 4091 
L 703 3866 
L 703 4441 
L 1819 4666 
L 2450 4666 
L 2450 531 
L 3481 531 
L 3481 0 
L 794 0 
L 794 531 
z
" transform="scale(0.015625)"/>
       </defs>
       <use xlink:href="#DejaVuSans-2212"/>
       <use xlink:href="#DejaVuSans-30" transform="translate(83.789062 0)"/>
       <use xlink:href="#DejaVuSans-2e" transform="translate(147.412109 0)"/>
       <use xlink:href="#DejaVuSans-31" transform="translate(179.199219 0)"/>
      </g>
     </g>
    </g>
    <g id="ytick_2">
     <g id="line2d_7">
      <g>
       <use xlink:href="#m0c0d5e49ef" x="52.160938" y="497.518125" style="stroke: #000000; stroke-width: 0.8"/>
      </g>
     </g>
     <g id="text_7">
      <!-- 0.0 -->
      <g transform="translate(29.257813 501.317344) scale(0.1 -0.1)">
       <use xlink:href="#DejaVuSans-30"/>
       <use xlink:href="#DejaVuSans-2e" transform="translate(63.623047 0)"/>
       <use xlink:href="#DejaVuSans-30" transform="translate(95.410156 0)"/>
      </g>
     </g>
    </g>
    <g id="ytick_3">
     <g id="line2d_8">
      <g>
       <use xlink:href="#m0c0d5e49ef" x="52.160938" y="418.318125" style="stroke: #000000; stroke-width: 0.8"/>
      </g>
     </g>
     <g id="text_8">
      <!-- 0.1 -->
      <g transform="translate(29.257813 422.117344) scale(0.1 -0.1)">
       <use xlink:href="#DejaVuSans-30"/>
       <use xlink:href="#DejaVuSans-2e" transform="translate(63.623047 0)"/>
       <use xlink:href="#DejaVuSans-31" transform="translate(95.410156 0)"/>
      </g>
     </g>
    </g>
    <g id="ytick_4">
     <g id="line2d_9">
      <g>
       <use xlink:href="#m0c0d5e49ef" x="52.160938" y="339.118125" style="stroke: #000000; stroke-width: 0.8"/>
      </g>
     </g>
     <g id="text_9">
      <!-- 0.2 -->
      <g transform="translate(29.257813 342.917344) scale(0.1 -0.1)">
       <use xlink:href="#DejaVuSans-30"/>
       <use xlink:href="#DejaVuSans-2e" transform="translate(63.623047 0)"/>
       <use xlink:href="#DejaVuSans-32" transform="translate(95.410156 0)"/>
      </g>
     </g>
    </g>
    <g id="ytick_5">
     <g id="line2d_10">
      <g>
       <use xlink:href="#m0c0d5e49ef" x="52.160938" y="259.918125" style="stroke: #000000; stroke-width: 0.8"/>
      </g>
     </g>
     <g id="text_10">
      <!-- 0.3 -->
      <g transform="translate(29.257813 263.717344) scale(0.1 -0.1)">
       <defs>
        <path id="DejaVuSans-33" d="M 2597 2516 
Q 3050 2419 3304 2112 
Q 3559 1806 3559 1356 
Q 3559 666 3084 287 
Q 2609 -91 1734 -91 
Q 1441 -91 1130 -33 
Q 819 25 488 141 
L 488 750 
Q 750 597 1062 519 
Q 1375 441 1716 441 
Q 2309 441 2620 675 
Q 2931 909 2931 1356 
Q 2931 1769 2642 2001 
Q 2353 2234 1838 2234 
L 1294 2234 
L 1294 2753 
L 1863 2753 
Q 2328 2753 2575 2939 
Q 2822 3125 2822 3475 
Q 2822 3834 2567 4026 
Q 2313 4219 1838 4219 
Q 1578 4219 1281 4162 
Q 984 4106 628 3988 
L 628 4550 
Q 988 4650 1302 4700 
Q 1616 4750 1894 4750 
Q 2613 4750 3031 4423 
Q 3450 4097 3450 3541 
Q 3450 3153 3228 2886 
Q 3006 2619 2597 2516 
z
" transform="scale(0.015625)"/>
       </defs>
       <use xlink:href="#DejaVuSans-30"/>
       <use xlink:href="#DejaVuSans-2e" transform="translate(63.623047 0)"/>
       <use xlink:href="#DejaVuSans-33" transform="translate(95.410156 0)"/>
      </g>
     </g>
    </g>
    <g id="ytick_6">
     <g id="line2d_11">
      <g>
       <use xlink:href="#m0c0d5e49ef" x="52.160938" y="180.718125" style="stroke: #000000; stroke-width: 0.8"/>
      </g>
     </g>
     <g id="text_11">
      <!-- 0.4 -->
      <g transform="translate(29.257813 184.517344) scale(0.1 -0.1)">
       <use xlink:href="#DejaVuSans-30"/>
       <use xlink:href="#DejaVuSans-2e" transform="translate(63.623047 0)"/>
       <use xlink:href="#DejaVuSans-34" transform="translate(95.410156 0)"/>
      </g>
     </g>
    </g>
    <g id="ytick_7">
     <g id="line2d_12">
      <g>
       <use xlink:href="#m0c0d5e49ef" x="52.160938" y="101.518125" style="stroke: #000000; stroke-width: 0.8"/>
      </g>
     </g>
     <g id="text_12">
      <!-- 0.5 -->
      <g transform="translate(29.257813 105.317344) scale(0.1 -0.1)">
       <defs>
        <path id="DejaVuSans-35" d="M 691 4666 
L 3169 4666 
L 3169 4134 
L 1269 4134 
L 1269 2991 
Q 1406 3038 1543 3061 
Q 1681 3084 1819 3084 
Q 2600 3084 3056 2656 
Q 3513 2228 3513 1497 
Q 3513 744 3044 326 
Q 2575 -91 1722 -91 
Q 1428 -91 1123 -41 
Q 819 9 494 109 
L 494 744 
Q 775 591 1075 516 
Q 1375 441 1709 441 
Q 2250 441 2565 725 
Q 2881 1009 2881 1497 
Q 2881 1984 2565 2268 
Q 2250 2553 1709 2553 
Q 1456 2553 1204 2497 
Q 953 2441 691 2322 
L 691 4666 
z
" transform="scale(0.015625)"/>
       </defs>
       <use xlink:href="#DejaVuSans-30"/>
       <use xlink:href="#DejaVuSans-2e" transform="translate(63.623047 0)"/>
       <use xlink:href="#DejaVuSans-35" transform="translate(95.410156 0)"/>
      </g>
     </g>
    </g>
    <g id="ytick_8">
     <g id="line2d_13">
      <g>
       <use xlink:href="#m0c0d5e49ef" x="52.160938" y="22.318125" style="stroke: #000000; stroke-width: 0.8"/>
      </g>
     </g>
     <g id="text_13">
      <!-- 0.6 -->
      <g transform="translate(29.257813 26.117344) scale(0.1 -0.1)">
       <use xlink:href="#DejaVuSans-30"/>
       <use xlink:href="#DejaVuSans-2e" transform="translate(63.623047 0)"/>
       <use xlink:href="#DejaVuSans-36" transform="translate(95.410156 0)"/>
      </g>
     </g>
    </g>
    <g id="text_14">
     <!-- Value of PV [°C] -->
     <g transform="translate(14.798438 339.164219) rotate(-90) scale(0.1 -0.1)">
      <defs>
       <path id="DejaVuSans-56" d="M 1831 0 
L 50 4666 
L 709 4666 
L 2188 738 
L 3669 4666 
L 4325 4666 
L 2547 0 
L 1831 0 
z
" transform="scale(0.015625)"/>
       <path id="DejaVuSans-61" d="M 2194 1759 
Q 1497 1759 1228 1600 
Q 959 1441 959 1056 
Q 959 750 1161 570 
Q 1363 391 1709 391 
Q 2188 391 2477 730 
Q 2766 1069 2766 1631 
L 2766 1759 
L 2194 1759 
z
M 3341 1997 
L 3341 0 
L 2766 0 
L 2766 531 
Q 2569 213 2275 61 
Q 1981 -91 1556 -91 
Q 1019 -91 701 211 
Q 384 513 384 1019 
Q 384 1609 779 1909 
Q 1175 2209 1959 2209 
L 2766 2209 
L 2766 2266 
Q 2766 2663 2505 2880 
Q 2244 3097 1772 3097 
Q 1472 3097 1187 3025 
Q 903 2953 641 2809 
L 641 3341 
Q 956 3463 1253 3523 
Q 1550 3584 1831 3584 
Q 2591 3584 2966 3190 
Q 3341 2797 3341 1997 
z
" transform="scale(0.015625)"/>
       <path id="DejaVuSans-6c" d="M 603 4863 
L 1178 4863 
L 1178 0 
L 603 0 
L 603 4863 
z
" transform="scale(0.015625)"/>
       <path id="DejaVuSans-75" d="M 544 1381 
L 544 3500 
L 1119 3500 
L 1119 1403 
Q 1119 906 1312 657 
Q 1506 409 1894 409 
Q 2359 409 2629 706 
Q 2900 1003 2900 1516 
L 2900 3500 
L 3475 3500 
L 3475 0 
L 2900 0 
L 2900 538 
Q 2691 219 2414 64 
Q 2138 -91 1772 -91 
Q 1169 -91 856 284 
Q 544 659 544 1381 
z
M 1991 3584 
L 1991 3584 
z
" transform="scale(0.015625)"/>
       <path id="DejaVuSans-65" d="M 3597 1894 
L 3597 1613 
L 953 1613 
Q 991 1019 1311 708 
Q 1631 397 2203 397 
Q 2534 397 2845 478 
Q 3156 559 3463 722 
L 3463 178 
Q 3153 47 2828 -22 
Q 2503 -91 2169 -91 
Q 1331 -91 842 396 
Q 353 884 353 1716 
Q 353 2575 817 3079 
Q 1281 3584 2069 3584 
Q 2775 3584 3186 3129 
Q 3597 2675 3597 1894 
z
M 3022 2063 
Q 3016 2534 2758 2815 
Q 2500 3097 2075 3097 
Q 1594 3097 1305 2825 
Q 1016 2553 972 2059 
L 3022 2063 
z
" transform="scale(0.015625)"/>
       <path id="DejaVuSans-20" transform="scale(0.015625)"/>
       <path id="DejaVuSans-6f" d="M 1959 3097 
Q 1497 3097 1228 2736 
Q 959 2375 959 1747 
Q 959 1119 1226 758 
Q 1494 397 1959 397 
Q 2419 397 2687 759 
Q 2956 1122 2956 1747 
Q 2956 2369 2687 2733 
Q 2419 3097 1959 3097 
z
M 1959 3584 
Q 2709 3584 3137 3096 
Q 3566 2609 3566 1747 
Q 3566 888 3137 398 
Q 2709 -91 1959 -91 
Q 1206 -91 779 398 
Q 353 888 353 1747 
Q 353 2609 779 3096 
Q 1206 3584 1959 3584 
z
" transform="scale(0.015625)"/>
       <path id="DejaVuSans-66" d="M 2375 4863 
L 2375 4384 
L 1825 4384 
Q 1516 4384 1395 4259 
Q 1275 4134 1275 3809 
L 1275 3500 
L 2222 3500 
L 2222 3053 
L 1275 3053 
L 1275 0 
L 697 0 
L 697 3053 
L 147 3053 
L 147 3500 
L 697 3500 
L 697 3744 
Q 697 4328 969 4595 
Q 1241 4863 1831 4863 
L 2375 4863 
z
" transform="scale(0.015625)"/>
       <path id="DejaVuSans-50" d="M 1259 4147 
L 1259 2394 
L 2053 2394 
Q 2494 2394 2734 2622 
Q 2975 2850 2975 3272 
Q 2975 3691 2734 3919 
Q 2494 4147 2053 4147 
L 1259 4147 
z
M 628 4666 
L 2053 4666 
Q 2838 4666 3239 4311 
Q 3641 3956 3641 3272 
Q 3641 2581 3239 2228 
Q 2838 1875 2053 1875 
L 1259 1875 
L 1259 0 
L 628 0 
L 628 4666 
z
" transform="scale(0.015625)"/>
       <path id="DejaVuSans-5b" d="M 550 4863 
L 1875 4863 
L 1875 4416 
L 1125 4416 
L 1125 -397 
L 1875 -397 
L 1875 -844 
L 550 -844 
L 550 4863 
z
" transform="scale(0.015625)"/>
       <path id="DejaVuSans-b0" d="M 1600 4347 
Q 1350 4347 1178 4173 
Q 1006 4000 1006 3750 
Q 1006 3503 1178 3333 
Q 1350 3163 1600 3163 
Q 1850 3163 2022 3333 
Q 2194 3503 2194 3750 
Q 2194 3997 2020 4172 
Q 1847 4347 1600 4347 
z
M 1600 4750 
Q 1800 4750 1984 4673 
Q 2169 4597 2303 4453 
Q 2447 4313 2519 4134 
Q 2591 3956 2591 3750 
Q 2591 3338 2302 3052 
Q 2013 2766 1594 2766 
Q 1172 2766 890 3047 
Q 609 3328 609 3750 
Q 609 4169 896 4459 
Q 1184 4750 1600 4750 
z
" transform="scale(0.015625)"/>
       <path id="DejaVuSans-43" d="M 4122 4306 
L 4122 3641 
Q 3803 3938 3442 4084 
Q 3081 4231 2675 4231 
Q 1875 4231 1450 3742 
Q 1025 3253 1025 2328 
Q 1025 1406 1450 917 
Q 1875 428 2675 428 
Q 3081 428 3442 575 
Q 3803 722 4122 1019 
L 4122 359 
Q 3791 134 3420 21 
Q 3050 -91 2638 -91 
Q 1578 -91 968 557 
Q 359 1206 359 2328 
Q 359 3453 968 4101 
Q 1578 4750 2638 4750 
Q 3056 4750 3426 4639 
Q 3797 4528 4122 4306 
z
" transform="scale(0.015625)"/>
       <path id="DejaVuSans-5d" d="M 1947 4863 
L 1947 -844 
L 622 -844 
L 622 -397 
L 1369 -397 
L 1369 4416 
L 622 4416 
L 622 4863 
L 1947 4863 
z
" transform="scale(0.015625)"/>
      </defs>
      <use xlink:href="#DejaVuSans-56"/>
      <use xlink:href="#DejaVuSans-61" transform="translate(60.658203 0)"/>
      <use xlink:href="#DejaVuSans-6c" transform="translate(121.9375 0)"/>
      <use xlink:href="#DejaVuSans-75" transform="translate(149.720703 0)"/>
      <use xlink:href="#DejaVuSans-65" transform="translate(213.099609 0)"/>
      <use xlink:href="#DejaVuSans-20" transform="translate(274.623047 0)"/>
      <use xlink:href="#DejaVuSans-6f" transform="translate(306.410156 0)"/>
      <use xlink:href="#DejaVuSans-66" transform="translate(367.591797 0)"/>
      <use xlink:href="#DejaVuSans-20" transform="translate(402.796875 0)"/>
      <use xlink:href="#DejaVuSans-50" transform="translate(434.583984 0)"/>
      <use xlink:href="#DejaVuSans-56" transform="translate(494.886719 0)"/>
      <use xlink:href="#DejaVuSans-20" transform="translate(563.294922 0)"/>
      <use xlink:href="#DejaVuSans-5b" transform="translate(595.082031 0)"/>
      <use xlink:href="#DejaVuSans-b0" transform="translate(634.095703 0)"/>
      <use xlink:href="#DejaVuSans-43" transform="translate(684.095703 0)"/>
      <use xlink:href="#DejaVuSans-5d" transform="translate(753.919922 0)"/>
     </g>
    </g>
   </g>
   <g id="line2d_14">
    <path d="M 52.160938 497.518125 
L 53.888492 497.518125 
L 53.888492 495.597525 
L 54.752269 495.597525 
L 54.752269 494.963925 
L 55.616046 494.963925 
L 55.616046 494.330325 
L 56.479823 494.330325 
L 56.479823 496.231125 
L 57.3436 496.231125 
L 57.3436 494.963925 
L 59.071154 494.963925 
L 59.071154 496.884525 
L 59.934931 496.884525 
L 59.934931 495.597525 
L 60.798708 495.597525 
L 60.798708 493.676925 
L 61.662485 493.676925 
L 61.662485 491.122725 
L 64.253817 491.122725 
L 64.253817 490.489125 
L 65.117594 490.489125 
L 65.117594 488.588325 
L 65.981371 488.588325 
L 65.981371 485.380725 
L 66.845148 485.380725 
L 66.845148 487.301325 
L 67.708925 487.301325 
L 67.708925 488.588325 
L 68.572702 488.588325 
L 68.572702 489.855525 
L 69.436479 489.855525 
L 69.436479 486.667725 
L 70.300256 486.667725 
L 70.300256 491.122725 
L 72.027811 491.122725 
L 72.027811 489.221925 
L 72.891588 489.221925 
L 72.891588 487.934925 
L 73.755365 487.934925 
L 73.755365 487.301325 
L 74.619142 487.301325 
L 74.619142 486.034125 
L 75.482919 486.034125 
L 75.482919 484.747125 
L 79.801804 484.747125 
L 79.801804 482.192925 
L 81.529359 482.192925 
L 81.529359 483.479925 
L 82.393136 483.479925 
L 82.393136 479.638725 
L 83.256913 479.638725 
L 83.256913 479.005125 
L 84.12069 479.005125 
L 84.12069 478.371525 
L 87.575798 478.371525 
L 87.575798 477.737925 
L 88.439575 477.737925 
L 88.439575 476.450925 
L 89.303352 476.450925 
L 89.303352 474.550125 
L 90.167129 474.550125 
L 90.167129 472.629525 
L 91.030907 472.629525 
L 91.030907 471.995925 
L 94.486015 471.995925 
L 94.486015 470.708925 
L 95.349792 470.708925 
L 95.349792 468.154725 
L 96.213569 468.154725 
L 96.213569 466.253925 
L 97.941123 466.253925 
L 97.941123 465.600525 
L 99.668677 465.600525 
L 99.668677 463.066125 
L 100.532455 463.066125 
L 100.532455 459.224925 
L 103.123786 459.224925 
L 103.123786 456.670725 
L 104.85134 456.670725 
L 104.85134 454.116525 
L 105.715117 454.116525 
L 105.715117 453.482925 
L 106.578894 453.482925 
L 106.578894 452.849325 
L 108.306448 452.849325 
L 108.306448 451.562325 
L 109.170225 451.562325 
L 109.170225 448.374525 
L 110.034003 448.374525 
L 110.034003 447.740925 
L 110.89778 447.740925 
L 110.89778 446.473725 
L 115.216665 446.473725 
L 115.216665 445.820325 
L 116.080442 445.820325 
L 116.080442 443.919525 
L 116.944219 443.919525 
L 116.944219 440.731725 
L 117.807996 440.731725 
L 117.807996 441.365325 
L 118.671773 441.365325 
L 118.671773 440.078325 
L 121.263105 440.078325 
L 121.263105 439.444725 
L 122.126882 439.444725 
L 122.126882 436.256925 
L 122.990659 436.256925 
L 122.990659 435.623325 
L 123.854436 435.623325 
L 123.854436 434.336325 
L 124.718213 434.336325 
L 124.718213 433.702725 
L 125.58199 433.702725 
L 125.58199 433.069125 
L 126.445767 433.069125 
L 126.445767 431.148525 
L 127.309544 431.148525 
L 127.309544 429.247725 
L 128.173321 429.247725 
L 128.173321 427.327125 
L 129.900876 427.327125 
L 129.900876 426.040125 
L 130.764653 426.040125 
L 130.764653 424.139325 
L 131.62843 424.139325 
L 131.62843 420.951525 
L 134.219761 420.951525 
L 134.219761 420.298125 
L 135.083538 420.298125 
L 135.083538 420.951525 
L 135.947315 420.951525 
L 135.947315 418.397325 
L 136.811092 418.397325 
L 136.811092 417.110325 
L 137.674869 417.110325 
L 137.674869 414.556125 
L 140.266201 414.556125 
L 140.266201 411.368325 
L 141.129978 411.368325 
L 141.129978 409.447725 
L 141.993755 409.447725 
L 141.993755 408.180525 
L 143.721309 408.180525 
L 143.721309 407.546925 
L 144.585086 407.546925 
L 144.585086 403.072125 
L 145.448863 403.072125 
L 145.448863 401.804925 
L 147.176417 401.804925 
L 147.176417 399.884325 
L 148.040194 399.884325 
L 148.040194 396.062925 
L 148.903972 396.062925 
L 148.903972 395.429325 
L 151.495303 395.429325 
L 151.495303 394.775925 
L 152.35908 394.775925 
L 152.35908 389.033925 
L 156.677965 389.033925 
L 156.677965 388.400325 
L 157.541742 388.400325 
L 157.541742 385.212525 
L 158.40552 385.212525 
L 158.40552 383.291925 
L 159.269297 383.291925 
L 159.269297 382.658325 
L 160.133074 382.658325 
L 160.133074 382.024725 
L 160.996851 382.024725 
L 160.996851 379.470525 
L 161.860628 379.470525 
L 161.860628 376.916325 
L 162.724405 376.916325 
L 162.724405 377.549925 
L 163.588182 377.549925 
L 163.588182 376.282725 
L 167.04329 376.282725 
L 167.04329 375.629325 
L 167.907068 375.629325 
L 167.907068 370.540725 
L 168.770845 370.540725 
L 168.770845 369.887325 
L 171.362176 369.887325 
L 171.362176 369.253725 
L 172.225953 369.253725 
L 172.225953 365.432325 
L 173.08973 365.432325 
L 173.08973 366.065925 
L 173.953507 366.065925 
L 173.953507 364.145325 
L 174.817284 364.145325 
L 174.817284 363.511725 
L 176.544838 363.511725 
L 176.544838 362.878125 
L 178.272393 362.878125 
L 178.272393 359.056725 
L 179.13617 359.056725 
L 179.13617 357.769725 
L 179.999947 357.769725 
L 179.999947 357.136125 
L 181.727501 357.136125 
L 181.727501 355.215525 
L 182.591278 355.215525 
L 182.591278 354.581925 
L 183.455055 354.581925 
L 183.455055 352.027725 
L 184.318832 352.027725 
L 184.318832 350.760525 
L 186.910164 350.760525 
L 186.910164 348.839925 
L 187.773941 348.839925 
L 187.773941 346.285725 
L 188.637718 346.285725 
L 188.637718 344.365125 
L 192.092826 344.365125 
L 192.092826 341.810925 
L 192.956603 341.810925 
L 192.956603 337.989525 
L 196.411711 337.989525 
L 196.411711 337.355925 
L 197.275489 337.355925 
L 197.275489 332.881125 
L 198.139266 332.881125 
L 198.139266 331.613925 
L 203.321928 331.613925 
L 203.321928 330.980325 
L 205.049482 330.980325 
L 205.049482 329.059725 
L 205.913259 329.059725 
L 205.913259 326.505525 
L 206.777037 326.505525 
L 206.777037 325.238325 
L 210.232145 325.238325 
L 210.232145 324.584925 
L 211.095922 324.584925 
L 211.095922 322.684125 
L 211.959699 322.684125 
L 211.959699 320.129925 
L 212.823476 320.129925 
L 212.823476 319.496325 
L 214.55103 319.496325 
L 214.55103 318.842925 
L 218.869916 318.842925 
L 218.869916 316.942125 
L 219.733693 316.942125 
L 219.733693 313.754325 
L 220.59747 313.754325 
L 220.59747 312.467325 
L 224.052578 312.467325 
L 224.052578 310.546725 
L 224.916355 310.546725 
L 224.916355 306.725325 
L 226.64391 306.725325 
L 226.64391 306.091725 
L 228.371464 306.091725 
L 228.371464 305.458125 
L 229.235241 305.458125 
L 229.235241 306.091725 
L 230.099018 306.091725 
L 230.099018 304.804725 
L 230.962795 304.804725 
L 230.962795 302.250525 
L 231.826572 302.250525 
L 231.826572 299.716125 
L 235.281681 299.716125 
L 235.281681 299.062725 
L 237.009235 299.062725 
L 237.009235 295.874925 
L 237.873012 295.874925 
L 237.873012 295.241325 
L 238.736789 295.241325 
L 238.736789 293.320725 
L 239.600566 293.320725 
L 239.600566 293.954325 
L 240.464343 293.954325 
L 240.464343 293.320725 
L 241.32812 293.320725 
L 241.32812 292.687125 
L 242.191897 292.687125 
L 242.191897 292.053525 
L 243.055674 292.053525 
L 243.055674 290.132925 
L 243.919451 290.132925 
L 243.919451 286.945125 
L 249.965891 286.945125 
L 249.965891 281.836725 
L 250.829668 281.836725 
L 250.829668 280.569525 
L 256.876108 280.569525 
L 256.876108 279.935925 
L 258.603662 279.935925 
L 258.603662 278.015325 
L 259.467439 278.015325 
L 259.467439 275.461125 
L 261.194993 275.461125 
L 261.194993 274.174125 
L 266.377656 274.174125 
L 266.377656 273.540525 
L 268.10521 273.540525 
L 268.10521 272.273325 
L 268.968987 272.273325 
L 268.968987 272.906925 
L 269.832764 272.906925 
L 269.832764 267.798525 
L 275.015427 267.798525 
L 275.015427 266.531325 
L 275.879204 266.531325 
L 275.879204 265.244325 
L 276.742981 265.244325 
L 276.742981 263.977125 
L 277.606758 263.977125 
L 277.606758 264.610725 
L 278.470535 264.610725 
L 278.470535 263.343525 
L 279.334312 263.343525 
L 279.334312 261.422925 
L 284.516975 261.422925 
L 284.516975 260.789325 
L 285.380752 260.789325 
L 285.380752 259.502325 
L 286.244529 259.502325 
L 286.244529 258.868725 
L 287.108306 258.868725 
L 287.108306 258.235125 
L 288.83586 258.235125 
L 288.83586 256.314525 
L 289.699637 256.314525 
L 289.699637 258.235125 
L 290.563414 258.235125 
L 290.563414 258.868725 
L 291.427191 258.868725 
L 291.427191 258.235125 
L 292.290968 258.235125 
L 292.290968 256.314525 
L 293.154746 256.314525 
L 293.154746 255.047325 
L 294.018523 255.047325 
L 294.018523 255.680925 
L 294.8823 255.680925 
L 294.8823 255.047325 
L 300.928739 255.047325 
L 300.928739 254.393925 
L 302.656294 254.393925 
L 302.656294 255.047325 
L 304.383848 255.047325 
L 304.383848 253.760325 
L 305.247625 253.760325 
L 305.247625 253.126725 
L 306.111402 253.126725 
L 306.111402 249.305325 
L 306.975179 249.305325 
L 306.975179 248.651925 
L 308.702733 248.651925 
L 308.702733 249.305325 
L 309.56651 249.305325 
L 309.56651 248.651925 
L 315.61295 248.651925 
L 315.61295 249.305325 
L 316.476727 249.305325 
L 316.476727 248.651925 
L 325.114498 248.651925 
L 325.114498 246.751125 
L 325.978275 246.751125 
L 325.978275 247.384725 
L 326.842052 247.384725 
L 326.842052 248.651925 
L 328.569606 248.651925 
L 328.569606 248.018325 
L 330.29716 248.018325 
L 330.29716 248.651925 
L 332.024715 248.651925 
L 332.024715 246.751125 
L 332.888492 246.751125 
L 332.888492 246.097725 
L 333.752269 246.097725 
L 333.752269 246.751125 
L 334.616046 246.751125 
L 334.616046 245.464125 
L 335.479823 245.464125 
L 335.479823 246.097725 
L 336.3436 246.097725 
L 336.3436 244.196925 
L 337.207377 244.196925 
L 337.207377 244.830525 
L 338.071154 244.830525 
L 338.071154 242.909925 
L 338.934931 242.909925 
L 338.934931 244.830525 
L 339.798708 244.830525 
L 339.798708 242.909925 
L 340.662485 242.909925 
L 340.662485 243.563325 
L 341.526263 243.563325 
L 341.526263 242.909925 
L 342.39004 242.909925 
L 342.39004 242.276325 
L 351.891588 242.276325 
L 351.891588 241.009125 
L 352.755365 241.009125 
L 352.755365 241.642725 
L 354.482919 241.642725 
L 354.482919 242.276325 
L 355.346696 242.276325 
L 355.346696 241.642725 
L 356.210473 241.642725 
L 356.210473 239.722125 
L 357.07425 239.722125 
L 357.07425 237.167925 
L 357.938027 237.167925 
L 357.938027 237.821325 
L 358.801804 237.821325 
L 358.801804 237.167925 
L 359.665581 237.167925 
L 359.665581 236.534325 
L 360.529359 236.534325 
L 360.529359 235.900725 
L 376.077346 235.900725 
L 376.077346 235.267125 
L 376.941123 235.267125 
L 376.941123 230.792325 
L 377.8049 230.792325 
L 377.8049 230.158725 
L 379.532455 230.158725 
L 379.532455 229.525125 
L 399.399328 229.525125 
L 399.399328 228.871725 
L 400.263105 228.871725 
L 400.263105 228.238125 
L 401.126882 228.238125 
L 401.126882 229.525125 
L 401.990659 229.525125 
L 401.990659 228.871725 
L 402.854436 228.871725 
L 402.854436 229.525125 
L 403.718213 229.525125 
L 403.718213 226.970925 
L 405.445767 226.970925 
L 405.445767 224.416725 
L 406.309544 224.416725 
L 406.309544 223.783125 
L 407.173321 223.783125 
L 407.173321 223.129725 
L 408.900876 223.129725 
L 408.900876 223.783125 
L 409.764653 223.783125 
L 409.764653 223.129725 
L 412.355984 223.129725 
L 412.355984 222.496125 
L 413.219761 222.496125 
L 413.219761 223.129725 
L 414.083538 223.129725 
L 414.083538 222.496125 
L 414.947315 222.496125 
L 414.947315 223.129725 
L 415.811092 223.129725 
L 415.811092 221.862525 
L 416.674869 221.862525 
L 416.674869 218.041125 
L 417.538646 218.041125 
L 417.538646 219.941925 
L 418.402424 219.941925 
L 418.402424 218.674725 
L 419.266201 218.674725 
L 419.266201 218.041125 
L 420.993755 218.041125 
L 420.993755 216.754125 
L 427.040194 216.754125 
L 427.040194 216.120525 
L 427.903972 216.120525 
L 427.903972 214.199925 
L 428.767749 214.199925 
L 428.767749 216.754125 
L 429.631526 216.754125 
L 429.631526 215.486925 
L 431.35908 215.486925 
L 431.35908 214.199925 
L 432.222857 214.199925 
L 432.222857 216.120525 
L 433.950411 216.120525 
L 433.950411 215.486925 
L 434.814188 215.486925 
L 434.814188 214.199925 
L 435.677965 214.199925 
L 435.677965 216.120525 
L 436.541742 216.120525 
L 436.541742 211.645725 
L 437.40552 211.645725 
L 437.40552 214.199925 
L 438.269297 214.199925 
L 438.269297 212.932725 
L 439.133074 212.932725 
L 439.133074 212.279325 
L 439.996851 212.279325 
L 439.996851 210.378525 
L 440.860628 210.378525 
L 440.860628 211.645725 
L 441.724405 211.645725 
L 441.724405 211.012125 
L 442.588182 211.012125 
L 442.588182 211.645725 
L 444.315736 211.645725 
L 444.315736 210.378525 
L 454.681061 210.378525 
L 454.681061 209.091525 
L 456.408616 209.091525 
L 456.408616 209.744925 
L 457.272393 209.744925 
L 457.272393 209.091525 
L 458.13617 209.091525 
L 458.13617 209.744925 
L 458.999947 209.744925 
L 458.999947 209.091525 
L 460.727501 209.091525 
L 460.727501 208.457925 
L 462.455055 208.457925 
L 462.455055 207.190725 
L 463.318832 207.190725 
L 463.318832 209.091525 
L 464.182609 209.091525 
L 464.182609 206.537325 
L 465.046386 206.537325 
L 465.046386 209.091525 
L 465.910164 209.091525 
L 465.910164 210.378525 
L 466.773941 210.378525 
L 466.773941 209.744925 
L 469.365272 209.744925 
L 469.365272 210.378525 
L 470.229049 210.378525 
L 470.229049 209.744925 
L 471.092826 209.744925 
L 471.092826 210.378525 
L 471.956603 210.378525 
L 471.956603 208.457925 
L 473.684157 208.457925 
L 473.684157 207.190725 
L 474.547934 207.190725 
L 474.547934 209.091525 
L 476.275489 209.091525 
L 476.275489 205.903725 
L 478.003043 205.903725 
L 478.003043 204.002925 
L 479.730597 204.002925 
L 479.730597 204.636525 
L 480.594374 204.636525 
L 480.594374 204.002925 
L 484.049482 204.002925 
L 484.049482 204.636525 
L 484.913259 204.636525 
L 484.913259 204.002925 
L 485.777037 204.002925 
L 485.777037 204.636525 
L 486.640814 204.636525 
L 486.640814 204.002925 
L 487.504591 204.002925 
L 487.504591 204.636525 
L 489.232145 204.636525 
L 489.232145 204.002925 
L 490.095922 204.002925 
L 490.095922 204.636525 
L 490.959699 204.636525 
L 490.959699 204.002925 
L 501.325024 204.002925 
L 501.325024 204.636525 
L 502.188801 204.636525 
L 502.188801 204.002925 
L 505.64391 204.002925 
L 505.64391 204.636525 
L 506.507687 204.636525 
L 506.507687 204.002925 
L 510.826572 204.002925 
L 510.826572 204.636525 
L 511.690349 204.636525 
L 511.690349 204.002925 
L 524.647006 204.002925 
L 524.647006 203.349525 
L 525.510783 203.349525 
L 525.510783 204.002925 
L 526.37456 204.002925 
L 526.37456 202.082325 
L 527.238337 202.082325 
L 527.238337 203.349525 
L 528.102114 203.349525 
L 528.102114 199.528125 
L 528.965891 199.528125 
L 528.965891 198.894525 
L 529.829668 198.894525 
L 529.829668 201.448725 
L 530.693445 201.448725 
L 530.693445 200.795325 
L 532.420999 200.795325 
L 532.420999 201.448725 
L 533.284777 201.448725 
L 533.284777 200.161725 
L 534.148554 200.161725 
L 534.148554 198.894525 
L 535.012331 198.894525 
L 535.012331 199.528125 
L 535.876108 199.528125 
L 535.876108 198.260925 
L 536.739885 198.260925 
L 536.739885 197.607525 
L 537.603662 197.607525 
L 537.603662 198.260925 
L 538.467439 198.260925 
L 538.467439 197.607525 
L 550.560318 197.607525 
L 550.560318 198.260925 
L 552.287872 198.260925 
L 552.287872 197.607525 
L 554.879204 197.607525 
L 554.879204 198.260925 
L 555.742981 198.260925 
L 555.742981 198.894525 
L 556.606758 198.894525 
L 556.606758 200.161725 
L 557.470535 200.161725 
L 557.470535 197.607525 
L 558.334312 197.607525 
L 558.334312 200.795325 
L 559.198089 200.795325 
L 559.198089 198.260925 
L 561.78942 198.260925 
L 561.78942 199.528125 
L 562.653198 199.528125 
L 562.653198 197.607525 
L 564.380752 197.607525 
L 564.380752 198.260925 
L 565.244529 198.260925 
L 565.244529 197.607525 
L 570.427191 197.607525 
L 570.427191 198.260925 
L 571.290968 198.260925 
L 571.290968 197.607525 
L 580.792516 197.607525 
L 580.792516 196.973925 
L 581.656294 196.973925 
L 581.656294 196.340325 
L 583.383848 196.340325 
L 583.383848 197.607525 
L 584.247625 197.607525 
L 584.247625 196.973925 
L 585.975179 196.973925 
L 585.975179 197.607525 
L 590.294064 197.607525 
L 590.294064 196.973925 
L 591.157842 196.973925 
L 591.157842 197.607525 
L 592.021619 197.607525 
L 592.021619 195.053325 
L 592.885396 195.053325 
L 592.885396 196.340325 
L 594.61295 196.340325 
L 594.61295 197.607525 
L 597.204281 197.607525 
L 597.204281 196.973925 
L 598.068058 196.973925 
L 598.068058 197.607525 
L 599.795612 197.607525 
L 599.795612 196.973925 
L 600.65939 196.973925 
L 600.65939 196.340325 
L 602.386944 196.340325 
L 602.386944 195.706725 
L 603.250721 195.706725 
L 603.250721 194.419725 
L 604.114498 194.419725 
L 604.114498 195.706725 
L 604.978275 195.706725 
L 604.978275 196.340325 
L 605.842052 196.340325 
L 605.842052 195.053325 
L 606.705829 195.053325 
L 606.705829 193.152525 
L 607.569606 193.152525 
L 607.569606 191.865525 
L 608.433383 191.865525 
L 608.433383 192.499125 
L 609.29716 192.499125 
L 609.29716 191.231925 
L 623.117594 191.231925 
L 623.117594 190.598325 
L 623.981371 190.598325 
L 623.981371 191.231925 
L 624.845148 191.231925 
L 624.845148 190.598325 
L 625.708925 190.598325 
L 625.708925 191.231925 
L 626.572702 191.231925 
L 626.572702 188.677725 
L 627.436479 188.677725 
L 627.436479 190.598325 
L 628.300256 190.598325 
L 628.300256 189.964725 
L 629.164033 189.964725 
L 629.164033 188.677725 
L 630.027811 188.677725 
L 630.027811 188.044125 
L 630.891588 188.044125 
L 630.891588 188.677725 
L 632.619142 188.677725 
L 632.619142 187.410525 
L 633.482919 187.410525 
L 633.482919 189.311325 
L 635.210473 189.311325 
L 635.210473 191.231925 
L 636.07425 191.231925 
L 636.07425 189.964725 
L 636.938027 189.964725 
L 636.938027 190.598325 
L 639.529359 190.598325 
L 639.529359 189.964725 
L 641.256913 189.964725 
L 641.256913 191.231925 
L 642.12069 191.231925 
L 642.12069 189.964725 
L 642.984467 189.964725 
L 642.984467 190.598325 
L 643.848244 190.598325 
L 643.848244 188.044125 
L 644.712021 188.044125 
L 644.712021 188.677725 
L 646.439575 188.677725 
L 646.439575 191.231925 
L 649.030907 191.231925 
L 649.030907 190.598325 
L 649.894684 190.598325 
L 649.894684 189.964725 
L 651.622238 189.964725 
L 651.622238 191.231925 
L 653.349792 191.231925 
L 653.349792 189.964725 
L 654.213569 189.964725 
L 654.213569 191.231925 
L 662.85134 191.231925 
L 662.85134 191.865525 
L 663.715117 191.865525 
L 663.715117 192.499125 
L 664.578894 192.499125 
L 664.578894 191.231925 
L 665.442671 191.231925 
L 665.442671 191.865525 
L 666.306448 191.865525 
L 666.306448 192.499125 
L 667.170225 192.499125 
L 667.170225 191.231925 
L 668.034003 191.231925 
L 668.034003 193.786125 
L 668.89778 193.786125 
L 668.89778 193.152525 
L 669.761557 193.152525 
L 669.761557 196.340325 
L 670.625334 196.340325 
L 670.625334 192.499125 
L 671.489111 192.499125 
L 671.489111 193.152525 
L 672.352888 193.152525 
L 672.352888 193.786125 
L 673.216665 193.786125 
L 673.216665 191.231925 
L 674.080442 191.231925 
L 674.080442 195.053325 
L 674.944219 195.053325 
L 674.944219 192.499125 
L 676.671773 192.499125 
L 676.671773 191.231925 
L 677.535551 191.231925 
L 677.535551 191.865525 
L 678.399328 191.865525 
L 678.399328 191.231925 
L 680.126882 191.231925 
L 680.126882 192.499125 
L 681.854436 192.499125 
L 681.854436 191.865525 
L 682.718213 191.865525 
L 682.718213 195.053325 
L 683.58199 195.053325 
L 683.58199 191.231925 
L 685.309544 191.231925 
L 685.309544 193.152525 
L 686.173321 193.152525 
L 686.173321 195.706725 
L 687.037098 195.706725 
L 687.037098 196.340325 
L 687.900876 196.340325 
L 687.900876 194.419725 
L 688.764653 194.419725 
L 688.764653 191.865525 
L 689.62843 191.865525 
L 689.62843 192.499125 
L 692.219761 192.499125 
L 692.219761 193.786125 
L 693.083538 193.786125 
L 693.083538 195.053325 
L 693.947315 195.053325 
L 693.947315 191.865525 
L 694.811092 191.865525 
L 694.811092 192.499125 
L 695.674869 192.499125 
L 695.674869 193.786125 
L 696.538646 193.786125 
L 696.538646 194.419725 
L 697.402424 194.419725 
L 697.402424 196.340325 
L 698.266201 196.340325 
L 698.266201 194.419725 
L 699.129978 194.419725 
L 699.129978 192.499125 
L 699.993755 192.499125 
L 699.993755 191.865525 
L 700.857532 191.865525 
L 700.857532 194.419725 
L 703.448863 194.419725 
L 703.448863 193.786125 
L 704.31264 193.786125 
L 704.31264 191.865525 
L 705.176417 191.865525 
L 705.176417 193.152525 
L 706.040194 193.152525 
L 706.040194 195.053325 
L 706.903972 195.053325 
L 706.903972 193.152525 
L 707.767749 193.152525 
L 707.767749 195.053325 
L 708.631526 195.053325 
L 708.631526 196.340325 
L 709.495303 196.340325 
L 709.495303 195.053325 
L 710.35908 195.053325 
L 710.35908 195.706725 
L 711.222857 195.706725 
L 711.222857 193.152525 
L 712.086634 193.152525 
L 712.086634 197.607525 
L 712.950411 197.607525 
L 712.950411 196.973925 
L 713.814188 196.973925 
L 713.814188 195.706725 
L 714.677965 195.706725 
L 714.677965 196.340325 
L 715.541742 196.340325 
L 715.541742 195.706725 
L 717.269297 195.706725 
L 717.269297 197.607525 
L 718.996851 197.607525 
L 718.996851 196.973925 
L 719.860628 196.973925 
L 719.860628 197.607525 
L 720.724405 197.607525 
L 720.724405 195.706725 
L 721.588182 195.706725 
L 721.588182 193.786125 
L 722.451959 193.786125 
L 722.451959 195.706725 
L 723.315736 195.706725 
L 723.315736 194.419725 
L 724.179513 194.419725 
L 724.179513 196.973925 
L 725.907068 196.973925 
L 725.907068 197.607525 
L 726.770845 197.607525 
L 726.770845 196.340325 
L 728.498399 196.340325 
L 728.498399 193.786125 
L 729.362176 193.786125 
L 729.362176 196.973925 
L 730.225953 196.973925 
L 730.225953 197.607525 
L 731.953507 197.607525 
L 731.953507 196.973925 
L 732.817284 196.973925 
L 732.817284 197.607525 
L 735.408616 197.607525 
L 735.408616 196.973925 
L 736.272393 196.973925 
L 736.272393 197.607525 
L 737.999947 197.607525 
L 737.999947 196.340325 
L 738.863724 196.340325 
L 738.863724 194.419725 
L 739.727501 194.419725 
L 739.727501 195.706725 
L 740.591278 195.706725 
L 740.591278 195.053325 
L 741.455055 195.053325 
L 741.455055 194.419725 
L 744.046386 194.419725 
L 744.046386 195.053325 
L 744.910164 195.053325 
L 744.910164 196.973925 
L 745.773941 196.973925 
L 745.773941 195.706725 
L 746.637718 195.706725 
L 746.637718 197.607525 
L 747.501495 197.607525 
L 747.501495 196.340325 
L 749.229049 196.340325 
L 749.229049 193.786125 
L 750.092826 193.786125 
L 750.092826 191.231925 
L 750.956603 191.231925 
L 750.956603 191.865525 
L 751.82038 191.865525 
L 751.82038 191.231925 
L 758.730597 191.231925 
L 758.730597 190.598325 
L 760.458151 190.598325 
L 760.458151 188.044125 
L 761.321928 188.044125 
L 761.321928 187.410525 
L 763.049482 187.410525 
L 763.049482 186.757125 
L 763.913259 186.757125 
L 763.913259 188.044125 
L 765.640814 188.044125 
L 765.640814 186.757125 
L 766.504591 186.757125 
L 766.504591 185.489925 
L 767.368368 185.489925 
L 767.368368 184.856325 
L 780.325024 184.856325 
L 780.325024 182.935725 
L 781.188801 182.935725 
L 781.188801 184.222725 
L 782.052578 184.222725 
L 782.052578 184.856325 
L 784.64391 184.856325 
L 784.64391 186.123525 
L 785.507687 186.123525 
L 785.507687 185.489925 
L 786.371464 185.489925 
L 786.371464 184.856325 
L 788.099018 184.856325 
L 788.099018 187.410525 
L 788.962795 187.410525 
L 788.962795 189.964725 
L 789.826572 189.964725 
L 789.826572 190.598325 
L 790.690349 190.598325 
L 790.690349 191.231925 
L 792.417903 191.231925 
L 792.417903 196.340325 
L 793.281681 196.340325 
L 793.281681 197.607525 
L 794.145458 197.607525 
L 794.145458 196.973925 
L 795.009235 196.973925 
L 795.009235 197.607525 
L 795.873012 197.607525 
L 795.873012 196.973925 
L 797.600566 196.973925 
L 797.600566 196.340325 
L 799.32812 196.340325 
L 799.32812 193.786125 
L 800.191897 193.786125 
L 800.191897 191.865525 
L 801.055674 191.865525 
L 801.055674 191.231925 
L 807.965891 191.231925 
L 807.965891 190.598325 
L 808.829668 190.598325 
L 808.829668 189.964725 
L 809.693445 189.964725 
L 809.693445 188.677725 
L 810.557222 188.677725 
L 810.557222 189.311325 
L 811.420999 189.311325 
L 811.420999 188.677725 
L 813.148554 188.677725 
L 813.148554 189.311325 
L 814.012331 189.311325 
L 814.012331 191.231925 
L 815.739885 191.231925 
L 815.739885 189.964725 
L 816.603662 189.964725 
L 816.603662 190.598325 
L 817.467439 190.598325 
L 817.467439 188.677725 
L 818.331216 188.677725 
L 818.331216 185.489925 
L 819.194993 185.489925 
L 819.194993 184.856325 
L 821.786324 184.856325 
L 821.786324 186.123525 
L 822.650102 186.123525 
L 822.650102 184.856325 
L 823.513879 184.856325 
L 823.513879 185.489925 
L 824.377656 185.489925 
L 824.377656 186.757125 
L 825.241433 186.757125 
L 825.241433 186.123525 
L 826.968987 186.123525 
L 826.968987 185.489925 
L 827.832764 185.489925 
L 827.832764 189.964725 
L 828.696541 189.964725 
L 828.696541 189.311325 
L 829.560318 189.311325 
L 829.560318 188.677725 
L 830.424095 188.677725 
L 830.424095 185.489925 
L 831.287872 185.489925 
L 831.287872 186.757125 
L 832.15165 186.757125 
L 832.15165 188.677725 
L 833.015427 188.677725 
L 833.015427 186.123525 
L 833.879204 186.123525 
L 833.879204 184.856325 
L 834.742981 184.856325 
L 834.742981 186.757125 
L 835.606758 186.757125 
L 835.606758 184.856325 
L 836.470535 184.856325 
L 836.470535 186.123525 
L 837.334312 186.123525 
L 837.334312 185.489925 
L 839.061866 185.489925 
L 839.061866 184.856325 
L 841.653198 184.856325 
L 841.653198 185.489925 
L 842.516975 185.489925 
L 842.516975 184.856325 
L 849.427191 184.856325 
L 849.427191 182.935725 
L 850.290968 182.935725 
L 850.290968 184.856325 
L 851.154746 184.856325 
L 851.154746 182.935725 
L 852.018523 182.935725 
L 852.018523 180.381525 
L 852.8823 180.381525 
L 852.8823 179.114325 
L 853.746077 179.114325 
L 853.746077 181.668525 
L 854.609854 181.668525 
L 854.609854 180.381525 
L 855.473631 180.381525 
L 855.473631 179.747925 
L 856.337408 179.747925 
L 856.337408 179.114325 
L 857.201185 179.114325 
L 857.201185 178.460925 
L 864.975179 178.460925 
L 864.975179 177.827325 
L 865.838956 177.827325 
L 865.838956 178.460925 
L 866.702733 178.460925 
L 866.702733 175.273125 
L 868.430287 175.273125 
L 868.430287 173.372325 
L 869.294064 173.372325 
L 869.294064 174.005925 
L 870.157842 174.005925 
L 870.157842 173.372325 
L 871.021619 173.372325 
L 871.021619 175.273125 
L 871.885396 175.273125 
L 871.885396 172.718925 
L 872.749173 172.718925 
L 872.749173 173.372325 
L 875.340504 173.372325 
L 875.340504 174.639525 
L 876.204281 174.639525 
L 876.204281 172.718925 
L 877.068058 172.718925 
L 877.068058 172.085325 
L 888.29716 172.085325 
L 888.29716 172.085325 
" clip-path="url(#p602e164ad4)" style="fill: none; stroke: #008000; stroke-width: 2; stroke-linecap: square"/>
   </g>
   <g id="line2d_15">
    <path d="M 52.160938 497.518125 
L 62.526263 497.466788 
L 62.526263 497.365806 
L 63.39004 497.365806 
L 63.39004 497.216825 
L 64.253817 497.216825 
L 64.253817 497.021443 
L 65.117594 497.021443 
L 65.117594 496.781213 
L 65.981371 496.781213 
L 65.981371 496.497647 
L 66.845148 496.497647 
L 66.845148 496.172213 
L 67.708925 496.172213 
L 67.708925 495.806337 
L 68.572702 495.806337 
L 68.572702 495.401406 
L 69.436479 495.401406 
L 69.436479 494.958768 
L 70.300256 494.958768 
L 70.300256 494.479733 
L 71.164033 494.479733 
L 71.164033 493.965572 
L 72.027811 493.965572 
L 72.027811 493.417524 
L 72.891588 493.417524 
L 72.891588 492.836789 
L 73.755365 492.836789 
L 73.755365 492.224535 
L 74.619142 492.224535 
L 74.619142 491.581897 
L 75.482919 491.581897 
L 75.482919 490.909978 
L 76.346696 490.909978 
L 76.346696 490.209848 
L 77.210473 490.209848 
L 77.210473 489.482548 
L 78.07425 489.482548 
L 78.07425 488.729089 
L 78.938027 488.729089 
L 78.938027 487.950454 
L 79.801804 487.950454 
L 79.801804 487.147596 
L 80.665581 487.147596 
L 80.665581 486.321441 
L 81.529359 486.321441 
L 81.529359 485.472891 
L 82.393136 485.472891 
L 82.393136 484.60282 
L 83.256913 484.60282 
L 83.256913 483.712076 
L 84.12069 483.712076 
L 84.12069 482.801484 
L 84.984467 482.801484 
L 84.984467 481.871847 
L 85.848244 481.871847 
L 85.848244 480.92394 
L 86.712021 480.92394 
L 86.712021 479.958521 
L 87.575798 479.958521 
L 87.575798 478.976321 
L 88.439575 478.976321 
L 88.439575 477.978055 
L 89.303352 477.978055 
L 89.303352 476.964412 
L 90.167129 476.964412 
L 90.167129 475.936064 
L 91.030907 475.936064 
L 91.030907 474.893663 
L 91.894684 474.893663 
L 91.894684 473.837842 
L 92.758461 473.837842 
L 92.758461 472.769215 
L 93.622238 472.769215 
L 93.622238 471.688378 
L 94.486015 471.688378 
L 94.486015 470.595909 
L 95.349792 470.595909 
L 95.349792 469.49237 
L 96.213569 469.49237 
L 96.213569 468.378306 
L 97.077346 468.378306 
L 97.077346 467.254246 
L 97.941123 467.254246 
L 97.941123 466.120702 
L 98.8049 466.120702 
L 98.8049 464.978173 
L 99.668677 464.978173 
L 99.668677 463.827141 
L 100.532455 463.827141 
L 100.532455 462.668076 
L 101.396232 462.668076 
L 101.396232 461.501431 
L 102.260009 461.501431 
L 102.260009 460.327648 
L 103.123786 460.327648 
L 103.123786 459.147153 
L 103.987563 459.147153 
L 103.987563 457.960362 
L 104.85134 457.960362 
L 104.85134 456.767677 
L 105.715117 456.767677 
L 105.715117 455.569487 
L 106.578894 455.569487 
L 106.578894 454.36617 
L 107.442671 454.36617 
L 107.442671 453.158094 
L 108.306448 453.158094 
L 108.306448 451.945612 
L 109.170225 451.945612 
L 109.170225 450.72907 
L 110.034003 450.72907 
L 110.034003 449.508801 
L 110.89778 449.508801 
L 110.89778 448.285128 
L 111.761557 448.285128 
L 111.761557 447.058365 
L 112.625334 447.058365 
L 112.625334 445.828815 
L 113.489111 445.828815 
L 113.489111 444.596771 
L 114.352888 444.596771 
L 114.352888 443.36252 
L 115.216665 443.36252 
L 115.216665 442.126337 
L 116.080442 442.126337 
L 116.080442 440.888488 
L 116.944219 440.888488 
L 116.944219 439.649232 
L 117.807996 439.649232 
L 117.807996 438.40882 
L 118.671773 438.40882 
L 118.671773 437.167494 
L 119.535551 437.167494 
L 119.535551 435.925489 
L 120.399328 435.925489 
L 120.399328 434.683031 
L 121.263105 434.683031 
L 121.263105 433.44034 
L 122.126882 433.44034 
L 122.126882 432.197628 
L 122.990659 432.197628 
L 122.990659 430.955102 
L 123.854436 430.955102 
L 123.854436 429.712959 
L 124.718213 429.712959 
L 124.718213 428.471392 
L 125.58199 428.471392 
L 125.58199 427.230586 
L 126.445767 427.230586 
L 126.445767 425.990721 
L 127.309544 425.990721 
L 127.309544 424.75197 
L 128.173321 424.75197 
L 128.173321 423.514501 
L 129.037098 423.514501 
L 129.037098 422.278476 
L 129.900876 422.278476 
L 129.900876 421.044051 
L 130.764653 421.044051 
L 130.764653 419.811377 
L 131.62843 419.811377 
L 131.62843 418.580599 
L 132.492207 418.580599 
L 132.492207 417.351859 
L 133.355984 417.351859 
L 133.355984 416.125292 
L 134.219761 416.125292 
L 134.219761 414.901029 
L 135.083538 414.901029 
L 135.083538 413.679195 
L 135.947315 413.679195 
L 135.947315 412.459914 
L 136.811092 412.459914 
L 136.811092 411.243301 
L 137.674869 411.243301 
L 137.674869 410.02947 
L 138.538646 410.02947 
L 138.538646 408.818529 
L 139.402424 408.818529 
L 139.402424 407.610584 
L 140.266201 407.610584 
L 140.266201 406.405735 
L 141.129978 406.405735 
L 141.129978 405.204079 
L 141.993755 405.204079 
L 141.993755 404.005709 
L 142.857532 404.005709 
L 142.857532 402.810715 
L 143.721309 402.810715 
L 143.721309 401.619184 
L 144.585086 401.619184 
L 144.585086 400.431197 
L 145.448863 400.431197 
L 145.448863 399.246835 
L 146.31264 399.246835 
L 146.31264 398.066174 
L 147.176417 398.066174 
L 147.176417 396.889287 
L 148.040194 396.889287 
L 148.040194 395.716244 
L 148.903972 395.716244 
L 148.903972 394.547113 
L 149.767749 394.547113 
L 149.767749 393.381957 
L 150.631526 393.381957 
L 150.631526 392.220838 
L 151.495303 392.220838 
L 151.495303 391.063815 
L 152.35908 391.063815 
L 152.35908 389.910945 
L 153.222857 389.910945 
L 153.222857 388.762282 
L 154.086634 388.762282 
L 154.086634 387.617876 
L 154.950411 387.617876 
L 154.950411 386.477776 
L 155.814188 386.477776 
L 155.814188 385.34203 
L 156.677965 385.34203 
L 156.677965 384.210681 
L 157.541742 384.210681 
L 157.541742 383.083772 
L 158.40552 383.083772 
L 158.40552 381.961343 
L 159.269297 381.961343 
L 159.269297 380.843431 
L 160.133074 380.843431 
L 160.133074 379.730074 
L 160.996851 379.730074 
L 160.996851 378.621304 
L 161.860628 378.621304 
L 161.860628 377.517155 
L 162.724405 377.517155 
L 162.724405 376.417656 
L 163.588182 376.417656 
L 163.588182 375.322837 
L 164.451959 375.322837 
L 164.451959 374.232724 
L 165.315736 374.232724 
L 165.315736 373.147342 
L 166.179513 373.147342 
L 166.179513 372.066715 
L 167.04329 372.066715 
L 167.04329 370.990866 
L 167.907068 370.990866 
L 167.907068 369.919814 
L 168.770845 369.919814 
L 168.770845 368.85358 
L 169.634622 368.85358 
L 169.634622 367.79218 
L 170.498399 367.79218 
L 170.498399 366.735631 
L 171.362176 366.735631 
L 171.362176 365.683948 
L 172.225953 365.683948 
L 172.225953 364.637145 
L 173.08973 364.637145 
L 173.08973 363.595234 
L 173.953507 363.595234 
L 173.953507 362.558226 
L 174.817284 362.558226 
L 174.817284 361.526132 
L 175.681061 361.526132 
L 175.681061 360.49896 
L 176.544838 360.49896 
L 176.544838 359.476719 
L 177.408616 359.476719 
L 177.408616 358.459414 
L 178.272393 358.459414 
L 178.272393 357.447052 
L 179.13617 357.447052 
L 179.13617 356.439637 
L 179.999947 356.439637 
L 179.999947 355.437174 
L 180.863724 355.437174 
L 180.863724 354.439664 
L 181.727501 354.439664 
L 181.727501 353.44711 
L 182.591278 353.44711 
L 182.591278 352.459513 
L 183.455055 352.459513 
L 183.455055 351.476873 
L 184.318832 351.476873 
L 184.318832 350.499189 
L 185.182609 350.499189 
L 185.182609 349.52646 
L 186.046386 349.52646 
L 186.046386 348.558684 
L 186.910164 348.558684 
L 186.910164 347.595857 
L 187.773941 347.595857 
L 187.773941 346.637976 
L 188.637718 346.637976 
L 188.637718 345.685037 
L 189.501495 345.685037 
L 189.501495 344.737034 
L 190.365272 344.737034 
L 190.365272 343.793963 
L 191.229049 343.793963 
L 191.229049 342.855815 
L 192.092826 342.855815 
L 192.092826 341.922586 
L 192.956603 341.922586 
L 192.956603 340.994266 
L 193.82038 340.994266 
L 193.82038 340.070849 
L 194.684157 340.070849 
L 194.684157 339.152325 
L 195.547934 339.152325 
L 195.547934 338.238685 
L 196.411711 338.238685 
L 196.411711 337.32992 
L 197.275489 337.32992 
L 197.275489 336.426019 
L 198.139266 336.426019 
L 198.139266 335.526972 
L 199.003043 335.526972 
L 199.003043 334.632769 
L 199.86682 334.632769 
L 199.86682 333.743396 
L 200.730597 333.743396 
L 200.730597 332.858843 
L 201.594374 332.858843 
L 201.594374 331.979097 
L 202.458151 331.979097 
L 202.458151 331.104146 
L 203.321928 331.104146 
L 203.321928 330.233975 
L 204.185705 330.233975 
L 204.185705 329.368573 
L 205.049482 329.368573 
L 205.049482 328.507925 
L 205.913259 328.507925 
L 205.913259 327.652017 
L 206.777037 327.652017 
L 206.777037 326.800835 
L 207.640814 326.800835 
L 207.640814 325.954363 
L 208.504591 325.954363 
L 208.504591 325.112588 
L 209.368368 325.112588 
L 209.368368 324.275493 
L 210.232145 324.275493 
L 210.232145 323.443063 
L 211.095922 323.443063 
L 211.095922 322.615282 
L 211.959699 322.615282 
L 211.959699 321.792134 
L 212.823476 321.792134 
L 212.823476 320.973603 
L 213.687253 320.973603 
L 213.687253 320.159672 
L 214.55103 320.159672 
L 214.55103 319.350325 
L 215.414807 319.350325 
L 215.414807 318.545544 
L 216.278585 318.545544 
L 216.278585 317.745312 
L 217.142362 317.745312 
L 217.142362 316.949613 
L 218.006139 316.949613 
L 218.006139 316.158428 
L 218.869916 316.158428 
L 218.869916 315.371739 
L 219.733693 315.371739 
L 219.733693 314.58953 
L 220.59747 314.58953 
L 220.59747 313.811781 
L 221.461247 313.811781 
L 221.461247 313.038476 
L 222.325024 313.038476 
L 222.325024 312.269594 
L 223.188801 312.269594 
L 223.188801 311.505119 
L 224.052578 311.505119 
L 224.052578 310.745031 
L 224.916355 310.745031 
L 224.916355 309.989313 
L 225.780133 309.989313 
L 225.780133 309.237944 
L 226.64391 309.237944 
L 226.64391 308.490906 
L 227.507687 308.490906 
L 227.507687 307.748181 
L 228.371464 307.748181 
L 228.371464 307.009749 
L 229.235241 307.009749 
L 229.235241 306.275591 
L 230.099018 306.275591 
L 230.099018 305.545688 
L 230.962795 305.545688 
L 230.962795 304.820021 
L 231.826572 304.820021 
L 231.826572 304.09857 
L 232.690349 304.09857 
L 232.690349 303.381316 
L 233.554126 303.381316 
L 233.554126 302.668239 
L 234.417903 302.668239 
L 234.417903 301.95932 
L 235.281681 301.95932 
L 235.281681 301.25454 
L 236.145458 301.25454 
L 236.145458 300.553878 
L 237.009235 300.553878 
L 237.009235 299.857315 
L 237.873012 299.857315 
L 237.873012 299.164832 
L 238.736789 299.164832 
L 238.736789 298.476409 
L 239.600566 298.476409 
L 239.600566 297.792025 
L 240.464343 297.792025 
L 240.464343 297.111662 
L 241.32812 297.111662 
L 241.32812 296.4353 
L 242.191897 296.4353 
L 242.191897 295.762918 
L 243.055674 295.762918 
L 243.055674 295.094497 
L 243.919451 295.094497 
L 243.919451 294.430018 
L 244.783229 294.430018 
L 244.783229 293.76946 
L 245.647006 293.76946 
L 245.647006 293.112804 
L 246.510783 293.112804 
L 246.510783 292.46003 
L 247.37456 292.46003 
L 247.37456 291.811118 
L 248.238337 291.811118 
L 248.238337 291.166049 
L 249.102114 291.166049 
L 249.102114 290.524802 
L 249.965891 290.524802 
L 249.965891 289.887359 
L 250.829668 289.887359 
L 250.829668 289.253698 
L 251.693445 289.253698 
L 251.693445 288.623802 
L 252.557222 288.623802 
L 252.557222 287.997649 
L 253.420999 287.997649 
L 253.420999 287.375221 
L 254.284777 287.375221 
L 254.284777 286.756497 
L 255.148554 286.756497 
L 255.148554 286.141459 
L 256.012331 286.141459 
L 256.012331 285.530087 
L 256.876108 285.530087 
L 256.876108 284.922361 
L 257.739885 284.922361 
L 257.739885 284.318261 
L 258.603662 284.318261 
L 258.603662 283.717769 
L 259.467439 283.717769 
L 259.467439 283.120866 
L 260.331216 283.120866 
L 260.331216 282.52753 
L 261.194993 282.52753 
L 261.194993 281.937745 
L 262.05877 281.937745 
L 262.05877 281.351489 
L 262.922547 281.351489 
L 262.922547 280.768744 
L 263.786324 280.768744 
L 263.786324 280.189492 
L 264.650102 280.189492 
L 264.650102 279.613712 
L 265.513879 279.613712 
L 265.513879 279.041386 
L 266.377656 279.041386 
L 266.377656 278.472494 
L 267.241433 278.472494 
L 267.241433 277.907019 
L 268.10521 277.907019 
L 268.10521 277.344941 
L 268.968987 277.344941 
L 268.968987 276.786241 
L 269.832764 276.786241 
L 269.832764 276.2309 
L 270.696541 276.2309 
L 270.696541 275.678901 
L 271.560318 275.678901 
L 271.560318 275.130223 
L 272.424095 275.130223 
L 272.424095 274.584849 
L 273.287872 274.584849 
L 273.287872 274.042761 
L 274.15165 274.042761 
L 274.15165 273.503939 
L 275.015427 273.503939 
L 275.015427 272.968366 
L 275.879204 272.968366 
L 275.879204 272.436023 
L 276.742981 272.436023 
L 276.742981 271.906891 
L 277.606758 271.906891 
L 277.606758 271.380954 
L 278.470535 271.380954 
L 278.470535 270.858192 
L 279.334312 270.858192 
L 279.334312 270.338587 
L 280.198089 270.338587 
L 280.198089 269.822123 
L 281.061866 269.822123 
L 281.061866 269.30878 
L 281.925643 269.30878 
L 281.925643 268.798542 
L 282.78942 268.798542 
L 282.78942 268.291389 
L 283.653198 268.291389 
L 283.653198 267.787305 
L 284.516975 267.787305 
L 284.516975 267.286273 
L 285.380752 267.286273 
L 285.380752 266.788274 
L 286.244529 266.788274 
L 286.244529 266.293291 
L 287.108306 266.293291 
L 287.108306 265.801307 
L 287.972083 265.801307 
L 287.972083 265.312304 
L 288.83586 265.312304 
L 288.83586 264.826265 
L 289.699637 264.826265 
L 289.699637 264.343174 
L 290.563414 264.343174 
L 290.563414 263.863013 
L 291.427191 263.863013 
L 291.427191 263.385765 
L 292.290968 263.385765 
L 292.290968 262.911413 
L 293.154746 262.911413 
L 293.154746 262.439941 
L 294.018523 262.439941 
L 294.018523 261.971331 
L 294.8823 261.971331 
L 294.8823 261.505567 
L 295.746077 261.505567 
L 295.746077 261.042632 
L 296.609854 261.042632 
L 296.609854 260.582511 
L 297.473631 260.582511 
L 297.473631 260.125185 
L 298.337408 260.125185 
L 298.337408 259.67064 
L 299.201185 259.67064 
L 299.201185 259.218859 
L 300.064962 259.218859 
L 300.064962 258.769825 
L 300.928739 258.769825 
L 300.928739 258.323523 
L 301.792516 258.323523 
L 301.792516 257.879936 
L 302.656294 257.879936 
L 302.656294 257.439048 
L 303.520071 257.439048 
L 303.520071 257.000844 
L 304.383848 257.000844 
L 304.383848 256.565308 
L 305.247625 256.565308 
L 305.247625 256.132424 
L 306.111402 256.132424 
L 306.111402 255.702176 
L 306.975179 255.702176 
L 306.975179 255.274549 
L 307.838956 255.274549 
L 307.838956 254.849527 
L 308.702733 254.849527 
L 308.702733 254.427095 
L 309.56651 254.427095 
L 309.56651 254.007238 
L 310.430287 254.007238 
L 310.430287 253.58994 
L 311.294064 253.58994 
L 311.294064 253.175186 
L 312.157842 253.175186 
L 312.157842 252.762962 
L 313.021619 252.762962 
L 313.021619 252.353251 
L 313.885396 252.353251 
L 313.885396 251.946039 
L 314.749173 251.946039 
L 314.749173 251.541312 
L 315.61295 251.541312 
L 315.61295 251.139054 
L 316.476727 251.139054 
L 316.476727 250.73925 
L 317.340504 250.73925 
L 317.340504 250.341887 
L 318.204281 250.341887 
L 318.204281 249.946949 
L 319.068058 249.946949 
L 319.068058 249.554423 
L 319.931835 249.554423 
L 319.931835 249.164293 
L 320.795612 249.164293 
L 320.795612 248.776545 
L 321.65939 248.776545 
L 321.65939 248.391165 
L 322.523167 248.391165 
L 322.523167 248.00814 
L 323.386944 248.00814 
L 323.386944 247.627454 
L 324.250721 247.627454 
L 324.250721 247.249094 
L 325.114498 247.249094 
L 325.114498 246.873046 
L 325.978275 246.873046 
L 325.978275 246.499296 
L 326.842052 246.499296 
L 326.842052 246.12783 
L 327.705829 246.12783 
L 327.705829 245.758635 
L 328.569606 245.758635 
L 328.569606 245.391696 
L 329.433383 245.391696 
L 329.433383 245.027001 
L 330.29716 245.027001 
L 330.29716 244.664536 
L 331.160938 244.664536 
L 331.160938 244.304288 
L 332.024715 244.304288 
L 332.024715 243.946242 
L 332.888492 243.946242 
L 332.888492 243.590386 
L 333.752269 243.590386 
L 333.752269 243.236707 
L 334.616046 243.236707 
L 334.616046 242.885192 
L 335.479823 242.885192 
L 335.479823 242.535827 
L 336.3436 242.535827 
L 336.3436 242.1886 
L 337.207377 242.1886 
L 337.207377 241.843497 
L 338.071154 241.843497 
L 338.071154 241.500506 
L 338.934931 241.500506 
L 338.934931 241.159615 
L 339.798708 241.159615 
L 339.798708 240.82081 
L 340.662485 240.82081 
L 340.662485 240.484078 
L 341.526263 240.484078 
L 341.526263 240.149408 
L 342.39004 240.149408 
L 342.39004 239.816787 
L 343.253817 239.816787 
L 343.253817 239.486202 
L 344.117594 239.486202 
L 344.117594 239.157642 
L 344.981371 239.157642 
L 344.981371 238.831093 
L 345.845148 238.831093 
L 345.845148 238.506544 
L 346.708925 238.506544 
L 346.708925 238.183982 
L 347.572702 238.183982 
L 347.572702 237.863397 
L 348.436479 237.863397 
L 348.436479 237.544774 
L 349.300256 237.544774 
L 349.300256 237.228104 
L 350.164033 237.228104 
L 350.164033 236.913373 
L 351.027811 236.913373 
L 351.027811 236.600571 
L 351.891588 236.600571 
L 351.891588 236.289685 
L 352.755365 236.289685 
L 352.755365 235.980703 
L 353.619142 235.980703 
L 353.619142 235.673615 
L 354.482919 235.673615 
L 354.482919 235.368409 
L 355.346696 235.368409 
L 355.346696 235.065073 
L 356.210473 235.065073 
L 356.210473 234.763596 
L 357.07425 234.763596 
L 357.07425 234.463966 
L 357.938027 234.463966 
L 357.938027 234.166173 
L 358.801804 234.166173 
L 358.801804 233.870206 
L 359.665581 233.870206 
L 359.665581 233.576052 
L 360.529359 233.576052 
L 360.529359 233.283702 
L 361.393136 233.283702 
L 361.393136 232.993144 
L 362.256913 232.993144 
L 362.256913 232.704367 
L 363.12069 232.704367 
L 363.12069 232.41736 
L 363.984467 232.41736 
L 363.984467 232.132114 
L 364.848244 232.132114 
L 364.848244 231.848616 
L 365.712021 231.848616 
L 365.712021 231.566856 
L 366.575798 231.566856 
L 366.575798 231.286825 
L 367.439575 231.286825 
L 367.439575 231.00851 
L 368.303352 231.00851 
L 368.303352 230.731902 
L 369.167129 230.731902 
L 369.167129 230.456991 
L 370.030907 230.456991 
L 370.030907 230.183765 
L 370.894684 230.183765 
L 370.894684 229.912216 
L 371.758461 229.912216 
L 371.758461 229.642331 
L 372.622238 229.642331 
L 372.622238 229.374103 
L 373.486015 229.374103 
L 373.486015 229.107519 
L 374.349792 229.107519 
L 374.349792 228.842571 
L 375.213569 228.842571 
L 375.213569 228.579248 
L 376.077346 228.579248 
L 376.077346 228.31754 
L 376.941123 228.31754 
L 376.941123 228.057438 
L 377.8049 228.057438 
L 377.8049 227.798931 
L 378.668677 227.798931 
L 378.668677 227.542011 
L 379.532455 227.542011 
L 379.532455 227.286667 
L 380.396232 227.286667 
L 380.396232 227.032889 
L 381.260009 227.032889 
L 381.260009 226.780668 
L 382.123786 226.780668 
L 382.123786 226.529996 
L 382.987563 226.529996 
L 382.987563 226.280861 
L 383.85134 226.280861 
L 383.85134 226.033255 
L 384.715117 226.033255 
L 384.715117 225.787168 
L 385.578894 225.787168 
L 385.578894 225.542592 
L 386.442671 225.542592 
L 386.442671 225.299516 
L 387.306448 225.299516 
L 387.306448 225.057932 
L 388.170225 225.057932 
L 388.170225 224.817831 
L 389.034003 224.817831 
L 389.034003 224.579203 
L 389.89778 224.579203 
L 389.89778 224.34204 
L 390.761557 224.34204 
L 390.761557 224.106332 
L 391.625334 224.106332 
L 391.625334 223.872071 
L 392.489111 223.872071 
L 392.489111 223.639248 
L 393.352888 223.639248 
L 393.352888 223.407854 
L 394.216665 223.407854 
L 394.216665 223.17788 
L 395.080442 223.17788 
L 395.080442 222.949318 
L 395.944219 222.949318 
L 395.944219 222.722158 
L 396.807996 222.722158 
L 396.807996 222.496394 
L 397.671773 222.496394 
L 397.671773 222.272015 
L 398.535551 222.272015 
L 398.535551 222.049013 
L 399.399328 222.049013 
L 399.399328 221.82738 
L 400.263105 221.82738 
L 400.263105 221.607108 
L 401.126882 221.607108 
L 401.126882 221.388188 
L 401.990659 221.388188 
L 401.990659 221.170612 
L 402.854436 221.170612 
L 402.854436 220.954372 
L 403.718213 220.954372 
L 403.718213 220.73946 
L 404.58199 220.73946 
L 404.58199 220.525867 
L 405.445767 220.525867 
L 405.445767 220.313585 
L 406.309544 220.313585 
L 406.309544 220.102606 
L 407.173321 220.102606 
L 407.173321 219.892923 
L 408.037098 219.892923 
L 408.037098 219.684528 
L 408.900876 219.684528 
L 408.900876 219.477411 
L 409.764653 219.477411 
L 409.764653 219.271567 
L 410.62843 219.271567 
L 410.62843 219.066986 
L 411.492207 219.066986 
L 411.492207 218.863662 
L 412.355984 218.863662 
L 412.355984 218.661586 
L 413.219761 218.661586 
L 413.219761 218.460751 
L 414.083538 218.460751 
L 414.083538 218.261149 
L 414.947315 218.261149 
L 414.947315 218.062773 
L 415.811092 218.062773 
L 415.811092 217.865615 
L 416.674869 217.865615 
L 416.674869 217.669667 
L 417.538646 217.669667 
L 417.538646 217.474923 
L 418.402424 217.474923 
L 418.402424 217.281375 
L 419.266201 217.281375 
L 419.266201 217.089015 
L 420.129978 217.089015 
L 420.129978 216.897836 
L 420.993755 216.897836 
L 420.993755 216.707832 
L 421.857532 216.707832 
L 421.857532 216.518994 
L 422.721309 216.518994 
L 422.721309 216.331317 
L 423.585086 216.331317 
L 423.585086 216.144791 
L 424.448863 216.144791 
L 424.448863 215.959411 
L 425.31264 215.959411 
L 425.31264 215.77517 
L 426.176417 215.77517 
L 426.176417 215.59206 
L 427.040194 215.59206 
L 427.040194 215.410075 
L 427.903972 215.410075 
L 427.903972 215.229207 
L 428.767749 215.229207 
L 428.767749 215.04945 
L 429.631526 215.04945 
L 429.631526 214.870798 
L 430.495303 214.870798 
L 430.495303 214.693242 
L 431.35908 214.693242 
L 431.35908 214.516777 
L 432.222857 214.516777 
L 432.222857 214.341396 
L 433.086634 214.341396 
L 433.086634 214.167092 
L 433.950411 214.167092 
L 433.950411 213.993858 
L 434.814188 213.993858 
L 434.814188 213.821689 
L 435.677965 213.821689 
L 435.677965 213.650577 
L 436.541742 213.650577 
L 436.541742 213.480516 
L 437.40552 213.480516 
L 437.40552 213.311499 
L 438.269297 213.311499 
L 438.269297 213.143521 
L 439.133074 213.143521 
L 439.133074 212.976574 
L 439.996851 212.976574 
L 439.996851 212.810653 
L 440.860628 212.810653 
L 440.860628 212.645751 
L 441.724405 212.645751 
L 441.724405 212.481862 
L 442.588182 212.481862 
L 442.588182 212.318979 
L 443.451959 212.318979 
L 443.451959 212.157097 
L 444.315736 212.157097 
L 444.315736 211.996209 
L 445.179513 211.996209 
L 445.179513 211.83631 
L 446.04329 211.83631 
L 446.04329 211.677393 
L 446.907068 211.677393 
L 446.907068 211.519452 
L 447.770845 211.519452 
L 447.770845 211.362481 
L 448.634622 211.362481 
L 448.634622 211.206474 
L 449.498399 211.206474 
L 449.498399 211.051425 
L 450.362176 211.051425 
L 450.362176 210.89733 
L 451.225953 210.89733 
L 451.225953 210.74418 
L 452.08973 210.74418 
L 452.08973 210.591971 
L 452.953507 210.591971 
L 452.953507 210.440698 
L 453.817284 210.440698 
L 453.817284 210.290353 
L 454.681061 210.290353 
L 454.681061 210.140932 
L 455.544838 210.140932 
L 455.544838 209.992429 
L 456.408616 209.992429 
L 456.408616 209.844839 
L 457.272393 209.844839 
L 457.272393 209.698155 
L 458.13617 209.698155 
L 458.13617 209.552372 
L 458.999947 209.552372 
L 458.999947 209.407484 
L 459.863724 209.407484 
L 459.863724 209.263487 
L 460.727501 209.263487 
L 460.727501 209.120374 
L 461.591278 209.120374 
L 461.591278 208.97814 
L 462.455055 208.97814 
L 462.455055 208.83678 
L 463.318832 208.83678 
L 463.318832 208.696289 
L 464.182609 208.696289 
L 464.182609 208.55666 
L 465.046386 208.55666 
L 465.046386 208.41789 
L 465.910164 208.41789 
L 465.910164 208.279971 
L 466.773941 208.279971 
L 466.773941 208.1429 
L 467.637718 208.1429 
L 467.637718 208.006671 
L 468.501495 208.006671 
L 468.501495 207.871279 
L 469.365272 207.871279 
L 469.365272 207.736719 
L 470.229049 207.736719 
L 470.229049 207.602986 
L 471.092826 207.602986 
L 471.092826 207.470074 
L 471.956603 207.470074 
L 471.956603 207.337978 
L 472.82038 207.337978 
L 472.82038 207.206694 
L 473.684157 207.206694 
L 473.684157 207.076217 
L 474.547934 207.076217 
L 474.547934 206.946541 
L 475.411711 206.946541 
L 475.411711 206.817662 
L 476.275489 206.817662 
L 476.275489 206.689574 
L 477.139266 206.689574 
L 477.139266 206.562274 
L 478.003043 206.562274 
L 478.003043 206.435755 
L 478.86682 206.435755 
L 478.86682 206.310014 
L 479.730597 206.310014 
L 479.730597 206.185045 
L 480.594374 206.185045 
L 480.594374 206.060844 
L 481.458151 206.060844 
L 481.458151 205.937406 
L 482.321928 205.937406 
L 482.321928 205.814727 
L 483.185705 205.814727 
L 483.185705 205.692801 
L 484.049482 205.692801 
L 484.049482 205.571624 
L 484.913259 205.571624 
L 484.913259 205.451192 
L 485.777037 205.451192 
L 485.777037 205.331499 
L 486.640814 205.331499 
L 486.640814 205.212542 
L 487.504591 205.212542 
L 487.504591 205.094316 
L 488.368368 205.094316 
L 488.368368 204.976816 
L 489.232145 204.976816 
L 489.232145 204.860038 
L 490.095922 204.860038 
L 490.095922 204.743977 
L 490.959699 204.743977 
L 490.959699 204.62863 
L 491.823476 204.62863 
L 491.823476 204.513991 
L 492.687253 204.513991 
L 492.687253 204.400056 
L 493.55103 204.400056 
L 493.55103 204.286822 
L 494.414807 204.286822 
L 494.414807 204.174283 
L 495.278585 204.174283 
L 495.278585 204.062435 
L 496.142362 204.062435 
L 496.142362 203.951275 
L 497.869916 203.840798 
L 497.869916 203.730999 
L 499.59747 203.621875 
L 499.59747 203.513422 
L 501.325024 203.405634 
L 501.325024 203.298509 
L 503.052578 203.192042 
L 503.052578 203.08623 
L 504.780133 202.981067 
L 504.780133 202.87655 
L 506.507687 202.772676 
L 506.507687 202.66944 
L 508.235241 202.566838 
L 508.235241 202.464866 
L 509.962795 202.363521 
L 509.962795 202.262799 
L 511.690349 202.162695 
L 511.690349 202.063207 
L 513.417903 201.964329 
L 513.417903 201.86606 
L 515.145458 201.768394 
L 515.145458 201.671328 
L 516.873012 201.574858 
L 516.873012 201.478981 
L 518.600566 201.383693 
L 518.600566 201.288991 
L 520.32812 201.19487 
L 520.32812 201.101328 
L 522.055674 201.008361 
L 522.055674 200.915964 
L 523.783229 200.824136 
L 523.783229 200.732871 
L 525.510783 200.642168 
L 525.510783 200.552021 
L 527.238337 200.462429 
L 527.238337 200.373387 
L 528.965891 200.284892 
L 528.965891 200.19694 
L 530.693445 200.10953 
L 530.693445 200.022656 
L 532.420999 199.936316 
L 532.420999 199.850506 
L 534.148554 199.765224 
L 534.148554 199.680465 
L 535.876108 199.596228 
L 535.876108 199.512508 
L 537.603662 199.429302 
L 537.603662 199.346608 
L 539.331216 199.264421 
L 539.331216 199.18274 
L 541.05877 199.10156 
L 541.05877 199.02088 
L 542.786324 198.940695 
L 542.786324 198.861002 
L 544.513879 198.7818 
L 544.513879 198.703084 
L 546.241433 198.624851 
L 546.241433 198.547099 
L 547.968987 198.469825 
L 547.968987 198.393026 
L 549.696541 198.316699 
L 549.696541 198.24084 
L 551.424095 198.165448 
L 551.424095 198.090519 
L 553.15165 198.01605 
L 553.15165 197.942039 
L 554.879204 197.868482 
L 554.879204 197.795378 
L 556.606758 197.722723 
L 556.606758 197.650514 
L 558.334312 197.578748 
L 558.334312 197.507424 
L 560.061866 197.436538 
L 560.061866 197.366087 
L 561.78942 197.29607 
L 561.78942 197.226482 
L 563.516975 197.157322 
L 563.516975 197.088587 
L 565.244529 197.020275 
L 565.244529 196.952382 
L 566.972083 196.884906 
L 566.972083 196.817845 
L 568.699637 196.751196 
L 568.699637 196.684956 
L 570.427191 196.619123 
L 570.427191 196.553695 
L 572.154746 196.488669 
L 572.154746 196.424042 
L 573.8823 196.359813 
L 573.8823 196.295978 
L 575.609854 196.232535 
L 575.609854 196.169482 
L 577.337408 196.106817 
L 577.337408 196.044537 
L 579.064962 195.982639 
L 579.064962 195.921121 
L 580.792516 195.859982 
L 580.792516 195.799218 
L 582.520071 195.738828 
L 582.520071 195.678808 
L 584.247625 195.619157 
L 584.247625 195.559873 
L 585.975179 195.500953 
L 585.975179 195.442396 
L 587.702733 195.384198 
L 587.702733 195.326357 
L 589.430287 195.268872 
L 589.430287 195.21174 
L 591.157842 195.154959 
L 591.157842 195.098527 
L 592.885396 195.042442 
L 592.885396 194.986701 
L 595.476727 194.876246 
L 595.476727 194.821526 
L 598.068058 194.713094 
L 598.068058 194.659377 
L 600.65939 194.552931 
L 600.65939 194.500198 
L 603.250721 194.395702 
L 603.250721 194.343935 
L 605.842052 194.241353 
L 605.842052 194.190535 
L 608.433383 194.089833 
L 608.433383 194.039945 
L 611.024715 193.941088 
L 611.024715 193.892114 
L 613.616046 193.795068 
L 613.616046 193.746991 
L 616.207377 193.651723 
L 616.207377 193.604527 
L 618.798708 193.511004 
L 618.798708 193.464673 
L 621.39004 193.372863 
L 621.39004 193.327381 
L 623.981371 193.237253 
L 623.981371 193.192604 
L 626.572702 193.104127 
L 626.572702 193.060296 
L 629.164033 192.97344 
L 629.164033 192.930412 
L 631.755365 192.845147 
L 631.755365 192.802908 
L 634.346696 192.719205 
L 634.346696 192.677739 
L 636.938027 192.59557 
L 636.938027 192.554863 
L 639.529359 192.4742 
L 639.529359 192.434239 
L 642.12069 192.355053 
L 642.12069 192.315824 
L 644.712021 192.238089 
L 644.712021 192.199579 
L 647.303352 192.123268 
L 647.303352 192.085463 
L 649.894684 192.01055 
L 649.894684 191.973438 
L 653.349792 191.863465 
L 653.349792 191.827257 
L 656.8049 191.719962 
L 656.8049 191.684636 
L 660.260009 191.579954 
L 660.260009 191.545488 
L 663.715117 191.443355 
L 663.715117 191.409728 
L 667.170225 191.310082 
L 667.170225 191.277275 
L 670.625334 191.180055 
L 670.625334 191.148046 
L 674.080442 191.053195 
L 674.080442 191.021965 
L 677.535551 190.929423 
L 677.535551 190.898954 
L 680.990659 190.808666 
L 680.990659 190.778939 
L 684.445767 190.690849 
L 684.445767 190.661846 
L 687.900876 190.575901 
L 687.900876 190.547604 
L 691.355984 190.463752 
L 691.355984 190.436145 
L 695.674869 190.327399 
L 695.674869 190.300629 
L 699.993755 190.195184 
L 699.993755 190.169227 
L 704.31264 190.066981 
L 704.31264 190.041811 
L 708.631526 189.942669 
L 708.631526 189.918263 
L 712.950411 189.822129 
L 712.950411 189.798463 
L 717.269297 189.705246 
L 717.269297 189.682299 
L 721.588182 189.591911 
L 721.588182 189.56966 
L 726.770845 189.46044 
L 726.770845 189.438997 
L 731.953507 189.333741 
L 731.953507 189.313076 
L 737.13617 189.211642 
L 737.13617 189.191728 
L 742.318832 189.093976 
L 742.318832 189.074785 
L 747.501495 188.980582 
L 747.501495 188.962087 
L 753.547934 188.853481 
L 753.547934 188.835767 
L 759.594374 188.731746 
L 759.594374 188.714781 
L 765.640814 188.615153 
L 765.640814 188.598903 
L 772.55103 188.487919 
L 772.55103 188.472451 
L 779.461247 188.366806 
L 779.461247 188.352083 
L 786.371464 188.25152 
L 786.371464 188.237505 
L 794.145458 188.12844 
L 794.145458 188.115181 
L 801.919451 188.012001 
L 801.919451 187.999458 
L 810.557222 187.889979 
L 810.557222 187.878185 
L 819.194993 187.775249 
L 819.194993 187.764161 
L 828.696541 187.656952 
L 828.696541 187.64659 
L 839.061866 187.536726 
L 839.061866 187.527103 
L 850.290968 187.416134 
L 850.290968 187.407252 
L 862.383848 187.296628 
L 862.383848 187.28848 
L 875.340504 187.179528 
L 875.340504 187.1721 
L 888.29716 187.072768 
L 888.29716 187.065996 
" clip-path="url(#p602e164ad4)" style="fill: none; stroke: #ff0000; stroke-width: 2; stroke-linecap: square"/>
   </g>
   <g id="patch_3">
    <path d="M 52.160938 576.718125 
L 52.160938 22.318125 
" style="fill: none; stroke: #000000; stroke-width: 0.8; stroke-linejoin: miter; stroke-linecap: square"/>
   </g>
   <g id="patch_4">
    <path d="M 889.160938 576.718125 
L 889.160938 22.318125 
" style="fill: none; stroke: #000000; stroke-width: 0.8; stroke-linejoin: miter; stroke-linecap: square"/>
   </g>
   <g id="patch_5">
    <path d="M 52.160938 576.718125 
L 889.160938 576.718125 
" style="fill: none; stroke: #000000; stroke-width: 0.8; stroke-linejoin: miter; stroke-linecap: square"/>
   </g>
   <g id="patch_6">
    <path d="M 52.160938 22.318125 
L 889.160938 22.318125 
" style="fill: none; stroke: #000000; stroke-width: 0.8; stroke-linejoin: miter; stroke-linecap: square"/>
   </g>
   <g id="text_15">
    <!-- Identification of SOPDT model -->
    <g transform="translate(380.698438 16.318125) scale(0.12 -0.12)">
     <defs>
      <path id="DejaVuSans-49" d="M 628 4666 
L 1259 4666 
L 1259 0 
L 628 0 
L 628 4666 
z
" transform="scale(0.015625)"/>
      <path id="DejaVuSans-64" d="M 2906 2969 
L 2906 4863 
L 3481 4863 
L 3481 0 
L 2906 0 
L 2906 525 
Q 2725 213 2448 61 
Q 2172 -91 1784 -91 
Q 1150 -91 751 415 
Q 353 922 353 1747 
Q 353 2572 751 3078 
Q 1150 3584 1784 3584 
Q 2172 3584 2448 3432 
Q 2725 3281 2906 2969 
z
M 947 1747 
Q 947 1113 1208 752 
Q 1469 391 1925 391 
Q 2381 391 2643 752 
Q 2906 1113 2906 1747 
Q 2906 2381 2643 2742 
Q 2381 3103 1925 3103 
Q 1469 3103 1208 2742 
Q 947 2381 947 1747 
z
" transform="scale(0.015625)"/>
      <path id="DejaVuSans-6e" d="M 3513 2113 
L 3513 0 
L 2938 0 
L 2938 2094 
Q 2938 2591 2744 2837 
Q 2550 3084 2163 3084 
Q 1697 3084 1428 2787 
Q 1159 2491 1159 1978 
L 1159 0 
L 581 0 
L 581 3500 
L 1159 3500 
L 1159 2956 
Q 1366 3272 1645 3428 
Q 1925 3584 2291 3584 
Q 2894 3584 3203 3211 
Q 3513 2838 3513 2113 
z
" transform="scale(0.015625)"/>
      <path id="DejaVuSans-74" d="M 1172 4494 
L 1172 3500 
L 2356 3500 
L 2356 3053 
L 1172 3053 
L 1172 1153 
Q 1172 725 1289 603 
Q 1406 481 1766 481 
L 2356 481 
L 2356 0 
L 1766 0 
Q 1100 0 847 248 
Q 594 497 594 1153 
L 594 3053 
L 172 3053 
L 172 3500 
L 594 3500 
L 594 4494 
L 1172 4494 
z
" transform="scale(0.015625)"/>
      <path id="DejaVuSans-69" d="M 603 3500 
L 1178 3500 
L 1178 0 
L 603 0 
L 603 3500 
z
M 603 4863 
L 1178 4863 
L 1178 4134 
L 603 4134 
L 603 4863 
z
" transform="scale(0.015625)"/>
      <path id="DejaVuSans-63" d="M 3122 3366 
L 3122 2828 
Q 2878 2963 2633 3030 
Q 2388 3097 2138 3097 
Q 1578 3097 1268 2742 
Q 959 2388 959 1747 
Q 959 1106 1268 751 
Q 1578 397 2138 397 
Q 2388 397 2633 464 
Q 2878 531 3122 666 
L 3122 134 
Q 2881 22 2623 -34 
Q 2366 -91 2075 -91 
Q 1284 -91 818 406 
Q 353 903 353 1747 
Q 353 2603 823 3093 
Q 1294 3584 2113 3584 
Q 2378 3584 2631 3529 
Q 2884 3475 3122 3366 
z
" transform="scale(0.015625)"/>
      <path id="DejaVuSans-53" d="M 3425 4513 
L 3425 3897 
Q 3066 4069 2747 4153 
Q 2428 4238 2131 4238 
Q 1616 4238 1336 4038 
Q 1056 3838 1056 3469 
Q 1056 3159 1242 3001 
Q 1428 2844 1947 2747 
L 2328 2669 
Q 3034 2534 3370 2195 
Q 3706 1856 3706 1288 
Q 3706 609 3251 259 
Q 2797 -91 1919 -91 
Q 1588 -91 1214 -16 
Q 841 59 441 206 
L 441 856 
Q 825 641 1194 531 
Q 1563 422 1919 422 
Q 2459 422 2753 634 
Q 3047 847 3047 1241 
Q 3047 1584 2836 1778 
Q 2625 1972 2144 2069 
L 1759 2144 
Q 1053 2284 737 2584 
Q 422 2884 422 3419 
Q 422 4038 858 4394 
Q 1294 4750 2059 4750 
Q 2388 4750 2728 4690 
Q 3069 4631 3425 4513 
z
" transform="scale(0.015625)"/>
      <path id="DejaVuSans-4f" d="M 2522 4238 
Q 1834 4238 1429 3725 
Q 1025 3213 1025 2328 
Q 1025 1447 1429 934 
Q 1834 422 2522 422 
Q 3209 422 3611 934 
Q 4013 1447 4013 2328 
Q 4013 3213 3611 3725 
Q 3209 4238 2522 4238 
z
M 2522 4750 
Q 3503 4750 4090 4092 
Q 4678 3434 4678 2328 
Q 4678 1225 4090 567 
Q 3503 -91 2522 -91 
Q 1538 -91 948 565 
Q 359 1222 359 2328 
Q 359 3434 948 4092 
Q 1538 4750 2522 4750 
z
" transform="scale(0.015625)"/>
      <path id="DejaVuSans-44" d="M 1259 4147 
L 1259 519 
L 2022 519 
Q 2988 519 3436 956 
Q 3884 1394 3884 2338 
Q 3884 3275 3436 3711 
Q 2988 4147 2022 4147 
L 1259 4147 
z
M 628 4666 
L 1925 4666 
Q 3281 4666 3915 4102 
Q 4550 3538 4550 2338 
Q 4550 1131 3912 565 
Q 3275 0 1925 0 
L 628 0 
L 628 4666 
z
" transform="scale(0.015625)"/>
      <path id="DejaVuSans-54" d="M -19 4666 
L 3928 4666 
L 3928 4134 
L 2272 4134 
L 2272 0 
L 1638 0 
L 1638 4134 
L -19 4134 
L -19 4666 
z
" transform="scale(0.015625)"/>
      <path id="DejaVuSans-6d" d="M 3328 2828 
Q 3544 3216 3844 3400 
Q 4144 3584 4550 3584 
Q 5097 3584 5394 3201 
Q 5691 2819 5691 2113 
L 5691 0 
L 5113 0 
L 5113 2094 
Q 5113 2597 4934 2840 
Q 4756 3084 4391 3084 
Q 3944 3084 3684 2787 
Q 3425 2491 3425 1978 
L 3425 0 
L 2847 0 
L 2847 2094 
Q 2847 2600 2669 2842 
Q 2491 3084 2119 3084 
Q 1678 3084 1418 2786 
Q 1159 2488 1159 1978 
L 1159 0 
L 581 0 
L 581 3500 
L 1159 3500 
L 1159 2956 
Q 1356 3278 1631 3431 
Q 1906 3584 2284 3584 
Q 2666 3584 2933 3390 
Q 3200 3197 3328 2828 
z
" transform="scale(0.015625)"/>
     </defs>
     <use xlink:href="#DejaVuSans-49"/>
     <use xlink:href="#DejaVuSans-64" transform="translate(29.492188 0)"/>
     <use xlink:href="#DejaVuSans-65" transform="translate(92.96875 0)"/>
     <use xlink:href="#DejaVuSans-6e" transform="translate(154.492188 0)"/>
     <use xlink:href="#DejaVuSans-74" transform="translate(217.871094 0)"/>
     <use xlink:href="#DejaVuSans-69" transform="translate(257.080078 0)"/>
     <use xlink:href="#DejaVuSans-66" transform="translate(284.863281 0)"/>
     <use xlink:href="#DejaVuSans-69" transform="translate(320.068359 0)"/>
     <use xlink:href="#DejaVuSans-63" transform="translate(347.851562 0)"/>
     <use xlink:href="#DejaVuSans-61" transform="translate(402.832031 0)"/>
     <use xlink:href="#DejaVuSans-74" transform="translate(464.111328 0)"/>
     <use xlink:href="#DejaVuSans-69" transform="translate(503.320312 0)"/>
     <use xlink:href="#DejaVuSans-6f" transform="translate(531.103516 0)"/>
     <use xlink:href="#DejaVuSans-6e" transform="translate(592.285156 0)"/>
     <use xlink:href="#DejaVuSans-20" transform="translate(655.664062 0)"/>
     <use xlink:href="#DejaVuSans-6f" transform="translate(687.451172 0)"/>
     <use xlink:href="#DejaVuSans-66" transform="translate(748.632812 0)"/>
     <use xlink:href="#DejaVuSans-20" transform="translate(783.837891 0)"/>
     <use xlink:href="#DejaVuSans-53" transform="translate(815.625 0)"/>
     <use xlink:href="#DejaVuSans-4f" transform="translate(879.101562 0)"/>
     <use xlink:href="#DejaVuSans-50" transform="translate(957.8125 0)"/>
     <use xlink:href="#DejaVuSans-44" transform="translate(1018.115234 0)"/>
     <use xlink:href="#DejaVuSans-54" transform="translate(1095.117188 0)"/>
     <use xlink:href="#DejaVuSans-20" transform="translate(1156.201172 0)"/>
     <use xlink:href="#DejaVuSans-6d" transform="translate(1187.988281 0)"/>
     <use xlink:href="#DejaVuSans-6f" transform="translate(1285.400391 0)"/>
     <use xlink:href="#DejaVuSans-64" transform="translate(1346.582031 0)"/>
     <use xlink:href="#DejaVuSans-65" transform="translate(1410.058594 0)"/>
     <use xlink:href="#DejaVuSans-6c" transform="translate(1471.582031 0)"/>
    </g>
   </g>
   <g id="legend_1">
    <g id="patch_7">
     <path d="M 767.426563 59.674375 
L 882.160938 59.674375 
Q 884.160938 59.674375 884.160938 57.674375 
L 884.160938 29.318125 
Q 884.160938 27.318125 882.160938 27.318125 
L 767.426563 27.318125 
Q 765.426563 27.318125 765.426563 29.318125 
L 765.426563 57.674375 
Q 765.426563 59.674375 767.426563 59.674375 
z
" style="fill: #ffffff; opacity: 0.8; stroke: #cccccc; stroke-linejoin: miter"/>
    </g>
    <g id="line2d_16">
     <path d="M 769.426563 35.416563 
L 779.426563 35.416563 
L 779.426563 35.416563 
L 789.426563 35.416563 
L 789.426563 35.416563 
" style="fill: none; stroke: #008000; stroke-width: 2; stroke-linecap: square"/>
    </g>
    <g id="text_16">
     <!-- Experimental PV -->
     <g transform="translate(797.426563 38.916563) scale(0.1 -0.1)">
      <defs>
       <path id="DejaVuSans-45" d="M 628 4666 
L 3578 4666 
L 3578 4134 
L 1259 4134 
L 1259 2753 
L 3481 2753 
L 3481 2222 
L 1259 2222 
L 1259 531 
L 3634 531 
L 3634 0 
L 628 0 
L 628 4666 
z
" transform="scale(0.015625)"/>
       <path id="DejaVuSans-78" d="M 3513 3500 
L 2247 1797 
L 3578 0 
L 2900 0 
L 1881 1375 
L 863 0 
L 184 0 
L 1544 1831 
L 300 3500 
L 978 3500 
L 1906 2253 
L 2834 3500 
L 3513 3500 
z
" transform="scale(0.015625)"/>
       <path id="DejaVuSans-70" d="M 1159 525 
L 1159 -1331 
L 581 -1331 
L 581 3500 
L 1159 3500 
L 1159 2969 
Q 1341 3281 1617 3432 
Q 1894 3584 2278 3584 
Q 2916 3584 3314 3078 
Q 3713 2572 3713 1747 
Q 3713 922 3314 415 
Q 2916 -91 2278 -91 
Q 1894 -91 1617 61 
Q 1341 213 1159 525 
z
M 3116 1747 
Q 3116 2381 2855 2742 
Q 2594 3103 2138 3103 
Q 1681 3103 1420 2742 
Q 1159 2381 1159 1747 
Q 1159 1113 1420 752 
Q 1681 391 2138 391 
Q 2594 391 2855 752 
Q 3116 1113 3116 1747 
z
" transform="scale(0.015625)"/>
       <path id="DejaVuSans-72" d="M 2631 2963 
Q 2534 3019 2420 3045 
Q 2306 3072 2169 3072 
Q 1681 3072 1420 2755 
Q 1159 2438 1159 1844 
L 1159 0 
L 581 0 
L 581 3500 
L 1159 3500 
L 1159 2956 
Q 1341 3275 1631 3429 
Q 1922 3584 2338 3584 
Q 2397 3584 2469 3576 
Q 2541 3569 2628 3553 
L 2631 2963 
z
" transform="scale(0.015625)"/>
      </defs>
      <use xlink:href="#DejaVuSans-45"/>
      <use xlink:href="#DejaVuSans-78" transform="translate(63.183594 0)"/>
      <use xlink:href="#DejaVuSans-70" transform="translate(122.363281 0)"/>
      <use xlink:href="#DejaVuSans-65" transform="translate(185.839844 0)"/>
      <use xlink:href="#DejaVuSans-72" transform="translate(247.363281 0)"/>
      <use xlink:href="#DejaVuSans-69" transform="translate(288.476562 0)"/>
      <use xlink:href="#DejaVuSans-6d" transform="translate(316.259766 0)"/>
      <use xlink:href="#DejaVuSans-65" transform="translate(413.671875 0)"/>
      <use xlink:href="#DejaVuSans-6e" transform="translate(475.195312 0)"/>
      <use xlink:href="#DejaVuSans-74" transform="translate(538.574219 0)"/>
      <use xlink:href="#DejaVuSans-61" transform="translate(577.783203 0)"/>
      <use xlink:href="#DejaVuSans-6c" transform="translate(639.0625 0)"/>
      <use xlink:href="#DejaVuSans-20" transform="translate(666.845703 0)"/>
      <use xlink:href="#DejaVuSans-50" transform="translate(698.632812 0)"/>
      <use xlink:href="#DejaVuSans-56" transform="translate(758.935547 0)"/>
     </g>
    </g>
    <g id="line2d_17">
     <path d="M 769.426563 50.094688 
L 779.426563 50.094688 
L 779.426563 50.094688 
L 789.426563 50.094688 
L 789.426563 50.094688 
" style="fill: none; stroke: #ff0000; stroke-width: 2; stroke-linecap: square"/>
    </g>
    <g id="text_17">
     <!-- Estimated PV -->
     <g transform="translate(797.426563 53.594688) scale(0.1 -0.1)">
      <defs>
       <path id="DejaVuSans-73" d="M 2834 3397 
L 2834 2853 
Q 2591 2978 2328 3040 
Q 2066 3103 1784 3103 
Q 1356 3103 1142 2972 
Q 928 2841 928 2578 
Q 928 2378 1081 2264 
Q 1234 2150 1697 2047 
L 1894 2003 
Q 2506 1872 2764 1633 
Q 3022 1394 3022 966 
Q 3022 478 2636 193 
Q 2250 -91 1575 -91 
Q 1294 -91 989 -36 
Q 684 19 347 128 
L 347 722 
Q 666 556 975 473 
Q 1284 391 1588 391 
Q 1994 391 2212 530 
Q 2431 669 2431 922 
Q 2431 1156 2273 1281 
Q 2116 1406 1581 1522 
L 1381 1569 
Q 847 1681 609 1914 
Q 372 2147 372 2553 
Q 372 3047 722 3315 
Q 1072 3584 1716 3584 
Q 2034 3584 2315 3537 
Q 2597 3491 2834 3397 
z
" transform="scale(0.015625)"/>
      </defs>
      <use xlink:href="#DejaVuSans-45"/>
      <use xlink:href="#DejaVuSans-73" transform="translate(63.183594 0)"/>
      <use xlink:href="#DejaVuSans-74" transform="translate(115.283203 0)"/>
      <use xlink:href="#DejaVuSans-69" transform="translate(154.492188 0)"/>
      <use xlink:href="#DejaVuSans-6d" transform="translate(182.275391 0)"/>
      <use xlink:href="#DejaVuSans-61" transform="translate(279.6875 0)"/>
      <use xlink:href="#DejaVuSans-74" transform="translate(340.966797 0)"/>
      <use xlink:href="#DejaVuSans-65" transform="translate(380.175781 0)"/>
      <use xlink:href="#DejaVuSans-64" transform="translate(441.699219 0)"/>
      <use xlink:href="#DejaVuSans-20" transform="translate(505.175781 0)"/>
      <use xlink:href="#DejaVuSans-50" transform="translate(536.962891 0)"/>
      <use xlink:href="#DejaVuSans-56" transform="translate(597.265625 0)"/>
     </g>
    </g>
   </g>
  </g>
 </g>
 <defs>
  <clipPath id="p602e164ad4">
   <rect x="52.160938" y="22.318125" width="837" height="554.4"/>
  </clipPath>
 </defs>
</svg>
