<?xml version="1.0" encoding="utf-8" standalone="no"?>
<!DOCTYPE svg PUBLIC "-//W3C//DTD SVG 1.1//EN"
  "http://www.w3.org/Graphics/SVG/1.1/DTD/svg11.dtd">
<svg xmlns:xlink="http://www.w3.org/1999/xlink" width="1075.745313pt" height="696.358125pt" viewBox="0 0 1075.745313 696.358125" xmlns="http://www.w3.org/2000/svg" version="1.1">
 <metadata>
  <rdf:RDF xmlns:dc="http://purl.org/dc/elements/1.1/" xmlns:cc="http://creativecommons.org/ns#" xmlns:rdf="http://www.w3.org/1999/02/22-rdf-syntax-ns#">
   <cc:Work>
    <dc:type rdf:resource="http://purl.org/dc/dcmitype/StillImage"/>
    <dc:date>2026-03-05T10:34:58.422466</dc:date>
    <dc:format>image/svg+xml</dc:format>
    <dc:creator>
     <cc:Agent>
      <dc:title>Matplotlib v3.10.6, https://matplotlib.org/</dc:title>
     </cc:Agent>
    </dc:creator>
   </cc:Work>
  </rdf:RDF>
 </metadata>
 <defs>
  <style type="text/css">*{stroke-linejoin: round; stroke-linecap: butt}</style>
 </defs>
 <g id="figure_1">
  <g id="patch_1">
   <path d="M 0 696.358125 
L 1075.745313 696.358125 
L 1075.745313 0 
L 0 0 
z
" style="fill: #ffffff"/>
  </g>
  <g id="axes_1">
   <g id="patch_2">
    <path d="M 55.345313 309.6 
L 1059.745313 309.6 
L 1059.745313 7.2 
L 55.345313 7.2 
z
" style="fill: #ffffff"/>
   </g>
   <g id="matplotlib.axis_1">
    <g id="xtick_1">
     <g id="line2d_1">
      <defs>
       <path id="ma06d59e3db" d="M 0 0 
L 0 3.5 
" style="stroke: #000000; stroke-width: 0.8"/>
      </defs>
      <g>
       <use xlink:href="#ma06d59e3db" x="55.345312" y="309.6" style="stroke: #000000; stroke-width: 0.8"/>
      </g>
     </g>
     <g id="text_1">
      <!-- $\mathdefault{10^{-4}}$ -->
      <g transform="translate(43.595312 324.198438) scale(0.1 -0.1)">
       <defs>
        <path id="DejaVuSans-31" d="M 794 531 
L 1825 531 
L 1825 4091 
L 703 3866 
L 703 4441 
L 1819 4666 
L 2450 4666 
L 2450 531 
L 3481 531 
L 3481 0 
L 794 0 
L 794 531 
z
" transform="scale(0.015625)"/>
        <path id="DejaVuSans-30" d="M 2034 4250 
Q 1547 4250 1301 3770 
Q 1056 3291 1056 2328 
Q 1056 1369 1301 889 
Q 1547 409 2034 409 
Q 2525 409 2770 889 
Q 3016 1369 3016 2328 
Q 3016 3291 2770 3770 
Q 2525 4250 2034 4250 
z
M 2034 4750 
Q 2819 4750 3233 4129 
Q 3647 3509 3647 2328 
Q 3647 1150 3233 529 
Q 2819 -91 2034 -91 
Q 1250 -91 836 529 
Q 422 1150 422 2328 
Q 422 3509 836 4129 
Q 1250 4750 2034 4750 
z
" transform="scale(0.015625)"/>
        <path id="DejaVuSans-2212" d="M 678 2272 
L 4684 2272 
L 4684 1741 
L 678 1741 
L 678 2272 
z
" transform="scale(0.015625)"/>
        <path id="DejaVuSans-34" d="M 2419 4116 
L 825 1625 
L 2419 1625 
L 2419 4116 
z
M 2253 4666 
L 3047 4666 
L 3047 1625 
L 3713 1625 
L 3713 1100 
L 3047 1100 
L 3047 0 
L 2419 0 
L 2419 1100 
L 313 1100 
L 313 1709 
L 2253 4666 
z
" transform="scale(0.015625)"/>
       </defs>
       <use xlink:href="#DejaVuSans-31" transform="translate(0 0.684375)"/>
       <use xlink:href="#DejaVuSans-30" transform="translate(63.623047 0.684375)"/>
       <use xlink:href="#DejaVuSans-2212" transform="translate(128.203125 38.965625) scale(0.7)"/>
       <use xlink:href="#DejaVuSans-34" transform="translate(186.855469 38.965625) scale(0.7)"/>
      </g>
     </g>
    </g>
    <g id="xtick_2">
     <g id="line2d_2">
      <g>
       <use xlink:href="#ma06d59e3db" x="256.225313" y="309.6" style="stroke: #000000; stroke-width: 0.8"/>
      </g>
     </g>
     <g id="text_2">
      <!-- $\mathdefault{10^{-3}}$ -->
      <g transform="translate(244.475313 324.198438) scale(0.1 -0.1)">
       <defs>
        <path id="DejaVuSans-33" d="M 2597 2516 
Q 3050 2419 3304 2112 
Q 3559 1806 3559 1356 
Q 3559 666 3084 287 
Q 2609 -91 1734 -91 
Q 1441 -91 1130 -33 
Q 819 25 488 141 
L 488 750 
Q 750 597 1062 519 
Q 1375 441 1716 441 
Q 2309 441 2620 675 
Q 2931 909 2931 1356 
Q 2931 1769 2642 2001 
Q 2353 2234 1838 2234 
L 1294 2234 
L 1294 2753 
L 1863 2753 
Q 2328 2753 2575 2939 
Q 2822 3125 2822 3475 
Q 2822 3834 2567 4026 
Q 2313 4219 1838 4219 
Q 1578 4219 1281 4162 
Q 984 4106 628 3988 
L 628 4550 
Q 988 4650 1302 4700 
Q 1616 4750 1894 4750 
Q 2613 4750 3031 4423 
Q 3450 4097 3450 3541 
Q 3450 3153 3228 2886 
Q 3006 2619 2597 2516 
z
" transform="scale(0.015625)"/>
       </defs>
       <use xlink:href="#DejaVuSans-31" transform="translate(0 0.765625)"/>
       <use xlink:href="#DejaVuSans-30" transform="translate(63.623047 0.765625)"/>
       <use xlink:href="#DejaVuSans-2212" transform="translate(128.203125 39.046875) scale(0.7)"/>
       <use xlink:href="#DejaVuSans-33" transform="translate(186.855469 39.046875) scale(0.7)"/>
      </g>
     </g>
    </g>
    <g id="xtick_3">
     <g id="line2d_3">
      <g>
       <use xlink:href="#ma06d59e3db" x="457.105313" y="309.6" style="stroke: #000000; stroke-width: 0.8"/>
      </g>
     </g>
     <g id="text_3">
      <!-- $\mathdefault{10^{-2}}$ -->
      <g transform="translate(445.355313 324.198438) scale(0.1 -0.1)">
       <defs>
        <path id="DejaVuSans-32" d="M 1228 531 
L 3431 531 
L 3431 0 
L 469 0 
L 469 531 
Q 828 903 1448 1529 
Q 2069 2156 2228 2338 
Q 2531 2678 2651 2914 
Q 2772 3150 2772 3378 
Q 2772 3750 2511 3984 
Q 2250 4219 1831 4219 
Q 1534 4219 1204 4116 
Q 875 4013 500 3803 
L 500 4441 
Q 881 4594 1212 4672 
Q 1544 4750 1819 4750 
Q 2544 4750 2975 4387 
Q 3406 4025 3406 3419 
Q 3406 3131 3298 2873 
Q 3191 2616 2906 2266 
Q 2828 2175 2409 1742 
Q 1991 1309 1228 531 
z
" transform="scale(0.015625)"/>
       </defs>
       <use xlink:href="#DejaVuSans-31" transform="translate(0 0.765625)"/>
       <use xlink:href="#DejaVuSans-30" transform="translate(63.623047 0.765625)"/>
       <use xlink:href="#DejaVuSans-2212" transform="translate(128.203125 39.046875) scale(0.7)"/>
       <use xlink:href="#DejaVuSans-32" transform="translate(186.855469 39.046875) scale(0.7)"/>
      </g>
     </g>
    </g>
    <g id="xtick_4">
     <g id="line2d_4">
      <g>
       <use xlink:href="#ma06d59e3db" x="657.985313" y="309.6" style="stroke: #000000; stroke-width: 0.8"/>
      </g>
     </g>
     <g id="text_4">
      <!-- $\mathdefault{10^{-1}}$ -->
      <g transform="translate(646.235313 324.198438) scale(0.1 -0.1)">
       <use xlink:href="#DejaVuSans-31" transform="translate(0 0.684375)"/>
       <use xlink:href="#DejaVuSans-30" transform="translate(63.623047 0.684375)"/>
       <use xlink:href="#DejaVuSans-2212" transform="translate(128.203125 38.965625) scale(0.7)"/>
       <use xlink:href="#DejaVuSans-31" transform="translate(186.855469 38.965625) scale(0.7)"/>
      </g>
     </g>
    </g>
    <g id="xtick_5">
     <g id="line2d_5">
      <g>
       <use xlink:href="#ma06d59e3db" x="858.865313" y="309.6" style="stroke: #000000; stroke-width: 0.8"/>
      </g>
     </g>
     <g id="text_5">
      <!-- $\mathdefault{10^{0}}$ -->
      <g transform="translate(850.065313 324.198438) scale(0.1 -0.1)">
       <use xlink:href="#DejaVuSans-31" transform="translate(0 0.765625)"/>
       <use xlink:href="#DejaVuSans-30" transform="translate(63.623047 0.765625)"/>
       <use xlink:href="#DejaVuSans-30" transform="translate(128.203125 39.046875) scale(0.7)"/>
      </g>
     </g>
    </g>
    <g id="xtick_6">
     <g id="line2d_6">
      <g>
       <use xlink:href="#ma06d59e3db" x="1059.745313" y="309.6" style="stroke: #000000; stroke-width: 0.8"/>
      </g>
     </g>
     <g id="text_6">
      <!-- $\mathdefault{10^{1}}$ -->
      <g transform="translate(1050.945313 324.198438) scale(0.1 -0.1)">
       <use xlink:href="#DejaVuSans-31" transform="translate(0 0.684375)"/>
       <use xlink:href="#DejaVuSans-30" transform="translate(63.623047 0.684375)"/>
       <use xlink:href="#DejaVuSans-31" transform="translate(128.203125 38.965625) scale(0.7)"/>
      </g>
     </g>
    </g>
    <g id="xtick_7">
     <g id="line2d_7">
      <defs>
       <path id="mea673dcecc" d="M 0 0 
L 0 2 
" style="stroke: #000000; stroke-width: 0.6"/>
      </defs>
      <g>
       <use xlink:href="#mea673dcecc" x="115.816218" y="309.6" style="stroke: #000000; stroke-width: 0.6"/>
      </g>
     </g>
    </g>
    <g id="xtick_8">
     <g id="line2d_8">
      <g>
       <use xlink:href="#mea673dcecc" x="151.18943" y="309.6" style="stroke: #000000; stroke-width: 0.6"/>
      </g>
     </g>
    </g>
    <g id="xtick_9">
     <g id="line2d_9">
      <g>
       <use xlink:href="#mea673dcecc" x="176.287124" y="309.6" style="stroke: #000000; stroke-width: 0.6"/>
      </g>
     </g>
    </g>
    <g id="xtick_10">
     <g id="line2d_10">
      <g>
       <use xlink:href="#mea673dcecc" x="195.754407" y="309.6" style="stroke: #000000; stroke-width: 0.6"/>
      </g>
     </g>
    </g>
    <g id="xtick_11">
     <g id="line2d_11">
      <g>
       <use xlink:href="#mea673dcecc" x="211.660336" y="309.6" style="stroke: #000000; stroke-width: 0.6"/>
      </g>
     </g>
    </g>
    <g id="xtick_12">
     <g id="line2d_12">
      <g>
       <use xlink:href="#mea673dcecc" x="225.108607" y="309.6" style="stroke: #000000; stroke-width: 0.6"/>
      </g>
     </g>
    </g>
    <g id="xtick_13">
     <g id="line2d_13">
      <g>
       <use xlink:href="#mea673dcecc" x="236.758029" y="309.6" style="stroke: #000000; stroke-width: 0.6"/>
      </g>
     </g>
    </g>
    <g id="xtick_14">
     <g id="line2d_14">
      <g>
       <use xlink:href="#mea673dcecc" x="247.033548" y="309.6" style="stroke: #000000; stroke-width: 0.6"/>
      </g>
     </g>
    </g>
    <g id="xtick_15">
     <g id="line2d_15">
      <g>
       <use xlink:href="#mea673dcecc" x="316.696218" y="309.6" style="stroke: #000000; stroke-width: 0.6"/>
      </g>
     </g>
    </g>
    <g id="xtick_16">
     <g id="line2d_16">
      <g>
       <use xlink:href="#mea673dcecc" x="352.06943" y="309.6" style="stroke: #000000; stroke-width: 0.6"/>
      </g>
     </g>
    </g>
    <g id="xtick_17">
     <g id="line2d_17">
      <g>
       <use xlink:href="#mea673dcecc" x="377.167124" y="309.6" style="stroke: #000000; stroke-width: 0.6"/>
      </g>
     </g>
    </g>
    <g id="xtick_18">
     <g id="line2d_18">
      <g>
       <use xlink:href="#mea673dcecc" x="396.634407" y="309.6" style="stroke: #000000; stroke-width: 0.6"/>
      </g>
     </g>
    </g>
    <g id="xtick_19">
     <g id="line2d_19">
      <g>
       <use xlink:href="#mea673dcecc" x="412.540336" y="309.6" style="stroke: #000000; stroke-width: 0.6"/>
      </g>
     </g>
    </g>
    <g id="xtick_20">
     <g id="line2d_20">
      <g>
       <use xlink:href="#mea673dcecc" x="425.988607" y="309.6" style="stroke: #000000; stroke-width: 0.6"/>
      </g>
     </g>
    </g>
    <g id="xtick_21">
     <g id="line2d_21">
      <g>
       <use xlink:href="#mea673dcecc" x="437.638029" y="309.6" style="stroke: #000000; stroke-width: 0.6"/>
      </g>
     </g>
    </g>
    <g id="xtick_22">
     <g id="line2d_22">
      <g>
       <use xlink:href="#mea673dcecc" x="447.913548" y="309.6" style="stroke: #000000; stroke-width: 0.6"/>
      </g>
     </g>
    </g>
    <g id="xtick_23">
     <g id="line2d_23">
      <g>
       <use xlink:href="#mea673dcecc" x="517.576218" y="309.6" style="stroke: #000000; stroke-width: 0.6"/>
      </g>
     </g>
    </g>
    <g id="xtick_24">
     <g id="line2d_24">
      <g>
       <use xlink:href="#mea673dcecc" x="552.94943" y="309.6" style="stroke: #000000; stroke-width: 0.6"/>
      </g>
     </g>
    </g>
    <g id="xtick_25">
     <g id="line2d_25">
      <g>
       <use xlink:href="#mea673dcecc" x="578.047124" y="309.6" style="stroke: #000000; stroke-width: 0.6"/>
      </g>
     </g>
    </g>
    <g id="xtick_26">
     <g id="line2d_26">
      <g>
       <use xlink:href="#mea673dcecc" x="597.514407" y="309.6" style="stroke: #000000; stroke-width: 0.6"/>
      </g>
     </g>
    </g>
    <g id="xtick_27">
     <g id="line2d_27">
      <g>
       <use xlink:href="#mea673dcecc" x="613.420336" y="309.6" style="stroke: #000000; stroke-width: 0.6"/>
      </g>
     </g>
    </g>
    <g id="xtick_28">
     <g id="line2d_28">
      <g>
       <use xlink:href="#mea673dcecc" x="626.868607" y="309.6" style="stroke: #000000; stroke-width: 0.6"/>
      </g>
     </g>
    </g>
    <g id="xtick_29">
     <g id="line2d_29">
      <g>
       <use xlink:href="#mea673dcecc" x="638.518029" y="309.6" style="stroke: #000000; stroke-width: 0.6"/>
      </g>
     </g>
    </g>
    <g id="xtick_30">
     <g id="line2d_30">
      <g>
       <use xlink:href="#mea673dcecc" x="648.793548" y="309.6" style="stroke: #000000; stroke-width: 0.6"/>
      </g>
     </g>
    </g>
    <g id="xtick_31">
     <g id="line2d_31">
      <g>
       <use xlink:href="#mea673dcecc" x="718.456218" y="309.6" style="stroke: #000000; stroke-width: 0.6"/>
      </g>
     </g>
    </g>
    <g id="xtick_32">
     <g id="line2d_32">
      <g>
       <use xlink:href="#mea673dcecc" x="753.82943" y="309.6" style="stroke: #000000; stroke-width: 0.6"/>
      </g>
     </g>
    </g>
    <g id="xtick_33">
     <g id="line2d_33">
      <g>
       <use xlink:href="#mea673dcecc" x="778.927124" y="309.6" style="stroke: #000000; stroke-width: 0.6"/>
      </g>
     </g>
    </g>
    <g id="xtick_34">
     <g id="line2d_34">
      <g>
       <use xlink:href="#mea673dcecc" x="798.394407" y="309.6" style="stroke: #000000; stroke-width: 0.6"/>
      </g>
     </g>
    </g>
    <g id="xtick_35">
     <g id="line2d_35">
      <g>
       <use xlink:href="#mea673dcecc" x="814.300336" y="309.6" style="stroke: #000000; stroke-width: 0.6"/>
      </g>
     </g>
    </g>
    <g id="xtick_36">
     <g id="line2d_36">
      <g>
       <use xlink:href="#mea673dcecc" x="827.748607" y="309.6" style="stroke: #000000; stroke-width: 0.6"/>
      </g>
     </g>
    </g>
    <g id="xtick_37">
     <g id="line2d_37">
      <g>
       <use xlink:href="#mea673dcecc" x="839.398029" y="309.6" style="stroke: #000000; stroke-width: 0.6"/>
      </g>
     </g>
    </g>
    <g id="xtick_38">
     <g id="line2d_38">
      <g>
       <use xlink:href="#mea673dcecc" x="849.673548" y="309.6" style="stroke: #000000; stroke-width: 0.6"/>
      </g>
     </g>
    </g>
    <g id="xtick_39">
     <g id="line2d_39">
      <g>
       <use xlink:href="#mea673dcecc" x="919.336218" y="309.6" style="stroke: #000000; stroke-width: 0.6"/>
      </g>
     </g>
    </g>
    <g id="xtick_40">
     <g id="line2d_40">
      <g>
       <use xlink:href="#mea673dcecc" x="954.70943" y="309.6" style="stroke: #000000; stroke-width: 0.6"/>
      </g>
     </g>
    </g>
    <g id="xtick_41">
     <g id="line2d_41">
      <g>
       <use xlink:href="#mea673dcecc" x="979.807124" y="309.6" style="stroke: #000000; stroke-width: 0.6"/>
      </g>
     </g>
    </g>
    <g id="xtick_42">
     <g id="line2d_42">
      <g>
       <use xlink:href="#mea673dcecc" x="999.274407" y="309.6" style="stroke: #000000; stroke-width: 0.6"/>
      </g>
     </g>
    </g>
    <g id="xtick_43">
     <g id="line2d_43">
      <g>
       <use xlink:href="#mea673dcecc" x="1015.180336" y="309.6" style="stroke: #000000; stroke-width: 0.6"/>
      </g>
     </g>
    </g>
    <g id="xtick_44">
     <g id="line2d_44">
      <g>
       <use xlink:href="#mea673dcecc" x="1028.628607" y="309.6" style="stroke: #000000; stroke-width: 0.6"/>
      </g>
     </g>
    </g>
    <g id="xtick_45">
     <g id="line2d_45">
      <g>
       <use xlink:href="#mea673dcecc" x="1040.278029" y="309.6" style="stroke: #000000; stroke-width: 0.6"/>
      </g>
     </g>
    </g>
    <g id="xtick_46">
     <g id="line2d_46">
      <g>
       <use xlink:href="#mea673dcecc" x="1050.553548" y="309.6" style="stroke: #000000; stroke-width: 0.6"/>
      </g>
     </g>
    </g>
   </g>
   <g id="matplotlib.axis_2">
    <g id="ytick_1">
     <g id="line2d_47">
      <defs>
       <path id="mde3e89f57e" d="M 0 0 
L -3.5 0 
" style="stroke: #000000; stroke-width: 0.8"/>
      </defs>
      <g>
       <use xlink:href="#mde3e89f57e" x="55.345313" y="285.257783" style="stroke: #000000; stroke-width: 0.8"/>
      </g>
     </g>
     <g id="text_7">
      <!-- −80 -->
      <g transform="translate(27.240625 289.057002) scale(0.1 -0.1)">
       <defs>
        <path id="DejaVuSans-38" d="M 2034 2216 
Q 1584 2216 1326 1975 
Q 1069 1734 1069 1313 
Q 1069 891 1326 650 
Q 1584 409 2034 409 
Q 2484 409 2743 651 
Q 3003 894 3003 1313 
Q 3003 1734 2745 1975 
Q 2488 2216 2034 2216 
z
M 1403 2484 
Q 997 2584 770 2862 
Q 544 3141 544 3541 
Q 544 4100 942 4425 
Q 1341 4750 2034 4750 
Q 2731 4750 3128 4425 
Q 3525 4100 3525 3541 
Q 3525 3141 3298 2862 
Q 3072 2584 2669 2484 
Q 3125 2378 3379 2068 
Q 3634 1759 3634 1313 
Q 3634 634 3220 271 
Q 2806 -91 2034 -91 
Q 1263 -91 848 271 
Q 434 634 434 1313 
Q 434 1759 690 2068 
Q 947 2378 1403 2484 
z
M 1172 3481 
Q 1172 3119 1398 2916 
Q 1625 2713 2034 2713 
Q 2441 2713 2670 2916 
Q 2900 3119 2900 3481 
Q 2900 3844 2670 4047 
Q 2441 4250 2034 4250 
Q 1625 4250 1398 4047 
Q 1172 3844 1172 3481 
z
" transform="scale(0.015625)"/>
       </defs>
       <use xlink:href="#DejaVuSans-2212"/>
       <use xlink:href="#DejaVuSans-38" transform="translate(83.789062 0)"/>
       <use xlink:href="#DejaVuSans-30" transform="translate(147.412109 0)"/>
      </g>
     </g>
    </g>
    <g id="ytick_2">
     <g id="line2d_48">
      <g>
       <use xlink:href="#mde3e89f57e" x="55.345313" y="220.198583" style="stroke: #000000; stroke-width: 0.8"/>
      </g>
     </g>
     <g id="text_8">
      <!-- −60 -->
      <g transform="translate(27.240625 223.997801) scale(0.1 -0.1)">
       <defs>
        <path id="DejaVuSans-36" d="M 2113 2584 
Q 1688 2584 1439 2293 
Q 1191 2003 1191 1497 
Q 1191 994 1439 701 
Q 1688 409 2113 409 
Q 2538 409 2786 701 
Q 3034 994 3034 1497 
Q 3034 2003 2786 2293 
Q 2538 2584 2113 2584 
z
M 3366 4563 
L 3366 3988 
Q 3128 4100 2886 4159 
Q 2644 4219 2406 4219 
Q 1781 4219 1451 3797 
Q 1122 3375 1075 2522 
Q 1259 2794 1537 2939 
Q 1816 3084 2150 3084 
Q 2853 3084 3261 2657 
Q 3669 2231 3669 1497 
Q 3669 778 3244 343 
Q 2819 -91 2113 -91 
Q 1303 -91 875 529 
Q 447 1150 447 2328 
Q 447 3434 972 4092 
Q 1497 4750 2381 4750 
Q 2619 4750 2861 4703 
Q 3103 4656 3366 4563 
z
" transform="scale(0.015625)"/>
       </defs>
       <use xlink:href="#DejaVuSans-2212"/>
       <use xlink:href="#DejaVuSans-36" transform="translate(83.789062 0)"/>
       <use xlink:href="#DejaVuSans-30" transform="translate(147.412109 0)"/>
      </g>
     </g>
    </g>
    <g id="ytick_3">
     <g id="line2d_49">
      <g>
       <use xlink:href="#mde3e89f57e" x="55.345313" y="155.139382" style="stroke: #000000; stroke-width: 0.8"/>
      </g>
     </g>
     <g id="text_9">
      <!-- −40 -->
      <g transform="translate(27.240625 158.9386) scale(0.1 -0.1)">
       <use xlink:href="#DejaVuSans-2212"/>
       <use xlink:href="#DejaVuSans-34" transform="translate(83.789062 0)"/>
       <use xlink:href="#DejaVuSans-30" transform="translate(147.412109 0)"/>
      </g>
     </g>
    </g>
    <g id="ytick_4">
     <g id="line2d_50">
      <g>
       <use xlink:href="#mde3e89f57e" x="55.345313" y="90.080181" style="stroke: #000000; stroke-width: 0.8"/>
      </g>
     </g>
     <g id="text_10">
      <!-- −20 -->
      <g transform="translate(27.240625 93.879399) scale(0.1 -0.1)">
       <use xlink:href="#DejaVuSans-2212"/>
       <use xlink:href="#DejaVuSans-32" transform="translate(83.789062 0)"/>
       <use xlink:href="#DejaVuSans-30" transform="translate(147.412109 0)"/>
      </g>
     </g>
    </g>
    <g id="ytick_5">
     <g id="line2d_51">
      <g>
       <use xlink:href="#mde3e89f57e" x="55.345313" y="25.02098" style="stroke: #000000; stroke-width: 0.8"/>
      </g>
     </g>
     <g id="text_11">
      <!-- 0 -->
      <g transform="translate(41.982813 28.820199) scale(0.1 -0.1)">
       <use xlink:href="#DejaVuSans-30"/>
      </g>
     </g>
    </g>
    <g id="text_12">
     <!-- Amplitude [db] -->
     <g transform="translate(21.160938 195.861719) rotate(-90) scale(0.1 -0.1)">
      <defs>
       <path id="DejaVuSans-41" d="M 2188 4044 
L 1331 1722 
L 3047 1722 
L 2188 4044 
z
M 1831 4666 
L 2547 4666 
L 4325 0 
L 3669 0 
L 3244 1197 
L 1141 1197 
L 716 0 
L 50 0 
L 1831 4666 
z
" transform="scale(0.015625)"/>
       <path id="DejaVuSans-6d" d="M 3328 2828 
Q 3544 3216 3844 3400 
Q 4144 3584 4550 3584 
Q 5097 3584 5394 3201 
Q 5691 2819 5691 2113 
L 5691 0 
L 5113 0 
L 5113 2094 
Q 5113 2597 4934 2840 
Q 4756 3084 4391 3084 
Q 3944 3084 3684 2787 
Q 3425 2491 3425 1978 
L 3425 0 
L 2847 0 
L 2847 2094 
Q 2847 2600 2669 2842 
Q 2491 3084 2119 3084 
Q 1678 3084 1418 2786 
Q 1159 2488 1159 1978 
L 1159 0 
L 581 0 
L 581 3500 
L 1159 3500 
L 1159 2956 
Q 1356 3278 1631 3431 
Q 1906 3584 2284 3584 
Q 2666 3584 2933 3390 
Q 3200 3197 3328 2828 
z
" transform="scale(0.015625)"/>
       <path id="DejaVuSans-70" d="M 1159 525 
L 1159 -1331 
L 581 -1331 
L 581 3500 
L 1159 3500 
L 1159 2969 
Q 1341 3281 1617 3432 
Q 1894 3584 2278 3584 
Q 2916 3584 3314 3078 
Q 3713 2572 3713 1747 
Q 3713 922 3314 415 
Q 2916 -91 2278 -91 
Q 1894 -91 1617 61 
Q 1341 213 1159 525 
z
M 3116 1747 
Q 3116 2381 2855 2742 
Q 2594 3103 2138 3103 
Q 1681 3103 1420 2742 
Q 1159 2381 1159 1747 
Q 1159 1113 1420 752 
Q 1681 391 2138 391 
Q 2594 391 2855 752 
Q 3116 1113 3116 1747 
z
" transform="scale(0.015625)"/>
       <path id="DejaVuSans-6c" d="M 603 4863 
L 1178 4863 
L 1178 0 
L 603 0 
L 603 4863 
z
" transform="scale(0.015625)"/>
       <path id="DejaVuSans-69" d="M 603 3500 
L 1178 3500 
L 1178 0 
L 603 0 
L 603 3500 
z
M 603 4863 
L 1178 4863 
L 1178 4134 
L 603 4134 
L 603 4863 
z
" transform="scale(0.015625)"/>
       <path id="DejaVuSans-74" d="M 1172 4494 
L 1172 3500 
L 2356 3500 
L 2356 3053 
L 1172 3053 
L 1172 1153 
Q 1172 725 1289 603 
Q 1406 481 1766 481 
L 2356 481 
L 2356 0 
L 1766 0 
Q 1100 0 847 248 
Q 594 497 594 1153 
L 594 3053 
L 172 3053 
L 172 3500 
L 594 3500 
L 594 4494 
L 1172 4494 
z
" transform="scale(0.015625)"/>
       <path id="DejaVuSans-75" d="M 544 1381 
L 544 3500 
L 1119 3500 
L 1119 1403 
Q 1119 906 1312 657 
Q 1506 409 1894 409 
Q 2359 409 2629 706 
Q 2900 1003 2900 1516 
L 2900 3500 
L 3475 3500 
L 3475 0 
L 2900 0 
L 2900 538 
Q 2691 219 2414 64 
Q 2138 -91 1772 -91 
Q 1169 -91 856 284 
Q 544 659 544 1381 
z
M 1991 3584 
L 1991 3584 
z
" transform="scale(0.015625)"/>
       <path id="DejaVuSans-64" d="M 2906 2969 
L 2906 4863 
L 3481 4863 
L 3481 0 
L 2906 0 
L 2906 525 
Q 2725 213 2448 61 
Q 2172 -91 1784 -91 
Q 1150 -91 751 415 
Q 353 922 353 1747 
Q 353 2572 751 3078 
Q 1150 3584 1784 3584 
Q 2172 3584 2448 3432 
Q 2725 3281 2906 2969 
z
M 947 1747 
Q 947 1113 1208 752 
Q 1469 391 1925 391 
Q 2381 391 2643 752 
Q 2906 1113 2906 1747 
Q 2906 2381 2643 2742 
Q 2381 3103 1925 3103 
Q 1469 3103 1208 2742 
Q 947 2381 947 1747 
z
" transform="scale(0.015625)"/>
       <path id="DejaVuSans-65" d="M 3597 1894 
L 3597 1613 
L 953 1613 
Q 991 1019 1311 708 
Q 1631 397 2203 397 
Q 2534 397 2845 478 
Q 3156 559 3463 722 
L 3463 178 
Q 3153 47 2828 -22 
Q 2503 -91 2169 -91 
Q 1331 -91 842 396 
Q 353 884 353 1716 
Q 353 2575 817 3079 
Q 1281 3584 2069 3584 
Q 2775 3584 3186 3129 
Q 3597 2675 3597 1894 
z
M 3022 2063 
Q 3016 2534 2758 2815 
Q 2500 3097 2075 3097 
Q 1594 3097 1305 2825 
Q 1016 2553 972 2059 
L 3022 2063 
z
" transform="scale(0.015625)"/>
       <path id="DejaVuSans-20" transform="scale(0.015625)"/>
       <path id="DejaVuSans-5b" d="M 550 4863 
L 1875 4863 
L 1875 4416 
L 1125 4416 
L 1125 -397 
L 1875 -397 
L 1875 -844 
L 550 -844 
L 550 4863 
z
" transform="scale(0.015625)"/>
       <path id="DejaVuSans-62" d="M 3116 1747 
Q 3116 2381 2855 2742 
Q 2594 3103 2138 3103 
Q 1681 3103 1420 2742 
Q 1159 2381 1159 1747 
Q 1159 1113 1420 752 
Q 1681 391 2138 391 
Q 2594 391 2855 752 
Q 3116 1113 3116 1747 
z
M 1159 2969 
Q 1341 3281 1617 3432 
Q 1894 3584 2278 3584 
Q 2916 3584 3314 3078 
Q 3713 2572 3713 1747 
Q 3713 922 3314 415 
Q 2916 -91 2278 -91 
Q 1894 -91 1617 61 
Q 1341 213 1159 525 
L 1159 0 
L 581 0 
L 581 4863 
L 1159 4863 
L 1159 2969 
z
" transform="scale(0.015625)"/>
       <path id="DejaVuSans-5d" d="M 1947 4863 
L 1947 -844 
L 622 -844 
L 622 -397 
L 1369 -397 
L 1369 4416 
L 622 4416 
L 622 4863 
L 1947 4863 
z
" transform="scale(0.015625)"/>
      </defs>
      <use xlink:href="#DejaVuSans-41"/>
      <use xlink:href="#DejaVuSans-6d" transform="translate(68.408203 0)"/>
      <use xlink:href="#DejaVuSans-70" transform="translate(165.820312 0)"/>
      <use xlink:href="#DejaVuSans-6c" transform="translate(229.296875 0)"/>
      <use xlink:href="#DejaVuSans-69" transform="translate(257.080078 0)"/>
      <use xlink:href="#DejaVuSans-74" transform="translate(284.863281 0)"/>
      <use xlink:href="#DejaVuSans-75" transform="translate(324.072266 0)"/>
      <use xlink:href="#DejaVuSans-64" transform="translate(387.451172 0)"/>
      <use xlink:href="#DejaVuSans-65" transform="translate(450.927734 0)"/>
      <use xlink:href="#DejaVuSans-20" transform="translate(512.451172 0)"/>
      <use xlink:href="#DejaVuSans-5b" transform="translate(544.238281 0)"/>
      <use xlink:href="#DejaVuSans-64" transform="translate(583.251953 0)"/>
      <use xlink:href="#DejaVuSans-62" transform="translate(646.728516 0)"/>
      <use xlink:href="#DejaVuSans-5d" transform="translate(710.205078 0)"/>
     </g>
    </g>
   </g>
   <g id="line2d_52">
    <path d="M 55.345312 52.67443 
L 202.705529 52.800458 
L 250.0175 53.05258 
L 280.252963 53.42511 
L 302.954673 53.918446 
L 321.437482 54.535255 
L 337.308589 55.282014 
L 351.371595 56.161319 
L 364.229201 57.183835 
L 376.283206 58.363043 
L 387.734511 59.704009 
L 398.884466 61.232051 
L 409.933971 62.971489 
L 420.983476 64.936667 
L 432.233881 67.163785 
L 443.886087 69.697581 
L 456.241442 72.614479 
L 469.500848 75.976212 
L 484.166555 79.929041 
L 500.740812 84.633076 
L 520.127671 90.374152 
L 543.934331 97.666345 
L 575.174295 107.481928 
L 621.280866 122.222818 
L 708.772855 150.4697 
L 1059.745313 264.12557 
L 1059.745313 264.12557 
" clip-path="url(#p4438912407)" style="fill: none; stroke: #00ffff; stroke-width: 2; stroke-linecap: square"/>
   </g>
   <g id="line2d_53">
    <path d="M 55.345312 52.76217 
L 204.814979 52.887805 
L 252.126951 53.13889 
L 282.362414 53.51031 
L 305.064124 54.002945 
L 323.546933 54.620109 
L 339.31759 55.363624 
L 353.280146 56.239363 
L 366.037302 57.258925 
L 377.890407 58.426375 
L 389.140812 59.755626 
L 399.989417 61.259816 
L 410.637122 62.960977 
L 421.184376 64.872604 
L 431.731631 67.0115 
L 442.379336 69.398663 
L 453.227941 72.060171 
L 464.277446 75.000464 
L 475.628301 78.253112 
L 487.079606 81.76562 
L 498.631361 85.540236 
L 510.183116 89.547846 
L 521.634421 93.75565 
L 532.884826 98.125615 
L 543.934331 102.654289 
L 554.883386 107.3813 
L 565.832441 112.352035 
L 576.781496 117.567431 
L 587.931451 123.125245 
L 599.483206 129.134266 
L 611.537212 135.656991 
L 624.394817 142.869182 
L 638.457824 151.016715 
L 654.128031 160.357537 
L 672.209039 171.401644 
L 693.906249 184.925431 
L 721.429561 202.356097 
L 759.701028 226.876213 
L 822.984556 267.718385 
L 991.640182 376.918686 
L 1059.745313 421.032473 
L 1059.745313 421.032473 
" clip-path="url(#p4438912407)" style="fill: none; stroke: #00ff00; stroke-width: 2; stroke-linecap: square"/>
   </g>
   <g id="line2d_54">
    <path d="M 55.345312 52.679214 
L 175.784916 52.815646 
L 220.987437 53.076814 
L 250.4193 53.458034 
L 272.71921 53.9605 
L 291.001118 54.588433 
L 306.671325 55.343301 
L 320.633881 56.233506 
L 333.491487 57.273942 
L 345.445042 58.461295 
L 356.896348 59.820114 
L 368.046303 61.366515 
L 379.095808 63.124548 
L 390.145313 65.108132 
L 401.496168 67.374248 
L 413.248823 69.950147 
L 425.704628 72.911769 
L 439.064484 76.319991 
L 453.830641 80.32045 
L 470.605799 85.101546 
L 490.294007 90.951571 
L 514.602918 98.416995 
L 546.746933 108.535497 
L 594.862504 123.936616 
L 689.586897 154.534204 
L 1059.745313 274.40733 
L 1059.745313 274.40733 
" clip-path="url(#p4438912407)" style="fill: none; stroke: #ff0000; stroke-width: 2; stroke-linecap: square"/>
   </g>
   <g id="line2d_55">
    <path d="M 55.345312 52.673805 
L 208.531631 52.798254 
L 256.144952 53.048746 
L 286.480866 53.419322 
L 309.283026 53.911773 
L 327.866285 54.529503 
L 343.737392 55.274164 
L 357.900848 56.158247 
L 370.758454 57.179998 
L 382.812459 58.358389 
L 394.263764 59.698505 
L 405.413719 61.225672 
L 416.463224 62.964224 
L 427.512729 64.928523 
L 438.763134 67.154782 
L 450.41534 69.687751 
L 462.770695 72.603864 
L 476.030101 75.964873 
L 490.695808 79.917044 
L 507.270065 84.6205 
L 526.656924 90.361088 
L 550.463584 97.652889 
L 581.703548 107.468181 
L 627.810119 122.208883 
L 715.201658 150.423176 
L 1059.745313 261.996898 
L 1059.745313 261.996898 
" clip-path="url(#p4438912407)" style="fill: none; stroke: #ffa500; stroke-width: 2; stroke-linecap: square"/>
   </g>
   <g id="line2d_56">
    <path d="M 55.345312 52.672462 
L 225.407239 52.793172 
L 273.52281 53.039624 
L 303.858724 53.406187 
L 326.359534 53.892533 
L 344.340092 54.49642 
L 359.508049 55.222503 
L 372.667005 56.069075 
L 384.41966 57.042419 
L 395.167815 58.152219 
L 405.112369 59.400236 
L 414.454223 60.795461 
L 423.293827 62.338839 
L 431.731631 64.034381 
L 439.968535 65.915083 
L 448.004538 67.976933 
L 455.940092 70.241661 
L 463.875646 72.738578 
L 471.811199 75.468885 
L 479.847203 78.468899 
L 488.084106 81.782639 
L 496.62236 85.461248 
L 505.461964 89.514629 
L 514.803818 94.047103 
L 524.748373 99.124426 
L 535.396078 104.813731 
L 547.048283 111.295297 
L 560.006339 118.761885 
L 574.772495 127.533234 
L 592.049903 138.063719 
L 612.943512 151.06888 
L 639.663224 167.97585 
L 676.829741 191.77513 
L 737.802918 231.114823 
L 893.299588 331.786856 
L 1059.745313 439.599317 
L 1059.745313 439.599317 
" clip-path="url(#p4438912407)" style="fill: none; stroke: #000000; stroke-width: 2; stroke-linecap: square"/>
   </g>
   <g id="patch_3">
    <path d="M 55.345313 309.6 
L 55.345313 7.2 
" style="fill: none; stroke: #000000; stroke-width: 0.8; stroke-linejoin: miter; stroke-linecap: square"/>
   </g>
   <g id="patch_4">
    <path d="M 1059.745313 309.6 
L 1059.745313 7.2 
" style="fill: none; stroke: #000000; stroke-width: 0.8; stroke-linejoin: miter; stroke-linecap: square"/>
   </g>
   <g id="patch_5">
    <path d="M 55.345312 309.6 
L 1059.745313 309.6 
" style="fill: none; stroke: #000000; stroke-width: 0.8; stroke-linejoin: miter; stroke-linecap: square"/>
   </g>
   <g id="patch_6">
    <path d="M 55.345312 7.2 
L 1059.745313 7.2 
" style="fill: none; stroke: #000000; stroke-width: 0.8; stroke-linejoin: miter; stroke-linecap: square"/>
   </g>
   <g id="legend_1">
    <g id="patch_7">
     <path d="M 819.90625 88.590625 
L 1052.745313 88.590625 
Q 1054.745313 88.590625 1054.745313 86.590625 
L 1054.745313 14.2 
Q 1054.745313 12.2 1052.745313 12.2 
L 819.90625 12.2 
Q 817.90625 12.2 817.90625 14.2 
L 817.90625 86.590625 
Q 817.90625 88.590625 819.90625 88.590625 
z
" style="fill: #ffffff; opacity: 0.8; stroke: #cccccc; stroke-linejoin: miter"/>
    </g>
    <g id="line2d_57">
     <path d="M 821.90625 20.298438 
L 831.90625 20.298438 
L 841.90625 20.298438 
" style="fill: none; stroke: #00ffff; stroke-width: 2; stroke-linecap: square"/>
    </g>
    <g id="text_13">
     <!-- Optimal Broida model (FOPDT) -->
     <g transform="translate(849.90625 23.798438) scale(0.1 -0.1)">
      <defs>
       <path id="DejaVuSans-4f" d="M 2522 4238 
Q 1834 4238 1429 3725 
Q 1025 3213 1025 2328 
Q 1025 1447 1429 934 
Q 1834 422 2522 422 
Q 3209 422 3611 934 
Q 4013 1447 4013 2328 
Q 4013 3213 3611 3725 
Q 3209 4238 2522 4238 
z
M 2522 4750 
Q 3503 4750 4090 4092 
Q 4678 3434 4678 2328 
Q 4678 1225 4090 567 
Q 3503 -91 2522 -91 
Q 1538 -91 948 565 
Q 359 1222 359 2328 
Q 359 3434 948 4092 
Q 1538 4750 2522 4750 
z
" transform="scale(0.015625)"/>
       <path id="DejaVuSans-61" d="M 2194 1759 
Q 1497 1759 1228 1600 
Q 959 1441 959 1056 
Q 959 750 1161 570 
Q 1363 391 1709 391 
Q 2188 391 2477 730 
Q 2766 1069 2766 1631 
L 2766 1759 
L 2194 1759 
z
M 3341 1997 
L 3341 0 
L 2766 0 
L 2766 531 
Q 2569 213 2275 61 
Q 1981 -91 1556 -91 
Q 1019 -91 701 211 
Q 384 513 384 1019 
Q 384 1609 779 1909 
Q 1175 2209 1959 2209 
L 2766 2209 
L 2766 2266 
Q 2766 2663 2505 2880 
Q 2244 3097 1772 3097 
Q 1472 3097 1187 3025 
Q 903 2953 641 2809 
L 641 3341 
Q 956 3463 1253 3523 
Q 1550 3584 1831 3584 
Q 2591 3584 2966 3190 
Q 3341 2797 3341 1997 
z
" transform="scale(0.015625)"/>
       <path id="DejaVuSans-42" d="M 1259 2228 
L 1259 519 
L 2272 519 
Q 2781 519 3026 730 
Q 3272 941 3272 1375 
Q 3272 1813 3026 2020 
Q 2781 2228 2272 2228 
L 1259 2228 
z
M 1259 4147 
L 1259 2741 
L 2194 2741 
Q 2656 2741 2882 2914 
Q 3109 3088 3109 3444 
Q 3109 3797 2882 3972 
Q 2656 4147 2194 4147 
L 1259 4147 
z
M 628 4666 
L 2241 4666 
Q 2963 4666 3353 4366 
Q 3744 4066 3744 3513 
Q 3744 3084 3544 2831 
Q 3344 2578 2956 2516 
Q 3422 2416 3680 2098 
Q 3938 1781 3938 1306 
Q 3938 681 3513 340 
Q 3088 0 2303 0 
L 628 0 
L 628 4666 
z
" transform="scale(0.015625)"/>
       <path id="DejaVuSans-72" d="M 2631 2963 
Q 2534 3019 2420 3045 
Q 2306 3072 2169 3072 
Q 1681 3072 1420 2755 
Q 1159 2438 1159 1844 
L 1159 0 
L 581 0 
L 581 3500 
L 1159 3500 
L 1159 2956 
Q 1341 3275 1631 3429 
Q 1922 3584 2338 3584 
Q 2397 3584 2469 3576 
Q 2541 3569 2628 3553 
L 2631 2963 
z
" transform="scale(0.015625)"/>
       <path id="DejaVuSans-6f" d="M 1959 3097 
Q 1497 3097 1228 2736 
Q 959 2375 959 1747 
Q 959 1119 1226 758 
Q 1494 397 1959 397 
Q 2419 397 2687 759 
Q 2956 1122 2956 1747 
Q 2956 2369 2687 2733 
Q 2419 3097 1959 3097 
z
M 1959 3584 
Q 2709 3584 3137 3096 
Q 3566 2609 3566 1747 
Q 3566 888 3137 398 
Q 2709 -91 1959 -91 
Q 1206 -91 779 398 
Q 353 888 353 1747 
Q 353 2609 779 3096 
Q 1206 3584 1959 3584 
z
" transform="scale(0.015625)"/>
       <path id="DejaVuSans-28" d="M 1984 4856 
Q 1566 4138 1362 3434 
Q 1159 2731 1159 2009 
Q 1159 1288 1364 580 
Q 1569 -128 1984 -844 
L 1484 -844 
Q 1016 -109 783 600 
Q 550 1309 550 2009 
Q 550 2706 781 3412 
Q 1013 4119 1484 4856 
L 1984 4856 
z
" transform="scale(0.015625)"/>
       <path id="DejaVuSans-46" d="M 628 4666 
L 3309 4666 
L 3309 4134 
L 1259 4134 
L 1259 2759 
L 3109 2759 
L 3109 2228 
L 1259 2228 
L 1259 0 
L 628 0 
L 628 4666 
z
" transform="scale(0.015625)"/>
       <path id="DejaVuSans-50" d="M 1259 4147 
L 1259 2394 
L 2053 2394 
Q 2494 2394 2734 2622 
Q 2975 2850 2975 3272 
Q 2975 3691 2734 3919 
Q 2494 4147 2053 4147 
L 1259 4147 
z
M 628 4666 
L 2053 4666 
Q 2838 4666 3239 4311 
Q 3641 3956 3641 3272 
Q 3641 2581 3239 2228 
Q 2838 1875 2053 1875 
L 1259 1875 
L 1259 0 
L 628 0 
L 628 4666 
z
" transform="scale(0.015625)"/>
       <path id="DejaVuSans-44" d="M 1259 4147 
L 1259 519 
L 2022 519 
Q 2988 519 3436 956 
Q 3884 1394 3884 2338 
Q 3884 3275 3436 3711 
Q 2988 4147 2022 4147 
L 1259 4147 
z
M 628 4666 
L 1925 4666 
Q 3281 4666 3915 4102 
Q 4550 3538 4550 2338 
Q 4550 1131 3912 565 
Q 3275 0 1925 0 
L 628 0 
L 628 4666 
z
" transform="scale(0.015625)"/>
       <path id="DejaVuSans-54" d="M -19 4666 
L 3928 4666 
L 3928 4134 
L 2272 4134 
L 2272 0 
L 1638 0 
L 1638 4134 
L -19 4134 
L -19 4666 
z
" transform="scale(0.015625)"/>
       <path id="DejaVuSans-29" d="M 513 4856 
L 1013 4856 
Q 1481 4119 1714 3412 
Q 1947 2706 1947 2009 
Q 1947 1309 1714 600 
Q 1481 -109 1013 -844 
L 513 -844 
Q 928 -128 1133 580 
Q 1338 1288 1338 2009 
Q 1338 2731 1133 3434 
Q 928 4138 513 4856 
z
" transform="scale(0.015625)"/>
      </defs>
      <use xlink:href="#DejaVuSans-4f"/>
      <use xlink:href="#DejaVuSans-70" transform="translate(78.710938 0)"/>
      <use xlink:href="#DejaVuSans-74" transform="translate(142.1875 0)"/>
      <use xlink:href="#DejaVuSans-69" transform="translate(181.396484 0)"/>
      <use xlink:href="#DejaVuSans-6d" transform="translate(209.179688 0)"/>
      <use xlink:href="#DejaVuSans-61" transform="translate(306.591797 0)"/>
      <use xlink:href="#DejaVuSans-6c" transform="translate(367.871094 0)"/>
      <use xlink:href="#DejaVuSans-20" transform="translate(395.654297 0)"/>
      <use xlink:href="#DejaVuSans-42" transform="translate(427.441406 0)"/>
      <use xlink:href="#DejaVuSans-72" transform="translate(496.044922 0)"/>
      <use xlink:href="#DejaVuSans-6f" transform="translate(534.908203 0)"/>
      <use xlink:href="#DejaVuSans-69" transform="translate(596.089844 0)"/>
      <use xlink:href="#DejaVuSans-64" transform="translate(623.873047 0)"/>
      <use xlink:href="#DejaVuSans-61" transform="translate(687.349609 0)"/>
      <use xlink:href="#DejaVuSans-20" transform="translate(748.628906 0)"/>
      <use xlink:href="#DejaVuSans-6d" transform="translate(780.416016 0)"/>
      <use xlink:href="#DejaVuSans-6f" transform="translate(877.828125 0)"/>
      <use xlink:href="#DejaVuSans-64" transform="translate(939.009766 0)"/>
      <use xlink:href="#DejaVuSans-65" transform="translate(1002.486328 0)"/>
      <use xlink:href="#DejaVuSans-6c" transform="translate(1064.009766 0)"/>
      <use xlink:href="#DejaVuSans-20" transform="translate(1091.792969 0)"/>
      <use xlink:href="#DejaVuSans-28" transform="translate(1123.580078 0)"/>
      <use xlink:href="#DejaVuSans-46" transform="translate(1162.59375 0)"/>
      <use xlink:href="#DejaVuSans-4f" transform="translate(1220.113281 0)"/>
      <use xlink:href="#DejaVuSans-50" transform="translate(1298.824219 0)"/>
      <use xlink:href="#DejaVuSans-44" transform="translate(1359.126953 0)"/>
      <use xlink:href="#DejaVuSans-54" transform="translate(1436.128906 0)"/>
      <use xlink:href="#DejaVuSans-29" transform="translate(1497.212891 0)"/>
     </g>
    </g>
    <g id="line2d_58">
     <path d="M 821.90625 34.976563 
L 831.90625 34.976563 
L 841.90625 34.976563 
" style="fill: none; stroke: #00ff00; stroke-width: 2; stroke-linecap: square"/>
    </g>
    <g id="text_14">
     <!-- Optimal van der Grinten model (SOPDT) -->
     <g transform="translate(849.90625 38.476563) scale(0.1 -0.1)">
      <defs>
       <path id="DejaVuSans-76" d="M 191 3500 
L 800 3500 
L 1894 563 
L 2988 3500 
L 3597 3500 
L 2284 0 
L 1503 0 
L 191 3500 
z
" transform="scale(0.015625)"/>
       <path id="DejaVuSans-6e" d="M 3513 2113 
L 3513 0 
L 2938 0 
L 2938 2094 
Q 2938 2591 2744 2837 
Q 2550 3084 2163 3084 
Q 1697 3084 1428 2787 
Q 1159 2491 1159 1978 
L 1159 0 
L 581 0 
L 581 3500 
L 1159 3500 
L 1159 2956 
Q 1366 3272 1645 3428 
Q 1925 3584 2291 3584 
Q 2894 3584 3203 3211 
Q 3513 2838 3513 2113 
z
" transform="scale(0.015625)"/>
       <path id="DejaVuSans-47" d="M 3809 666 
L 3809 1919 
L 2778 1919 
L 2778 2438 
L 4434 2438 
L 4434 434 
Q 4069 175 3628 42 
Q 3188 -91 2688 -91 
Q 1594 -91 976 548 
Q 359 1188 359 2328 
Q 359 3472 976 4111 
Q 1594 4750 2688 4750 
Q 3144 4750 3555 4637 
Q 3966 4525 4313 4306 
L 4313 3634 
Q 3963 3931 3569 4081 
Q 3175 4231 2741 4231 
Q 1884 4231 1454 3753 
Q 1025 3275 1025 2328 
Q 1025 1384 1454 906 
Q 1884 428 2741 428 
Q 3075 428 3337 486 
Q 3600 544 3809 666 
z
" transform="scale(0.015625)"/>
       <path id="DejaVuSans-53" d="M 3425 4513 
L 3425 3897 
Q 3066 4069 2747 4153 
Q 2428 4238 2131 4238 
Q 1616 4238 1336 4038 
Q 1056 3838 1056 3469 
Q 1056 3159 1242 3001 
Q 1428 2844 1947 2747 
L 2328 2669 
Q 3034 2534 3370 2195 
Q 3706 1856 3706 1288 
Q 3706 609 3251 259 
Q 2797 -91 1919 -91 
Q 1588 -91 1214 -16 
Q 841 59 441 206 
L 441 856 
Q 825 641 1194 531 
Q 1563 422 1919 422 
Q 2459 422 2753 634 
Q 3047 847 3047 1241 
Q 3047 1584 2836 1778 
Q 2625 1972 2144 2069 
L 1759 2144 
Q 1053 2284 737 2584 
Q 422 2884 422 3419 
Q 422 4038 858 4394 
Q 1294 4750 2059 4750 
Q 2388 4750 2728 4690 
Q 3069 4631 3425 4513 
z
" transform="scale(0.015625)"/>
      </defs>
      <use xlink:href="#DejaVuSans-4f"/>
      <use xlink:href="#DejaVuSans-70" transform="translate(78.710938 0)"/>
      <use xlink:href="#DejaVuSans-74" transform="translate(142.1875 0)"/>
      <use xlink:href="#DejaVuSans-69" transform="translate(181.396484 0)"/>
      <use xlink:href="#DejaVuSans-6d" transform="translate(209.179688 0)"/>
      <use xlink:href="#DejaVuSans-61" transform="translate(306.591797 0)"/>
      <use xlink:href="#DejaVuSans-6c" transform="translate(367.871094 0)"/>
      <use xlink:href="#DejaVuSans-20" transform="translate(395.654297 0)"/>
      <use xlink:href="#DejaVuSans-76" transform="translate(427.441406 0)"/>
      <use xlink:href="#DejaVuSans-61" transform="translate(486.621094 0)"/>
      <use xlink:href="#DejaVuSans-6e" transform="translate(547.900391 0)"/>
      <use xlink:href="#DejaVuSans-20" transform="translate(611.279297 0)"/>
      <use xlink:href="#DejaVuSans-64" transform="translate(643.066406 0)"/>
      <use xlink:href="#DejaVuSans-65" transform="translate(706.542969 0)"/>
      <use xlink:href="#DejaVuSans-72" transform="translate(768.066406 0)"/>
      <use xlink:href="#DejaVuSans-20" transform="translate(809.179688 0)"/>
      <use xlink:href="#DejaVuSans-47" transform="translate(840.966797 0)"/>
      <use xlink:href="#DejaVuSans-72" transform="translate(918.457031 0)"/>
      <use xlink:href="#DejaVuSans-69" transform="translate(959.570312 0)"/>
      <use xlink:href="#DejaVuSans-6e" transform="translate(987.353516 0)"/>
      <use xlink:href="#DejaVuSans-74" transform="translate(1050.732422 0)"/>
      <use xlink:href="#DejaVuSans-65" transform="translate(1089.941406 0)"/>
      <use xlink:href="#DejaVuSans-6e" transform="translate(1151.464844 0)"/>
      <use xlink:href="#DejaVuSans-20" transform="translate(1214.84375 0)"/>
      <use xlink:href="#DejaVuSans-6d" transform="translate(1246.630859 0)"/>
      <use xlink:href="#DejaVuSans-6f" transform="translate(1344.042969 0)"/>
      <use xlink:href="#DejaVuSans-64" transform="translate(1405.224609 0)"/>
      <use xlink:href="#DejaVuSans-65" transform="translate(1468.701172 0)"/>
      <use xlink:href="#DejaVuSans-6c" transform="translate(1530.224609 0)"/>
      <use xlink:href="#DejaVuSans-20" transform="translate(1558.007812 0)"/>
      <use xlink:href="#DejaVuSans-28" transform="translate(1589.794922 0)"/>
      <use xlink:href="#DejaVuSans-53" transform="translate(1628.808594 0)"/>
      <use xlink:href="#DejaVuSans-4f" transform="translate(1692.285156 0)"/>
      <use xlink:href="#DejaVuSans-50" transform="translate(1770.996094 0)"/>
      <use xlink:href="#DejaVuSans-44" transform="translate(1831.298828 0)"/>
      <use xlink:href="#DejaVuSans-54" transform="translate(1908.300781 0)"/>
      <use xlink:href="#DejaVuSans-29" transform="translate(1969.384766 0)"/>
     </g>
    </g>
    <g id="line2d_59">
     <path d="M 821.90625 49.654688 
L 831.90625 49.654688 
L 841.90625 49.654688 
" style="fill: none; stroke: #ff0000; stroke-width: 2; stroke-linecap: square"/>
    </g>
    <g id="text_15">
     <!-- Graphical Broida simple(FOPDT) -->
     <g transform="translate(849.90625 53.154688) scale(0.1 -0.1)">
      <defs>
       <path id="DejaVuSans-68" d="M 3513 2113 
L 3513 0 
L 2938 0 
L 2938 2094 
Q 2938 2591 2744 2837 
Q 2550 3084 2163 3084 
Q 1697 3084 1428 2787 
Q 1159 2491 1159 1978 
L 1159 0 
L 581 0 
L 581 4863 
L 1159 4863 
L 1159 2956 
Q 1366 3272 1645 3428 
Q 1925 3584 2291 3584 
Q 2894 3584 3203 3211 
Q 3513 2838 3513 2113 
z
" transform="scale(0.015625)"/>
       <path id="DejaVuSans-63" d="M 3122 3366 
L 3122 2828 
Q 2878 2963 2633 3030 
Q 2388 3097 2138 3097 
Q 1578 3097 1268 2742 
Q 959 2388 959 1747 
Q 959 1106 1268 751 
Q 1578 397 2138 397 
Q 2388 397 2633 464 
Q 2878 531 3122 666 
L 3122 134 
Q 2881 22 2623 -34 
Q 2366 -91 2075 -91 
Q 1284 -91 818 406 
Q 353 903 353 1747 
Q 353 2603 823 3093 
Q 1294 3584 2113 3584 
Q 2378 3584 2631 3529 
Q 2884 3475 3122 3366 
z
" transform="scale(0.015625)"/>
       <path id="DejaVuSans-73" d="M 2834 3397 
L 2834 2853 
Q 2591 2978 2328 3040 
Q 2066 3103 1784 3103 
Q 1356 3103 1142 2972 
Q 928 2841 928 2578 
Q 928 2378 1081 2264 
Q 1234 2150 1697 2047 
L 1894 2003 
Q 2506 1872 2764 1633 
Q 3022 1394 3022 966 
Q 3022 478 2636 193 
Q 2250 -91 1575 -91 
Q 1294 -91 989 -36 
Q 684 19 347 128 
L 347 722 
Q 666 556 975 473 
Q 1284 391 1588 391 
Q 1994 391 2212 530 
Q 2431 669 2431 922 
Q 2431 1156 2273 1281 
Q 2116 1406 1581 1522 
L 1381 1569 
Q 847 1681 609 1914 
Q 372 2147 372 2553 
Q 372 3047 722 3315 
Q 1072 3584 1716 3584 
Q 2034 3584 2315 3537 
Q 2597 3491 2834 3397 
z
" transform="scale(0.015625)"/>
      </defs>
      <use xlink:href="#DejaVuSans-47"/>
      <use xlink:href="#DejaVuSans-72" transform="translate(77.490234 0)"/>
      <use xlink:href="#DejaVuSans-61" transform="translate(118.603516 0)"/>
      <use xlink:href="#DejaVuSans-70" transform="translate(179.882812 0)"/>
      <use xlink:href="#DejaVuSans-68" transform="translate(243.359375 0)"/>
      <use xlink:href="#DejaVuSans-69" transform="translate(306.738281 0)"/>
      <use xlink:href="#DejaVuSans-63" transform="translate(334.521484 0)"/>
      <use xlink:href="#DejaVuSans-61" transform="translate(389.501953 0)"/>
      <use xlink:href="#DejaVuSans-6c" transform="translate(450.78125 0)"/>
      <use xlink:href="#DejaVuSans-20" transform="translate(478.564453 0)"/>
      <use xlink:href="#DejaVuSans-42" transform="translate(510.351562 0)"/>
      <use xlink:href="#DejaVuSans-72" transform="translate(578.955078 0)"/>
      <use xlink:href="#DejaVuSans-6f" transform="translate(617.818359 0)"/>
      <use xlink:href="#DejaVuSans-69" transform="translate(679 0)"/>
      <use xlink:href="#DejaVuSans-64" transform="translate(706.783203 0)"/>
      <use xlink:href="#DejaVuSans-61" transform="translate(770.259766 0)"/>
      <use xlink:href="#DejaVuSans-20" transform="translate(831.539062 0)"/>
      <use xlink:href="#DejaVuSans-73" transform="translate(863.326172 0)"/>
      <use xlink:href="#DejaVuSans-69" transform="translate(915.425781 0)"/>
      <use xlink:href="#DejaVuSans-6d" transform="translate(943.208984 0)"/>
      <use xlink:href="#DejaVuSans-70" transform="translate(1040.621094 0)"/>
      <use xlink:href="#DejaVuSans-6c" transform="translate(1104.097656 0)"/>
      <use xlink:href="#DejaVuSans-65" transform="translate(1131.880859 0)"/>
      <use xlink:href="#DejaVuSans-28" transform="translate(1193.404297 0)"/>
      <use xlink:href="#DejaVuSans-46" transform="translate(1232.417969 0)"/>
      <use xlink:href="#DejaVuSans-4f" transform="translate(1289.9375 0)"/>
      <use xlink:href="#DejaVuSans-50" transform="translate(1368.648438 0)"/>
      <use xlink:href="#DejaVuSans-44" transform="translate(1428.951172 0)"/>
      <use xlink:href="#DejaVuSans-54" transform="translate(1505.953125 0)"/>
      <use xlink:href="#DejaVuSans-29" transform="translate(1567.037109 0)"/>
     </g>
    </g>
    <g id="line2d_60">
     <path d="M 821.90625 64.332813 
L 831.90625 64.332813 
L 841.90625 64.332813 
" style="fill: none; stroke: #ffa500; stroke-width: 2; stroke-linecap: square"/>
    </g>
    <g id="text_16">
     <!-- Graphical Broida complicated (FOPDT) -->
     <g transform="translate(849.90625 67.832813) scale(0.1 -0.1)">
      <use xlink:href="#DejaVuSans-47"/>
      <use xlink:href="#DejaVuSans-72" transform="translate(77.490234 0)"/>
      <use xlink:href="#DejaVuSans-61" transform="translate(118.603516 0)"/>
      <use xlink:href="#DejaVuSans-70" transform="translate(179.882812 0)"/>
      <use xlink:href="#DejaVuSans-68" transform="translate(243.359375 0)"/>
      <use xlink:href="#DejaVuSans-69" transform="translate(306.738281 0)"/>
      <use xlink:href="#DejaVuSans-63" transform="translate(334.521484 0)"/>
      <use xlink:href="#DejaVuSans-61" transform="translate(389.501953 0)"/>
      <use xlink:href="#DejaVuSans-6c" transform="translate(450.78125 0)"/>
      <use xlink:href="#DejaVuSans-20" transform="translate(478.564453 0)"/>
      <use xlink:href="#DejaVuSans-42" transform="translate(510.351562 0)"/>
      <use xlink:href="#DejaVuSans-72" transform="translate(578.955078 0)"/>
      <use xlink:href="#DejaVuSans-6f" transform="translate(617.818359 0)"/>
      <use xlink:href="#DejaVuSans-69" transform="translate(679 0)"/>
      <use xlink:href="#DejaVuSans-64" transform="translate(706.783203 0)"/>
      <use xlink:href="#DejaVuSans-61" transform="translate(770.259766 0)"/>
      <use xlink:href="#DejaVuSans-20" transform="translate(831.539062 0)"/>
      <use xlink:href="#DejaVuSans-63" transform="translate(863.326172 0)"/>
      <use xlink:href="#DejaVuSans-6f" transform="translate(918.306641 0)"/>
      <use xlink:href="#DejaVuSans-6d" transform="translate(979.488281 0)"/>
      <use xlink:href="#DejaVuSans-70" transform="translate(1076.900391 0)"/>
      <use xlink:href="#DejaVuSans-6c" transform="translate(1140.376953 0)"/>
      <use xlink:href="#DejaVuSans-69" transform="translate(1168.160156 0)"/>
      <use xlink:href="#DejaVuSans-63" transform="translate(1195.943359 0)"/>
      <use xlink:href="#DejaVuSans-61" transform="translate(1250.923828 0)"/>
      <use xlink:href="#DejaVuSans-74" transform="translate(1312.203125 0)"/>
      <use xlink:href="#DejaVuSans-65" transform="translate(1351.412109 0)"/>
      <use xlink:href="#DejaVuSans-64" transform="translate(1412.935547 0)"/>
      <use xlink:href="#DejaVuSans-20" transform="translate(1476.412109 0)"/>
      <use xlink:href="#DejaVuSans-28" transform="translate(1508.199219 0)"/>
      <use xlink:href="#DejaVuSans-46" transform="translate(1547.212891 0)"/>
      <use xlink:href="#DejaVuSans-4f" transform="translate(1604.732422 0)"/>
      <use xlink:href="#DejaVuSans-50" transform="translate(1683.443359 0)"/>
      <use xlink:href="#DejaVuSans-44" transform="translate(1743.746094 0)"/>
      <use xlink:href="#DejaVuSans-54" transform="translate(1820.748047 0)"/>
      <use xlink:href="#DejaVuSans-29" transform="translate(1881.832031 0)"/>
     </g>
    </g>
    <g id="line2d_61">
     <path d="M 821.90625 79.010938 
L 831.90625 79.010938 
L 841.90625 79.010938 
" style="fill: none; stroke: #000000; stroke-width: 2; stroke-linecap: square"/>
    </g>
    <g id="text_17">
     <!-- Graphical Strejc model -->
     <g transform="translate(849.90625 82.510938) scale(0.1 -0.1)">
      <defs>
       <path id="DejaVuSans-6a" d="M 603 3500 
L 1178 3500 
L 1178 -63 
Q 1178 -731 923 -1031 
Q 669 -1331 103 -1331 
L -116 -1331 
L -116 -844 
L 38 -844 
Q 366 -844 484 -692 
Q 603 -541 603 -63 
L 603 3500 
z
M 603 4863 
L 1178 4863 
L 1178 4134 
L 603 4134 
L 603 4863 
z
" transform="scale(0.015625)"/>
      </defs>
      <use xlink:href="#DejaVuSans-47"/>
      <use xlink:href="#DejaVuSans-72" transform="translate(77.490234 0)"/>
      <use xlink:href="#DejaVuSans-61" transform="translate(118.603516 0)"/>
      <use xlink:href="#DejaVuSans-70" transform="translate(179.882812 0)"/>
      <use xlink:href="#DejaVuSans-68" transform="translate(243.359375 0)"/>
      <use xlink:href="#DejaVuSans-69" transform="translate(306.738281 0)"/>
      <use xlink:href="#DejaVuSans-63" transform="translate(334.521484 0)"/>
      <use xlink:href="#DejaVuSans-61" transform="translate(389.501953 0)"/>
      <use xlink:href="#DejaVuSans-6c" transform="translate(450.78125 0)"/>
      <use xlink:href="#DejaVuSans-20" transform="translate(478.564453 0)"/>
      <use xlink:href="#DejaVuSans-53" transform="translate(510.351562 0)"/>
      <use xlink:href="#DejaVuSans-74" transform="translate(573.828125 0)"/>
      <use xlink:href="#DejaVuSans-72" transform="translate(613.037109 0)"/>
      <use xlink:href="#DejaVuSans-65" transform="translate(651.900391 0)"/>
      <use xlink:href="#DejaVuSans-6a" transform="translate(713.423828 0)"/>
      <use xlink:href="#DejaVuSans-63" transform="translate(741.207031 0)"/>
      <use xlink:href="#DejaVuSans-20" transform="translate(796.1875 0)"/>
      <use xlink:href="#DejaVuSans-6d" transform="translate(827.974609 0)"/>
      <use xlink:href="#DejaVuSans-6f" transform="translate(925.386719 0)"/>
      <use xlink:href="#DejaVuSans-64" transform="translate(986.568359 0)"/>
      <use xlink:href="#DejaVuSans-65" transform="translate(1050.044922 0)"/>
      <use xlink:href="#DejaVuSans-6c" transform="translate(1111.568359 0)"/>
     </g>
    </g>
   </g>
  </g>
  <g id="axes_2">
   <g id="patch_8">
    <path d="M 55.345313 672.48 
L 1059.745313 672.48 
L 1059.745313 370.08 
L 55.345313 370.08 
z
" style="fill: #ffffff"/>
   </g>
   <g id="matplotlib.axis_3">
    <g id="xtick_47">
     <g id="line2d_62">
      <g>
       <use xlink:href="#ma06d59e3db" x="55.345312" y="672.48" style="stroke: #000000; stroke-width: 0.8"/>
      </g>
     </g>
     <g id="text_18">
      <!-- $\mathdefault{10^{-4}}$ -->
      <g transform="translate(43.595312 687.078438) scale(0.1 -0.1)">
       <use xlink:href="#DejaVuSans-31" transform="translate(0 0.684375)"/>
       <use xlink:href="#DejaVuSans-30" transform="translate(63.623047 0.684375)"/>
       <use xlink:href="#DejaVuSans-2212" transform="translate(128.203125 38.965625) scale(0.7)"/>
       <use xlink:href="#DejaVuSans-34" transform="translate(186.855469 38.965625) scale(0.7)"/>
      </g>
     </g>
    </g>
    <g id="xtick_48">
     <g id="line2d_63">
      <g>
       <use xlink:href="#ma06d59e3db" x="256.225313" y="672.48" style="stroke: #000000; stroke-width: 0.8"/>
      </g>
     </g>
     <g id="text_19">
      <!-- $\mathdefault{10^{-3}}$ -->
      <g transform="translate(244.475313 687.078438) scale(0.1 -0.1)">
       <use xlink:href="#DejaVuSans-31" transform="translate(0 0.765625)"/>
       <use xlink:href="#DejaVuSans-30" transform="translate(63.623047 0.765625)"/>
       <use xlink:href="#DejaVuSans-2212" transform="translate(128.203125 39.046875) scale(0.7)"/>
       <use xlink:href="#DejaVuSans-33" transform="translate(186.855469 39.046875) scale(0.7)"/>
      </g>
     </g>
    </g>
    <g id="xtick_49">
     <g id="line2d_64">
      <g>
       <use xlink:href="#ma06d59e3db" x="457.105313" y="672.48" style="stroke: #000000; stroke-width: 0.8"/>
      </g>
     </g>
     <g id="text_20">
      <!-- $\mathdefault{10^{-2}}$ -->
      <g transform="translate(445.355313 687.078438) scale(0.1 -0.1)">
       <use xlink:href="#DejaVuSans-31" transform="translate(0 0.765625)"/>
       <use xlink:href="#DejaVuSans-30" transform="translate(63.623047 0.765625)"/>
       <use xlink:href="#DejaVuSans-2212" transform="translate(128.203125 39.046875) scale(0.7)"/>
       <use xlink:href="#DejaVuSans-32" transform="translate(186.855469 39.046875) scale(0.7)"/>
      </g>
     </g>
    </g>
    <g id="xtick_50">
     <g id="line2d_65">
      <g>
       <use xlink:href="#ma06d59e3db" x="657.985313" y="672.48" style="stroke: #000000; stroke-width: 0.8"/>
      </g>
     </g>
     <g id="text_21">
      <!-- $\mathdefault{10^{-1}}$ -->
      <g transform="translate(646.235313 687.078438) scale(0.1 -0.1)">
       <use xlink:href="#DejaVuSans-31" transform="translate(0 0.684375)"/>
       <use xlink:href="#DejaVuSans-30" transform="translate(63.623047 0.684375)"/>
       <use xlink:href="#DejaVuSans-2212" transform="translate(128.203125 38.965625) scale(0.7)"/>
       <use xlink:href="#DejaVuSans-31" transform="translate(186.855469 38.965625) scale(0.7)"/>
      </g>
     </g>
    </g>
    <g id="xtick_51">
     <g id="line2d_66">
      <g>
       <use xlink:href="#ma06d59e3db" x="858.865313" y="672.48" style="stroke: #000000; stroke-width: 0.8"/>
      </g>
     </g>
     <g id="text_22">
      <!-- $\mathdefault{10^{0}}$ -->
      <g transform="translate(850.065313 687.078438) scale(0.1 -0.1)">
       <use xlink:href="#DejaVuSans-31" transform="translate(0 0.765625)"/>
       <use xlink:href="#DejaVuSans-30" transform="translate(63.623047 0.765625)"/>
       <use xlink:href="#DejaVuSans-30" transform="translate(128.203125 39.046875) scale(0.7)"/>
      </g>
     </g>
    </g>
    <g id="xtick_52">
     <g id="line2d_67">
      <g>
       <use xlink:href="#ma06d59e3db" x="1059.745313" y="672.48" style="stroke: #000000; stroke-width: 0.8"/>
      </g>
     </g>
     <g id="text_23">
      <!-- $\mathdefault{10^{1}}$ -->
      <g transform="translate(1050.945313 687.078438) scale(0.1 -0.1)">
       <use xlink:href="#DejaVuSans-31" transform="translate(0 0.684375)"/>
       <use xlink:href="#DejaVuSans-30" transform="translate(63.623047 0.684375)"/>
       <use xlink:href="#DejaVuSans-31" transform="translate(128.203125 38.965625) scale(0.7)"/>
      </g>
     </g>
    </g>
    <g id="xtick_53">
     <g id="line2d_68">
      <g>
       <use xlink:href="#mea673dcecc" x="115.816218" y="672.48" style="stroke: #000000; stroke-width: 0.6"/>
      </g>
     </g>
    </g>
    <g id="xtick_54">
     <g id="line2d_69">
      <g>
       <use xlink:href="#mea673dcecc" x="151.18943" y="672.48" style="stroke: #000000; stroke-width: 0.6"/>
      </g>
     </g>
    </g>
    <g id="xtick_55">
     <g id="line2d_70">
      <g>
       <use xlink:href="#mea673dcecc" x="176.287124" y="672.48" style="stroke: #000000; stroke-width: 0.6"/>
      </g>
     </g>
    </g>
    <g id="xtick_56">
     <g id="line2d_71">
      <g>
       <use xlink:href="#mea673dcecc" x="195.754407" y="672.48" style="stroke: #000000; stroke-width: 0.6"/>
      </g>
     </g>
    </g>
    <g id="xtick_57">
     <g id="line2d_72">
      <g>
       <use xlink:href="#mea673dcecc" x="211.660336" y="672.48" style="stroke: #000000; stroke-width: 0.6"/>
      </g>
     </g>
    </g>
    <g id="xtick_58">
     <g id="line2d_73">
      <g>
       <use xlink:href="#mea673dcecc" x="225.108607" y="672.48" style="stroke: #000000; stroke-width: 0.6"/>
      </g>
     </g>
    </g>
    <g id="xtick_59">
     <g id="line2d_74">
      <g>
       <use xlink:href="#mea673dcecc" x="236.758029" y="672.48" style="stroke: #000000; stroke-width: 0.6"/>
      </g>
     </g>
    </g>
    <g id="xtick_60">
     <g id="line2d_75">
      <g>
       <use xlink:href="#mea673dcecc" x="247.033548" y="672.48" style="stroke: #000000; stroke-width: 0.6"/>
      </g>
     </g>
    </g>
    <g id="xtick_61">
     <g id="line2d_76">
      <g>
       <use xlink:href="#mea673dcecc" x="316.696218" y="672.48" style="stroke: #000000; stroke-width: 0.6"/>
      </g>
     </g>
    </g>
    <g id="xtick_62">
     <g id="line2d_77">
      <g>
       <use xlink:href="#mea673dcecc" x="352.06943" y="672.48" style="stroke: #000000; stroke-width: 0.6"/>
      </g>
     </g>
    </g>
    <g id="xtick_63">
     <g id="line2d_78">
      <g>
       <use xlink:href="#mea673dcecc" x="377.167124" y="672.48" style="stroke: #000000; stroke-width: 0.6"/>
      </g>
     </g>
    </g>
    <g id="xtick_64">
     <g id="line2d_79">
      <g>
       <use xlink:href="#mea673dcecc" x="396.634407" y="672.48" style="stroke: #000000; stroke-width: 0.6"/>
      </g>
     </g>
    </g>
    <g id="xtick_65">
     <g id="line2d_80">
      <g>
       <use xlink:href="#mea673dcecc" x="412.540336" y="672.48" style="stroke: #000000; stroke-width: 0.6"/>
      </g>
     </g>
    </g>
    <g id="xtick_66">
     <g id="line2d_81">
      <g>
       <use xlink:href="#mea673dcecc" x="425.988607" y="672.48" style="stroke: #000000; stroke-width: 0.6"/>
      </g>
     </g>
    </g>
    <g id="xtick_67">
     <g id="line2d_82">
      <g>
       <use xlink:href="#mea673dcecc" x="437.638029" y="672.48" style="stroke: #000000; stroke-width: 0.6"/>
      </g>
     </g>
    </g>
    <g id="xtick_68">
     <g id="line2d_83">
      <g>
       <use xlink:href="#mea673dcecc" x="447.913548" y="672.48" style="stroke: #000000; stroke-width: 0.6"/>
      </g>
     </g>
    </g>
    <g id="xtick_69">
     <g id="line2d_84">
      <g>
       <use xlink:href="#mea673dcecc" x="517.576218" y="672.48" style="stroke: #000000; stroke-width: 0.6"/>
      </g>
     </g>
    </g>
    <g id="xtick_70">
     <g id="line2d_85">
      <g>
       <use xlink:href="#mea673dcecc" x="552.94943" y="672.48" style="stroke: #000000; stroke-width: 0.6"/>
      </g>
     </g>
    </g>
    <g id="xtick_71">
     <g id="line2d_86">
      <g>
       <use xlink:href="#mea673dcecc" x="578.047124" y="672.48" style="stroke: #000000; stroke-width: 0.6"/>
      </g>
     </g>
    </g>
    <g id="xtick_72">
     <g id="line2d_87">
      <g>
       <use xlink:href="#mea673dcecc" x="597.514407" y="672.48" style="stroke: #000000; stroke-width: 0.6"/>
      </g>
     </g>
    </g>
    <g id="xtick_73">
     <g id="line2d_88">
      <g>
       <use xlink:href="#mea673dcecc" x="613.420336" y="672.48" style="stroke: #000000; stroke-width: 0.6"/>
      </g>
     </g>
    </g>
    <g id="xtick_74">
     <g id="line2d_89">
      <g>
       <use xlink:href="#mea673dcecc" x="626.868607" y="672.48" style="stroke: #000000; stroke-width: 0.6"/>
      </g>
     </g>
    </g>
    <g id="xtick_75">
     <g id="line2d_90">
      <g>
       <use xlink:href="#mea673dcecc" x="638.518029" y="672.48" style="stroke: #000000; stroke-width: 0.6"/>
      </g>
     </g>
    </g>
    <g id="xtick_76">
     <g id="line2d_91">
      <g>
       <use xlink:href="#mea673dcecc" x="648.793548" y="672.48" style="stroke: #000000; stroke-width: 0.6"/>
      </g>
     </g>
    </g>
    <g id="xtick_77">
     <g id="line2d_92">
      <g>
       <use xlink:href="#mea673dcecc" x="718.456218" y="672.48" style="stroke: #000000; stroke-width: 0.6"/>
      </g>
     </g>
    </g>
    <g id="xtick_78">
     <g id="line2d_93">
      <g>
       <use xlink:href="#mea673dcecc" x="753.82943" y="672.48" style="stroke: #000000; stroke-width: 0.6"/>
      </g>
     </g>
    </g>
    <g id="xtick_79">
     <g id="line2d_94">
      <g>
       <use xlink:href="#mea673dcecc" x="778.927124" y="672.48" style="stroke: #000000; stroke-width: 0.6"/>
      </g>
     </g>
    </g>
    <g id="xtick_80">
     <g id="line2d_95">
      <g>
       <use xlink:href="#mea673dcecc" x="798.394407" y="672.48" style="stroke: #000000; stroke-width: 0.6"/>
      </g>
     </g>
    </g>
    <g id="xtick_81">
     <g id="line2d_96">
      <g>
       <use xlink:href="#mea673dcecc" x="814.300336" y="672.48" style="stroke: #000000; stroke-width: 0.6"/>
      </g>
     </g>
    </g>
    <g id="xtick_82">
     <g id="line2d_97">
      <g>
       <use xlink:href="#mea673dcecc" x="827.748607" y="672.48" style="stroke: #000000; stroke-width: 0.6"/>
      </g>
     </g>
    </g>
    <g id="xtick_83">
     <g id="line2d_98">
      <g>
       <use xlink:href="#mea673dcecc" x="839.398029" y="672.48" style="stroke: #000000; stroke-width: 0.6"/>
      </g>
     </g>
    </g>
    <g id="xtick_84">
     <g id="line2d_99">
      <g>
       <use xlink:href="#mea673dcecc" x="849.673548" y="672.48" style="stroke: #000000; stroke-width: 0.6"/>
      </g>
     </g>
    </g>
    <g id="xtick_85">
     <g id="line2d_100">
      <g>
       <use xlink:href="#mea673dcecc" x="919.336218" y="672.48" style="stroke: #000000; stroke-width: 0.6"/>
      </g>
     </g>
    </g>
    <g id="xtick_86">
     <g id="line2d_101">
      <g>
       <use xlink:href="#mea673dcecc" x="954.70943" y="672.48" style="stroke: #000000; stroke-width: 0.6"/>
      </g>
     </g>
    </g>
    <g id="xtick_87">
     <g id="line2d_102">
      <g>
       <use xlink:href="#mea673dcecc" x="979.807124" y="672.48" style="stroke: #000000; stroke-width: 0.6"/>
      </g>
     </g>
    </g>
    <g id="xtick_88">
     <g id="line2d_103">
      <g>
       <use xlink:href="#mea673dcecc" x="999.274407" y="672.48" style="stroke: #000000; stroke-width: 0.6"/>
      </g>
     </g>
    </g>
    <g id="xtick_89">
     <g id="line2d_104">
      <g>
       <use xlink:href="#mea673dcecc" x="1015.180336" y="672.48" style="stroke: #000000; stroke-width: 0.6"/>
      </g>
     </g>
    </g>
    <g id="xtick_90">
     <g id="line2d_105">
      <g>
       <use xlink:href="#mea673dcecc" x="1028.628607" y="672.48" style="stroke: #000000; stroke-width: 0.6"/>
      </g>
     </g>
    </g>
    <g id="xtick_91">
     <g id="line2d_106">
      <g>
       <use xlink:href="#mea673dcecc" x="1040.278029" y="672.48" style="stroke: #000000; stroke-width: 0.6"/>
      </g>
     </g>
    </g>
    <g id="xtick_92">
     <g id="line2d_107">
      <g>
       <use xlink:href="#mea673dcecc" x="1050.553548" y="672.48" style="stroke: #000000; stroke-width: 0.6"/>
      </g>
     </g>
    </g>
   </g>
   <g id="matplotlib.axis_4">
    <g id="ytick_6">
     <g id="line2d_108">
      <g>
       <use xlink:href="#mde3e89f57e" x="55.345313" y="672.48" style="stroke: #000000; stroke-width: 0.8"/>
      </g>
     </g>
     <g id="text_24">
      <!-- −200 -->
      <g transform="translate(20.878125 676.279219) scale(0.1 -0.1)">
       <use xlink:href="#DejaVuSans-2212"/>
       <use xlink:href="#DejaVuSans-32" transform="translate(83.789062 0)"/>
       <use xlink:href="#DejaVuSans-30" transform="translate(147.412109 0)"/>
       <use xlink:href="#DejaVuSans-30" transform="translate(211.035156 0)"/>
      </g>
     </g>
    </g>
    <g id="ytick_7">
     <g id="line2d_109">
      <g>
       <use xlink:href="#mde3e89f57e" x="55.345313" y="636.269177" style="stroke: #000000; stroke-width: 0.8"/>
      </g>
     </g>
     <g id="text_25">
      <!-- −175 -->
      <g transform="translate(20.878125 640.068396) scale(0.1 -0.1)">
       <defs>
        <path id="DejaVuSans-37" d="M 525 4666 
L 3525 4666 
L 3525 4397 
L 1831 0 
L 1172 0 
L 2766 4134 
L 525 4134 
L 525 4666 
z
" transform="scale(0.015625)"/>
        <path id="DejaVuSans-35" d="M 691 4666 
L 3169 4666 
L 3169 4134 
L 1269 4134 
L 1269 2991 
Q 1406 3038 1543 3061 
Q 1681 3084 1819 3084 
Q 2600 3084 3056 2656 
Q 3513 2228 3513 1497 
Q 3513 744 3044 326 
Q 2575 -91 1722 -91 
Q 1428 -91 1123 -41 
Q 819 9 494 109 
L 494 744 
Q 775 591 1075 516 
Q 1375 441 1709 441 
Q 2250 441 2565 725 
Q 2881 1009 2881 1497 
Q 2881 1984 2565 2268 
Q 2250 2553 1709 2553 
Q 1456 2553 1204 2497 
Q 953 2441 691 2322 
L 691 4666 
z
" transform="scale(0.015625)"/>
       </defs>
       <use xlink:href="#DejaVuSans-2212"/>
       <use xlink:href="#DejaVuSans-31" transform="translate(83.789062 0)"/>
       <use xlink:href="#DejaVuSans-37" transform="translate(147.412109 0)"/>
       <use xlink:href="#DejaVuSans-35" transform="translate(211.035156 0)"/>
      </g>
     </g>
    </g>
    <g id="ytick_8">
     <g id="line2d_110">
      <g>
       <use xlink:href="#mde3e89f57e" x="55.345313" y="600.058355" style="stroke: #000000; stroke-width: 0.8"/>
      </g>
     </g>
     <g id="text_26">
      <!-- −150 -->
      <g transform="translate(20.878125 603.857574) scale(0.1 -0.1)">
       <use xlink:href="#DejaVuSans-2212"/>
       <use xlink:href="#DejaVuSans-31" transform="translate(83.789062 0)"/>
       <use xlink:href="#DejaVuSans-35" transform="translate(147.412109 0)"/>
       <use xlink:href="#DejaVuSans-30" transform="translate(211.035156 0)"/>
      </g>
     </g>
    </g>
    <g id="ytick_9">
     <g id="line2d_111">
      <g>
       <use xlink:href="#mde3e89f57e" x="55.345313" y="563.847532" style="stroke: #000000; stroke-width: 0.8"/>
      </g>
     </g>
     <g id="text_27">
      <!-- −125 -->
      <g transform="translate(20.878125 567.646751) scale(0.1 -0.1)">
       <use xlink:href="#DejaVuSans-2212"/>
       <use xlink:href="#DejaVuSans-31" transform="translate(83.789062 0)"/>
       <use xlink:href="#DejaVuSans-32" transform="translate(147.412109 0)"/>
       <use xlink:href="#DejaVuSans-35" transform="translate(211.035156 0)"/>
      </g>
     </g>
    </g>
    <g id="ytick_10">
     <g id="line2d_112">
      <g>
       <use xlink:href="#mde3e89f57e" x="55.345313" y="527.63671" style="stroke: #000000; stroke-width: 0.8"/>
      </g>
     </g>
     <g id="text_28">
      <!-- −100 -->
      <g transform="translate(20.878125 531.435929) scale(0.1 -0.1)">
       <use xlink:href="#DejaVuSans-2212"/>
       <use xlink:href="#DejaVuSans-31" transform="translate(83.789062 0)"/>
       <use xlink:href="#DejaVuSans-30" transform="translate(147.412109 0)"/>
       <use xlink:href="#DejaVuSans-30" transform="translate(211.035156 0)"/>
      </g>
     </g>
    </g>
    <g id="ytick_11">
     <g id="line2d_113">
      <g>
       <use xlink:href="#mde3e89f57e" x="55.345313" y="491.425887" style="stroke: #000000; stroke-width: 0.8"/>
      </g>
     </g>
     <g id="text_29">
      <!-- −75 -->
      <g transform="translate(27.240625 495.225106) scale(0.1 -0.1)">
       <use xlink:href="#DejaVuSans-2212"/>
       <use xlink:href="#DejaVuSans-37" transform="translate(83.789062 0)"/>
       <use xlink:href="#DejaVuSans-35" transform="translate(147.412109 0)"/>
      </g>
     </g>
    </g>
    <g id="ytick_12">
     <g id="line2d_114">
      <g>
       <use xlink:href="#mde3e89f57e" x="55.345313" y="455.215065" style="stroke: #000000; stroke-width: 0.8"/>
      </g>
     </g>
     <g id="text_30">
      <!-- −50 -->
      <g transform="translate(27.240625 459.014283) scale(0.1 -0.1)">
       <use xlink:href="#DejaVuSans-2212"/>
       <use xlink:href="#DejaVuSans-35" transform="translate(83.789062 0)"/>
       <use xlink:href="#DejaVuSans-30" transform="translate(147.412109 0)"/>
      </g>
     </g>
    </g>
    <g id="ytick_13">
     <g id="line2d_115">
      <g>
       <use xlink:href="#mde3e89f57e" x="55.345313" y="419.004242" style="stroke: #000000; stroke-width: 0.8"/>
      </g>
     </g>
     <g id="text_31">
      <!-- −25 -->
      <g transform="translate(27.240625 422.803461) scale(0.1 -0.1)">
       <use xlink:href="#DejaVuSans-2212"/>
       <use xlink:href="#DejaVuSans-32" transform="translate(83.789062 0)"/>
       <use xlink:href="#DejaVuSans-35" transform="translate(147.412109 0)"/>
      </g>
     </g>
    </g>
    <g id="ytick_14">
     <g id="line2d_116">
      <g>
       <use xlink:href="#mde3e89f57e" x="55.345313" y="382.79342" style="stroke: #000000; stroke-width: 0.8"/>
      </g>
     </g>
     <g id="text_32">
      <!-- 0 -->
      <g transform="translate(41.982813 386.592638) scale(0.1 -0.1)">
       <use xlink:href="#DejaVuSans-30"/>
      </g>
     </g>
    </g>
    <g id="text_33">
     <!-- Phase [°] -->
     <g transform="translate(14.798438 544.199531) rotate(-90) scale(0.1 -0.1)">
      <defs>
       <path id="DejaVuSans-b0" d="M 1600 4347 
Q 1350 4347 1178 4173 
Q 1006 4000 1006 3750 
Q 1006 3503 1178 3333 
Q 1350 3163 1600 3163 
Q 1850 3163 2022 3333 
Q 2194 3503 2194 3750 
Q 2194 3997 2020 4172 
Q 1847 4347 1600 4347 
z
M 1600 4750 
Q 1800 4750 1984 4673 
Q 2169 4597 2303 4453 
Q 2447 4313 2519 4134 
Q 2591 3956 2591 3750 
Q 2591 3338 2302 3052 
Q 2013 2766 1594 2766 
Q 1172 2766 890 3047 
Q 609 3328 609 3750 
Q 609 4169 896 4459 
Q 1184 4750 1600 4750 
z
" transform="scale(0.015625)"/>
      </defs>
      <use xlink:href="#DejaVuSans-50"/>
      <use xlink:href="#DejaVuSans-68" transform="translate(60.302734 0)"/>
      <use xlink:href="#DejaVuSans-61" transform="translate(123.681641 0)"/>
      <use xlink:href="#DejaVuSans-73" transform="translate(184.960938 0)"/>
      <use xlink:href="#DejaVuSans-65" transform="translate(237.060547 0)"/>
      <use xlink:href="#DejaVuSans-20" transform="translate(298.583984 0)"/>
      <use xlink:href="#DejaVuSans-5b" transform="translate(330.371094 0)"/>
      <use xlink:href="#DejaVuSans-b0" transform="translate(369.384766 0)"/>
      <use xlink:href="#DejaVuSans-5d" transform="translate(419.384766 0)"/>
     </g>
    </g>
   </g>
   <g id="line2d_117">
    <path d="M 55.345312 384.564329 
L 84.576276 385.268985 
L 109.487887 386.086705 
L 131.285547 387.020638 
L 150.571955 388.065032 
L 167.949813 389.224541 
L 183.82092 390.50377 
L 198.386177 391.898741 
L 211.846483 393.408875 
L 224.402738 395.039295 
L 236.155394 396.787207 
L 247.204898 398.651843 
L 257.752153 400.65574 
L 267.797158 402.78984 
L 277.440362 405.066246 
L 286.681766 407.475838 
L 295.62182 410.03627 
L 304.260524 412.739854 
L 312.698328 415.611571 
L 321.035682 418.684842 
L 329.172135 421.919268 
L 337.308589 425.393057 
L 345.445042 429.110599 
L 353.581496 433.073171 
L 361.8184 437.331882 
L 370.256204 441.945608 
L 378.995358 446.979817 
L 388.136312 452.504829 
L 397.879966 458.65824 
L 408.427221 465.587465 
L 420.079426 473.515095 
L 433.037482 482.605197 
L 447.200938 492.815658 
L 461.364394 503.29814 
L 474.222 513.085314 
L 485.472405 521.921972 
L 495.41696 530.008958 
L 504.457464 537.644834 
L 512.694367 544.889947 
L 520.328571 551.896482 
L 527.560974 558.835213 
L 534.391577 565.695953 
L 540.92083 572.56915 
L 547.148733 579.445485 
L 553.175736 586.429516 
L 559.001838 593.519142 
L 564.727491 600.84057 
L 570.252243 608.266727 
L 575.676546 615.931923 
L 581.000398 623.843897 
L 586.2238 632.009098 
L 591.346753 640.43265 
L 596.369255 649.118307 
L 601.391757 658.255789 
L 606.313809 667.677909 
L 611.135412 677.385284 
L 615.957014 687.595029 
L 620.348816 697.358125 
L 620.348816 697.358125 
" clip-path="url(#pedf0a819a8)" style="fill: none; stroke: #00ffff; stroke-width: 2; stroke-linecap: square"/>
   </g>
   <g id="line2d_118">
    <path d="M 55.345312 384.535214 
L 84.777176 385.233915 
L 109.889687 386.047569 
L 131.787797 386.97528 
L 151.174655 388.014584 
L 168.652963 389.170511 
L 184.52407 390.439289 
L 199.089327 391.823048 
L 212.549633 393.321299 
L 225.105889 394.939236 
L 236.858544 396.674224 
L 248.008499 398.543559 
L 258.555754 400.536246 
L 268.600758 402.659369 
L 278.143512 404.900457 
L 287.384916 407.297921 
L 296.32497 409.847386 
L 304.963674 412.541735 
L 313.401478 415.40651 
L 321.638382 418.437446 
L 329.774835 421.669034 
L 337.810839 425.100649 
L 345.846843 428.776444 
L 353.882846 432.699377 
L 361.91885 436.869155 
L 370.155754 441.395241 
L 378.593557 446.287573 
L 387.332711 451.613248 
L 396.574115 457.509691 
L 406.41822 464.059502 
L 417.065925 471.41517 
L 428.81858 479.808772 
L 441.877086 489.412473 
L 456.040542 500.106729 
L 470.404898 511.229801 
L 483.965655 522.009042 
L 496.42146 532.192121 
L 507.872765 541.837977 
L 518.72137 551.266597 
L 529.067725 560.552734 
L 539.112729 569.865415 
L 549.057284 579.388549 
L 558.901388 589.122718 
L 568.745493 599.16904 
L 578.589597 609.533865 
L 588.333251 620.116469 
L 597.876006 630.809672 
L 607.01696 641.382753 
L 615.756114 651.825899 
L 624.093467 662.132912 
L 631.928571 672.167224 
L 639.361874 682.042164 
L 646.493827 691.885958 
L 650.337835 697.358125 
L 650.337835 697.358125 
" clip-path="url(#pedf0a819a8)" style="fill: none; stroke: #00ff00; stroke-width: 2; stroke-linecap: square"/>
   </g>
   <g id="line2d_119">
    <path d="M 55.345312 385.166444 
L 80.759174 385.968449 
L 102.858184 386.88281 
L 122.445943 387.910539 
L 140.12515 389.057213 
L 156.197158 390.319737 
L 170.963314 391.700738 
L 184.62452 393.200186 
L 197.281226 394.809856 
L 209.234781 396.552853 
L 220.485186 398.41678 
L 231.132891 400.404045 
L 241.278346 402.521013 
L 251.022 404.779005 
L 260.464304 407.195232 
L 269.605258 409.764129 
L 278.444862 412.477001 
L 287.184016 415.391603 
L 295.82272 418.509105 
L 304.360974 421.827582 
L 312.899228 425.384823 
L 321.537932 429.225821 
L 330.377536 433.401863 
L 339.51849 437.968864 
L 349.161694 443.038746 
L 359.608499 448.787163 
L 371.461604 455.572025 
L 386.026861 464.180608 
L 409.532171 478.373157 
L 477.034601 519.427244 
L 489.088607 527.132155 
L 499.234061 533.877137 
L 508.174115 540.082268 
L 516.411019 546.068092 
L 524.045222 551.889832 
L 531.177176 557.604528 
L 538.007779 563.362112 
L 544.537032 569.157576 
L 550.764934 574.980834 
L 556.791937 580.91855 
L 562.61804 586.967488 
L 568.343692 593.234323 
L 573.868445 599.609229 
L 579.292747 606.206423 
L 584.6166 613.031936 
L 589.840002 620.090696 
L 594.962954 627.386497 
L 599.985457 634.921968 
L 605.007959 642.861456 
L 609.930011 651.059443 
L 614.852063 659.696737 
L 619.673665 668.610153 
L 624.495267 677.998685 
L 629.21642 687.679569 
L 633.705368 697.358125 
L 633.705368 697.358125 
" clip-path="url(#pedf0a819a8)" style="fill: none; stroke: #ff0000; stroke-width: 2; stroke-linecap: square"/>
   </g>
   <g id="line2d_120">
    <path d="M 55.345312 384.544365 
L 84.676726 385.243936 
L 109.688787 386.057219 
L 131.486447 386.982946 
L 150.873305 388.024314 
L 168.351613 389.182661 
L 184.22272 390.45428 
L 198.787977 391.841401 
L 212.248283 393.343657 
L 224.804538 394.966413 
L 236.557194 396.70723 
L 247.606699 398.565752 
L 258.053503 400.544818 
L 267.998058 402.651561 
L 277.540812 404.898491 
L 286.681766 407.277134 
L 295.52137 409.805948 
L 304.059624 412.47835 
L 312.396978 415.32074 
L 320.533431 418.329864 
L 328.468985 421.500088 
L 336.304088 424.868013 
L 344.038742 428.432328 
L 351.773395 432.240346 
L 359.508049 436.295351 
L 367.343152 440.655409 
L 375.278706 445.327721 
L 383.415159 450.379978 
L 391.752513 455.821557 
L 400.391217 461.727662 
L 409.431721 468.18117 
L 418.874025 475.196413 
L 428.81858 482.864083 
L 439.164934 491.124543 
L 449.712189 499.83166 
L 460.058544 508.659336 
L 470.003098 517.43418 
L 479.344952 525.97125 
L 488.084106 534.25712 
L 496.22056 542.275266 
L 503.854763 550.107412 
L 511.087167 557.844383 
L 517.91777 565.473613 
L 524.447023 573.095606 
L 530.775376 580.826037 
L 536.802378 588.536053 
L 542.628481 596.343874 
L 548.354133 604.388856 
L 553.878886 612.531937 
L 559.303188 620.921088 
L 564.627041 629.565131 
L 569.850443 638.471532 
L 574.973395 647.646345 
L 579.995898 657.09415 
L 585.0184 667.02146 
L 589.940452 677.246806 
L 594.762054 687.771366 
L 598.95535 697.358125 
L 598.95535 697.358125 
" clip-path="url(#pedf0a819a8)" style="fill: none; stroke: #ffa500; stroke-width: 2; stroke-linecap: square"/>
   </g>
   <g id="line2d_121">
    <path d="M 55.345312 384.392036 
L 85.982576 385.064575 
L 111.898688 385.850024 
L 134.399498 386.749084 
L 154.288607 387.76146 
L 172.168715 388.890651 
L 188.341172 390.131103 
L 203.107329 391.482225 
L 216.768535 392.95195 
L 229.42524 394.533392 
L 241.278346 396.235372 
L 252.428301 398.058899 
L 262.975556 400.008301 
L 272.92011 402.070364 
L 282.362414 404.25217 
L 291.402918 406.56684 
L 300.041622 409.004979 
L 308.378976 411.58681 
L 316.414979 414.305846 
L 324.250083 417.191789 
L 331.783836 420.20116 
L 339.21714 423.410536 
L 346.449543 426.775809 
L 353.581496 430.341295 
L 360.612999 434.107958 
L 367.544052 438.074921 
L 374.374655 442.239238 
L 381.205258 446.662647 
L 388.035862 451.348982 
L 394.966915 456.374102 
L 401.998418 461.747479 
L 409.230821 467.55689 
L 416.664124 473.813335 
L 424.499228 480.699957 
L 432.937032 488.416575 
L 442.379336 497.362166 
L 453.730191 508.43704 
L 474.92515 529.510766 
L 489.490407 543.816064 
L 500.138112 553.966219 
L 509.479966 562.570505 
L 518.21912 570.321337 
L 526.656924 577.507813 
L 534.893827 584.231366 
L 543.130731 590.666059 
L 551.367635 596.819374 
L 559.805439 602.845938 
L 568.544592 608.815051 
L 577.785997 614.857489 
L 587.831001 621.156652 
L 599.282306 628.066849 
L 613.747113 636.518844 
L 649.607779 657.358358 
L 660.456384 663.993497 
L 669.798238 669.963374 
L 678.236042 675.617998 
L 685.970695 681.066289 
L 693.203098 686.428604 
L 700.134151 691.844945 
L 706.663404 697.226591 
L 706.818671 697.358125 
L 706.818671 697.358125 
" clip-path="url(#pedf0a819a8)" style="fill: none; stroke: #000000; stroke-width: 2; stroke-linecap: square"/>
   </g>
   <g id="patch_9">
    <path d="M 55.345313 672.48 
L 55.345313 370.08 
" style="fill: none; stroke: #000000; stroke-width: 0.8; stroke-linejoin: miter; stroke-linecap: square"/>
   </g>
   <g id="patch_10">
    <path d="M 1059.745313 672.48 
L 1059.745313 370.08 
" style="fill: none; stroke: #000000; stroke-width: 0.8; stroke-linejoin: miter; stroke-linecap: square"/>
   </g>
   <g id="patch_11">
    <path d="M 55.345312 672.48 
L 1059.745313 672.48 
" style="fill: none; stroke: #000000; stroke-width: 0.8; stroke-linejoin: miter; stroke-linecap: square"/>
   </g>
   <g id="patch_12">
    <path d="M 55.345312 370.08 
L 1059.745313 370.08 
" style="fill: none; stroke: #000000; stroke-width: 0.8; stroke-linejoin: miter; stroke-linecap: square"/>
   </g>
  </g>
 </g>
 <defs>
  <clipPath id="p4438912407">
   <rect x="55.345313" y="7.2" width="1004.4" height="302.4"/>
  </clipPath>
  <clipPath id="pedf0a819a8">
   <rect x="55.345313" y="370.08" width="1004.4" height="302.4"/>
  </clipPath>
 </defs>
</svg>
