<?xml version="1.0" encoding="utf-8" standalone="no"?>
<!DOCTYPE svg PUBLIC "-//W3C//DTD SVG 1.1//EN"
  "http://www.w3.org/Graphics/SVG/1.1/DTD/svg11.dtd">
<svg xmlns:xlink="http://www.w3.org/1999/xlink" width="897.525pt" height="543.71625pt" viewBox="0 0 897.525 543.71625" xmlns="http://www.w3.org/2000/svg" version="1.1">
 <metadata>
  <rdf:RDF xmlns:dc="http://purl.org/dc/elements/1.1/" xmlns:cc="http://creativecommons.org/ns#" xmlns:rdf="http://www.w3.org/1999/02/22-rdf-syntax-ns#">
   <cc:Work>
    <dc:type rdf:resource="http://purl.org/dc/dcmitype/StillImage"/>
    <dc:date>2026-03-30T11:13:11.239435</dc:date>
    <dc:format>image/svg+xml</dc:format>
    <dc:creator>
     <cc:Agent>
      <dc:title>Matplotlib v3.10.6, https://matplotlib.org/</dc:title>
     </cc:Agent>
    </dc:creator>
   </cc:Work>
  </rdf:RDF>
 </metadata>
 <defs>
  <style type="text/css">*{stroke-linejoin: round; stroke-linecap: butt}</style>
 </defs>
 <g id="figure_1">
  <g id="patch_1">
   <path d="M 0 543.71625 
L 897.525 543.71625 
L 897.525 0 
L 0 0 
z
" style="fill: #ffffff"/>
  </g>
  <g id="axes_1">
   <g id="patch_2">
    <path d="M 43.78125 234 
L 880.78125 234 
L 880.78125 7.2 
L 43.78125 7.2 
z
" style="fill: #ffffff"/>
   </g>
   <g id="matplotlib.axis_1">
    <g id="xtick_1">
     <g id="line2d_1">
      <defs>
       <path id="m7717571db9" d="M 0 0 
L 0 3.5 
" style="stroke: #000000; stroke-width: 0.8"/>
      </defs>
      <g>
       <use xlink:href="#m7717571db9" x="43.78125" y="234" style="stroke: #000000; stroke-width: 0.8"/>
      </g>
     </g>
     <g id="text_1">
      <!-- 0 -->
      <g transform="translate(40.6 248.598438) scale(0.1 -0.1)">
       <defs>
        <path id="DejaVuSans-30" d="M 2034 4250 
Q 1547 4250 1301 3770 
Q 1056 3291 1056 2328 
Q 1056 1369 1301 889 
Q 1547 409 2034 409 
Q 2525 409 2770 889 
Q 3016 1369 3016 2328 
Q 3016 3291 2770 3770 
Q 2525 4250 2034 4250 
z
M 2034 4750 
Q 2819 4750 3233 4129 
Q 3647 3509 3647 2328 
Q 3647 1150 3233 529 
Q 2819 -91 2034 -91 
Q 1250 -91 836 529 
Q 422 1150 422 2328 
Q 422 3509 836 4129 
Q 1250 4750 2034 4750 
z
" transform="scale(0.015625)"/>
       </defs>
       <use xlink:href="#DejaVuSans-30"/>
      </g>
     </g>
    </g>
    <g id="xtick_2">
     <g id="line2d_2">
      <g>
       <use xlink:href="#m7717571db9" x="211.18125" y="234" style="stroke: #000000; stroke-width: 0.8"/>
      </g>
     </g>
     <g id="text_2">
      <!-- 20 -->
      <g transform="translate(204.81875 248.598438) scale(0.1 -0.1)">
       <defs>
        <path id="DejaVuSans-32" d="M 1228 531 
L 3431 531 
L 3431 0 
L 469 0 
L 469 531 
Q 828 903 1448 1529 
Q 2069 2156 2228 2338 
Q 2531 2678 2651 2914 
Q 2772 3150 2772 3378 
Q 2772 3750 2511 3984 
Q 2250 4219 1831 4219 
Q 1534 4219 1204 4116 
Q 875 4013 500 3803 
L 500 4441 
Q 881 4594 1212 4672 
Q 1544 4750 1819 4750 
Q 2544 4750 2975 4387 
Q 3406 4025 3406 3419 
Q 3406 3131 3298 2873 
Q 3191 2616 2906 2266 
Q 2828 2175 2409 1742 
Q 1991 1309 1228 531 
z
" transform="scale(0.015625)"/>
       </defs>
       <use xlink:href="#DejaVuSans-32"/>
       <use xlink:href="#DejaVuSans-30" transform="translate(63.623047 0)"/>
      </g>
     </g>
    </g>
    <g id="xtick_3">
     <g id="line2d_3">
      <g>
       <use xlink:href="#m7717571db9" x="378.58125" y="234" style="stroke: #000000; stroke-width: 0.8"/>
      </g>
     </g>
     <g id="text_3">
      <!-- 40 -->
      <g transform="translate(372.21875 248.598438) scale(0.1 -0.1)">
       <defs>
        <path id="DejaVuSans-34" d="M 2419 4116 
L 825 1625 
L 2419 1625 
L 2419 4116 
z
M 2253 4666 
L 3047 4666 
L 3047 1625 
L 3713 1625 
L 3713 1100 
L 3047 1100 
L 3047 0 
L 2419 0 
L 2419 1100 
L 313 1100 
L 313 1709 
L 2253 4666 
z
" transform="scale(0.015625)"/>
       </defs>
       <use xlink:href="#DejaVuSans-34"/>
       <use xlink:href="#DejaVuSans-30" transform="translate(63.623047 0)"/>
      </g>
     </g>
    </g>
    <g id="xtick_4">
     <g id="line2d_4">
      <g>
       <use xlink:href="#m7717571db9" x="545.98125" y="234" style="stroke: #000000; stroke-width: 0.8"/>
      </g>
     </g>
     <g id="text_4">
      <!-- 60 -->
      <g transform="translate(539.61875 248.598438) scale(0.1 -0.1)">
       <defs>
        <path id="DejaVuSans-36" d="M 2113 2584 
Q 1688 2584 1439 2293 
Q 1191 2003 1191 1497 
Q 1191 994 1439 701 
Q 1688 409 2113 409 
Q 2538 409 2786 701 
Q 3034 994 3034 1497 
Q 3034 2003 2786 2293 
Q 2538 2584 2113 2584 
z
M 3366 4563 
L 3366 3988 
Q 3128 4100 2886 4159 
Q 2644 4219 2406 4219 
Q 1781 4219 1451 3797 
Q 1122 3375 1075 2522 
Q 1259 2794 1537 2939 
Q 1816 3084 2150 3084 
Q 2853 3084 3261 2657 
Q 3669 2231 3669 1497 
Q 3669 778 3244 343 
Q 2819 -91 2113 -91 
Q 1303 -91 875 529 
Q 447 1150 447 2328 
Q 447 3434 972 4092 
Q 1497 4750 2381 4750 
Q 2619 4750 2861 4703 
Q 3103 4656 3366 4563 
z
" transform="scale(0.015625)"/>
       </defs>
       <use xlink:href="#DejaVuSans-36"/>
       <use xlink:href="#DejaVuSans-30" transform="translate(63.623047 0)"/>
      </g>
     </g>
    </g>
    <g id="xtick_5">
     <g id="line2d_5">
      <g>
       <use xlink:href="#m7717571db9" x="713.38125" y="234" style="stroke: #000000; stroke-width: 0.8"/>
      </g>
     </g>
     <g id="text_5">
      <!-- 80 -->
      <g transform="translate(707.01875 248.598438) scale(0.1 -0.1)">
       <defs>
        <path id="DejaVuSans-38" d="M 2034 2216 
Q 1584 2216 1326 1975 
Q 1069 1734 1069 1313 
Q 1069 891 1326 650 
Q 1584 409 2034 409 
Q 2484 409 2743 651 
Q 3003 894 3003 1313 
Q 3003 1734 2745 1975 
Q 2488 2216 2034 2216 
z
M 1403 2484 
Q 997 2584 770 2862 
Q 544 3141 544 3541 
Q 544 4100 942 4425 
Q 1341 4750 2034 4750 
Q 2731 4750 3128 4425 
Q 3525 4100 3525 3541 
Q 3525 3141 3298 2862 
Q 3072 2584 2669 2484 
Q 3125 2378 3379 2068 
Q 3634 1759 3634 1313 
Q 3634 634 3220 271 
Q 2806 -91 2034 -91 
Q 1263 -91 848 271 
Q 434 634 434 1313 
Q 434 1759 690 2068 
Q 947 2378 1403 2484 
z
M 1172 3481 
Q 1172 3119 1398 2916 
Q 1625 2713 2034 2713 
Q 2441 2713 2670 2916 
Q 2900 3119 2900 3481 
Q 2900 3844 2670 4047 
Q 2441 4250 2034 4250 
Q 1625 4250 1398 4047 
Q 1172 3844 1172 3481 
z
" transform="scale(0.015625)"/>
       </defs>
       <use xlink:href="#DejaVuSans-38"/>
       <use xlink:href="#DejaVuSans-30" transform="translate(63.623047 0)"/>
      </g>
     </g>
    </g>
    <g id="xtick_6">
     <g id="line2d_6">
      <g>
       <use xlink:href="#m7717571db9" x="880.78125" y="234" style="stroke: #000000; stroke-width: 0.8"/>
      </g>
     </g>
     <g id="text_6">
      <!-- 100 -->
      <g transform="translate(871.2375 248.598438) scale(0.1 -0.1)">
       <defs>
        <path id="DejaVuSans-31" d="M 794 531 
L 1825 531 
L 1825 4091 
L 703 3866 
L 703 4441 
L 1819 4666 
L 2450 4666 
L 2450 531 
L 3481 531 
L 3481 0 
L 794 0 
L 794 531 
z
" transform="scale(0.015625)"/>
       </defs>
       <use xlink:href="#DejaVuSans-31"/>
       <use xlink:href="#DejaVuSans-30" transform="translate(63.623047 0)"/>
       <use xlink:href="#DejaVuSans-30" transform="translate(127.246094 0)"/>
      </g>
     </g>
    </g>
   </g>
   <g id="matplotlib.axis_2">
    <g id="ytick_1">
     <g id="line2d_7">
      <defs>
       <path id="m9fd2a55b4b" d="M 0 0 
L -3.5 0 
" style="stroke: #000000; stroke-width: 0.8"/>
      </defs>
      <g>
       <use xlink:href="#m9fd2a55b4b" x="43.78125" y="223.690909" style="stroke: #000000; stroke-width: 0.8"/>
      </g>
     </g>
     <g id="text_7">
      <!-- 0.0 -->
      <g transform="translate(20.878125 227.490128) scale(0.1 -0.1)">
       <defs>
        <path id="DejaVuSans-2e" d="M 684 794 
L 1344 794 
L 1344 0 
L 684 0 
L 684 794 
z
" transform="scale(0.015625)"/>
       </defs>
       <use xlink:href="#DejaVuSans-30"/>
       <use xlink:href="#DejaVuSans-2e" transform="translate(63.623047 0)"/>
       <use xlink:href="#DejaVuSans-30" transform="translate(95.410156 0)"/>
      </g>
     </g>
    </g>
    <g id="ytick_2">
     <g id="line2d_8">
      <g>
       <use xlink:href="#m9fd2a55b4b" x="43.78125" y="189.327273" style="stroke: #000000; stroke-width: 0.8"/>
      </g>
     </g>
     <g id="text_8">
      <!-- 0.5 -->
      <g transform="translate(20.878125 193.126491) scale(0.1 -0.1)">
       <defs>
        <path id="DejaVuSans-35" d="M 691 4666 
L 3169 4666 
L 3169 4134 
L 1269 4134 
L 1269 2991 
Q 1406 3038 1543 3061 
Q 1681 3084 1819 3084 
Q 2600 3084 3056 2656 
Q 3513 2228 3513 1497 
Q 3513 744 3044 326 
Q 2575 -91 1722 -91 
Q 1428 -91 1123 -41 
Q 819 9 494 109 
L 494 744 
Q 775 591 1075 516 
Q 1375 441 1709 441 
Q 2250 441 2565 725 
Q 2881 1009 2881 1497 
Q 2881 1984 2565 2268 
Q 2250 2553 1709 2553 
Q 1456 2553 1204 2497 
Q 953 2441 691 2322 
L 691 4666 
z
" transform="scale(0.015625)"/>
       </defs>
       <use xlink:href="#DejaVuSans-30"/>
       <use xlink:href="#DejaVuSans-2e" transform="translate(63.623047 0)"/>
       <use xlink:href="#DejaVuSans-35" transform="translate(95.410156 0)"/>
      </g>
     </g>
    </g>
    <g id="ytick_3">
     <g id="line2d_9">
      <g>
       <use xlink:href="#m9fd2a55b4b" x="43.78125" y="154.963636" style="stroke: #000000; stroke-width: 0.8"/>
      </g>
     </g>
     <g id="text_9">
      <!-- 1.0 -->
      <g transform="translate(20.878125 158.762855) scale(0.1 -0.1)">
       <use xlink:href="#DejaVuSans-31"/>
       <use xlink:href="#DejaVuSans-2e" transform="translate(63.623047 0)"/>
       <use xlink:href="#DejaVuSans-30" transform="translate(95.410156 0)"/>
      </g>
     </g>
    </g>
    <g id="ytick_4">
     <g id="line2d_10">
      <g>
       <use xlink:href="#m9fd2a55b4b" x="43.78125" y="120.6" style="stroke: #000000; stroke-width: 0.8"/>
      </g>
     </g>
     <g id="text_10">
      <!-- 1.5 -->
      <g transform="translate(20.878125 124.399219) scale(0.1 -0.1)">
       <use xlink:href="#DejaVuSans-31"/>
       <use xlink:href="#DejaVuSans-2e" transform="translate(63.623047 0)"/>
       <use xlink:href="#DejaVuSans-35" transform="translate(95.410156 0)"/>
      </g>
     </g>
    </g>
    <g id="ytick_5">
     <g id="line2d_11">
      <g>
       <use xlink:href="#m9fd2a55b4b" x="43.78125" y="86.236364" style="stroke: #000000; stroke-width: 0.8"/>
      </g>
     </g>
     <g id="text_11">
      <!-- 2.0 -->
      <g transform="translate(20.878125 90.035582) scale(0.1 -0.1)">
       <use xlink:href="#DejaVuSans-32"/>
       <use xlink:href="#DejaVuSans-2e" transform="translate(63.623047 0)"/>
       <use xlink:href="#DejaVuSans-30" transform="translate(95.410156 0)"/>
      </g>
     </g>
    </g>
    <g id="ytick_6">
     <g id="line2d_12">
      <g>
       <use xlink:href="#m9fd2a55b4b" x="43.78125" y="51.872727" style="stroke: #000000; stroke-width: 0.8"/>
      </g>
     </g>
     <g id="text_12">
      <!-- 2.5 -->
      <g transform="translate(20.878125 55.671946) scale(0.1 -0.1)">
       <use xlink:href="#DejaVuSans-32"/>
       <use xlink:href="#DejaVuSans-2e" transform="translate(63.623047 0)"/>
       <use xlink:href="#DejaVuSans-35" transform="translate(95.410156 0)"/>
      </g>
     </g>
    </g>
    <g id="ytick_7">
     <g id="line2d_13">
      <g>
       <use xlink:href="#m9fd2a55b4b" x="43.78125" y="17.509091" style="stroke: #000000; stroke-width: 0.8"/>
      </g>
     </g>
     <g id="text_13">
      <!-- 3.0 -->
      <g transform="translate(20.878125 21.30831) scale(0.1 -0.1)">
       <defs>
        <path id="DejaVuSans-33" d="M 2597 2516 
Q 3050 2419 3304 2112 
Q 3559 1806 3559 1356 
Q 3559 666 3084 287 
Q 2609 -91 1734 -91 
Q 1441 -91 1130 -33 
Q 819 25 488 141 
L 488 750 
Q 750 597 1062 519 
Q 1375 441 1716 441 
Q 2309 441 2620 675 
Q 2931 909 2931 1356 
Q 2931 1769 2642 2001 
Q 2353 2234 1838 2234 
L 1294 2234 
L 1294 2753 
L 1863 2753 
Q 2328 2753 2575 2939 
Q 2822 3125 2822 3475 
Q 2822 3834 2567 4026 
Q 2313 4219 1838 4219 
Q 1578 4219 1281 4162 
Q 984 4106 628 3988 
L 628 4550 
Q 988 4650 1302 4700 
Q 1616 4750 1894 4750 
Q 2613 4750 3031 4423 
Q 3450 4097 3450 3541 
Q 3450 3153 3228 2886 
Q 3006 2619 2597 2516 
z
" transform="scale(0.015625)"/>
       </defs>
       <use xlink:href="#DejaVuSans-33"/>
       <use xlink:href="#DejaVuSans-2e" transform="translate(63.623047 0)"/>
       <use xlink:href="#DejaVuSans-30" transform="translate(95.410156 0)"/>
      </g>
     </g>
    </g>
    <g id="text_14">
     <!-- Value of MV -->
     <g transform="translate(14.798438 150.063281) rotate(-90) scale(0.1 -0.1)">
      <defs>
       <path id="DejaVuSans-56" d="M 1831 0 
L 50 4666 
L 709 4666 
L 2188 738 
L 3669 4666 
L 4325 4666 
L 2547 0 
L 1831 0 
z
" transform="scale(0.015625)"/>
       <path id="DejaVuSans-61" d="M 2194 1759 
Q 1497 1759 1228 1600 
Q 959 1441 959 1056 
Q 959 750 1161 570 
Q 1363 391 1709 391 
Q 2188 391 2477 730 
Q 2766 1069 2766 1631 
L 2766 1759 
L 2194 1759 
z
M 3341 1997 
L 3341 0 
L 2766 0 
L 2766 531 
Q 2569 213 2275 61 
Q 1981 -91 1556 -91 
Q 1019 -91 701 211 
Q 384 513 384 1019 
Q 384 1609 779 1909 
Q 1175 2209 1959 2209 
L 2766 2209 
L 2766 2266 
Q 2766 2663 2505 2880 
Q 2244 3097 1772 3097 
Q 1472 3097 1187 3025 
Q 903 2953 641 2809 
L 641 3341 
Q 956 3463 1253 3523 
Q 1550 3584 1831 3584 
Q 2591 3584 2966 3190 
Q 3341 2797 3341 1997 
z
" transform="scale(0.015625)"/>
       <path id="DejaVuSans-6c" d="M 603 4863 
L 1178 4863 
L 1178 0 
L 603 0 
L 603 4863 
z
" transform="scale(0.015625)"/>
       <path id="DejaVuSans-75" d="M 544 1381 
L 544 3500 
L 1119 3500 
L 1119 1403 
Q 1119 906 1312 657 
Q 1506 409 1894 409 
Q 2359 409 2629 706 
Q 2900 1003 2900 1516 
L 2900 3500 
L 3475 3500 
L 3475 0 
L 2900 0 
L 2900 538 
Q 2691 219 2414 64 
Q 2138 -91 1772 -91 
Q 1169 -91 856 284 
Q 544 659 544 1381 
z
M 1991 3584 
L 1991 3584 
z
" transform="scale(0.015625)"/>
       <path id="DejaVuSans-65" d="M 3597 1894 
L 3597 1613 
L 953 1613 
Q 991 1019 1311 708 
Q 1631 397 2203 397 
Q 2534 397 2845 478 
Q 3156 559 3463 722 
L 3463 178 
Q 3153 47 2828 -22 
Q 2503 -91 2169 -91 
Q 1331 -91 842 396 
Q 353 884 353 1716 
Q 353 2575 817 3079 
Q 1281 3584 2069 3584 
Q 2775 3584 3186 3129 
Q 3597 2675 3597 1894 
z
M 3022 2063 
Q 3016 2534 2758 2815 
Q 2500 3097 2075 3097 
Q 1594 3097 1305 2825 
Q 1016 2553 972 2059 
L 3022 2063 
z
" transform="scale(0.015625)"/>
       <path id="DejaVuSans-20" transform="scale(0.015625)"/>
       <path id="DejaVuSans-6f" d="M 1959 3097 
Q 1497 3097 1228 2736 
Q 959 2375 959 1747 
Q 959 1119 1226 758 
Q 1494 397 1959 397 
Q 2419 397 2687 759 
Q 2956 1122 2956 1747 
Q 2956 2369 2687 2733 
Q 2419 3097 1959 3097 
z
M 1959 3584 
Q 2709 3584 3137 3096 
Q 3566 2609 3566 1747 
Q 3566 888 3137 398 
Q 2709 -91 1959 -91 
Q 1206 -91 779 398 
Q 353 888 353 1747 
Q 353 2609 779 3096 
Q 1206 3584 1959 3584 
z
" transform="scale(0.015625)"/>
       <path id="DejaVuSans-66" d="M 2375 4863 
L 2375 4384 
L 1825 4384 
Q 1516 4384 1395 4259 
Q 1275 4134 1275 3809 
L 1275 3500 
L 2222 3500 
L 2222 3053 
L 1275 3053 
L 1275 0 
L 697 0 
L 697 3053 
L 147 3053 
L 147 3500 
L 697 3500 
L 697 3744 
Q 697 4328 969 4595 
Q 1241 4863 1831 4863 
L 2375 4863 
z
" transform="scale(0.015625)"/>
       <path id="DejaVuSans-4d" d="M 628 4666 
L 1569 4666 
L 2759 1491 
L 3956 4666 
L 4897 4666 
L 4897 0 
L 4281 0 
L 4281 4097 
L 3078 897 
L 2444 897 
L 1241 4097 
L 1241 0 
L 628 0 
L 628 4666 
z
" transform="scale(0.015625)"/>
      </defs>
      <use xlink:href="#DejaVuSans-56"/>
      <use xlink:href="#DejaVuSans-61" transform="translate(60.658203 0)"/>
      <use xlink:href="#DejaVuSans-6c" transform="translate(121.9375 0)"/>
      <use xlink:href="#DejaVuSans-75" transform="translate(149.720703 0)"/>
      <use xlink:href="#DejaVuSans-65" transform="translate(213.099609 0)"/>
      <use xlink:href="#DejaVuSans-20" transform="translate(274.623047 0)"/>
      <use xlink:href="#DejaVuSans-6f" transform="translate(306.410156 0)"/>
      <use xlink:href="#DejaVuSans-66" transform="translate(367.591797 0)"/>
      <use xlink:href="#DejaVuSans-20" transform="translate(402.796875 0)"/>
      <use xlink:href="#DejaVuSans-4d" transform="translate(434.583984 0)"/>
      <use xlink:href="#DejaVuSans-56" transform="translate(520.863281 0)"/>
     </g>
    </g>
   </g>
   <g id="line2d_14">
    <path d="M 43.78125 223.690909 
L 85.63125 223.690909 
L 85.63125 154.963636 
L 462.28125 154.963636 
L 462.28125 86.236364 
L 713.38125 86.236364 
L 713.38125 17.509091 
L 880.78125 17.509091 
L 880.78125 17.509091 
" clip-path="url(#p30c927491f)" style="fill: none; stroke: #0000ff; stroke-width: 1.5; stroke-linecap: square"/>
   </g>
   <g id="patch_3">
    <path d="M 43.78125 234 
L 43.78125 7.2 
" style="fill: none; stroke: #000000; stroke-width: 0.8; stroke-linejoin: miter; stroke-linecap: square"/>
   </g>
   <g id="patch_4">
    <path d="M 880.78125 234 
L 880.78125 7.2 
" style="fill: none; stroke: #000000; stroke-width: 0.8; stroke-linejoin: miter; stroke-linecap: square"/>
   </g>
   <g id="patch_5">
    <path d="M 43.78125 234 
L 880.78125 234 
" style="fill: none; stroke: #000000; stroke-width: 0.8; stroke-linejoin: miter; stroke-linecap: square"/>
   </g>
   <g id="patch_6">
    <path d="M 43.78125 7.2 
L 880.78125 7.2 
" style="fill: none; stroke: #000000; stroke-width: 0.8; stroke-linejoin: miter; stroke-linecap: square"/>
   </g>
   <g id="legend_1">
    <g id="patch_7">
     <path d="M 50.78125 29.878125 
L 98.25 29.878125 
Q 100.25 29.878125 100.25 27.878125 
L 100.25 14.2 
Q 100.25 12.2 98.25 12.2 
L 50.78125 12.2 
Q 48.78125 12.2 48.78125 14.2 
L 48.78125 27.878125 
Q 48.78125 29.878125 50.78125 29.878125 
z
" style="fill: #ffffff; opacity: 0.8; stroke: #cccccc; stroke-linejoin: miter"/>
    </g>
    <g id="line2d_15">
     <path d="M 52.78125 20.298438 
L 62.78125 20.298438 
L 62.78125 20.298438 
L 72.78125 20.298438 
L 72.78125 20.298438 
" style="fill: none; stroke: #0000ff; stroke-width: 1.5; stroke-linecap: square"/>
    </g>
    <g id="text_15">
     <!-- MV -->
     <g transform="translate(80.78125 23.798438) scale(0.1 -0.1)">
      <use xlink:href="#DejaVuSans-4d"/>
      <use xlink:href="#DejaVuSans-56" transform="translate(86.279297 0)"/>
     </g>
    </g>
   </g>
  </g>
  <g id="axes_2">
   <g id="patch_8">
    <path d="M 43.78125 506.16 
L 880.78125 506.16 
L 880.78125 279.36 
L 43.78125 279.36 
z
" style="fill: #ffffff"/>
   </g>
   <g id="matplotlib.axis_3">
    <g id="xtick_7">
     <g id="line2d_16">
      <g>
       <use xlink:href="#m7717571db9" x="43.78125" y="506.16" style="stroke: #000000; stroke-width: 0.8"/>
      </g>
     </g>
     <g id="text_16">
      <!-- 0 -->
      <g transform="translate(40.6 520.758438) scale(0.1 -0.1)">
       <use xlink:href="#DejaVuSans-30"/>
      </g>
     </g>
    </g>
    <g id="xtick_8">
     <g id="line2d_17">
      <g>
       <use xlink:href="#m7717571db9" x="211.18125" y="506.16" style="stroke: #000000; stroke-width: 0.8"/>
      </g>
     </g>
     <g id="text_17">
      <!-- 20 -->
      <g transform="translate(204.81875 520.758438) scale(0.1 -0.1)">
       <use xlink:href="#DejaVuSans-32"/>
       <use xlink:href="#DejaVuSans-30" transform="translate(63.623047 0)"/>
      </g>
     </g>
    </g>
    <g id="xtick_9">
     <g id="line2d_18">
      <g>
       <use xlink:href="#m7717571db9" x="378.58125" y="506.16" style="stroke: #000000; stroke-width: 0.8"/>
      </g>
     </g>
     <g id="text_18">
      <!-- 40 -->
      <g transform="translate(372.21875 520.758438) scale(0.1 -0.1)">
       <use xlink:href="#DejaVuSans-34"/>
       <use xlink:href="#DejaVuSans-30" transform="translate(63.623047 0)"/>
      </g>
     </g>
    </g>
    <g id="xtick_10">
     <g id="line2d_19">
      <g>
       <use xlink:href="#m7717571db9" x="545.98125" y="506.16" style="stroke: #000000; stroke-width: 0.8"/>
      </g>
     </g>
     <g id="text_19">
      <!-- 60 -->
      <g transform="translate(539.61875 520.758438) scale(0.1 -0.1)">
       <use xlink:href="#DejaVuSans-36"/>
       <use xlink:href="#DejaVuSans-30" transform="translate(63.623047 0)"/>
      </g>
     </g>
    </g>
    <g id="xtick_11">
     <g id="line2d_20">
      <g>
       <use xlink:href="#m7717571db9" x="713.38125" y="506.16" style="stroke: #000000; stroke-width: 0.8"/>
      </g>
     </g>
     <g id="text_20">
      <!-- 80 -->
      <g transform="translate(707.01875 520.758438) scale(0.1 -0.1)">
       <use xlink:href="#DejaVuSans-38"/>
       <use xlink:href="#DejaVuSans-30" transform="translate(63.623047 0)"/>
      </g>
     </g>
    </g>
    <g id="xtick_12">
     <g id="line2d_21">
      <g>
       <use xlink:href="#m7717571db9" x="880.78125" y="506.16" style="stroke: #000000; stroke-width: 0.8"/>
      </g>
     </g>
     <g id="text_21">
      <!-- 100 -->
      <g transform="translate(871.2375 520.758438) scale(0.1 -0.1)">
       <use xlink:href="#DejaVuSans-31"/>
       <use xlink:href="#DejaVuSans-30" transform="translate(63.623047 0)"/>
       <use xlink:href="#DejaVuSans-30" transform="translate(127.246094 0)"/>
      </g>
     </g>
    </g>
    <g id="text_22">
     <!-- Time [s] -->
     <g transform="translate(441.952344 534.436563) scale(0.1 -0.1)">
      <defs>
       <path id="DejaVuSans-54" d="M -19 4666 
L 3928 4666 
L 3928 4134 
L 2272 4134 
L 2272 0 
L 1638 0 
L 1638 4134 
L -19 4134 
L -19 4666 
z
" transform="scale(0.015625)"/>
       <path id="DejaVuSans-69" d="M 603 3500 
L 1178 3500 
L 1178 0 
L 603 0 
L 603 3500 
z
M 603 4863 
L 1178 4863 
L 1178 4134 
L 603 4134 
L 603 4863 
z
" transform="scale(0.015625)"/>
       <path id="DejaVuSans-6d" d="M 3328 2828 
Q 3544 3216 3844 3400 
Q 4144 3584 4550 3584 
Q 5097 3584 5394 3201 
Q 5691 2819 5691 2113 
L 5691 0 
L 5113 0 
L 5113 2094 
Q 5113 2597 4934 2840 
Q 4756 3084 4391 3084 
Q 3944 3084 3684 2787 
Q 3425 2491 3425 1978 
L 3425 0 
L 2847 0 
L 2847 2094 
Q 2847 2600 2669 2842 
Q 2491 3084 2119 3084 
Q 1678 3084 1418 2786 
Q 1159 2488 1159 1978 
L 1159 0 
L 581 0 
L 581 3500 
L 1159 3500 
L 1159 2956 
Q 1356 3278 1631 3431 
Q 1906 3584 2284 3584 
Q 2666 3584 2933 3390 
Q 3200 3197 3328 2828 
z
" transform="scale(0.015625)"/>
       <path id="DejaVuSans-5b" d="M 550 4863 
L 1875 4863 
L 1875 4416 
L 1125 4416 
L 1125 -397 
L 1875 -397 
L 1875 -844 
L 550 -844 
L 550 4863 
z
" transform="scale(0.015625)"/>
       <path id="DejaVuSans-73" d="M 2834 3397 
L 2834 2853 
Q 2591 2978 2328 3040 
Q 2066 3103 1784 3103 
Q 1356 3103 1142 2972 
Q 928 2841 928 2578 
Q 928 2378 1081 2264 
Q 1234 2150 1697 2047 
L 1894 2003 
Q 2506 1872 2764 1633 
Q 3022 1394 3022 966 
Q 3022 478 2636 193 
Q 2250 -91 1575 -91 
Q 1294 -91 989 -36 
Q 684 19 347 128 
L 347 722 
Q 666 556 975 473 
Q 1284 391 1588 391 
Q 1994 391 2212 530 
Q 2431 669 2431 922 
Q 2431 1156 2273 1281 
Q 2116 1406 1581 1522 
L 1381 1569 
Q 847 1681 609 1914 
Q 372 2147 372 2553 
Q 372 3047 722 3315 
Q 1072 3584 1716 3584 
Q 2034 3584 2315 3537 
Q 2597 3491 2834 3397 
z
" transform="scale(0.015625)"/>
       <path id="DejaVuSans-5d" d="M 1947 4863 
L 1947 -844 
L 622 -844 
L 622 -397 
L 1369 -397 
L 1369 4416 
L 622 4416 
L 622 4863 
L 1947 4863 
z
" transform="scale(0.015625)"/>
      </defs>
      <use xlink:href="#DejaVuSans-54"/>
      <use xlink:href="#DejaVuSans-69" transform="translate(57.958984 0)"/>
      <use xlink:href="#DejaVuSans-6d" transform="translate(85.742188 0)"/>
      <use xlink:href="#DejaVuSans-65" transform="translate(183.154297 0)"/>
      <use xlink:href="#DejaVuSans-20" transform="translate(244.677734 0)"/>
      <use xlink:href="#DejaVuSans-5b" transform="translate(276.464844 0)"/>
      <use xlink:href="#DejaVuSans-73" transform="translate(315.478516 0)"/>
      <use xlink:href="#DejaVuSans-5d" transform="translate(367.578125 0)"/>
     </g>
    </g>
   </g>
   <g id="matplotlib.axis_4">
    <g id="ytick_8">
     <g id="line2d_22">
      <g>
       <use xlink:href="#m9fd2a55b4b" x="43.78125" y="495.850909" style="stroke: #000000; stroke-width: 0.8"/>
      </g>
     </g>
     <g id="text_23">
      <!-- 0.0 -->
      <g transform="translate(20.878125 499.650128) scale(0.1 -0.1)">
       <use xlink:href="#DejaVuSans-30"/>
       <use xlink:href="#DejaVuSans-2e" transform="translate(63.623047 0)"/>
       <use xlink:href="#DejaVuSans-30" transform="translate(95.410156 0)"/>
      </g>
     </g>
    </g>
    <g id="ytick_9">
     <g id="line2d_23">
      <g>
       <use xlink:href="#m9fd2a55b4b" x="43.78125" y="449.043727" style="stroke: #000000; stroke-width: 0.8"/>
      </g>
     </g>
     <g id="text_24">
      <!-- 0.2 -->
      <g transform="translate(20.878125 452.842946) scale(0.1 -0.1)">
       <use xlink:href="#DejaVuSans-30"/>
       <use xlink:href="#DejaVuSans-2e" transform="translate(63.623047 0)"/>
       <use xlink:href="#DejaVuSans-32" transform="translate(95.410156 0)"/>
      </g>
     </g>
    </g>
    <g id="ytick_10">
     <g id="line2d_24">
      <g>
       <use xlink:href="#m9fd2a55b4b" x="43.78125" y="402.236546" style="stroke: #000000; stroke-width: 0.8"/>
      </g>
     </g>
     <g id="text_25">
      <!-- 0.4 -->
      <g transform="translate(20.878125 406.035764) scale(0.1 -0.1)">
       <use xlink:href="#DejaVuSans-30"/>
       <use xlink:href="#DejaVuSans-2e" transform="translate(63.623047 0)"/>
       <use xlink:href="#DejaVuSans-34" transform="translate(95.410156 0)"/>
      </g>
     </g>
    </g>
    <g id="ytick_11">
     <g id="line2d_25">
      <g>
       <use xlink:href="#m9fd2a55b4b" x="43.78125" y="355.429364" style="stroke: #000000; stroke-width: 0.8"/>
      </g>
     </g>
     <g id="text_26">
      <!-- 0.6 -->
      <g transform="translate(20.878125 359.228583) scale(0.1 -0.1)">
       <use xlink:href="#DejaVuSans-30"/>
       <use xlink:href="#DejaVuSans-2e" transform="translate(63.623047 0)"/>
       <use xlink:href="#DejaVuSans-36" transform="translate(95.410156 0)"/>
      </g>
     </g>
    </g>
    <g id="ytick_12">
     <g id="line2d_26">
      <g>
       <use xlink:href="#m9fd2a55b4b" x="43.78125" y="308.622182" style="stroke: #000000; stroke-width: 0.8"/>
      </g>
     </g>
     <g id="text_27">
      <!-- 0.8 -->
      <g transform="translate(20.878125 312.421401) scale(0.1 -0.1)">
       <use xlink:href="#DejaVuSans-30"/>
       <use xlink:href="#DejaVuSans-2e" transform="translate(63.623047 0)"/>
       <use xlink:href="#DejaVuSans-38" transform="translate(95.410156 0)"/>
      </g>
     </g>
    </g>
    <g id="text_28">
     <!-- Value of PV -->
     <g transform="translate(14.798438 420.924063) rotate(-90) scale(0.1 -0.1)">
      <defs>
       <path id="DejaVuSans-50" d="M 1259 4147 
L 1259 2394 
L 2053 2394 
Q 2494 2394 2734 2622 
Q 2975 2850 2975 3272 
Q 2975 3691 2734 3919 
Q 2494 4147 2053 4147 
L 1259 4147 
z
M 628 4666 
L 2053 4666 
Q 2838 4666 3239 4311 
Q 3641 3956 3641 3272 
Q 3641 2581 3239 2228 
Q 2838 1875 2053 1875 
L 1259 1875 
L 1259 0 
L 628 0 
L 628 4666 
z
" transform="scale(0.015625)"/>
      </defs>
      <use xlink:href="#DejaVuSans-56"/>
      <use xlink:href="#DejaVuSans-61" transform="translate(60.658203 0)"/>
      <use xlink:href="#DejaVuSans-6c" transform="translate(121.9375 0)"/>
      <use xlink:href="#DejaVuSans-75" transform="translate(149.720703 0)"/>
      <use xlink:href="#DejaVuSans-65" transform="translate(213.099609 0)"/>
      <use xlink:href="#DejaVuSans-20" transform="translate(274.623047 0)"/>
      <use xlink:href="#DejaVuSans-6f" transform="translate(306.410156 0)"/>
      <use xlink:href="#DejaVuSans-66" transform="translate(367.591797 0)"/>
      <use xlink:href="#DejaVuSans-20" transform="translate(402.796875 0)"/>
      <use xlink:href="#DejaVuSans-50" transform="translate(434.583984 0)"/>
      <use xlink:href="#DejaVuSans-56" transform="translate(494.886719 0)"/>
     </g>
    </g>
   </g>
   <g id="line2d_27">
    <path d="M 43.78125 495.850909 
L 85.63125 495.850909 
L 85.63125 457.554124 
L 94.00125 457.554124 
L 94.00125 454.652852 
L 102.37125 454.652852 
L 102.37125 452.015333 
L 110.74125 452.015333 
L 110.74125 449.617588 
L 119.11125 449.617588 
L 119.11125 447.437819 
L 127.48125 447.437819 
L 127.48125 445.456212 
L 135.85125 445.456212 
L 135.85125 443.65475 
L 144.22125 443.65475 
L 144.22125 442.017058 
L 152.59125 442.017058 
L 152.59125 440.528247 
L 160.96125 440.528247 
L 160.96125 439.174783 
L 169.33125 439.174783 
L 169.33125 437.94436 
L 177.70125 437.94436 
L 177.70125 436.825794 
L 186.07125 436.825794 
L 186.07125 435.808916 
L 194.44125 435.808916 
L 194.44125 434.884482 
L 202.81125 434.884482 
L 202.81125 434.044087 
L 211.18125 434.044087 
L 211.18125 433.280091 
L 219.55125 433.280091 
L 219.55125 432.58555 
L 227.92125 432.58555 
L 227.92125 431.954149 
L 236.29125 431.954149 
L 236.29125 431.380148 
L 244.66125 431.380148 
L 244.66125 430.858328 
L 253.03125 430.858328 
L 253.03125 430.383947 
L 261.40125 430.383947 
L 261.40125 429.952692 
L 269.77125 429.952692 
L 269.77125 429.560641 
L 278.14125 429.560641 
L 278.14125 429.204232 
L 286.51125 429.204232 
L 286.51125 428.880223 
L 294.88125 428.880223 
L 294.88125 428.58567 
L 303.25125 428.58567 
L 303.25125 428.317894 
L 311.62125 428.317894 
L 311.62125 428.074462 
L 319.99125 428.074462 
L 319.99125 427.853159 
L 328.36125 427.853159 
L 328.36125 427.651975 
L 336.73125 427.651975 
L 336.73125 427.469081 
L 345.10125 427.469081 
L 345.10125 427.302813 
L 353.47125 427.302813 
L 353.47125 427.151661 
L 361.84125 427.151661 
L 361.84125 427.014249 
L 370.21125 427.014249 
L 370.21125 426.88933 
L 378.58125 426.88933 
L 378.58125 426.775767 
L 395.32125 426.672528 
L 395.32125 426.578674 
L 412.06125 426.493353 
L 412.06125 426.415787 
L 428.80125 426.345274 
L 428.80125 426.28117 
L 445.54125 426.222894 
L 445.54125 426.169916 
L 462.28125 426.121755 
L 462.28125 387.781186 
L 470.65125 387.781186 
L 470.65125 384.840111 
L 479.02125 384.840111 
L 479.02125 382.166407 
L 487.39125 382.166407 
L 487.39125 379.735767 
L 495.76125 379.735767 
L 495.76125 377.526094 
L 504.13125 377.526094 
L 504.13125 375.5173 
L 512.50125 375.5173 
L 512.50125 373.691124 
L 520.87125 373.691124 
L 520.87125 372.030964 
L 529.24125 372.030964 
L 529.24125 370.521728 
L 537.61125 370.521728 
L 537.61125 369.149695 
L 545.98125 369.149695 
L 545.98125 367.902392 
L 554.35125 367.902392 
L 554.35125 366.76848 
L 562.72125 366.76848 
L 562.72125 365.737651 
L 571.09125 365.737651 
L 571.09125 364.800534 
L 579.46125 364.800534 
L 579.46125 363.94861 
L 587.83125 363.94861 
L 587.83125 363.174133 
L 596.20125 363.174133 
L 596.20125 362.470063 
L 604.57125 362.470063 
L 604.57125 361.829999 
L 612.94125 361.829999 
L 612.94125 361.248123 
L 621.31125 361.248123 
L 621.31125 360.719145 
L 629.68125 360.719145 
L 629.68125 360.238256 
L 638.05125 360.238256 
L 638.05125 359.801084 
L 646.42125 359.801084 
L 646.42125 359.403655 
L 654.79125 359.403655 
L 654.79125 359.042356 
L 663.16125 359.042356 
L 663.16125 358.713902 
L 671.53125 358.713902 
L 671.53125 358.415308 
L 679.90125 358.415308 
L 679.90125 358.143858 
L 688.27125 358.143858 
L 688.27125 357.897086 
L 696.64125 357.897086 
L 696.64125 357.672747 
L 705.01125 357.672747 
L 705.01125 357.468804 
L 713.38125 357.468804 
L 713.38125 318.986615 
L 721.75125 318.986615 
L 721.75125 315.916794 
L 730.12125 315.916794 
L 730.12125 313.126049 
L 738.49125 313.126049 
L 738.49125 310.589007 
L 746.86125 310.589007 
L 746.86125 308.282606 
L 755.23125 308.282606 
L 755.23125 306.185877 
L 763.60125 306.185877 
L 763.60125 304.27976 
L 771.97125 304.27976 
L 771.97125 302.546927 
L 780.34125 302.546927 
L 780.34125 300.971623 
L 788.71125 300.971623 
L 788.71125 299.53953 
L 797.08125 299.53953 
L 797.08125 298.237626 
L 805.45125 298.237626 
L 805.45125 297.054077 
L 813.82125 297.054077 
L 813.82125 295.978124 
L 822.19125 295.978124 
L 822.19125 294.999985 
L 830.56125 294.999985 
L 830.56125 294.110767 
L 838.93125 294.110767 
L 838.93125 293.302388 
L 847.30125 293.302388 
L 847.30125 292.567497 
L 855.67125 292.567497 
L 855.67125 291.899415 
L 864.04125 291.899415 
L 864.04125 291.292067 
L 872.41125 291.292067 
L 872.41125 290.739933 
L 880.78125 290.739933 
L 880.78125 290.237993 
L 880.78125 290.237993 
" clip-path="url(#p07a6d56575)" style="fill: none; stroke: #008000; stroke-width: 1.5; stroke-linecap: square"/>
   </g>
   <g id="line2d_28">
    <path d="M 43.78125 495.850909 
L 85.63125 495.850909 
L 85.63125 460.745523 
L 94.00125 460.745523 
L 94.00125 457.234984 
L 102.37125 457.234984 
L 102.37125 454.075499 
L 110.74125 454.075499 
L 110.74125 451.231963 
L 119.11125 451.231963 
L 119.11125 448.67278 
L 127.48125 448.67278 
L 127.48125 446.369516 
L 135.85125 446.369516 
L 135.85125 444.296578 
L 144.22125 444.296578 
L 144.22125 442.430934 
L 152.59125 442.430934 
L 152.59125 440.751854 
L 160.96125 440.751854 
L 160.96125 439.240682 
L 169.33125 439.240682 
L 169.33125 437.880628 
L 177.70125 437.880628 
L 177.70125 436.656579 
L 186.07125 436.656579 
L 186.07125 435.554934 
L 194.44125 435.554934 
L 194.44125 434.563455 
L 202.81125 434.563455 
L 202.81125 433.671123 
L 211.18125 433.671123 
L 211.18125 432.868024 
L 219.55125 432.868024 
L 219.55125 432.145235 
L 227.92125 432.145235 
L 227.92125 431.494725 
L 236.29125 431.494725 
L 236.29125 430.909267 
L 244.66125 430.909267 
L 244.66125 430.382354 
L 253.03125 430.382354 
L 253.03125 429.908132 
L 261.40125 429.908132 
L 261.40125 429.481332 
L 269.77125 429.481332 
L 269.77125 429.097213 
L 278.14125 429.097213 
L 278.14125 428.751505 
L 286.51125 428.751505 
L 286.51125 428.440368 
L 294.88125 428.440368 
L 294.88125 428.160345 
L 303.25125 428.160345 
L 303.25125 427.908324 
L 311.62125 427.908324 
L 311.62125 427.681505 
L 319.99125 427.681505 
L 319.99125 427.477369 
L 328.36125 427.477369 
L 328.36125 427.293645 
L 336.73125 427.293645 
L 336.73125 427.128294 
L 345.10125 427.128294 
L 345.10125 426.979479 
L 353.47125 426.979479 
L 353.47125 426.845544 
L 361.84125 426.845544 
L 361.84125 426.725004 
L 378.58125 426.616517 
L 378.58125 426.518879 
L 395.32125 426.431005 
L 395.32125 426.351918 
L 412.06125 426.28074 
L 412.06125 426.216679 
L 437.17125 426.107136 
L 437.17125 426.060436 
L 462.28125 425.980579 
L 462.28125 390.841149 
L 470.65125 390.841149 
L 470.65125 387.29997 
L 479.02125 387.29997 
L 479.02125 384.11291 
L 487.39125 384.11291 
L 487.39125 381.244555 
L 495.76125 381.244555 
L 495.76125 378.663036 
L 504.13125 378.663036 
L 504.13125 376.339669 
L 512.50125 376.339669 
L 512.50125 374.248638 
L 520.87125 374.248638 
L 520.87125 372.366711 
L 529.24125 372.366711 
L 529.24125 370.672976 
L 537.61125 370.672976 
L 537.61125 369.148615 
L 545.98125 369.148615 
L 545.98125 367.77669 
L 554.35125 367.77669 
L 554.35125 366.541957 
L 562.72125 366.541957 
L 562.72125 365.430698 
L 571.09125 365.430698 
L 571.09125 364.430564 
L 579.46125 364.430564 
L 579.46125 363.530444 
L 587.83125 363.530444 
L 587.83125 362.720336 
L 596.20125 362.720336 
L 596.20125 361.991239 
L 604.57125 361.991239 
L 604.57125 361.335051 
L 612.94125 361.335051 
L 612.94125 360.744483 
L 621.31125 360.744483 
L 621.31125 360.212971 
L 629.68125 360.212971 
L 629.68125 359.73461 
L 638.05125 359.73461 
L 638.05125 359.304085 
L 646.42125 359.304085 
L 646.42125 358.916613 
L 654.79125 358.916613 
L 654.79125 358.567888 
L 663.16125 358.567888 
L 663.16125 358.254036 
L 671.53125 358.254036 
L 671.53125 357.971569 
L 679.90125 357.971569 
L 679.90125 357.717348 
L 688.27125 357.717348 
L 688.27125 357.48855 
L 696.64125 357.48855 
L 696.64125 357.282631 
L 705.01125 357.282631 
L 705.01125 357.097304 
L 713.38125 357.097304 
L 713.38125 321.825124 
L 721.75125 321.825124 
L 721.75125 318.164471 
L 730.12125 318.164471 
L 730.12125 314.869883 
L 738.49125 314.869883 
L 738.49125 311.904754 
L 746.86125 311.904754 
L 746.86125 309.236137 
L 755.23125 309.236137 
L 755.23125 306.834383 
L 763.60125 306.834383 
L 763.60125 304.672804 
L 771.97125 304.672804 
L 771.97125 302.727382 
L 780.34125 302.727382 
L 780.34125 300.976503 
L 788.71125 300.976503 
L 788.71125 299.400712 
L 797.08125 299.400712 
L 797.08125 297.9825 
L 805.45125 297.9825 
L 805.45125 296.706109 
L 813.82125 296.706109 
L 813.82125 295.557357 
L 822.19125 295.557357 
L 822.19125 294.523481 
L 830.56125 294.523481 
L 830.56125 293.592992 
L 838.93125 293.592992 
L 838.93125 292.755552 
L 847.30125 292.755552 
L 847.30125 292.001856 
L 855.67125 292.001856 
L 855.67125 291.323529 
L 864.04125 291.323529 
L 864.04125 290.713035 
L 872.41125 290.713035 
L 872.41125 290.163591 
L 880.78125 290.163591 
L 880.78125 289.669091 
L 880.78125 289.669091 
" clip-path="url(#p07a6d56575)" style="fill: none; stroke: #00ff00; stroke-width: 1.5; stroke-linecap: square"/>
   </g>
   <g id="line2d_29">
    <path d="M 43.78125 495.850909 
L 85.63125 495.850909 
L 85.63125 459.073838 
L 94.00125 459.073838 
L 94.00125 455.889676 
L 102.37125 455.889676 
L 102.37125 453.008767 
L 110.74125 453.008767 
L 110.74125 450.402231 
L 119.11125 450.402231 
L 119.11125 448.043936 
L 127.48125 448.043936 
L 127.48125 445.910241 
L 135.85125 445.910241 
L 135.85125 443.979755 
L 144.22125 443.979755 
L 144.22125 442.233125 
L 152.59125 442.233125 
L 152.59125 440.65284 
L 160.96125 440.65284 
L 160.96125 439.223059 
L 169.33125 439.223059 
L 169.33125 437.929447 
L 177.70125 437.929447 
L 177.70125 436.759036 
L 186.07125 436.759036 
L 186.07125 435.700094 
L 194.44125 435.700094 
L 194.44125 434.742002 
L 202.81125 434.742002 
L 202.81125 433.875158 
L 211.18125 433.875158 
L 211.18125 433.09087 
L 219.55125 433.09087 
L 219.55125 432.381277 
L 227.92125 432.381277 
L 227.92125 431.739263 
L 236.29125 431.739263 
L 236.29125 431.158394 
L 244.66125 431.158394 
L 244.66125 430.632846 
L 253.03125 430.632846 
L 253.03125 430.15735 
L 261.40125 430.15735 
L 261.40125 429.727139 
L 269.77125 429.727139 
L 269.77125 429.3379 
L 278.14125 429.3379 
L 278.14125 428.985732 
L 286.51125 428.985732 
L 286.51125 428.667104 
L 294.88125 428.667104 
L 294.88125 428.378822 
L 303.25125 428.378822 
L 303.25125 428.117994 
L 311.62125 428.117994 
L 311.62125 427.882008 
L 319.99125 427.882008 
L 319.99125 427.668496 
L 328.36125 427.668496 
L 328.36125 427.475319 
L 336.73125 427.475319 
L 336.73125 427.30054 
L 345.10125 427.30054 
L 345.10125 427.142406 
L 353.47125 427.142406 
L 353.47125 426.999333 
L 361.84125 426.999333 
L 361.84125 426.869886 
L 370.21125 426.869886 
L 370.21125 426.752767 
L 386.95125 426.646802 
L 386.95125 426.550929 
L 403.69125 426.464187 
L 403.69125 426.385706 
L 420.43125 426.314699 
L 420.43125 426.250455 
L 445.54125 426.13974 
L 445.54125 426.092158 
L 462.28125 426.049109 
L 462.28125 389.233088 
L 470.65125 389.233088 
L 470.65125 386.013685 
L 479.02125 386.013685 
L 479.02125 383.100893 
L 487.39125 383.100893 
L 487.39125 380.465509 
L 495.76125 380.465509 
L 495.76125 378.081114 
L 504.13125 378.081114 
L 504.13125 375.923805 
L 512.50125 375.923805 
L 512.50125 373.971953 
L 520.87125 373.971953 
L 520.87125 372.205992 
L 529.24125 372.205992 
L 529.24125 370.608218 
L 537.61125 370.608218 
L 537.61125 369.162613 
L 545.98125 369.162613 
L 545.98125 367.854684 
L 554.35125 367.854684 
L 554.35125 366.671321 
L 562.72125 366.671321 
L 562.72125 365.600658 
L 571.09125 365.600658 
L 571.09125 364.631963 
L 579.46125 364.631963 
L 579.46125 363.755525 
L 587.83125 363.755525 
L 587.83125 362.962558 
L 596.20125 362.962558 
L 596.20125 362.245111 
L 604.57125 362.245111 
L 604.57125 361.595992 
L 612.94125 361.595992 
L 612.94125 361.008694 
L 621.31125 361.008694 
L 621.31125 360.477329 
L 629.68125 360.477329 
L 629.68125 359.99657 
L 638.05125 359.99657 
L 638.05125 359.561598 
L 646.42125 359.561598 
L 646.42125 359.168052 
L 654.79125 359.168052 
L 654.79125 358.811987 
L 663.16125 358.811987 
L 663.16125 358.489832 
L 671.53125 358.489832 
L 671.53125 358.198359 
L 679.90125 358.198359 
L 679.90125 357.934645 
L 688.27125 357.934645 
L 688.27125 357.696047 
L 696.64125 357.696047 
L 696.64125 357.480172 
L 705.01125 357.480172 
L 705.01125 357.284857 
L 713.38125 357.284857 
L 713.38125 320.331072 
L 721.75125 320.331072 
L 721.75125 316.987026 
L 730.12125 316.987026 
L 730.12125 313.961461 
L 738.49125 313.961461 
L 738.49125 311.224045 
L 746.86125 311.224045 
L 746.86125 308.747335 
L 755.23125 308.747335 
L 755.23125 306.506502 
L 763.60125 306.506502 
L 763.60125 304.479082 
L 771.97125 304.479082 
L 771.97125 302.64475 
L 780.34125 302.64475 
L 780.34125 300.985116 
L 788.71125 300.985116 
L 788.71125 299.483542 
L 797.08125 299.483542 
L 797.08125 298.124975 
L 805.45125 298.124975 
L 805.45125 296.895796 
L 813.82125 296.895796 
L 813.82125 295.783681 
L 822.19125 295.783681 
L 822.19125 294.777482 
L 830.56125 294.777482 
L 830.56125 293.867111 
L 838.93125 293.867111 
L 838.93125 293.043443 
L 847.30125 293.043443 
L 847.30125 292.298219 
L 855.67125 292.298219 
L 855.67125 291.623969 
L 864.04125 291.623969 
L 864.04125 291.013933 
L 872.41125 291.013933 
L 872.41125 290.461995 
L 880.78125 290.461995 
L 880.78125 289.962623 
L 880.78125 289.962623 
" clip-path="url(#p07a6d56575)" style="fill: none; stroke: #ff0000; stroke-width: 1.5; stroke-linecap: square"/>
   </g>
   <g id="patch_9">
    <path d="M 43.78125 506.16 
L 43.78125 279.36 
" style="fill: none; stroke: #000000; stroke-width: 0.8; stroke-linejoin: miter; stroke-linecap: square"/>
   </g>
   <g id="patch_10">
    <path d="M 880.78125 506.16 
L 880.78125 279.36 
" style="fill: none; stroke: #000000; stroke-width: 0.8; stroke-linejoin: miter; stroke-linecap: square"/>
   </g>
   <g id="patch_11">
    <path d="M 43.78125 506.16 
L 880.78125 506.16 
" style="fill: none; stroke: #000000; stroke-width: 0.8; stroke-linejoin: miter; stroke-linecap: square"/>
   </g>
   <g id="patch_12">
    <path d="M 43.78125 279.36 
L 880.78125 279.36 
" style="fill: none; stroke: #000000; stroke-width: 0.8; stroke-linejoin: miter; stroke-linecap: square"/>
   </g>
   <g id="legend_2">
    <g id="patch_13">
     <path d="M 50.78125 331.394375 
L 169.539063 331.394375 
Q 171.539063 331.394375 171.539063 329.394375 
L 171.539063 286.36 
Q 171.539063 284.36 169.539063 284.36 
L 50.78125 284.36 
Q 48.78125 284.36 48.78125 286.36 
L 48.78125 329.394375 
Q 48.78125 331.394375 50.78125 331.394375 
z
" style="fill: #ffffff; opacity: 0.8; stroke: #cccccc; stroke-linejoin: miter"/>
    </g>
    <g id="line2d_30">
     <path d="M 52.78125 292.458438 
L 62.78125 292.458438 
L 62.78125 292.458438 
L 72.78125 292.458438 
L 72.78125 292.458438 
" style="fill: none; stroke: #008000; stroke-width: 1.5; stroke-linecap: square"/>
    </g>
    <g id="text_29">
     <!-- LEAD-LAG (EBD) -->
     <g transform="translate(80.78125 295.958438) scale(0.1 -0.1)">
      <defs>
       <path id="DejaVuSans-4c" d="M 628 4666 
L 1259 4666 
L 1259 531 
L 3531 531 
L 3531 0 
L 628 0 
L 628 4666 
z
" transform="scale(0.015625)"/>
       <path id="DejaVuSans-45" d="M 628 4666 
L 3578 4666 
L 3578 4134 
L 1259 4134 
L 1259 2753 
L 3481 2753 
L 3481 2222 
L 1259 2222 
L 1259 531 
L 3634 531 
L 3634 0 
L 628 0 
L 628 4666 
z
" transform="scale(0.015625)"/>
       <path id="DejaVuSans-41" d="M 2188 4044 
L 1331 1722 
L 3047 1722 
L 2188 4044 
z
M 1831 4666 
L 2547 4666 
L 4325 0 
L 3669 0 
L 3244 1197 
L 1141 1197 
L 716 0 
L 50 0 
L 1831 4666 
z
" transform="scale(0.015625)"/>
       <path id="DejaVuSans-44" d="M 1259 4147 
L 1259 519 
L 2022 519 
Q 2988 519 3436 956 
Q 3884 1394 3884 2338 
Q 3884 3275 3436 3711 
Q 2988 4147 2022 4147 
L 1259 4147 
z
M 628 4666 
L 1925 4666 
Q 3281 4666 3915 4102 
Q 4550 3538 4550 2338 
Q 4550 1131 3912 565 
Q 3275 0 1925 0 
L 628 0 
L 628 4666 
z
" transform="scale(0.015625)"/>
       <path id="DejaVuSans-2d" d="M 313 2009 
L 1997 2009 
L 1997 1497 
L 313 1497 
L 313 2009 
z
" transform="scale(0.015625)"/>
       <path id="DejaVuSans-47" d="M 3809 666 
L 3809 1919 
L 2778 1919 
L 2778 2438 
L 4434 2438 
L 4434 434 
Q 4069 175 3628 42 
Q 3188 -91 2688 -91 
Q 1594 -91 976 548 
Q 359 1188 359 2328 
Q 359 3472 976 4111 
Q 1594 4750 2688 4750 
Q 3144 4750 3555 4637 
Q 3966 4525 4313 4306 
L 4313 3634 
Q 3963 3931 3569 4081 
Q 3175 4231 2741 4231 
Q 1884 4231 1454 3753 
Q 1025 3275 1025 2328 
Q 1025 1384 1454 906 
Q 1884 428 2741 428 
Q 3075 428 3337 486 
Q 3600 544 3809 666 
z
" transform="scale(0.015625)"/>
       <path id="DejaVuSans-28" d="M 1984 4856 
Q 1566 4138 1362 3434 
Q 1159 2731 1159 2009 
Q 1159 1288 1364 580 
Q 1569 -128 1984 -844 
L 1484 -844 
Q 1016 -109 783 600 
Q 550 1309 550 2009 
Q 550 2706 781 3412 
Q 1013 4119 1484 4856 
L 1984 4856 
z
" transform="scale(0.015625)"/>
       <path id="DejaVuSans-42" d="M 1259 2228 
L 1259 519 
L 2272 519 
Q 2781 519 3026 730 
Q 3272 941 3272 1375 
Q 3272 1813 3026 2020 
Q 2781 2228 2272 2228 
L 1259 2228 
z
M 1259 4147 
L 1259 2741 
L 2194 2741 
Q 2656 2741 2882 2914 
Q 3109 3088 3109 3444 
Q 3109 3797 2882 3972 
Q 2656 4147 2194 4147 
L 1259 4147 
z
M 628 4666 
L 2241 4666 
Q 2963 4666 3353 4366 
Q 3744 4066 3744 3513 
Q 3744 3084 3544 2831 
Q 3344 2578 2956 2516 
Q 3422 2416 3680 2098 
Q 3938 1781 3938 1306 
Q 3938 681 3513 340 
Q 3088 0 2303 0 
L 628 0 
L 628 4666 
z
" transform="scale(0.015625)"/>
       <path id="DejaVuSans-29" d="M 513 4856 
L 1013 4856 
Q 1481 4119 1714 3412 
Q 1947 2706 1947 2009 
Q 1947 1309 1714 600 
Q 1481 -109 1013 -844 
L 513 -844 
Q 928 -128 1133 580 
Q 1338 1288 1338 2009 
Q 1338 2731 1133 3434 
Q 928 4138 513 4856 
z
" transform="scale(0.015625)"/>
      </defs>
      <use xlink:href="#DejaVuSans-4c"/>
      <use xlink:href="#DejaVuSans-45" transform="translate(55.712891 0)"/>
      <use xlink:href="#DejaVuSans-41" transform="translate(118.896484 0)"/>
      <use xlink:href="#DejaVuSans-44" transform="translate(187.304688 0)"/>
      <use xlink:href="#DejaVuSans-2d" transform="translate(264.306641 0)"/>
      <use xlink:href="#DejaVuSans-4c" transform="translate(300.390625 0)"/>
      <use xlink:href="#DejaVuSans-41" transform="translate(358.353516 0)"/>
      <use xlink:href="#DejaVuSans-47" transform="translate(425.011719 0)"/>
      <use xlink:href="#DejaVuSans-20" transform="translate(502.501953 0)"/>
      <use xlink:href="#DejaVuSans-28" transform="translate(534.289062 0)"/>
      <use xlink:href="#DejaVuSans-45" transform="translate(573.302734 0)"/>
      <use xlink:href="#DejaVuSans-42" transform="translate(636.486328 0)"/>
      <use xlink:href="#DejaVuSans-44" transform="translate(705.089844 0)"/>
      <use xlink:href="#DejaVuSans-29" transform="translate(782.091797 0)"/>
     </g>
    </g>
    <g id="line2d_31">
     <path d="M 52.78125 307.136563 
L 62.78125 307.136563 
L 62.78125 307.136563 
L 72.78125 307.136563 
L 72.78125 307.136563 
" style="fill: none; stroke: #00ff00; stroke-width: 1.5; stroke-linecap: square"/>
    </g>
    <g id="text_30">
     <!-- LEAD-LAG (EFD) -->
     <g transform="translate(80.78125 310.636563) scale(0.1 -0.1)">
      <defs>
       <path id="DejaVuSans-46" d="M 628 4666 
L 3309 4666 
L 3309 4134 
L 1259 4134 
L 1259 2759 
L 3109 2759 
L 3109 2228 
L 1259 2228 
L 1259 0 
L 628 0 
L 628 4666 
z
" transform="scale(0.015625)"/>
      </defs>
      <use xlink:href="#DejaVuSans-4c"/>
      <use xlink:href="#DejaVuSans-45" transform="translate(55.712891 0)"/>
      <use xlink:href="#DejaVuSans-41" transform="translate(118.896484 0)"/>
      <use xlink:href="#DejaVuSans-44" transform="translate(187.304688 0)"/>
      <use xlink:href="#DejaVuSans-2d" transform="translate(264.306641 0)"/>
      <use xlink:href="#DejaVuSans-4c" transform="translate(300.390625 0)"/>
      <use xlink:href="#DejaVuSans-41" transform="translate(358.353516 0)"/>
      <use xlink:href="#DejaVuSans-47" transform="translate(425.011719 0)"/>
      <use xlink:href="#DejaVuSans-20" transform="translate(502.501953 0)"/>
      <use xlink:href="#DejaVuSans-28" transform="translate(534.289062 0)"/>
      <use xlink:href="#DejaVuSans-45" transform="translate(573.302734 0)"/>
      <use xlink:href="#DejaVuSans-46" transform="translate(636.486328 0)"/>
      <use xlink:href="#DejaVuSans-44" transform="translate(694.005859 0)"/>
      <use xlink:href="#DejaVuSans-29" transform="translate(771.007812 0)"/>
     </g>
    </g>
    <g id="line2d_32">
     <path d="M 52.78125 321.814688 
L 62.78125 321.814688 
L 62.78125 321.814688 
L 72.78125 321.814688 
L 72.78125 321.814688 
" style="fill: none; stroke: #ff0000; stroke-width: 1.5; stroke-linecap: square"/>
    </g>
    <g id="text_31">
     <!-- LEAD-LAG (TRAP) -->
     <g transform="translate(80.78125 325.314688) scale(0.1 -0.1)">
      <defs>
       <path id="DejaVuSans-52" d="M 2841 2188 
Q 3044 2119 3236 1894 
Q 3428 1669 3622 1275 
L 4263 0 
L 3584 0 
L 2988 1197 
Q 2756 1666 2539 1819 
Q 2322 1972 1947 1972 
L 1259 1972 
L 1259 0 
L 628 0 
L 628 4666 
L 2053 4666 
Q 2853 4666 3247 4331 
Q 3641 3997 3641 3322 
Q 3641 2881 3436 2590 
Q 3231 2300 2841 2188 
z
M 1259 4147 
L 1259 2491 
L 2053 2491 
Q 2509 2491 2742 2702 
Q 2975 2913 2975 3322 
Q 2975 3731 2742 3939 
Q 2509 4147 2053 4147 
L 1259 4147 
z
" transform="scale(0.015625)"/>
      </defs>
      <use xlink:href="#DejaVuSans-4c"/>
      <use xlink:href="#DejaVuSans-45" transform="translate(55.712891 0)"/>
      <use xlink:href="#DejaVuSans-41" transform="translate(118.896484 0)"/>
      <use xlink:href="#DejaVuSans-44" transform="translate(187.304688 0)"/>
      <use xlink:href="#DejaVuSans-2d" transform="translate(264.306641 0)"/>
      <use xlink:href="#DejaVuSans-4c" transform="translate(300.390625 0)"/>
      <use xlink:href="#DejaVuSans-41" transform="translate(358.353516 0)"/>
      <use xlink:href="#DejaVuSans-47" transform="translate(425.011719 0)"/>
      <use xlink:href="#DejaVuSans-20" transform="translate(502.501953 0)"/>
      <use xlink:href="#DejaVuSans-28" transform="translate(534.289062 0)"/>
      <use xlink:href="#DejaVuSans-54" transform="translate(573.302734 0)"/>
      <use xlink:href="#DejaVuSans-52" transform="translate(634.386719 0)"/>
      <use xlink:href="#DejaVuSans-41" transform="translate(699.869141 0)"/>
      <use xlink:href="#DejaVuSans-50" transform="translate(768.277344 0)"/>
      <use xlink:href="#DejaVuSans-29" transform="translate(828.580078 0)"/>
     </g>
    </g>
   </g>
  </g>
 </g>
 <defs>
  <clipPath id="p30c927491f">
   <rect x="43.78125" y="7.2" width="837" height="226.8"/>
  </clipPath>
  <clipPath id="p07a6d56575">
   <rect x="43.78125" y="279.36" width="837" height="226.8"/>
  </clipPath>
 </defs>
</svg>
