<?xml version="1.0" encoding="utf-8" standalone="no"?>
<!DOCTYPE svg PUBLIC "-//W3C//DTD SVG 1.1//EN"
  "http://www.w3.org/Graphics/SVG/1.1/DTD/svg11.dtd">
<svg xmlns:xlink="http://www.w3.org/1999/xlink" width="1033.874375pt" height="601.59625pt" viewBox="0 0 1033.874375 601.59625" xmlns="http://www.w3.org/2000/svg" version="1.1">
 <metadata>
  <rdf:RDF xmlns:dc="http://purl.org/dc/elements/1.1/" xmlns:cc="http://creativecommons.org/ns#" xmlns:rdf="http://www.w3.org/1999/02/22-rdf-syntax-ns#">
   <cc:Work>
    <dc:type rdf:resource="http://purl.org/dc/dcmitype/StillImage"/>
    <dc:date>2026-04-02T12:38:44.122808</dc:date>
    <dc:format>image/svg+xml</dc:format>
    <dc:creator>
     <cc:Agent>
      <dc:title>Matplotlib v3.10.6, https://matplotlib.org/</dc:title>
     </cc:Agent>
    </dc:creator>
   </cc:Work>
  </rdf:RDF>
 </metadata>
 <defs>
  <style type="text/css">*{stroke-linejoin: round; stroke-linecap: butt}</style>
 </defs>
 <g id="figure_1">
  <g id="patch_1">
   <path d="M 0 601.59625 
L 1033.874375 601.59625 
L 1033.874375 0 
L 0 0 
z
" style="fill: #ffffff"/>
  </g>
  <g id="axes_1">
   <g id="patch_2">
    <path d="M 46.965625 255.04 
L 1017.130625 255.04 
L 1017.130625 7.2 
L 46.965625 7.2 
z
" style="fill: #ffffff"/>
   </g>
   <g id="matplotlib.axis_1">
    <g id="xtick_1">
     <g id="line2d_1">
      <defs>
       <path id="m57893aeb0f" d="M 0 0 
L 0 3.5 
" style="stroke: #000000; stroke-width: 0.8"/>
      </defs>
      <g>
       <use xlink:href="#m57893aeb0f" x="46.965625" y="255.04" style="stroke: #000000; stroke-width: 0.8"/>
      </g>
     </g>
     <g id="text_1">
      <!-- 0 -->
      <g transform="translate(43.784375 269.638437) scale(0.1 -0.1)">
       <defs>
        <path id="DejaVuSans-30" d="M 2034 4250 
Q 1547 4250 1301 3770 
Q 1056 3291 1056 2328 
Q 1056 1369 1301 889 
Q 1547 409 2034 409 
Q 2525 409 2770 889 
Q 3016 1369 3016 2328 
Q 3016 3291 2770 3770 
Q 2525 4250 2034 4250 
z
M 2034 4750 
Q 2819 4750 3233 4129 
Q 3647 3509 3647 2328 
Q 3647 1150 3233 529 
Q 2819 -91 2034 -91 
Q 1250 -91 836 529 
Q 422 1150 422 2328 
Q 422 3509 836 4129 
Q 1250 4750 2034 4750 
z
" transform="scale(0.015625)"/>
       </defs>
       <use xlink:href="#DejaVuSans-30"/>
      </g>
     </g>
    </g>
    <g id="xtick_2">
     <g id="line2d_2">
      <g>
       <use xlink:href="#m57893aeb0f" x="240.998625" y="255.04" style="stroke: #000000; stroke-width: 0.8"/>
      </g>
     </g>
     <g id="text_2">
      <!-- 50 -->
      <g transform="translate(234.636125 269.638437) scale(0.1 -0.1)">
       <defs>
        <path id="DejaVuSans-35" d="M 691 4666 
L 3169 4666 
L 3169 4134 
L 1269 4134 
L 1269 2991 
Q 1406 3038 1543 3061 
Q 1681 3084 1819 3084 
Q 2600 3084 3056 2656 
Q 3513 2228 3513 1497 
Q 3513 744 3044 326 
Q 2575 -91 1722 -91 
Q 1428 -91 1123 -41 
Q 819 9 494 109 
L 494 744 
Q 775 591 1075 516 
Q 1375 441 1709 441 
Q 2250 441 2565 725 
Q 2881 1009 2881 1497 
Q 2881 1984 2565 2268 
Q 2250 2553 1709 2553 
Q 1456 2553 1204 2497 
Q 953 2441 691 2322 
L 691 4666 
z
" transform="scale(0.015625)"/>
       </defs>
       <use xlink:href="#DejaVuSans-35"/>
       <use xlink:href="#DejaVuSans-30" transform="translate(63.623047 0)"/>
      </g>
     </g>
    </g>
    <g id="xtick_3">
     <g id="line2d_3">
      <g>
       <use xlink:href="#m57893aeb0f" x="435.031625" y="255.04" style="stroke: #000000; stroke-width: 0.8"/>
      </g>
     </g>
     <g id="text_3">
      <!-- 100 -->
      <g transform="translate(425.487875 269.638437) scale(0.1 -0.1)">
       <defs>
        <path id="DejaVuSans-31" d="M 794 531 
L 1825 531 
L 1825 4091 
L 703 3866 
L 703 4441 
L 1819 4666 
L 2450 4666 
L 2450 531 
L 3481 531 
L 3481 0 
L 794 0 
L 794 531 
z
" transform="scale(0.015625)"/>
       </defs>
       <use xlink:href="#DejaVuSans-31"/>
       <use xlink:href="#DejaVuSans-30" transform="translate(63.623047 0)"/>
       <use xlink:href="#DejaVuSans-30" transform="translate(127.246094 0)"/>
      </g>
     </g>
    </g>
    <g id="xtick_4">
     <g id="line2d_4">
      <g>
       <use xlink:href="#m57893aeb0f" x="629.064625" y="255.04" style="stroke: #000000; stroke-width: 0.8"/>
      </g>
     </g>
     <g id="text_4">
      <!-- 150 -->
      <g transform="translate(619.520875 269.638437) scale(0.1 -0.1)">
       <use xlink:href="#DejaVuSans-31"/>
       <use xlink:href="#DejaVuSans-35" transform="translate(63.623047 0)"/>
       <use xlink:href="#DejaVuSans-30" transform="translate(127.246094 0)"/>
      </g>
     </g>
    </g>
    <g id="xtick_5">
     <g id="line2d_5">
      <g>
       <use xlink:href="#m57893aeb0f" x="823.097625" y="255.04" style="stroke: #000000; stroke-width: 0.8"/>
      </g>
     </g>
     <g id="text_5">
      <!-- 200 -->
      <g transform="translate(813.553875 269.638437) scale(0.1 -0.1)">
       <defs>
        <path id="DejaVuSans-32" d="M 1228 531 
L 3431 531 
L 3431 0 
L 469 0 
L 469 531 
Q 828 903 1448 1529 
Q 2069 2156 2228 2338 
Q 2531 2678 2651 2914 
Q 2772 3150 2772 3378 
Q 2772 3750 2511 3984 
Q 2250 4219 1831 4219 
Q 1534 4219 1204 4116 
Q 875 4013 500 3803 
L 500 4441 
Q 881 4594 1212 4672 
Q 1544 4750 1819 4750 
Q 2544 4750 2975 4387 
Q 3406 4025 3406 3419 
Q 3406 3131 3298 2873 
Q 3191 2616 2906 2266 
Q 2828 2175 2409 1742 
Q 1991 1309 1228 531 
z
" transform="scale(0.015625)"/>
       </defs>
       <use xlink:href="#DejaVuSans-32"/>
       <use xlink:href="#DejaVuSans-30" transform="translate(63.623047 0)"/>
       <use xlink:href="#DejaVuSans-30" transform="translate(127.246094 0)"/>
      </g>
     </g>
    </g>
    <g id="xtick_6">
     <g id="line2d_6">
      <g>
       <use xlink:href="#m57893aeb0f" x="1017.130625" y="255.04" style="stroke: #000000; stroke-width: 0.8"/>
      </g>
     </g>
     <g id="text_6">
      <!-- 250 -->
      <g transform="translate(1007.586875 269.638437) scale(0.1 -0.1)">
       <use xlink:href="#DejaVuSans-32"/>
       <use xlink:href="#DejaVuSans-35" transform="translate(63.623047 0)"/>
       <use xlink:href="#DejaVuSans-30" transform="translate(127.246094 0)"/>
      </g>
     </g>
    </g>
   </g>
   <g id="matplotlib.axis_2">
    <g id="ytick_1">
     <g id="line2d_7">
      <defs>
       <path id="m2b94f47a16" d="M 0 0 
L -3.5 0 
" style="stroke: #000000; stroke-width: 0.8"/>
      </defs>
      <g>
       <use xlink:href="#m2b94f47a16" x="46.965625" y="243.774545" style="stroke: #000000; stroke-width: 0.8"/>
      </g>
     </g>
     <g id="text_7">
      <!-- 0 -->
      <g transform="translate(33.603125 247.573764) scale(0.1 -0.1)">
       <use xlink:href="#DejaVuSans-30"/>
      </g>
     </g>
    </g>
    <g id="ytick_2">
     <g id="line2d_8">
      <g>
       <use xlink:href="#m2b94f47a16" x="46.965625" y="198.712727" style="stroke: #000000; stroke-width: 0.8"/>
      </g>
     </g>
     <g id="text_8">
      <!-- 20 -->
      <g transform="translate(27.240625 202.511946) scale(0.1 -0.1)">
       <use xlink:href="#DejaVuSans-32"/>
       <use xlink:href="#DejaVuSans-30" transform="translate(63.623047 0)"/>
      </g>
     </g>
    </g>
    <g id="ytick_3">
     <g id="line2d_9">
      <g>
       <use xlink:href="#m2b94f47a16" x="46.965625" y="153.650909" style="stroke: #000000; stroke-width: 0.8"/>
      </g>
     </g>
     <g id="text_9">
      <!-- 40 -->
      <g transform="translate(27.240625 157.450128) scale(0.1 -0.1)">
       <defs>
        <path id="DejaVuSans-34" d="M 2419 4116 
L 825 1625 
L 2419 1625 
L 2419 4116 
z
M 2253 4666 
L 3047 4666 
L 3047 1625 
L 3713 1625 
L 3713 1100 
L 3047 1100 
L 3047 0 
L 2419 0 
L 2419 1100 
L 313 1100 
L 313 1709 
L 2253 4666 
z
" transform="scale(0.015625)"/>
       </defs>
       <use xlink:href="#DejaVuSans-34"/>
       <use xlink:href="#DejaVuSans-30" transform="translate(63.623047 0)"/>
      </g>
     </g>
    </g>
    <g id="ytick_4">
     <g id="line2d_10">
      <g>
       <use xlink:href="#m2b94f47a16" x="46.965625" y="108.589091" style="stroke: #000000; stroke-width: 0.8"/>
      </g>
     </g>
     <g id="text_10">
      <!-- 60 -->
      <g transform="translate(27.240625 112.38831) scale(0.1 -0.1)">
       <defs>
        <path id="DejaVuSans-36" d="M 2113 2584 
Q 1688 2584 1439 2293 
Q 1191 2003 1191 1497 
Q 1191 994 1439 701 
Q 1688 409 2113 409 
Q 2538 409 2786 701 
Q 3034 994 3034 1497 
Q 3034 2003 2786 2293 
Q 2538 2584 2113 2584 
z
M 3366 4563 
L 3366 3988 
Q 3128 4100 2886 4159 
Q 2644 4219 2406 4219 
Q 1781 4219 1451 3797 
Q 1122 3375 1075 2522 
Q 1259 2794 1537 2939 
Q 1816 3084 2150 3084 
Q 2853 3084 3261 2657 
Q 3669 2231 3669 1497 
Q 3669 778 3244 343 
Q 2819 -91 2113 -91 
Q 1303 -91 875 529 
Q 447 1150 447 2328 
Q 447 3434 972 4092 
Q 1497 4750 2381 4750 
Q 2619 4750 2861 4703 
Q 3103 4656 3366 4563 
z
" transform="scale(0.015625)"/>
       </defs>
       <use xlink:href="#DejaVuSans-36"/>
       <use xlink:href="#DejaVuSans-30" transform="translate(63.623047 0)"/>
      </g>
     </g>
    </g>
    <g id="ytick_5">
     <g id="line2d_11">
      <g>
       <use xlink:href="#m2b94f47a16" x="46.965625" y="63.527273" style="stroke: #000000; stroke-width: 0.8"/>
      </g>
     </g>
     <g id="text_11">
      <!-- 80 -->
      <g transform="translate(27.240625 67.326491) scale(0.1 -0.1)">
       <defs>
        <path id="DejaVuSans-38" d="M 2034 2216 
Q 1584 2216 1326 1975 
Q 1069 1734 1069 1313 
Q 1069 891 1326 650 
Q 1584 409 2034 409 
Q 2484 409 2743 651 
Q 3003 894 3003 1313 
Q 3003 1734 2745 1975 
Q 2488 2216 2034 2216 
z
M 1403 2484 
Q 997 2584 770 2862 
Q 544 3141 544 3541 
Q 544 4100 942 4425 
Q 1341 4750 2034 4750 
Q 2731 4750 3128 4425 
Q 3525 4100 3525 3541 
Q 3525 3141 3298 2862 
Q 3072 2584 2669 2484 
Q 3125 2378 3379 2068 
Q 3634 1759 3634 1313 
Q 3634 634 3220 271 
Q 2806 -91 2034 -91 
Q 1263 -91 848 271 
Q 434 634 434 1313 
Q 434 1759 690 2068 
Q 947 2378 1403 2484 
z
M 1172 3481 
Q 1172 3119 1398 2916 
Q 1625 2713 2034 2713 
Q 2441 2713 2670 2916 
Q 2900 3119 2900 3481 
Q 2900 3844 2670 4047 
Q 2441 4250 2034 4250 
Q 1625 4250 1398 4047 
Q 1172 3844 1172 3481 
z
" transform="scale(0.015625)"/>
       </defs>
       <use xlink:href="#DejaVuSans-38"/>
       <use xlink:href="#DejaVuSans-30" transform="translate(63.623047 0)"/>
      </g>
     </g>
    </g>
    <g id="ytick_6">
     <g id="line2d_12">
      <g>
       <use xlink:href="#m2b94f47a16" x="46.965625" y="18.465455" style="stroke: #000000; stroke-width: 0.8"/>
      </g>
     </g>
     <g id="text_12">
      <!-- 100 -->
      <g transform="translate(20.878125 22.264673) scale(0.1 -0.1)">
       <use xlink:href="#DejaVuSans-31"/>
       <use xlink:href="#DejaVuSans-30" transform="translate(63.623047 0)"/>
       <use xlink:href="#DejaVuSans-30" transform="translate(127.246094 0)"/>
      </g>
     </g>
    </g>
    <g id="text_13">
     <!-- Value of MV, MVP, MVI, MVD, MVFF [%] -->
     <g transform="translate(14.798438 228.566094) rotate(-90) scale(0.1 -0.1)">
      <defs>
       <path id="DejaVuSans-56" d="M 1831 0 
L 50 4666 
L 709 4666 
L 2188 738 
L 3669 4666 
L 4325 4666 
L 2547 0 
L 1831 0 
z
" transform="scale(0.015625)"/>
       <path id="DejaVuSans-61" d="M 2194 1759 
Q 1497 1759 1228 1600 
Q 959 1441 959 1056 
Q 959 750 1161 570 
Q 1363 391 1709 391 
Q 2188 391 2477 730 
Q 2766 1069 2766 1631 
L 2766 1759 
L 2194 1759 
z
M 3341 1997 
L 3341 0 
L 2766 0 
L 2766 531 
Q 2569 213 2275 61 
Q 1981 -91 1556 -91 
Q 1019 -91 701 211 
Q 384 513 384 1019 
Q 384 1609 779 1909 
Q 1175 2209 1959 2209 
L 2766 2209 
L 2766 2266 
Q 2766 2663 2505 2880 
Q 2244 3097 1772 3097 
Q 1472 3097 1187 3025 
Q 903 2953 641 2809 
L 641 3341 
Q 956 3463 1253 3523 
Q 1550 3584 1831 3584 
Q 2591 3584 2966 3190 
Q 3341 2797 3341 1997 
z
" transform="scale(0.015625)"/>
       <path id="DejaVuSans-6c" d="M 603 4863 
L 1178 4863 
L 1178 0 
L 603 0 
L 603 4863 
z
" transform="scale(0.015625)"/>
       <path id="DejaVuSans-75" d="M 544 1381 
L 544 3500 
L 1119 3500 
L 1119 1403 
Q 1119 906 1312 657 
Q 1506 409 1894 409 
Q 2359 409 2629 706 
Q 2900 1003 2900 1516 
L 2900 3500 
L 3475 3500 
L 3475 0 
L 2900 0 
L 2900 538 
Q 2691 219 2414 64 
Q 2138 -91 1772 -91 
Q 1169 -91 856 284 
Q 544 659 544 1381 
z
M 1991 3584 
L 1991 3584 
z
" transform="scale(0.015625)"/>
       <path id="DejaVuSans-65" d="M 3597 1894 
L 3597 1613 
L 953 1613 
Q 991 1019 1311 708 
Q 1631 397 2203 397 
Q 2534 397 2845 478 
Q 3156 559 3463 722 
L 3463 178 
Q 3153 47 2828 -22 
Q 2503 -91 2169 -91 
Q 1331 -91 842 396 
Q 353 884 353 1716 
Q 353 2575 817 3079 
Q 1281 3584 2069 3584 
Q 2775 3584 3186 3129 
Q 3597 2675 3597 1894 
z
M 3022 2063 
Q 3016 2534 2758 2815 
Q 2500 3097 2075 3097 
Q 1594 3097 1305 2825 
Q 1016 2553 972 2059 
L 3022 2063 
z
" transform="scale(0.015625)"/>
       <path id="DejaVuSans-20" transform="scale(0.015625)"/>
       <path id="DejaVuSans-6f" d="M 1959 3097 
Q 1497 3097 1228 2736 
Q 959 2375 959 1747 
Q 959 1119 1226 758 
Q 1494 397 1959 397 
Q 2419 397 2687 759 
Q 2956 1122 2956 1747 
Q 2956 2369 2687 2733 
Q 2419 3097 1959 3097 
z
M 1959 3584 
Q 2709 3584 3137 3096 
Q 3566 2609 3566 1747 
Q 3566 888 3137 398 
Q 2709 -91 1959 -91 
Q 1206 -91 779 398 
Q 353 888 353 1747 
Q 353 2609 779 3096 
Q 1206 3584 1959 3584 
z
" transform="scale(0.015625)"/>
       <path id="DejaVuSans-66" d="M 2375 4863 
L 2375 4384 
L 1825 4384 
Q 1516 4384 1395 4259 
Q 1275 4134 1275 3809 
L 1275 3500 
L 2222 3500 
L 2222 3053 
L 1275 3053 
L 1275 0 
L 697 0 
L 697 3053 
L 147 3053 
L 147 3500 
L 697 3500 
L 697 3744 
Q 697 4328 969 4595 
Q 1241 4863 1831 4863 
L 2375 4863 
z
" transform="scale(0.015625)"/>
       <path id="DejaVuSans-4d" d="M 628 4666 
L 1569 4666 
L 2759 1491 
L 3956 4666 
L 4897 4666 
L 4897 0 
L 4281 0 
L 4281 4097 
L 3078 897 
L 2444 897 
L 1241 4097 
L 1241 0 
L 628 0 
L 628 4666 
z
" transform="scale(0.015625)"/>
       <path id="DejaVuSans-2c" d="M 750 794 
L 1409 794 
L 1409 256 
L 897 -744 
L 494 -744 
L 750 256 
L 750 794 
z
" transform="scale(0.015625)"/>
       <path id="DejaVuSans-50" d="M 1259 4147 
L 1259 2394 
L 2053 2394 
Q 2494 2394 2734 2622 
Q 2975 2850 2975 3272 
Q 2975 3691 2734 3919 
Q 2494 4147 2053 4147 
L 1259 4147 
z
M 628 4666 
L 2053 4666 
Q 2838 4666 3239 4311 
Q 3641 3956 3641 3272 
Q 3641 2581 3239 2228 
Q 2838 1875 2053 1875 
L 1259 1875 
L 1259 0 
L 628 0 
L 628 4666 
z
" transform="scale(0.015625)"/>
       <path id="DejaVuSans-49" d="M 628 4666 
L 1259 4666 
L 1259 0 
L 628 0 
L 628 4666 
z
" transform="scale(0.015625)"/>
       <path id="DejaVuSans-44" d="M 1259 4147 
L 1259 519 
L 2022 519 
Q 2988 519 3436 956 
Q 3884 1394 3884 2338 
Q 3884 3275 3436 3711 
Q 2988 4147 2022 4147 
L 1259 4147 
z
M 628 4666 
L 1925 4666 
Q 3281 4666 3915 4102 
Q 4550 3538 4550 2338 
Q 4550 1131 3912 565 
Q 3275 0 1925 0 
L 628 0 
L 628 4666 
z
" transform="scale(0.015625)"/>
       <path id="DejaVuSans-46" d="M 628 4666 
L 3309 4666 
L 3309 4134 
L 1259 4134 
L 1259 2759 
L 3109 2759 
L 3109 2228 
L 1259 2228 
L 1259 0 
L 628 0 
L 628 4666 
z
" transform="scale(0.015625)"/>
       <path id="DejaVuSans-5b" d="M 550 4863 
L 1875 4863 
L 1875 4416 
L 1125 4416 
L 1125 -397 
L 1875 -397 
L 1875 -844 
L 550 -844 
L 550 4863 
z
" transform="scale(0.015625)"/>
       <path id="DejaVuSans-25" d="M 4653 2053 
Q 4381 2053 4226 1822 
Q 4072 1591 4072 1178 
Q 4072 772 4226 539 
Q 4381 306 4653 306 
Q 4919 306 5073 539 
Q 5228 772 5228 1178 
Q 5228 1588 5073 1820 
Q 4919 2053 4653 2053 
z
M 4653 2450 
Q 5147 2450 5437 2106 
Q 5728 1763 5728 1178 
Q 5728 594 5436 251 
Q 5144 -91 4653 -91 
Q 4153 -91 3862 251 
Q 3572 594 3572 1178 
Q 3572 1766 3864 2108 
Q 4156 2450 4653 2450 
z
M 1428 4353 
Q 1159 4353 1004 4120 
Q 850 3888 850 3481 
Q 850 3069 1003 2837 
Q 1156 2606 1428 2606 
Q 1700 2606 1854 2837 
Q 2009 3069 2009 3481 
Q 2009 3884 1853 4118 
Q 1697 4353 1428 4353 
z
M 4250 4750 
L 4750 4750 
L 1831 -91 
L 1331 -91 
L 4250 4750 
z
M 1428 4750 
Q 1922 4750 2215 4408 
Q 2509 4066 2509 3481 
Q 2509 2891 2217 2550 
Q 1925 2209 1428 2209 
Q 931 2209 642 2551 
Q 353 2894 353 3481 
Q 353 4063 643 4406 
Q 934 4750 1428 4750 
z
" transform="scale(0.015625)"/>
       <path id="DejaVuSans-5d" d="M 1947 4863 
L 1947 -844 
L 622 -844 
L 622 -397 
L 1369 -397 
L 1369 4416 
L 622 4416 
L 622 4863 
L 1947 4863 
z
" transform="scale(0.015625)"/>
      </defs>
      <use xlink:href="#DejaVuSans-56"/>
      <use xlink:href="#DejaVuSans-61" transform="translate(60.658203 0)"/>
      <use xlink:href="#DejaVuSans-6c" transform="translate(121.9375 0)"/>
      <use xlink:href="#DejaVuSans-75" transform="translate(149.720703 0)"/>
      <use xlink:href="#DejaVuSans-65" transform="translate(213.099609 0)"/>
      <use xlink:href="#DejaVuSans-20" transform="translate(274.623047 0)"/>
      <use xlink:href="#DejaVuSans-6f" transform="translate(306.410156 0)"/>
      <use xlink:href="#DejaVuSans-66" transform="translate(367.591797 0)"/>
      <use xlink:href="#DejaVuSans-20" transform="translate(402.796875 0)"/>
      <use xlink:href="#DejaVuSans-4d" transform="translate(434.583984 0)"/>
      <use xlink:href="#DejaVuSans-56" transform="translate(520.863281 0)"/>
      <use xlink:href="#DejaVuSans-2c" transform="translate(589.271484 0)"/>
      <use xlink:href="#DejaVuSans-20" transform="translate(621.058594 0)"/>
      <use xlink:href="#DejaVuSans-4d" transform="translate(652.845703 0)"/>
      <use xlink:href="#DejaVuSans-56" transform="translate(739.125 0)"/>
      <use xlink:href="#DejaVuSans-50" transform="translate(807.533203 0)"/>
      <use xlink:href="#DejaVuSans-2c" transform="translate(867.835938 0)"/>
      <use xlink:href="#DejaVuSans-20" transform="translate(899.623047 0)"/>
      <use xlink:href="#DejaVuSans-4d" transform="translate(931.410156 0)"/>
      <use xlink:href="#DejaVuSans-56" transform="translate(1017.689453 0)"/>
      <use xlink:href="#DejaVuSans-49" transform="translate(1086.097656 0)"/>
      <use xlink:href="#DejaVuSans-2c" transform="translate(1115.589844 0)"/>
      <use xlink:href="#DejaVuSans-20" transform="translate(1147.376953 0)"/>
      <use xlink:href="#DejaVuSans-4d" transform="translate(1179.164062 0)"/>
      <use xlink:href="#DejaVuSans-56" transform="translate(1265.443359 0)"/>
      <use xlink:href="#DejaVuSans-44" transform="translate(1333.851562 0)"/>
      <use xlink:href="#DejaVuSans-2c" transform="translate(1410.853516 0)"/>
      <use xlink:href="#DejaVuSans-20" transform="translate(1442.640625 0)"/>
      <use xlink:href="#DejaVuSans-4d" transform="translate(1474.427734 0)"/>
      <use xlink:href="#DejaVuSans-56" transform="translate(1560.707031 0)"/>
      <use xlink:href="#DejaVuSans-46" transform="translate(1629.115234 0)"/>
      <use xlink:href="#DejaVuSans-46" transform="translate(1686.634766 0)"/>
      <use xlink:href="#DejaVuSans-20" transform="translate(1744.154297 0)"/>
      <use xlink:href="#DejaVuSans-5b" transform="translate(1775.941406 0)"/>
      <use xlink:href="#DejaVuSans-25" transform="translate(1814.955078 0)"/>
      <use xlink:href="#DejaVuSans-5d" transform="translate(1909.974609 0)"/>
     </g>
    </g>
   </g>
   <g id="line2d_13">
    <path d="M 46.965625 243.774545 
L 66.368925 243.774545 
L 66.368925 152.899879 
L 66.756991 152.899879 
L 66.756991 156.65503 
L 67.145057 156.65503 
L 67.145057 159.959564 
L 67.533123 159.959564 
L 67.533123 162.858541 
L 67.921189 162.858541 
L 67.921189 165.392517 
L 68.309255 165.392517 
L 68.309255 167.597992 
L 68.697321 167.597992 
L 68.697321 169.507817 
L 69.085387 169.507817 
L 69.085387 171.151557 
L 69.473453 171.151557 
L 69.473453 172.555819 
L 69.861519 172.555819 
L 69.861519 173.744553 
L 70.249585 173.744553 
L 70.249585 174.739309 
L 70.637651 174.739309 
L 70.637651 175.559488 
L 71.025717 175.559488 
L 71.025717 176.222545 
L 71.413783 176.222545 
L 71.413783 176.744193 
L 71.801849 176.744193 
L 71.801849 177.138574 
L 72.189915 177.138574 
L 72.189915 177.418414 
L 72.577981 177.418414 
L 72.577981 177.595166 
L 74.130245 177.604938 
L 74.130245 177.462626 
L 74.518311 177.462626 
L 74.518311 177.259442 
L 74.906377 177.259442 
L 74.906377 177.001474 
L 75.294443 177.001474 
L 75.294443 176.694199 
L 75.682509 176.694199 
L 75.682509 176.342549 
L 76.070575 176.342549 
L 76.070575 175.950961 
L 76.458641 175.950961 
L 76.458641 175.523428 
L 76.846707 175.523428 
L 76.846707 175.063546 
L 77.234773 175.063546 
L 77.234773 174.574549 
L 77.622839 174.574549 
L 77.622839 174.059349 
L 78.010905 174.059349 
L 78.010905 173.520565 
L 78.398971 173.520565 
L 78.398971 172.960557 
L 78.787037 172.960557 
L 78.787037 172.381447 
L 79.175103 172.381447 
L 79.175103 171.785145 
L 79.563169 171.785145 
L 79.563169 171.17337 
L 79.951235 171.17337 
L 79.951235 170.547669 
L 80.339301 170.547669 
L 80.339301 169.909435 
L 80.727367 169.909435 
L 80.727367 169.259922 
L 81.115433 169.259922 
L 81.115433 168.600257 
L 81.503499 168.600257 
L 81.503499 167.931456 
L 81.891565 167.931456 
L 81.891565 167.254431 
L 82.279631 167.254431 
L 82.279631 166.570006 
L 82.667697 166.570006 
L 82.667697 165.878921 
L 83.055763 165.878921 
L 83.055763 165.181841 
L 83.443829 165.181841 
L 83.443829 164.479366 
L 83.831895 164.479366 
L 83.831895 163.772035 
L 84.219961 163.772035 
L 84.219961 163.060335 
L 84.608027 163.060335 
L 84.608027 162.344701 
L 84.996093 162.344701 
L 84.996093 161.625528 
L 85.384159 161.625528 
L 85.384159 160.903169 
L 85.772225 160.903169 
L 85.772225 160.177943 
L 86.160291 160.177943 
L 86.160291 159.450137 
L 86.548357 159.450137 
L 86.548357 158.720008 
L 86.936423 158.720008 
L 86.936423 157.987789 
L 87.324489 157.987789 
L 87.324489 157.253689 
L 87.712555 157.253689 
L 87.712555 156.517896 
L 88.100621 156.517896 
L 88.100621 155.780579 
L 88.488687 155.780579 
L 88.488687 155.041891 
L 88.876753 155.041891 
L 88.876753 154.301968 
L 89.264819 154.301968 
L 89.264819 153.560935 
L 89.652885 153.560935 
L 89.652885 152.818902 
L 90.040951 152.818902 
L 90.040951 152.07597 
L 90.429017 152.07597 
L 90.429017 151.332227 
L 90.817083 151.332227 
L 90.817083 150.587756 
L 91.205149 150.587756 
L 91.205149 149.842629 
L 91.593215 149.842629 
L 91.593215 149.096911 
L 91.981281 149.096911 
L 91.981281 148.350663 
L 92.369347 148.350663 
L 92.369347 147.603936 
L 92.757413 147.603936 
L 92.757413 146.856779 
L 93.145479 146.856779 
L 93.145479 146.109234 
L 93.533545 146.109234 
L 93.533545 145.361341 
L 93.921611 145.361341 
L 93.921611 144.613134 
L 94.309677 144.613134 
L 94.309677 143.864645 
L 94.697743 143.864645 
L 94.697743 143.115902 
L 95.085809 143.115902 
L 95.085809 142.36693 
L 95.473875 142.36693 
L 95.473875 141.617752 
L 95.861941 141.617752 
L 95.861941 140.868389 
L 96.250007 140.868389 
L 96.250007 140.118859 
L 96.638073 140.118859 
L 96.638073 139.369179 
L 97.026139 139.369179 
L 97.026139 138.619364 
L 97.414205 138.619364 
L 97.414205 137.869428 
L 97.802271 137.869428 
L 97.802271 137.119382 
L 98.190337 137.119382 
L 98.190337 136.369238 
L 98.578403 136.369238 
L 98.578403 135.619005 
L 98.966469 135.619005 
L 98.966469 134.868692 
L 99.354535 134.868692 
L 99.354535 134.118308 
L 99.742601 134.118308 
L 99.742601 133.367859 
L 100.130667 133.367859 
L 100.130667 132.617352 
L 100.518733 132.617352 
L 100.518733 131.866792 
L 100.906799 131.866792 
L 100.906799 131.116186 
L 101.294865 131.116186 
L 101.294865 130.365537 
L 101.682931 130.365537 
L 101.682931 129.61485 
L 102.070997 129.61485 
L 102.070997 128.864129 
L 102.459063 128.864129 
L 102.459063 128.113376 
L 102.847129 128.113376 
L 102.847129 127.362596 
L 103.235195 127.362596 
L 103.235195 126.611791 
L 103.623261 126.611791 
L 103.623261 125.860964 
L 104.011327 125.860964 
L 104.011327 125.110116 
L 104.399393 125.110116 
L 104.399393 124.35925 
L 104.787459 124.35925 
L 104.787459 123.608367 
L 105.175525 123.608367 
L 105.175525 122.85747 
L 105.563591 122.85747 
L 105.563591 122.106559 
L 105.951657 122.106559 
L 105.951657 121.355637 
L 106.339723 121.355637 
L 106.339723 120.604703 
L 106.727789 120.604703 
L 106.727789 119.85376 
L 107.115855 119.85376 
L 107.115855 119.102808 
L 107.503921 119.102808 
L 107.503921 118.351849 
L 107.891987 118.351849 
L 107.891987 117.600882 
L 108.280053 117.600882 
L 108.280053 116.849909 
L 108.668119 116.849909 
L 108.668119 116.09893 
L 109.056185 116.09893 
L 109.056185 115.347946 
L 109.444251 115.347946 
L 109.444251 114.596958 
L 109.832317 114.596958 
L 109.832317 113.845965 
L 110.220383 113.845965 
L 110.220383 113.094968 
L 110.608449 113.094968 
L 110.608449 112.343969 
L 110.996515 112.343969 
L 110.996515 111.592966 
L 111.384581 111.592966 
L 111.384581 110.84196 
L 111.772647 110.84196 
L 111.772647 110.090952 
L 112.160713 110.090952 
L 112.160713 109.339942 
L 112.548779 109.339942 
L 112.548779 108.588929 
L 112.936845 108.588929 
L 112.936845 107.837915 
L 113.324911 107.837915 
L 113.324911 107.086899 
L 113.712977 107.086899 
L 113.712977 106.335882 
L 114.101043 106.335882 
L 114.101043 105.584864 
L 114.489109 105.584864 
L 114.489109 104.833844 
L 114.877175 104.833844 
L 114.877175 104.082823 
L 115.265241 104.082823 
L 115.265241 103.331801 
L 115.653307 103.331801 
L 115.653307 102.580779 
L 116.041373 102.580779 
L 116.041373 101.829756 
L 116.429439 101.829756 
L 116.429439 101.078732 
L 116.817505 101.078732 
L 116.817505 100.327707 
L 117.205571 100.327707 
L 117.205571 99.576682 
L 117.593637 99.576682 
L 117.593637 98.825656 
L 117.981703 98.825656 
L 117.981703 98.07463 
L 118.369769 98.07463 
L 118.369769 97.323603 
L 118.757835 97.323603 
L 118.757835 96.572576 
L 119.145901 96.572576 
L 119.145901 95.821549 
L 119.533967 95.821549 
L 119.533967 95.070521 
L 119.922033 95.070521 
L 119.922033 94.319493 
L 120.310099 94.319493 
L 120.310099 93.568465 
L 120.698165 93.568465 
L 120.698165 92.817437 
L 121.086231 92.817437 
L 121.086231 92.066408 
L 121.474297 92.066408 
L 121.474297 91.31538 
L 121.862363 91.31538 
L 121.862363 90.564351 
L 122.250429 90.564351 
L 122.250429 89.813322 
L 122.638495 89.813322 
L 122.638495 89.062293 
L 123.026561 89.062293 
L 123.026561 88.311263 
L 123.414627 88.311263 
L 123.414627 87.560234 
L 123.802693 87.560234 
L 123.802693 86.809205 
L 124.190759 86.809205 
L 124.190759 86.058175 
L 124.578825 86.058175 
L 124.578825 85.307145 
L 124.966891 85.307145 
L 124.966891 84.556116 
L 125.354957 84.556116 
L 125.354957 83.805086 
L 125.743023 83.805086 
L 125.743023 83.054056 
L 126.131089 83.054056 
L 126.131089 82.303026 
L 126.519155 82.303026 
L 126.519155 81.551996 
L 126.907221 81.551996 
L 126.907221 80.800966 
L 127.295287 80.800966 
L 127.295287 80.049936 
L 127.683353 80.049936 
L 127.683353 79.298906 
L 128.071419 79.298906 
L 128.071419 78.547876 
L 128.459485 78.547876 
L 128.459485 77.796846 
L 128.847551 77.796846 
L 128.847551 77.045816 
L 129.235617 77.045816 
L 129.235617 76.294786 
L 129.623683 76.294786 
L 129.623683 75.543756 
L 130.011749 75.543756 
L 130.011749 74.792726 
L 130.399815 74.792726 
L 130.399815 74.041696 
L 130.787881 74.041696 
L 130.787881 73.290666 
L 131.175947 73.290666 
L 131.175947 72.539635 
L 131.564013 72.539635 
L 131.564013 71.788605 
L 131.952079 71.788605 
L 131.952079 71.037575 
L 132.340145 71.037575 
L 132.340145 70.286545 
L 132.728211 70.286545 
L 132.728211 69.535514 
L 133.116277 69.535514 
L 133.116277 68.784484 
L 133.504343 68.784484 
L 133.504343 68.033454 
L 133.892409 68.033454 
L 133.892409 67.282424 
L 134.280475 67.282424 
L 134.280475 66.531393 
L 134.668541 66.531393 
L 134.668541 65.780363 
L 135.056607 65.780363 
L 135.056607 65.029333 
L 135.444673 65.029333 
L 135.444673 64.278303 
L 135.832739 64.278303 
L 135.832739 63.527272 
L 136.220805 63.527272 
L 136.220805 62.776242 
L 136.608871 62.776242 
L 136.608871 62.025212 
L 136.996937 62.025212 
L 136.996937 61.274182 
L 137.385003 61.274182 
L 137.385003 60.523151 
L 137.773069 60.523151 
L 137.773069 59.772121 
L 138.161135 59.772121 
L 138.161135 59.021091 
L 138.549201 59.021091 
L 138.549201 58.27006 
L 138.937267 58.27006 
L 138.937267 57.51903 
L 139.325333 57.51903 
L 139.325333 56.768 
L 139.713399 56.768 
L 139.713399 56.01697 
L 140.101465 56.01697 
L 140.101465 55.265939 
L 140.489531 55.265939 
L 140.489531 54.514909 
L 140.877597 54.514909 
L 140.877597 53.763879 
L 141.265663 53.763879 
L 141.265663 53.012848 
L 141.653729 53.012848 
L 141.653729 52.261818 
L 142.041795 52.261818 
L 142.041795 51.510788 
L 142.429861 51.510788 
L 142.429861 50.759758 
L 142.817927 50.759758 
L 142.817927 50.008727 
L 143.205993 50.008727 
L 143.205993 49.257697 
L 143.594059 49.257697 
L 143.594059 48.506667 
L 143.982125 48.506667 
L 143.982125 47.755636 
L 144.370191 47.755636 
L 144.370191 47.004606 
L 144.758257 47.004606 
L 144.758257 46.253576 
L 145.146323 46.253576 
L 145.146323 45.502545 
L 145.534389 45.502545 
L 145.534389 44.751515 
L 145.922455 44.751515 
L 145.922455 44.000485 
L 146.310521 44.000485 
L 146.310521 43.249455 
L 146.698587 43.249455 
L 146.698587 42.498424 
L 147.086653 42.498424 
L 147.086653 41.747394 
L 147.474719 41.747394 
L 147.474719 40.996364 
L 147.862785 40.996364 
L 147.862785 40.245333 
L 148.250851 40.245333 
L 148.250851 39.494303 
L 148.638917 39.494303 
L 148.638917 38.743273 
L 149.026983 38.743273 
L 149.026983 37.992242 
L 149.415049 37.992242 
L 149.415049 37.241212 
L 149.803115 37.241212 
L 149.803115 36.490182 
L 150.191181 36.490182 
L 150.191181 35.739152 
L 150.579247 35.739152 
L 150.579247 34.988121 
L 150.967313 34.988121 
L 150.967313 34.237091 
L 151.355379 34.237091 
L 151.355379 33.486061 
L 151.743445 33.486061 
L 151.743445 32.73503 
L 152.131511 32.73503 
L 152.131511 31.984 
L 152.519577 31.984 
L 152.519577 31.23297 
L 152.907643 31.23297 
L 152.907643 30.481939 
L 153.295709 30.481939 
L 153.295709 29.730909 
L 153.683775 29.730909 
L 153.683775 28.979879 
L 154.071841 28.979879 
L 154.071841 28.228848 
L 154.459907 28.228848 
L 154.459907 27.477818 
L 154.847973 27.477818 
L 154.847973 26.726788 
L 155.236039 26.726788 
L 155.236039 25.975758 
L 155.624105 25.975758 
L 155.624105 25.224727 
L 156.012171 25.224727 
L 156.012171 24.473697 
L 156.400237 24.473697 
L 156.400237 23.722667 
L 156.788303 23.722667 
L 156.788303 22.971636 
L 157.176369 22.971636 
L 157.176369 22.220606 
L 157.564435 22.220606 
L 157.564435 21.469576 
L 157.952501 21.469576 
L 157.952501 20.718545 
L 158.340567 20.718545 
L 158.340567 19.967515 
L 158.728633 19.967515 
L 158.728633 19.216485 
L 159.116699 19.216485 
L 159.116699 18.465455 
L 435.031625 18.465455 
L 435.031625 131.12 
L 512.644825 131.12 
L 512.644825 130.36897 
L 513.032891 130.36897 
L 513.032891 129.617939 
L 513.420957 129.617939 
L 513.420957 128.866909 
L 513.809023 128.866909 
L 513.809023 128.115879 
L 514.197089 128.115879 
L 514.197089 127.364848 
L 514.585155 127.364848 
L 514.585155 126.613818 
L 514.973221 126.613818 
L 514.973221 125.862788 
L 515.361287 125.862788 
L 515.361287 125.111758 
L 515.749353 125.111758 
L 515.749353 124.360727 
L 516.137419 124.360727 
L 516.137419 123.609697 
L 516.525485 123.609697 
L 516.525485 122.858667 
L 516.913551 122.858667 
L 516.913551 122.107636 
L 517.301617 122.107636 
L 517.301617 121.356606 
L 517.689683 121.356606 
L 517.689683 120.605576 
L 518.077749 120.605576 
L 518.077749 119.854545 
L 518.465815 119.854545 
L 518.465815 119.103515 
L 518.853881 119.103515 
L 518.853881 118.352485 
L 519.241947 118.352485 
L 519.241947 117.601455 
L 519.630013 117.601455 
L 519.630013 116.850424 
L 520.018079 116.850424 
L 520.018079 116.099394 
L 520.406145 116.099394 
L 520.406145 115.348364 
L 520.794211 115.348364 
L 520.794211 114.597333 
L 521.182277 114.597333 
L 521.182277 113.846303 
L 521.570343 113.846303 
L 521.570343 113.095273 
L 521.958409 113.095273 
L 521.958409 112.344242 
L 522.346475 112.344242 
L 522.346475 111.593212 
L 522.734541 111.593212 
L 522.734541 110.842182 
L 523.122607 110.842182 
L 523.122607 110.091152 
L 523.510673 110.091152 
L 523.510673 109.340121 
L 523.898739 109.340121 
L 523.898739 108.589091 
L 524.286805 108.589091 
L 524.286805 107.838061 
L 524.674871 107.838061 
L 524.674871 107.08703 
L 525.062937 107.08703 
L 525.062937 106.336 
L 525.451003 106.336 
L 525.451003 105.58497 
L 525.839069 105.58497 
L 525.839069 104.833939 
L 526.227135 104.833939 
L 526.227135 104.082909 
L 526.615201 104.082909 
L 526.615201 103.331879 
L 527.003267 103.331879 
L 527.003267 102.580848 
L 527.391333 102.580848 
L 527.391333 101.829818 
L 527.779399 101.829818 
L 527.779399 101.078788 
L 528.167465 101.078788 
L 528.167465 100.327758 
L 528.555531 100.327758 
L 528.555531 99.576727 
L 528.943597 99.576727 
L 528.943597 98.825697 
L 529.331663 98.825697 
L 529.331663 98.074667 
L 529.719729 98.074667 
L 529.719729 97.323636 
L 530.107795 97.323636 
L 530.107795 96.572606 
L 530.495861 96.572606 
L 530.495861 95.821576 
L 530.883927 95.821576 
L 530.883927 95.070545 
L 531.271993 95.070545 
L 531.271993 94.319515 
L 531.660059 94.319515 
L 531.660059 93.568485 
L 532.048125 93.568485 
L 532.048125 92.817455 
L 532.436191 92.817455 
L 532.436191 92.066424 
L 532.824257 92.066424 
L 532.824257 91.315394 
L 533.212323 91.315394 
L 533.212323 90.564364 
L 533.600389 90.564364 
L 533.600389 89.813333 
L 533.988455 89.813333 
L 533.988455 89.062303 
L 534.376521 89.062303 
L 534.376521 88.311273 
L 534.764587 88.311273 
L 534.764587 87.560242 
L 535.152653 87.560242 
L 535.152653 86.809212 
L 535.540719 86.809212 
L 535.540719 86.058182 
L 535.928785 86.058182 
L 535.928785 85.307152 
L 536.316851 85.307152 
L 536.316851 84.556121 
L 536.704917 84.556121 
L 536.704917 83.805091 
L 537.092983 83.805091 
L 537.092983 83.054061 
L 537.481049 83.054061 
L 537.481049 82.30303 
L 537.869115 82.30303 
L 537.869115 81.552 
L 538.257181 81.552 
L 538.257181 80.80097 
L 538.645247 80.80097 
L 538.645247 80.049939 
L 539.033313 80.049939 
L 539.033313 79.298909 
L 539.421379 79.298909 
L 539.421379 78.547879 
L 539.809445 78.547879 
L 539.809445 77.796848 
L 540.197511 77.796848 
L 540.197511 77.045818 
L 540.585577 77.045818 
L 540.585577 76.294788 
L 540.973643 76.294788 
L 540.973643 75.543758 
L 541.361709 75.543758 
L 541.361709 74.792727 
L 541.749775 74.792727 
L 541.749775 74.041697 
L 542.137841 74.041697 
L 542.137841 73.290667 
L 542.525907 73.290667 
L 542.525907 72.539636 
L 542.913973 72.539636 
L 542.913973 71.788606 
L 543.302039 71.788606 
L 543.302039 71.037576 
L 543.690105 71.037576 
L 543.690105 70.286545 
L 544.078171 70.286545 
L 544.078171 69.535515 
L 544.466237 69.535515 
L 544.466237 68.784485 
L 544.854303 68.784485 
L 544.854303 68.033455 
L 545.242369 68.033455 
L 545.242369 67.282424 
L 545.630435 67.282424 
L 545.630435 66.531394 
L 546.018501 66.531394 
L 546.018501 65.780364 
L 546.406567 65.780364 
L 546.406567 65.029333 
L 546.794633 65.029333 
L 546.794633 64.278303 
L 547.182699 64.278303 
L 547.182699 63.527273 
L 547.570765 63.527273 
L 547.570765 62.776242 
L 547.958831 62.776242 
L 547.958831 62.025212 
L 548.346897 62.025212 
L 548.346897 61.274182 
L 548.734963 61.274182 
L 548.734963 60.523152 
L 549.123029 60.523152 
L 549.123029 59.772121 
L 549.511095 59.772121 
L 549.511095 59.021091 
L 549.899161 59.021091 
L 549.899161 58.270061 
L 550.287227 58.270061 
L 550.287227 57.51903 
L 550.675293 57.51903 
L 550.675293 56.768 
L 551.063359 56.768 
L 551.063359 56.01697 
L 551.451425 56.01697 
L 551.451425 55.265939 
L 551.839491 55.265939 
L 551.839491 54.514909 
L 552.227557 54.514909 
L 552.227557 53.763879 
L 552.615623 53.763879 
L 552.615623 53.012848 
L 553.003689 53.012848 
L 553.003689 52.261818 
L 553.391755 52.261818 
L 553.391755 51.510788 
L 553.779821 51.510788 
L 553.779821 50.759758 
L 554.167887 50.759758 
L 554.167887 50.008727 
L 554.555953 50.008727 
L 554.555953 49.257697 
L 554.944019 49.257697 
L 554.944019 48.506667 
L 555.332085 48.506667 
L 555.332085 47.755636 
L 555.720151 47.755636 
L 555.720151 47.004606 
L 556.108217 47.004606 
L 556.108217 46.253576 
L 556.496283 46.253576 
L 556.496283 45.502545 
L 556.884349 45.502545 
L 556.884349 44.751515 
L 557.272415 44.751515 
L 557.272415 44.000485 
L 557.660481 44.000485 
L 557.660481 43.249455 
L 558.048547 43.249455 
L 558.048547 42.498424 
L 558.436613 42.498424 
L 558.436613 41.747394 
L 558.824679 41.747394 
L 558.824679 40.996364 
L 559.212745 40.996364 
L 559.212745 40.245333 
L 559.600811 40.245333 
L 559.600811 39.494303 
L 559.988877 39.494303 
L 559.988877 38.743273 
L 560.376943 38.743273 
L 560.376943 37.992242 
L 560.765009 37.992242 
L 560.765009 37.241212 
L 561.153075 37.241212 
L 561.153075 36.490182 
L 561.541141 36.490182 
L 561.541141 35.739152 
L 561.929207 35.739152 
L 561.929207 34.988121 
L 562.317273 34.988121 
L 562.317273 34.237091 
L 562.705339 34.237091 
L 562.705339 33.486061 
L 563.093405 33.486061 
L 563.093405 32.73503 
L 563.481471 32.73503 
L 563.481471 31.984 
L 563.869537 31.984 
L 563.869537 31.23297 
L 564.257603 31.23297 
L 564.257603 30.481939 
L 564.645669 30.481939 
L 564.645669 29.730909 
L 565.033735 29.730909 
L 565.033735 28.979879 
L 565.421801 28.979879 
L 565.421801 28.228848 
L 565.809867 28.228848 
L 565.809867 27.477818 
L 566.197933 27.477818 
L 566.197933 26.726788 
L 566.585999 26.726788 
L 566.585999 25.975758 
L 566.974065 25.975758 
L 566.974065 25.224727 
L 567.362131 25.224727 
L 567.362131 24.473697 
L 567.750197 24.473697 
L 567.750197 23.722667 
L 568.138263 23.722667 
L 568.138263 22.971636 
L 568.526329 22.971636 
L 568.526329 22.220606 
L 568.914395 22.220606 
L 568.914395 21.469576 
L 569.302461 21.469576 
L 569.302461 20.718545 
L 569.690527 20.718545 
L 569.690527 19.967515 
L 570.078593 19.967515 
L 570.078593 19.216485 
L 570.466659 19.216485 
L 570.466659 18.465455 
L 823.097625 18.465455 
L 823.097625 131.12 
L 861.904225 131.12 
L 861.904225 108.589091 
L 939.517425 108.589091 
L 939.517425 131.12 
L 1017.130625 131.12 
L 1017.130625 152.899879 
L 1017.130625 152.899879 
" clip-path="url(#pa599ecc987)" style="fill: none; stroke: #1f77b4; stroke-width: 1.5; stroke-linecap: square"/>
   </g>
   <g id="line2d_14">
    <path d="M 46.965625 243.774545 
L 66.368925 243.774545 
L 66.368925 198.712727 
L 1017.130625 198.712727 
L 1017.130625 198.712727 
" clip-path="url(#pa599ecc987)" style="fill: none; stroke: #ff7f0e; stroke-width: 1.5; stroke-linecap: square"/>
   </g>
   <g id="line2d_15">
    <path d="M 46.965625 243.774545 
L 66.368925 243.774545 
L 66.368925 243.023515 
L 66.756991 243.023515 
L 66.756991 242.272485 
L 67.145057 242.272485 
L 67.145057 241.521455 
L 67.533123 241.521455 
L 67.533123 240.770424 
L 67.921189 240.770424 
L 67.921189 240.019394 
L 68.309255 240.019394 
L 68.309255 239.268364 
L 68.697321 239.268364 
L 68.697321 238.517333 
L 69.085387 238.517333 
L 69.085387 237.766303 
L 69.473453 237.766303 
L 69.473453 237.015273 
L 69.861519 237.015273 
L 69.861519 236.264242 
L 70.249585 236.264242 
L 70.249585 235.513212 
L 70.637651 235.513212 
L 70.637651 234.762182 
L 71.025717 234.762182 
L 71.025717 234.011152 
L 71.413783 234.011152 
L 71.413783 233.260121 
L 71.801849 233.260121 
L 71.801849 232.509091 
L 72.189915 232.509091 
L 72.189915 231.758061 
L 72.577981 231.758061 
L 72.577981 231.00703 
L 72.966047 231.00703 
L 72.966047 230.256 
L 73.354113 230.256 
L 73.354113 229.50497 
L 73.742179 229.50497 
L 73.742179 228.753939 
L 74.130245 228.753939 
L 74.130245 228.002909 
L 74.518311 228.002909 
L 74.518311 227.251879 
L 74.906377 227.251879 
L 74.906377 226.500848 
L 75.294443 226.500848 
L 75.294443 225.749818 
L 75.682509 225.749818 
L 75.682509 224.998788 
L 76.070575 224.998788 
L 76.070575 224.247758 
L 76.458641 224.247758 
L 76.458641 223.496727 
L 76.846707 223.496727 
L 76.846707 222.745697 
L 77.234773 222.745697 
L 77.234773 221.994667 
L 77.622839 221.994667 
L 77.622839 221.243636 
L 78.010905 221.243636 
L 78.010905 220.492606 
L 78.398971 220.492606 
L 78.398971 219.741576 
L 78.787037 219.741576 
L 78.787037 218.990545 
L 79.175103 218.990545 
L 79.175103 218.239515 
L 79.563169 218.239515 
L 79.563169 217.488485 
L 79.951235 217.488485 
L 79.951235 216.737455 
L 80.339301 216.737455 
L 80.339301 215.986424 
L 80.727367 215.986424 
L 80.727367 215.235394 
L 81.115433 215.235394 
L 81.115433 214.484364 
L 81.503499 214.484364 
L 81.503499 213.733333 
L 81.891565 213.733333 
L 81.891565 212.982303 
L 82.279631 212.982303 
L 82.279631 212.231273 
L 82.667697 212.231273 
L 82.667697 211.480242 
L 83.055763 211.480242 
L 83.055763 210.729212 
L 83.443829 210.729212 
L 83.443829 209.978182 
L 83.831895 209.978182 
L 83.831895 209.227152 
L 84.219961 209.227152 
L 84.219961 208.476121 
L 84.608027 208.476121 
L 84.608027 207.725091 
L 84.996093 207.725091 
L 84.996093 206.974061 
L 85.384159 206.974061 
L 85.384159 206.22303 
L 85.772225 206.22303 
L 85.772225 205.472 
L 86.160291 205.472 
L 86.160291 204.72097 
L 86.548357 204.72097 
L 86.548357 203.969939 
L 86.936423 203.969939 
L 86.936423 203.218909 
L 87.324489 203.218909 
L 87.324489 202.467879 
L 87.712555 202.467879 
L 87.712555 201.716848 
L 88.100621 201.716848 
L 88.100621 200.965818 
L 88.488687 200.965818 
L 88.488687 200.214788 
L 88.876753 200.214788 
L 88.876753 199.463758 
L 89.264819 199.463758 
L 89.264819 198.712727 
L 89.652885 198.712727 
L 89.652885 197.961697 
L 90.040951 197.961697 
L 90.040951 197.210667 
L 90.429017 197.210667 
L 90.429017 196.459636 
L 90.817083 196.459636 
L 90.817083 195.708606 
L 91.205149 195.708606 
L 91.205149 194.957576 
L 91.593215 194.957576 
L 91.593215 194.206545 
L 91.981281 194.206545 
L 91.981281 193.455515 
L 92.369347 193.455515 
L 92.369347 192.704485 
L 92.757413 192.704485 
L 92.757413 191.953455 
L 93.145479 191.953455 
L 93.145479 191.202424 
L 93.533545 191.202424 
L 93.533545 190.451394 
L 93.921611 190.451394 
L 93.921611 189.700364 
L 94.309677 189.700364 
L 94.309677 188.949333 
L 94.697743 188.949333 
L 94.697743 188.198303 
L 95.085809 188.198303 
L 95.085809 187.447273 
L 95.473875 187.447273 
L 95.473875 186.696242 
L 95.861941 186.696242 
L 95.861941 185.945212 
L 96.250007 185.945212 
L 96.250007 185.194182 
L 96.638073 185.194182 
L 96.638073 184.443152 
L 97.026139 184.443152 
L 97.026139 183.692121 
L 97.414205 183.692121 
L 97.414205 182.941091 
L 97.802271 182.941091 
L 97.802271 182.190061 
L 98.190337 182.190061 
L 98.190337 181.43903 
L 98.578403 181.43903 
L 98.578403 180.688 
L 98.966469 180.688 
L 98.966469 179.93697 
L 99.354535 179.93697 
L 99.354535 179.185939 
L 99.742601 179.185939 
L 99.742601 178.434909 
L 100.130667 178.434909 
L 100.130667 177.683879 
L 100.518733 177.683879 
L 100.518733 176.932848 
L 100.906799 176.932848 
L 100.906799 176.181818 
L 101.294865 176.181818 
L 101.294865 175.430788 
L 101.682931 175.430788 
L 101.682931 174.679758 
L 102.070997 174.679758 
L 102.070997 173.928727 
L 102.459063 173.928727 
L 102.459063 173.177697 
L 102.847129 173.177697 
L 102.847129 172.426667 
L 103.235195 172.426667 
L 103.235195 171.675636 
L 103.623261 171.675636 
L 103.623261 170.924606 
L 104.011327 170.924606 
L 104.011327 170.173576 
L 104.399393 170.173576 
L 104.399393 169.422545 
L 104.787459 169.422545 
L 104.787459 168.671515 
L 105.175525 168.671515 
L 105.175525 167.920485 
L 105.563591 167.920485 
L 105.563591 167.169455 
L 105.951657 167.169455 
L 105.951657 166.418424 
L 106.339723 166.418424 
L 106.339723 165.667394 
L 106.727789 165.667394 
L 106.727789 164.916364 
L 107.115855 164.916364 
L 107.115855 164.165333 
L 107.503921 164.165333 
L 107.503921 163.414303 
L 107.891987 163.414303 
L 107.891987 162.663273 
L 108.280053 162.663273 
L 108.280053 161.912242 
L 108.668119 161.912242 
L 108.668119 161.161212 
L 109.056185 161.161212 
L 109.056185 160.410182 
L 109.444251 160.410182 
L 109.444251 159.659152 
L 109.832317 159.659152 
L 109.832317 158.908121 
L 110.220383 158.908121 
L 110.220383 158.157091 
L 110.608449 158.157091 
L 110.608449 157.406061 
L 110.996515 157.406061 
L 110.996515 156.65503 
L 111.384581 156.65503 
L 111.384581 155.904 
L 111.772647 155.904 
L 111.772647 155.15297 
L 112.160713 155.15297 
L 112.160713 154.401939 
L 112.548779 154.401939 
L 112.548779 153.650909 
L 112.936845 153.650909 
L 112.936845 152.899879 
L 113.324911 152.899879 
L 113.324911 152.148848 
L 113.712977 152.148848 
L 113.712977 151.397818 
L 114.101043 151.397818 
L 114.101043 150.646788 
L 114.489109 150.646788 
L 114.489109 149.895758 
L 114.877175 149.895758 
L 114.877175 149.144727 
L 115.265241 149.144727 
L 115.265241 148.393697 
L 115.653307 148.393697 
L 115.653307 147.642667 
L 116.041373 147.642667 
L 116.041373 146.891636 
L 116.429439 146.891636 
L 116.429439 146.140606 
L 116.817505 146.140606 
L 116.817505 145.389576 
L 117.205571 145.389576 
L 117.205571 144.638545 
L 117.593637 144.638545 
L 117.593637 143.887515 
L 117.981703 143.887515 
L 117.981703 143.136485 
L 118.369769 143.136485 
L 118.369769 142.385455 
L 118.757835 142.385455 
L 118.757835 141.634424 
L 119.145901 141.634424 
L 119.145901 140.883394 
L 119.533967 140.883394 
L 119.533967 140.132364 
L 119.922033 140.132364 
L 119.922033 139.381333 
L 120.310099 139.381333 
L 120.310099 138.630303 
L 120.698165 138.630303 
L 120.698165 137.879273 
L 121.086231 137.879273 
L 121.086231 137.128242 
L 121.474297 137.128242 
L 121.474297 136.377212 
L 121.862363 136.377212 
L 121.862363 135.626182 
L 122.250429 135.626182 
L 122.250429 134.875152 
L 122.638495 134.875152 
L 122.638495 134.124121 
L 123.026561 134.124121 
L 123.026561 133.373091 
L 123.414627 133.373091 
L 123.414627 132.622061 
L 123.802693 132.622061 
L 123.802693 131.87103 
L 124.190759 131.87103 
L 124.190759 131.12 
L 124.578825 131.12 
L 124.578825 130.36897 
L 124.966891 130.36897 
L 124.966891 129.617939 
L 125.354957 129.617939 
L 125.354957 128.866909 
L 125.743023 128.866909 
L 125.743023 128.115879 
L 126.131089 128.115879 
L 126.131089 127.364848 
L 126.519155 127.364848 
L 126.519155 126.613818 
L 126.907221 126.613818 
L 126.907221 125.862788 
L 127.295287 125.862788 
L 127.295287 125.111758 
L 127.683353 125.111758 
L 127.683353 124.360727 
L 128.071419 124.360727 
L 128.071419 123.609697 
L 128.459485 123.609697 
L 128.459485 122.858667 
L 128.847551 122.858667 
L 128.847551 122.107636 
L 129.235617 122.107636 
L 129.235617 121.356606 
L 129.623683 121.356606 
L 129.623683 120.605576 
L 130.011749 120.605576 
L 130.011749 119.854545 
L 130.399815 119.854545 
L 130.399815 119.103515 
L 130.787881 119.103515 
L 130.787881 118.352485 
L 131.175947 118.352485 
L 131.175947 117.601455 
L 131.564013 117.601455 
L 131.564013 116.850424 
L 131.952079 116.850424 
L 131.952079 116.099394 
L 132.340145 116.099394 
L 132.340145 115.348364 
L 132.728211 115.348364 
L 132.728211 114.597333 
L 133.116277 114.597333 
L 133.116277 113.846303 
L 133.504343 113.846303 
L 133.504343 113.095273 
L 133.892409 113.095273 
L 133.892409 112.344242 
L 134.280475 112.344242 
L 134.280475 111.593212 
L 134.668541 111.593212 
L 134.668541 110.842182 
L 135.056607 110.842182 
L 135.056607 110.091152 
L 135.444673 110.091152 
L 135.444673 109.340121 
L 135.832739 109.340121 
L 135.832739 108.589091 
L 136.220805 108.589091 
L 136.220805 107.838061 
L 136.608871 107.838061 
L 136.608871 107.08703 
L 136.996937 107.08703 
L 136.996937 106.336 
L 137.385003 106.336 
L 137.385003 105.58497 
L 137.773069 105.58497 
L 137.773069 104.833939 
L 138.161135 104.833939 
L 138.161135 104.082909 
L 138.549201 104.082909 
L 138.549201 103.331879 
L 138.937267 103.331879 
L 138.937267 102.580848 
L 139.325333 102.580848 
L 139.325333 101.829818 
L 139.713399 101.829818 
L 139.713399 101.078788 
L 140.101465 101.078788 
L 140.101465 100.327758 
L 140.489531 100.327758 
L 140.489531 99.576727 
L 140.877597 99.576727 
L 140.877597 98.825697 
L 141.265663 98.825697 
L 141.265663 98.074667 
L 141.653729 98.074667 
L 141.653729 97.323636 
L 142.041795 97.323636 
L 142.041795 96.572606 
L 142.429861 96.572606 
L 142.429861 95.821576 
L 142.817927 95.821576 
L 142.817927 95.070545 
L 143.205993 95.070545 
L 143.205993 94.319515 
L 143.594059 94.319515 
L 143.594059 93.568485 
L 143.982125 93.568485 
L 143.982125 92.817455 
L 144.370191 92.817455 
L 144.370191 92.066424 
L 144.758257 92.066424 
L 144.758257 91.315394 
L 145.146323 91.315394 
L 145.146323 90.564364 
L 145.534389 90.564364 
L 145.534389 89.813333 
L 145.922455 89.813333 
L 145.922455 89.062303 
L 146.310521 89.062303 
L 146.310521 88.311273 
L 146.698587 88.311273 
L 146.698587 87.560242 
L 147.086653 87.560242 
L 147.086653 86.809212 
L 147.474719 86.809212 
L 147.474719 86.058182 
L 147.862785 86.058182 
L 147.862785 85.307152 
L 148.250851 85.307152 
L 148.250851 84.556121 
L 148.638917 84.556121 
L 148.638917 83.805091 
L 149.026983 83.805091 
L 149.026983 83.054061 
L 149.415049 83.054061 
L 149.415049 82.30303 
L 149.803115 82.30303 
L 149.803115 81.552 
L 150.191181 81.552 
L 150.191181 80.80097 
L 150.579247 80.80097 
L 150.579247 80.049939 
L 150.967313 80.049939 
L 150.967313 79.298909 
L 151.355379 79.298909 
L 151.355379 78.547879 
L 151.743445 78.547879 
L 151.743445 77.796848 
L 152.131511 77.796848 
L 152.131511 77.045818 
L 152.519577 77.045818 
L 152.519577 76.294788 
L 152.907643 76.294788 
L 152.907643 75.543758 
L 153.295709 75.543758 
L 153.295709 74.792727 
L 153.683775 74.792727 
L 153.683775 74.041697 
L 154.071841 74.041697 
L 154.071841 73.290667 
L 154.459907 73.290667 
L 154.459907 72.539636 
L 154.847973 72.539636 
L 154.847973 71.788606 
L 155.236039 71.788606 
L 155.236039 71.037576 
L 155.624105 71.037576 
L 155.624105 70.286545 
L 156.012171 70.286545 
L 156.012171 69.535515 
L 156.400237 69.535515 
L 156.400237 68.784485 
L 156.788303 68.784485 
L 156.788303 68.033455 
L 157.176369 68.033455 
L 157.176369 67.282424 
L 157.564435 67.282424 
L 157.564435 66.531394 
L 157.952501 66.531394 
L 157.952501 65.780364 
L 158.340567 65.780364 
L 158.340567 65.029333 
L 158.728633 65.029333 
L 158.728633 64.278303 
L 159.116699 64.278303 
L 159.116699 63.527273 
L 435.031625 63.527273 
L 435.031625 176.181818 
L 512.644825 176.181818 
L 512.644825 175.430788 
L 513.032891 175.430788 
L 513.032891 174.679758 
L 513.420957 174.679758 
L 513.420957 173.928727 
L 513.809023 173.928727 
L 513.809023 173.177697 
L 514.197089 173.177697 
L 514.197089 172.426667 
L 514.585155 172.426667 
L 514.585155 171.675636 
L 514.973221 171.675636 
L 514.973221 170.924606 
L 515.361287 170.924606 
L 515.361287 170.173576 
L 515.749353 170.173576 
L 515.749353 169.422545 
L 516.137419 169.422545 
L 516.137419 168.671515 
L 516.525485 168.671515 
L 516.525485 167.920485 
L 516.913551 167.920485 
L 516.913551 167.169455 
L 517.301617 167.169455 
L 517.301617 166.418424 
L 517.689683 166.418424 
L 517.689683 165.667394 
L 518.077749 165.667394 
L 518.077749 164.916364 
L 518.465815 164.916364 
L 518.465815 164.165333 
L 518.853881 164.165333 
L 518.853881 163.414303 
L 519.241947 163.414303 
L 519.241947 162.663273 
L 519.630013 162.663273 
L 519.630013 161.912242 
L 520.018079 161.912242 
L 520.018079 161.161212 
L 520.406145 161.161212 
L 520.406145 160.410182 
L 520.794211 160.410182 
L 520.794211 159.659152 
L 521.182277 159.659152 
L 521.182277 158.908121 
L 521.570343 158.908121 
L 521.570343 158.157091 
L 521.958409 158.157091 
L 521.958409 157.406061 
L 522.346475 157.406061 
L 522.346475 156.65503 
L 522.734541 156.65503 
L 522.734541 155.904 
L 523.122607 155.904 
L 523.122607 155.15297 
L 523.510673 155.15297 
L 523.510673 154.401939 
L 523.898739 154.401939 
L 523.898739 153.650909 
L 524.286805 153.650909 
L 524.286805 152.899879 
L 524.674871 152.899879 
L 524.674871 152.148848 
L 525.062937 152.148848 
L 525.062937 151.397818 
L 525.451003 151.397818 
L 525.451003 150.646788 
L 525.839069 150.646788 
L 525.839069 149.895758 
L 526.227135 149.895758 
L 526.227135 149.144727 
L 526.615201 149.144727 
L 526.615201 148.393697 
L 527.003267 148.393697 
L 527.003267 147.642667 
L 527.391333 147.642667 
L 527.391333 146.891636 
L 527.779399 146.891636 
L 527.779399 146.140606 
L 528.167465 146.140606 
L 528.167465 145.389576 
L 528.555531 145.389576 
L 528.555531 144.638545 
L 528.943597 144.638545 
L 528.943597 143.887515 
L 529.331663 143.887515 
L 529.331663 143.136485 
L 529.719729 143.136485 
L 529.719729 142.385455 
L 530.107795 142.385455 
L 530.107795 141.634424 
L 530.495861 141.634424 
L 530.495861 140.883394 
L 530.883927 140.883394 
L 530.883927 140.132364 
L 531.271993 140.132364 
L 531.271993 139.381333 
L 531.660059 139.381333 
L 531.660059 138.630303 
L 532.048125 138.630303 
L 532.048125 137.879273 
L 532.436191 137.879273 
L 532.436191 137.128242 
L 532.824257 137.128242 
L 532.824257 136.377212 
L 533.212323 136.377212 
L 533.212323 135.626182 
L 533.600389 135.626182 
L 533.600389 134.875152 
L 533.988455 134.875152 
L 533.988455 134.124121 
L 534.376521 134.124121 
L 534.376521 133.373091 
L 534.764587 133.373091 
L 534.764587 132.622061 
L 535.152653 132.622061 
L 535.152653 131.87103 
L 535.540719 131.87103 
L 535.540719 131.12 
L 535.928785 131.12 
L 535.928785 130.36897 
L 536.316851 130.36897 
L 536.316851 129.617939 
L 536.704917 129.617939 
L 536.704917 128.866909 
L 537.092983 128.866909 
L 537.092983 128.115879 
L 537.481049 128.115879 
L 537.481049 127.364848 
L 537.869115 127.364848 
L 537.869115 126.613818 
L 538.257181 126.613818 
L 538.257181 125.862788 
L 538.645247 125.862788 
L 538.645247 125.111758 
L 539.033313 125.111758 
L 539.033313 124.360727 
L 539.421379 124.360727 
L 539.421379 123.609697 
L 539.809445 123.609697 
L 539.809445 122.858667 
L 540.197511 122.858667 
L 540.197511 122.107636 
L 540.585577 122.107636 
L 540.585577 121.356606 
L 540.973643 121.356606 
L 540.973643 120.605576 
L 541.361709 120.605576 
L 541.361709 119.854545 
L 541.749775 119.854545 
L 541.749775 119.103515 
L 542.137841 119.103515 
L 542.137841 118.352485 
L 542.525907 118.352485 
L 542.525907 117.601455 
L 542.913973 117.601455 
L 542.913973 116.850424 
L 543.302039 116.850424 
L 543.302039 116.099394 
L 543.690105 116.099394 
L 543.690105 115.348364 
L 544.078171 115.348364 
L 544.078171 114.597333 
L 544.466237 114.597333 
L 544.466237 113.846303 
L 544.854303 113.846303 
L 544.854303 113.095273 
L 545.242369 113.095273 
L 545.242369 112.344242 
L 545.630435 112.344242 
L 545.630435 111.593212 
L 546.018501 111.593212 
L 546.018501 110.842182 
L 546.406567 110.842182 
L 546.406567 110.091152 
L 546.794633 110.091152 
L 546.794633 109.340121 
L 547.182699 109.340121 
L 547.182699 108.589091 
L 547.570765 108.589091 
L 547.570765 107.838061 
L 547.958831 107.838061 
L 547.958831 107.08703 
L 548.346897 107.08703 
L 548.346897 106.336 
L 548.734963 106.336 
L 548.734963 105.58497 
L 549.123029 105.58497 
L 549.123029 104.833939 
L 549.511095 104.833939 
L 549.511095 104.082909 
L 549.899161 104.082909 
L 549.899161 103.331879 
L 550.287227 103.331879 
L 550.287227 102.580848 
L 550.675293 102.580848 
L 550.675293 101.829818 
L 551.063359 101.829818 
L 551.063359 101.078788 
L 551.451425 101.078788 
L 551.451425 100.327758 
L 551.839491 100.327758 
L 551.839491 99.576727 
L 552.227557 99.576727 
L 552.227557 98.825697 
L 552.615623 98.825697 
L 552.615623 98.074667 
L 553.003689 98.074667 
L 553.003689 97.323636 
L 553.391755 97.323636 
L 553.391755 96.572606 
L 553.779821 96.572606 
L 553.779821 95.821576 
L 554.167887 95.821576 
L 554.167887 95.070545 
L 554.555953 95.070545 
L 554.555953 94.319515 
L 554.944019 94.319515 
L 554.944019 93.568485 
L 555.332085 93.568485 
L 555.332085 92.817455 
L 555.720151 92.817455 
L 555.720151 92.066424 
L 556.108217 92.066424 
L 556.108217 91.315394 
L 556.496283 91.315394 
L 556.496283 90.564364 
L 556.884349 90.564364 
L 556.884349 89.813333 
L 557.272415 89.813333 
L 557.272415 89.062303 
L 557.660481 89.062303 
L 557.660481 88.311273 
L 558.048547 88.311273 
L 558.048547 87.560242 
L 558.436613 87.560242 
L 558.436613 86.809212 
L 558.824679 86.809212 
L 558.824679 86.058182 
L 559.212745 86.058182 
L 559.212745 85.307152 
L 559.600811 85.307152 
L 559.600811 84.556121 
L 559.988877 84.556121 
L 559.988877 83.805091 
L 560.376943 83.805091 
L 560.376943 83.054061 
L 560.765009 83.054061 
L 560.765009 82.30303 
L 561.153075 82.30303 
L 561.153075 81.552 
L 561.541141 81.552 
L 561.541141 80.80097 
L 561.929207 80.80097 
L 561.929207 80.049939 
L 562.317273 80.049939 
L 562.317273 79.298909 
L 562.705339 79.298909 
L 562.705339 78.547879 
L 563.093405 78.547879 
L 563.093405 77.796848 
L 563.481471 77.796848 
L 563.481471 77.045818 
L 563.869537 77.045818 
L 563.869537 76.294788 
L 564.257603 76.294788 
L 564.257603 75.543758 
L 564.645669 75.543758 
L 564.645669 74.792727 
L 565.033735 74.792727 
L 565.033735 74.041697 
L 565.421801 74.041697 
L 565.421801 73.290667 
L 565.809867 73.290667 
L 565.809867 72.539636 
L 566.197933 72.539636 
L 566.197933 71.788606 
L 566.585999 71.788606 
L 566.585999 71.037576 
L 566.974065 71.037576 
L 566.974065 70.286545 
L 567.362131 70.286545 
L 567.362131 69.535515 
L 567.750197 69.535515 
L 567.750197 68.784485 
L 568.138263 68.784485 
L 568.138263 68.033455 
L 568.526329 68.033455 
L 568.526329 67.282424 
L 568.914395 67.282424 
L 568.914395 66.531394 
L 569.302461 66.531394 
L 569.302461 65.780364 
L 569.690527 65.780364 
L 569.690527 65.029333 
L 570.078593 65.029333 
L 570.078593 64.278303 
L 570.466659 64.278303 
L 570.466659 63.527273 
L 784.291025 63.527273 
L 784.291025 86.058182 
L 823.097625 86.058182 
L 823.097625 198.712727 
L 861.904225 198.712727 
L 861.904225 176.181818 
L 939.517425 176.181818 
L 939.517425 198.712727 
L 1017.130625 198.712727 
L 1017.130625 197.961697 
L 1017.130625 197.961697 
" clip-path="url(#pa599ecc987)" style="fill: none; stroke: #2ca02c; stroke-width: 1.5; stroke-linecap: square"/>
   </g>
   <g id="line2d_16">
    <path d="M 46.965625 243.774545 
L 66.368925 243.774545 
L 66.368925 198.712727 
L 66.756991 198.712727 
L 66.756991 203.218909 
L 67.145057 203.218909 
L 67.145057 207.274473 
L 67.533123 207.274473 
L 67.533123 210.92448 
L 67.921189 210.92448 
L 67.921189 214.209487 
L 68.309255 214.209487 
L 68.309255 217.165992 
L 68.697321 217.165992 
L 68.697321 219.826848 
L 69.085387 219.826848 
L 69.085387 222.221618 
L 69.473453 222.221618 
L 69.473453 224.37691 
L 69.861519 224.37691 
L 69.861519 226.316674 
L 70.249585 226.316674 
L 70.249585 228.062461 
L 70.637651 228.062461 
L 70.637651 229.633669 
L 71.025717 229.633669 
L 71.025717 231.047757 
L 71.413783 231.047757 
L 71.413783 232.320436 
L 71.801849 232.320436 
L 71.801849 233.465847 
L 72.189915 233.465847 
L 72.189915 234.496717 
L 72.577981 234.496717 
L 72.577981 235.4245 
L 72.966047 235.4245 
L 72.966047 236.259504 
L 73.354113 236.259504 
L 73.354113 237.011008 
L 73.742179 237.011008 
L 73.742179 237.687362 
L 74.130245 237.687362 
L 74.130245 238.29608 
L 74.518311 238.29608 
L 74.518311 238.843927 
L 74.906377 238.843927 
L 74.906377 239.336989 
L 75.294443 239.336989 
L 75.294443 239.780744 
L 75.682509 239.780744 
L 75.682509 240.180124 
L 76.070575 240.180124 
L 76.070575 240.539567 
L 76.458641 240.539567 
L 76.458641 240.863064 
L 76.846707 240.863064 
L 76.846707 241.154213 
L 77.234773 241.154213 
L 77.234773 241.416246 
L 77.622839 241.416246 
L 77.622839 241.652076 
L 78.010905 241.652076 
L 78.010905 241.864323 
L 78.398971 241.864323 
L 78.398971 242.055345 
L 78.787037 242.055345 
L 78.787037 242.227265 
L 79.175103 242.227265 
L 79.175103 242.381993 
L 79.563169 242.381993 
L 79.563169 242.521248 
L 79.951235 242.521248 
L 79.951235 242.646578 
L 80.339301 242.646578 
L 80.339301 242.759375 
L 81.115433 242.860892 
L 81.115433 242.952257 
L 81.891565 243.034486 
L 81.891565 243.108492 
L 82.667697 243.175097 
L 82.667697 243.235042 
L 83.831895 243.337548 
L 83.831895 243.381248 
L 85.384159 243.487831 
L 85.384159 243.516503 
L 87.712555 243.622174 
L 87.712555 243.637411 
L 93.921611 243.746311 
L 93.921611 243.749134 
L 1017.130625 243.774545 
L 1017.130625 243.774545 
" clip-path="url(#pa599ecc987)" style="fill: none; stroke: #d62728; stroke-width: 1.5; stroke-linecap: square"/>
   </g>
   <g id="line2d_17">
    <path d="M 46.965625 243.774545 
L 784.291025 243.774545 
L 784.291025 221.243636 
L 1017.130625 221.243636 
L 1017.130625 243.774545 
L 1017.130625 243.774545 
" clip-path="url(#pa599ecc987)" style="fill: none; stroke: #9467bd; stroke-width: 1.5; stroke-linecap: square"/>
   </g>
   <g id="patch_3">
    <path d="M 46.965625 255.04 
L 46.965625 7.2 
" style="fill: none; stroke: #000000; stroke-width: 0.8; stroke-linejoin: miter; stroke-linecap: square"/>
   </g>
   <g id="patch_4">
    <path d="M 1017.130625 255.04 
L 1017.130625 7.2 
" style="fill: none; stroke: #000000; stroke-width: 0.8; stroke-linejoin: miter; stroke-linecap: square"/>
   </g>
   <g id="patch_5">
    <path d="M 46.965625 255.04 
L 1017.130625 255.04 
" style="fill: none; stroke: #000000; stroke-width: 0.8; stroke-linejoin: miter; stroke-linecap: square"/>
   </g>
   <g id="patch_6">
    <path d="M 46.965625 7.2 
L 1017.130625 7.2 
" style="fill: none; stroke: #000000; stroke-width: 0.8; stroke-linejoin: miter; stroke-linecap: square"/>
   </g>
   <g id="legend_1">
    <g id="patch_7">
     <path d="M 951.15875 88.590625 
L 1010.130625 88.590625 
Q 1012.130625 88.590625 1012.130625 86.590625 
L 1012.130625 14.2 
Q 1012.130625 12.2 1010.130625 12.2 
L 951.15875 12.2 
Q 949.15875 12.2 949.15875 14.2 
L 949.15875 86.590625 
Q 949.15875 88.590625 951.15875 88.590625 
z
" style="fill: #ffffff; opacity: 0.8; stroke: #cccccc; stroke-linejoin: miter"/>
    </g>
    <g id="line2d_18">
     <path d="M 953.15875 20.298437 
L 963.15875 20.298437 
L 963.15875 20.298437 
L 973.15875 20.298437 
L 973.15875 20.298437 
" style="fill: none; stroke: #1f77b4; stroke-width: 1.5; stroke-linecap: square"/>
    </g>
    <g id="text_14">
     <!-- MV -->
     <g transform="translate(981.15875 23.798437) scale(0.1 -0.1)">
      <use xlink:href="#DejaVuSans-4d"/>
      <use xlink:href="#DejaVuSans-56" transform="translate(86.279297 0)"/>
     </g>
    </g>
    <g id="line2d_19">
     <path d="M 953.15875 34.976562 
L 963.15875 34.976562 
L 963.15875 34.976562 
L 973.15875 34.976562 
L 973.15875 34.976562 
" style="fill: none; stroke: #ff7f0e; stroke-width: 1.5; stroke-linecap: square"/>
    </g>
    <g id="text_15">
     <!-- MVP -->
     <g transform="translate(981.15875 38.476562) scale(0.1 -0.1)">
      <use xlink:href="#DejaVuSans-4d"/>
      <use xlink:href="#DejaVuSans-56" transform="translate(86.279297 0)"/>
      <use xlink:href="#DejaVuSans-50" transform="translate(154.6875 0)"/>
     </g>
    </g>
    <g id="line2d_20">
     <path d="M 953.15875 49.654687 
L 963.15875 49.654687 
L 963.15875 49.654687 
L 973.15875 49.654687 
L 973.15875 49.654687 
" style="fill: none; stroke: #2ca02c; stroke-width: 1.5; stroke-linecap: square"/>
    </g>
    <g id="text_16">
     <!-- MVI -->
     <g transform="translate(981.15875 53.154687) scale(0.1 -0.1)">
      <use xlink:href="#DejaVuSans-4d"/>
      <use xlink:href="#DejaVuSans-56" transform="translate(86.279297 0)"/>
      <use xlink:href="#DejaVuSans-49" transform="translate(154.6875 0)"/>
     </g>
    </g>
    <g id="line2d_21">
     <path d="M 953.15875 64.332812 
L 963.15875 64.332812 
L 963.15875 64.332812 
L 973.15875 64.332812 
L 973.15875 64.332812 
" style="fill: none; stroke: #d62728; stroke-width: 1.5; stroke-linecap: square"/>
    </g>
    <g id="text_17">
     <!-- MVD -->
     <g transform="translate(981.15875 67.832812) scale(0.1 -0.1)">
      <use xlink:href="#DejaVuSans-4d"/>
      <use xlink:href="#DejaVuSans-56" transform="translate(86.279297 0)"/>
      <use xlink:href="#DejaVuSans-44" transform="translate(154.6875 0)"/>
     </g>
    </g>
    <g id="line2d_22">
     <path d="M 953.15875 79.010937 
L 963.15875 79.010937 
L 963.15875 79.010937 
L 973.15875 79.010937 
L 973.15875 79.010937 
" style="fill: none; stroke: #9467bd; stroke-width: 1.5; stroke-linecap: square"/>
    </g>
    <g id="text_18">
     <!-- MVFF -->
     <g transform="translate(981.15875 82.510937) scale(0.1 -0.1)">
      <use xlink:href="#DejaVuSans-4d"/>
      <use xlink:href="#DejaVuSans-56" transform="translate(86.279297 0)"/>
      <use xlink:href="#DejaVuSans-46" transform="translate(154.6875 0)"/>
      <use xlink:href="#DejaVuSans-46" transform="translate(212.207031 0)"/>
     </g>
    </g>
   </g>
  </g>
  <g id="axes_2">
   <g id="patch_8">
    <path d="M 46.965625 409.54 
L 1017.130625 409.54 
L 1017.130625 316.2 
L 46.965625 316.2 
z
" style="fill: #ffffff"/>
   </g>
   <g id="matplotlib.axis_3">
    <g id="xtick_7">
     <g id="line2d_23">
      <g>
       <use xlink:href="#m57893aeb0f" x="46.965625" y="409.54" style="stroke: #000000; stroke-width: 0.8"/>
      </g>
     </g>
     <g id="text_19">
      <!-- 0 -->
      <g transform="translate(43.784375 424.138438) scale(0.1 -0.1)">
       <use xlink:href="#DejaVuSans-30"/>
      </g>
     </g>
    </g>
    <g id="xtick_8">
     <g id="line2d_24">
      <g>
       <use xlink:href="#m57893aeb0f" x="240.998625" y="409.54" style="stroke: #000000; stroke-width: 0.8"/>
      </g>
     </g>
     <g id="text_20">
      <!-- 50 -->
      <g transform="translate(234.636125 424.138438) scale(0.1 -0.1)">
       <use xlink:href="#DejaVuSans-35"/>
       <use xlink:href="#DejaVuSans-30" transform="translate(63.623047 0)"/>
      </g>
     </g>
    </g>
    <g id="xtick_9">
     <g id="line2d_25">
      <g>
       <use xlink:href="#m57893aeb0f" x="435.031625" y="409.54" style="stroke: #000000; stroke-width: 0.8"/>
      </g>
     </g>
     <g id="text_21">
      <!-- 100 -->
      <g transform="translate(425.487875 424.138438) scale(0.1 -0.1)">
       <use xlink:href="#DejaVuSans-31"/>
       <use xlink:href="#DejaVuSans-30" transform="translate(63.623047 0)"/>
       <use xlink:href="#DejaVuSans-30" transform="translate(127.246094 0)"/>
      </g>
     </g>
    </g>
    <g id="xtick_10">
     <g id="line2d_26">
      <g>
       <use xlink:href="#m57893aeb0f" x="629.064625" y="409.54" style="stroke: #000000; stroke-width: 0.8"/>
      </g>
     </g>
     <g id="text_22">
      <!-- 150 -->
      <g transform="translate(619.520875 424.138438) scale(0.1 -0.1)">
       <use xlink:href="#DejaVuSans-31"/>
       <use xlink:href="#DejaVuSans-35" transform="translate(63.623047 0)"/>
       <use xlink:href="#DejaVuSans-30" transform="translate(127.246094 0)"/>
      </g>
     </g>
    </g>
    <g id="xtick_11">
     <g id="line2d_27">
      <g>
       <use xlink:href="#m57893aeb0f" x="823.097625" y="409.54" style="stroke: #000000; stroke-width: 0.8"/>
      </g>
     </g>
     <g id="text_23">
      <!-- 200 -->
      <g transform="translate(813.553875 424.138438) scale(0.1 -0.1)">
       <use xlink:href="#DejaVuSans-32"/>
       <use xlink:href="#DejaVuSans-30" transform="translate(63.623047 0)"/>
       <use xlink:href="#DejaVuSans-30" transform="translate(127.246094 0)"/>
      </g>
     </g>
    </g>
    <g id="xtick_12">
     <g id="line2d_28">
      <g>
       <use xlink:href="#m57893aeb0f" x="1017.130625" y="409.54" style="stroke: #000000; stroke-width: 0.8"/>
      </g>
     </g>
     <g id="text_24">
      <!-- 250 -->
      <g transform="translate(1007.586875 424.138438) scale(0.1 -0.1)">
       <use xlink:href="#DejaVuSans-32"/>
       <use xlink:href="#DejaVuSans-35" transform="translate(63.623047 0)"/>
       <use xlink:href="#DejaVuSans-30" transform="translate(127.246094 0)"/>
      </g>
     </g>
    </g>
   </g>
   <g id="matplotlib.axis_4">
    <g id="ytick_7">
     <g id="line2d_29">
      <g>
       <use xlink:href="#m2b94f47a16" x="46.965625" y="409.54" style="stroke: #000000; stroke-width: 0.8"/>
      </g>
     </g>
     <g id="text_25">
      <!-- 0 -->
      <g transform="translate(33.603125 413.339219) scale(0.1 -0.1)">
       <use xlink:href="#DejaVuSans-30"/>
      </g>
     </g>
    </g>
    <g id="ytick_8">
     <g id="line2d_30">
      <g>
       <use xlink:href="#m2b94f47a16" x="46.965625" y="386.205" style="stroke: #000000; stroke-width: 0.8"/>
      </g>
     </g>
     <g id="text_26">
      <!-- 25 -->
      <g transform="translate(27.240625 390.004219) scale(0.1 -0.1)">
       <use xlink:href="#DejaVuSans-32"/>
       <use xlink:href="#DejaVuSans-35" transform="translate(63.623047 0)"/>
      </g>
     </g>
    </g>
    <g id="ytick_9">
     <g id="line2d_31">
      <g>
       <use xlink:href="#m2b94f47a16" x="46.965625" y="362.87" style="stroke: #000000; stroke-width: 0.8"/>
      </g>
     </g>
     <g id="text_27">
      <!-- 50 -->
      <g transform="translate(27.240625 366.669219) scale(0.1 -0.1)">
       <use xlink:href="#DejaVuSans-35"/>
       <use xlink:href="#DejaVuSans-30" transform="translate(63.623047 0)"/>
      </g>
     </g>
    </g>
    <g id="ytick_10">
     <g id="line2d_32">
      <g>
       <use xlink:href="#m2b94f47a16" x="46.965625" y="339.535" style="stroke: #000000; stroke-width: 0.8"/>
      </g>
     </g>
     <g id="text_28">
      <!-- 75 -->
      <g transform="translate(27.240625 343.334219) scale(0.1 -0.1)">
       <defs>
        <path id="DejaVuSans-37" d="M 525 4666 
L 3525 4666 
L 3525 4397 
L 1831 0 
L 1172 0 
L 2766 4134 
L 525 4134 
L 525 4666 
z
" transform="scale(0.015625)"/>
       </defs>
       <use xlink:href="#DejaVuSans-37"/>
       <use xlink:href="#DejaVuSans-35" transform="translate(63.623047 0)"/>
      </g>
     </g>
    </g>
    <g id="ytick_11">
     <g id="line2d_33">
      <g>
       <use xlink:href="#m2b94f47a16" x="46.965625" y="316.2" style="stroke: #000000; stroke-width: 0.8"/>
      </g>
     </g>
     <g id="text_29">
      <!-- 100 -->
      <g transform="translate(20.878125 319.999219) scale(0.1 -0.1)">
       <use xlink:href="#DejaVuSans-31"/>
       <use xlink:href="#DejaVuSans-30" transform="translate(63.623047 0)"/>
       <use xlink:href="#DejaVuSans-30" transform="translate(127.246094 0)"/>
      </g>
     </g>
    </g>
    <g id="text_30">
     <!-- Value of SP, PV, E [°C] -->
     <g transform="translate(14.798438 418.220781) rotate(-90) scale(0.1 -0.1)">
      <defs>
       <path id="DejaVuSans-53" d="M 3425 4513 
L 3425 3897 
Q 3066 4069 2747 4153 
Q 2428 4238 2131 4238 
Q 1616 4238 1336 4038 
Q 1056 3838 1056 3469 
Q 1056 3159 1242 3001 
Q 1428 2844 1947 2747 
L 2328 2669 
Q 3034 2534 3370 2195 
Q 3706 1856 3706 1288 
Q 3706 609 3251 259 
Q 2797 -91 1919 -91 
Q 1588 -91 1214 -16 
Q 841 59 441 206 
L 441 856 
Q 825 641 1194 531 
Q 1563 422 1919 422 
Q 2459 422 2753 634 
Q 3047 847 3047 1241 
Q 3047 1584 2836 1778 
Q 2625 1972 2144 2069 
L 1759 2144 
Q 1053 2284 737 2584 
Q 422 2884 422 3419 
Q 422 4038 858 4394 
Q 1294 4750 2059 4750 
Q 2388 4750 2728 4690 
Q 3069 4631 3425 4513 
z
" transform="scale(0.015625)"/>
       <path id="DejaVuSans-45" d="M 628 4666 
L 3578 4666 
L 3578 4134 
L 1259 4134 
L 1259 2753 
L 3481 2753 
L 3481 2222 
L 1259 2222 
L 1259 531 
L 3634 531 
L 3634 0 
L 628 0 
L 628 4666 
z
" transform="scale(0.015625)"/>
       <path id="DejaVuSans-b0" d="M 1600 4347 
Q 1350 4347 1178 4173 
Q 1006 4000 1006 3750 
Q 1006 3503 1178 3333 
Q 1350 3163 1600 3163 
Q 1850 3163 2022 3333 
Q 2194 3503 2194 3750 
Q 2194 3997 2020 4172 
Q 1847 4347 1600 4347 
z
M 1600 4750 
Q 1800 4750 1984 4673 
Q 2169 4597 2303 4453 
Q 2447 4313 2519 4134 
Q 2591 3956 2591 3750 
Q 2591 3338 2302 3052 
Q 2013 2766 1594 2766 
Q 1172 2766 890 3047 
Q 609 3328 609 3750 
Q 609 4169 896 4459 
Q 1184 4750 1600 4750 
z
" transform="scale(0.015625)"/>
       <path id="DejaVuSans-43" d="M 4122 4306 
L 4122 3641 
Q 3803 3938 3442 4084 
Q 3081 4231 2675 4231 
Q 1875 4231 1450 3742 
Q 1025 3253 1025 2328 
Q 1025 1406 1450 917 
Q 1875 428 2675 428 
Q 3081 428 3442 575 
Q 3803 722 4122 1019 
L 4122 359 
Q 3791 134 3420 21 
Q 3050 -91 2638 -91 
Q 1578 -91 968 557 
Q 359 1206 359 2328 
Q 359 3453 968 4101 
Q 1578 4750 2638 4750 
Q 3056 4750 3426 4639 
Q 3797 4528 4122 4306 
z
" transform="scale(0.015625)"/>
      </defs>
      <use xlink:href="#DejaVuSans-56"/>
      <use xlink:href="#DejaVuSans-61" transform="translate(60.658203 0)"/>
      <use xlink:href="#DejaVuSans-6c" transform="translate(121.9375 0)"/>
      <use xlink:href="#DejaVuSans-75" transform="translate(149.720703 0)"/>
      <use xlink:href="#DejaVuSans-65" transform="translate(213.099609 0)"/>
      <use xlink:href="#DejaVuSans-20" transform="translate(274.623047 0)"/>
      <use xlink:href="#DejaVuSans-6f" transform="translate(306.410156 0)"/>
      <use xlink:href="#DejaVuSans-66" transform="translate(367.591797 0)"/>
      <use xlink:href="#DejaVuSans-20" transform="translate(402.796875 0)"/>
      <use xlink:href="#DejaVuSans-53" transform="translate(434.583984 0)"/>
      <use xlink:href="#DejaVuSans-50" transform="translate(498.060547 0)"/>
      <use xlink:href="#DejaVuSans-2c" transform="translate(558.363281 0)"/>
      <use xlink:href="#DejaVuSans-20" transform="translate(590.150391 0)"/>
      <use xlink:href="#DejaVuSans-50" transform="translate(621.9375 0)"/>
      <use xlink:href="#DejaVuSans-56" transform="translate(682.240234 0)"/>
      <use xlink:href="#DejaVuSans-2c" transform="translate(750.648438 0)"/>
      <use xlink:href="#DejaVuSans-20" transform="translate(782.435547 0)"/>
      <use xlink:href="#DejaVuSans-45" transform="translate(814.222656 0)"/>
      <use xlink:href="#DejaVuSans-20" transform="translate(877.40625 0)"/>
      <use xlink:href="#DejaVuSans-5b" transform="translate(909.193359 0)"/>
      <use xlink:href="#DejaVuSans-b0" transform="translate(948.207031 0)"/>
      <use xlink:href="#DejaVuSans-43" transform="translate(998.207031 0)"/>
      <use xlink:href="#DejaVuSans-5d" transform="translate(1068.03125 0)"/>
     </g>
    </g>
   </g>
   <g id="line2d_34">
    <path d="M 46.965625 362.87 
L 66.368925 362.87 
L 66.368925 353.536 
L 1017.130625 353.536 
L 1017.130625 353.536 
" clip-path="url(#p9a2cb2866b)" style="fill: none; stroke: #1f77b4; stroke-width: 1.5; stroke-linecap: square"/>
   </g>
   <g id="line2d_35">
    <path d="M 46.965625 362.87 
L 1017.130625 362.87 
L 1017.130625 362.87 
" clip-path="url(#p9a2cb2866b)" style="fill: none; stroke: #ff7f0e; stroke-width: 1.5; stroke-linecap: square"/>
   </g>
   <g id="line2d_36">
    <path d="M 46.965625 409.54 
L 66.368925 409.54 
L 66.368925 400.206 
L 1017.130625 400.206 
L 1017.130625 400.206 
" clip-path="url(#p9a2cb2866b)" style="fill: none; stroke: #000000; stroke-width: 1.5; stroke-linecap: square"/>
   </g>
   <g id="patch_9">
    <path d="M 46.965625 409.54 
L 46.965625 316.2 
" style="fill: none; stroke: #000000; stroke-width: 0.8; stroke-linejoin: miter; stroke-linecap: square"/>
   </g>
   <g id="patch_10">
    <path d="M 1017.130625 409.54 
L 1017.130625 316.2 
" style="fill: none; stroke: #000000; stroke-width: 0.8; stroke-linejoin: miter; stroke-linecap: square"/>
   </g>
   <g id="patch_11">
    <path d="M 46.965625 409.54 
L 1017.130625 409.54 
" style="fill: none; stroke: #000000; stroke-width: 0.8; stroke-linejoin: miter; stroke-linecap: square"/>
   </g>
   <g id="patch_12">
    <path d="M 46.965625 316.2 
L 1017.130625 316.2 
" style="fill: none; stroke: #000000; stroke-width: 0.8; stroke-linejoin: miter; stroke-linecap: square"/>
   </g>
   <g id="legend_2">
    <g id="patch_13">
     <path d="M 965.260313 386.387187 
L 1010.130625 386.387187 
Q 1012.130625 386.387187 1012.130625 384.387187 
L 1012.130625 341.352812 
Q 1012.130625 339.352812 1010.130625 339.352812 
L 965.260313 339.352812 
Q 963.260313 339.352812 963.260313 341.352812 
L 963.260313 384.387187 
Q 963.260313 386.387187 965.260313 386.387187 
z
" style="fill: #ffffff; opacity: 0.8; stroke: #cccccc; stroke-linejoin: miter"/>
    </g>
    <g id="line2d_37">
     <path d="M 967.260313 347.45125 
L 977.260313 347.45125 
L 977.260313 347.45125 
L 987.260313 347.45125 
L 987.260313 347.45125 
" style="fill: none; stroke: #1f77b4; stroke-width: 1.5; stroke-linecap: square"/>
    </g>
    <g id="text_31">
     <!-- SP -->
     <g transform="translate(995.260313 350.95125) scale(0.1 -0.1)">
      <use xlink:href="#DejaVuSans-53"/>
      <use xlink:href="#DejaVuSans-50" transform="translate(63.476562 0)"/>
     </g>
    </g>
    <g id="line2d_38">
     <path d="M 967.260313 362.129375 
L 977.260313 362.129375 
L 977.260313 362.129375 
L 987.260313 362.129375 
L 987.260313 362.129375 
" style="fill: none; stroke: #ff7f0e; stroke-width: 1.5; stroke-linecap: square"/>
    </g>
    <g id="text_32">
     <!-- PV -->
     <g transform="translate(995.260313 365.629375) scale(0.1 -0.1)">
      <use xlink:href="#DejaVuSans-50"/>
      <use xlink:href="#DejaVuSans-56" transform="translate(60.302734 0)"/>
     </g>
    </g>
    <g id="line2d_39">
     <path d="M 967.260313 376.8075 
L 977.260313 376.8075 
L 977.260313 376.8075 
L 987.260313 376.8075 
L 987.260313 376.8075 
" style="fill: none; stroke: #000000; stroke-width: 1.5; stroke-linecap: square"/>
    </g>
    <g id="text_33">
     <!-- E -->
     <g transform="translate(995.260313 380.3075) scale(0.1 -0.1)">
      <use xlink:href="#DejaVuSans-45"/>
     </g>
    </g>
   </g>
  </g>
  <g id="axes_3">
   <g id="patch_14">
    <path d="M 46.965625 486.79 
L 1017.130625 486.79 
L 1017.130625 470.7 
L 46.965625 470.7 
z
" style="fill: #ffffff"/>
   </g>
   <g id="matplotlib.axis_5">
    <g id="xtick_13">
     <g id="line2d_40">
      <g>
       <use xlink:href="#m57893aeb0f" x="46.965625" y="486.79" style="stroke: #000000; stroke-width: 0.8"/>
      </g>
     </g>
     <g id="text_34">
      <!-- 0 -->
      <g transform="translate(43.784375 501.388438) scale(0.1 -0.1)">
       <use xlink:href="#DejaVuSans-30"/>
      </g>
     </g>
    </g>
    <g id="xtick_14">
     <g id="line2d_41">
      <g>
       <use xlink:href="#m57893aeb0f" x="240.998625" y="486.79" style="stroke: #000000; stroke-width: 0.8"/>
      </g>
     </g>
     <g id="text_35">
      <!-- 50 -->
      <g transform="translate(234.636125 501.388438) scale(0.1 -0.1)">
       <use xlink:href="#DejaVuSans-35"/>
       <use xlink:href="#DejaVuSans-30" transform="translate(63.623047 0)"/>
      </g>
     </g>
    </g>
    <g id="xtick_15">
     <g id="line2d_42">
      <g>
       <use xlink:href="#m57893aeb0f" x="435.031625" y="486.79" style="stroke: #000000; stroke-width: 0.8"/>
      </g>
     </g>
     <g id="text_36">
      <!-- 100 -->
      <g transform="translate(425.487875 501.388438) scale(0.1 -0.1)">
       <use xlink:href="#DejaVuSans-31"/>
       <use xlink:href="#DejaVuSans-30" transform="translate(63.623047 0)"/>
       <use xlink:href="#DejaVuSans-30" transform="translate(127.246094 0)"/>
      </g>
     </g>
    </g>
    <g id="xtick_16">
     <g id="line2d_43">
      <g>
       <use xlink:href="#m57893aeb0f" x="629.064625" y="486.79" style="stroke: #000000; stroke-width: 0.8"/>
      </g>
     </g>
     <g id="text_37">
      <!-- 150 -->
      <g transform="translate(619.520875 501.388438) scale(0.1 -0.1)">
       <use xlink:href="#DejaVuSans-31"/>
       <use xlink:href="#DejaVuSans-35" transform="translate(63.623047 0)"/>
       <use xlink:href="#DejaVuSans-30" transform="translate(127.246094 0)"/>
      </g>
     </g>
    </g>
    <g id="xtick_17">
     <g id="line2d_44">
      <g>
       <use xlink:href="#m57893aeb0f" x="823.097625" y="486.79" style="stroke: #000000; stroke-width: 0.8"/>
      </g>
     </g>
     <g id="text_38">
      <!-- 200 -->
      <g transform="translate(813.553875 501.388438) scale(0.1 -0.1)">
       <use xlink:href="#DejaVuSans-32"/>
       <use xlink:href="#DejaVuSans-30" transform="translate(63.623047 0)"/>
       <use xlink:href="#DejaVuSans-30" transform="translate(127.246094 0)"/>
      </g>
     </g>
    </g>
    <g id="xtick_18">
     <g id="line2d_45">
      <g>
       <use xlink:href="#m57893aeb0f" x="1017.130625" y="486.79" style="stroke: #000000; stroke-width: 0.8"/>
      </g>
     </g>
     <g id="text_39">
      <!-- 250 -->
      <g transform="translate(1007.586875 501.388438) scale(0.1 -0.1)">
       <use xlink:href="#DejaVuSans-32"/>
       <use xlink:href="#DejaVuSans-35" transform="translate(63.623047 0)"/>
       <use xlink:href="#DejaVuSans-30" transform="translate(127.246094 0)"/>
      </g>
     </g>
    </g>
    <g id="text_40">
     <!-- Time [s] -->
     <g transform="translate(511.719219 515.066563) scale(0.1 -0.1)">
      <defs>
       <path id="DejaVuSans-54" d="M -19 4666 
L 3928 4666 
L 3928 4134 
L 2272 4134 
L 2272 0 
L 1638 0 
L 1638 4134 
L -19 4134 
L -19 4666 
z
" transform="scale(0.015625)"/>
       <path id="DejaVuSans-69" d="M 603 3500 
L 1178 3500 
L 1178 0 
L 603 0 
L 603 3500 
z
M 603 4863 
L 1178 4863 
L 1178 4134 
L 603 4134 
L 603 4863 
z
" transform="scale(0.015625)"/>
       <path id="DejaVuSans-6d" d="M 3328 2828 
Q 3544 3216 3844 3400 
Q 4144 3584 4550 3584 
Q 5097 3584 5394 3201 
Q 5691 2819 5691 2113 
L 5691 0 
L 5113 0 
L 5113 2094 
Q 5113 2597 4934 2840 
Q 4756 3084 4391 3084 
Q 3944 3084 3684 2787 
Q 3425 2491 3425 1978 
L 3425 0 
L 2847 0 
L 2847 2094 
Q 2847 2600 2669 2842 
Q 2491 3084 2119 3084 
Q 1678 3084 1418 2786 
Q 1159 2488 1159 1978 
L 1159 0 
L 581 0 
L 581 3500 
L 1159 3500 
L 1159 2956 
Q 1356 3278 1631 3431 
Q 1906 3584 2284 3584 
Q 2666 3584 2933 3390 
Q 3200 3197 3328 2828 
z
" transform="scale(0.015625)"/>
       <path id="DejaVuSans-73" d="M 2834 3397 
L 2834 2853 
Q 2591 2978 2328 3040 
Q 2066 3103 1784 3103 
Q 1356 3103 1142 2972 
Q 928 2841 928 2578 
Q 928 2378 1081 2264 
Q 1234 2150 1697 2047 
L 1894 2003 
Q 2506 1872 2764 1633 
Q 3022 1394 3022 966 
Q 3022 478 2636 193 
Q 2250 -91 1575 -91 
Q 1294 -91 989 -36 
Q 684 19 347 128 
L 347 722 
Q 666 556 975 473 
Q 1284 391 1588 391 
Q 1994 391 2212 530 
Q 2431 669 2431 922 
Q 2431 1156 2273 1281 
Q 2116 1406 1581 1522 
L 1381 1569 
Q 847 1681 609 1914 
Q 372 2147 372 2553 
Q 372 3047 722 3315 
Q 1072 3584 1716 3584 
Q 2034 3584 2315 3537 
Q 2597 3491 2834 3397 
z
" transform="scale(0.015625)"/>
      </defs>
      <use xlink:href="#DejaVuSans-54"/>
      <use xlink:href="#DejaVuSans-69" transform="translate(57.958984 0)"/>
      <use xlink:href="#DejaVuSans-6d" transform="translate(85.742188 0)"/>
      <use xlink:href="#DejaVuSans-65" transform="translate(183.154297 0)"/>
      <use xlink:href="#DejaVuSans-20" transform="translate(244.677734 0)"/>
      <use xlink:href="#DejaVuSans-5b" transform="translate(276.464844 0)"/>
      <use xlink:href="#DejaVuSans-73" transform="translate(315.478516 0)"/>
      <use xlink:href="#DejaVuSans-5d" transform="translate(367.578125 0)"/>
     </g>
    </g>
   </g>
   <g id="matplotlib.axis_6">
    <g id="ytick_12">
     <g id="line2d_46">
      <g>
       <use xlink:href="#m2b94f47a16" x="46.965625" y="485.449167" style="stroke: #000000; stroke-width: 0.8"/>
      </g>
     </g>
     <g id="text_41">
      <!-- 0 -->
      <g transform="translate(33.603125 489.248385) scale(0.1 -0.1)">
       <use xlink:href="#DejaVuSans-30"/>
      </g>
     </g>
    </g>
    <g id="ytick_13">
     <g id="line2d_47">
      <g>
       <use xlink:href="#m2b94f47a16" x="46.965625" y="472.040833" style="stroke: #000000; stroke-width: 0.8"/>
      </g>
     </g>
     <g id="text_42">
      <!-- 1 -->
      <g transform="translate(33.603125 475.840052) scale(0.1 -0.1)">
       <use xlink:href="#DejaVuSans-31"/>
      </g>
     </g>
    </g>
    <g id="text_43">
     <!-- Value of Man -->
     <g transform="translate(27.523438 511.020781) rotate(-90) scale(0.1 -0.1)">
      <defs>
       <path id="DejaVuSans-6e" d="M 3513 2113 
L 3513 0 
L 2938 0 
L 2938 2094 
Q 2938 2591 2744 2837 
Q 2550 3084 2163 3084 
Q 1697 3084 1428 2787 
Q 1159 2491 1159 1978 
L 1159 0 
L 581 0 
L 581 3500 
L 1159 3500 
L 1159 2956 
Q 1366 3272 1645 3428 
Q 1925 3584 2291 3584 
Q 2894 3584 3203 3211 
Q 3513 2838 3513 2113 
z
" transform="scale(0.015625)"/>
      </defs>
      <use xlink:href="#DejaVuSans-56"/>
      <use xlink:href="#DejaVuSans-61" transform="translate(60.658203 0)"/>
      <use xlink:href="#DejaVuSans-6c" transform="translate(121.9375 0)"/>
      <use xlink:href="#DejaVuSans-75" transform="translate(149.720703 0)"/>
      <use xlink:href="#DejaVuSans-65" transform="translate(213.099609 0)"/>
      <use xlink:href="#DejaVuSans-20" transform="translate(274.623047 0)"/>
      <use xlink:href="#DejaVuSans-6f" transform="translate(306.410156 0)"/>
      <use xlink:href="#DejaVuSans-66" transform="translate(367.591797 0)"/>
      <use xlink:href="#DejaVuSans-20" transform="translate(402.796875 0)"/>
      <use xlink:href="#DejaVuSans-4d" transform="translate(434.583984 0)"/>
      <use xlink:href="#DejaVuSans-61" transform="translate(520.863281 0)"/>
      <use xlink:href="#DejaVuSans-6e" transform="translate(582.142578 0)"/>
     </g>
    </g>
   </g>
   <g id="line2d_48">
    <path d="M 46.965625 485.449167 
L 435.031625 485.449167 
L 435.031625 472.040833 
L 512.644825 472.040833 
L 512.644825 485.449167 
L 823.097625 485.449167 
L 823.097625 472.040833 
L 1017.130625 472.040833 
L 1017.130625 485.449167 
L 1017.130625 485.449167 
" clip-path="url(#p12051c9e15)" style="fill: none; stroke: #ff0000; stroke-width: 1.5; stroke-linecap: square"/>
   </g>
   <g id="patch_15">
    <path d="M 46.965625 486.79 
L 46.965625 470.7 
" style="fill: none; stroke: #000000; stroke-width: 0.8; stroke-linejoin: miter; stroke-linecap: square"/>
   </g>
   <g id="patch_16">
    <path d="M 1017.130625 486.79 
L 1017.130625 470.7 
" style="fill: none; stroke: #000000; stroke-width: 0.8; stroke-linejoin: miter; stroke-linecap: square"/>
   </g>
   <g id="patch_17">
    <path d="M 46.965625 486.79 
L 1017.130625 486.79 
" style="fill: none; stroke: #000000; stroke-width: 0.8; stroke-linejoin: miter; stroke-linecap: square"/>
   </g>
   <g id="patch_18">
    <path d="M 46.965625 470.7 
L 1017.130625 470.7 
" style="fill: none; stroke: #000000; stroke-width: 0.8; stroke-linejoin: miter; stroke-linecap: square"/>
   </g>
   <g id="legend_3">
    <g id="patch_19">
     <path d="M 957.036875 493.378125 
L 1010.130625 493.378125 
Q 1012.130625 493.378125 1012.130625 491.378125 
L 1012.130625 477.7 
Q 1012.130625 475.7 1010.130625 475.7 
L 957.036875 475.7 
Q 955.036875 475.7 955.036875 477.7 
L 955.036875 491.378125 
Q 955.036875 493.378125 957.036875 493.378125 
z
" style="fill: #ffffff; opacity: 0.8; stroke: #cccccc; stroke-linejoin: miter"/>
    </g>
    <g id="line2d_49">
     <path d="M 959.036875 483.798437 
L 969.036875 483.798437 
L 969.036875 483.798437 
L 979.036875 483.798437 
L 979.036875 483.798437 
" style="fill: none; stroke: #ff0000; stroke-width: 1.5; stroke-linecap: square"/>
    </g>
    <g id="text_44">
     <!-- Man -->
     <g transform="translate(987.036875 487.298437) scale(0.1 -0.1)">
      <use xlink:href="#DejaVuSans-4d"/>
      <use xlink:href="#DejaVuSans-61" transform="translate(86.279297 0)"/>
      <use xlink:href="#DejaVuSans-6e" transform="translate(147.558594 0)"/>
     </g>
    </g>
   </g>
  </g>
  <g id="axes_4">
   <g id="patch_20">
    <path d="M 46.965625 564.04 
L 1017.130625 564.04 
L 1017.130625 547.95 
L 46.965625 547.95 
z
" style="fill: #ffffff"/>
   </g>
   <g id="matplotlib.axis_7">
    <g id="xtick_19">
     <g id="line2d_50">
      <g>
       <use xlink:href="#m57893aeb0f" x="46.965625" y="564.04" style="stroke: #000000; stroke-width: 0.8"/>
      </g>
     </g>
     <g id="text_45">
      <!-- 0 -->
      <g transform="translate(43.784375 578.638438) scale(0.1 -0.1)">
       <use xlink:href="#DejaVuSans-30"/>
      </g>
     </g>
    </g>
    <g id="xtick_20">
     <g id="line2d_51">
      <g>
       <use xlink:href="#m57893aeb0f" x="240.998625" y="564.04" style="stroke: #000000; stroke-width: 0.8"/>
      </g>
     </g>
     <g id="text_46">
      <!-- 50 -->
      <g transform="translate(234.636125 578.638438) scale(0.1 -0.1)">
       <use xlink:href="#DejaVuSans-35"/>
       <use xlink:href="#DejaVuSans-30" transform="translate(63.623047 0)"/>
      </g>
     </g>
    </g>
    <g id="xtick_21">
     <g id="line2d_52">
      <g>
       <use xlink:href="#m57893aeb0f" x="435.031625" y="564.04" style="stroke: #000000; stroke-width: 0.8"/>
      </g>
     </g>
     <g id="text_47">
      <!-- 100 -->
      <g transform="translate(425.487875 578.638438) scale(0.1 -0.1)">
       <use xlink:href="#DejaVuSans-31"/>
       <use xlink:href="#DejaVuSans-30" transform="translate(63.623047 0)"/>
       <use xlink:href="#DejaVuSans-30" transform="translate(127.246094 0)"/>
      </g>
     </g>
    </g>
    <g id="xtick_22">
     <g id="line2d_53">
      <g>
       <use xlink:href="#m57893aeb0f" x="629.064625" y="564.04" style="stroke: #000000; stroke-width: 0.8"/>
      </g>
     </g>
     <g id="text_48">
      <!-- 150 -->
      <g transform="translate(619.520875 578.638438) scale(0.1 -0.1)">
       <use xlink:href="#DejaVuSans-31"/>
       <use xlink:href="#DejaVuSans-35" transform="translate(63.623047 0)"/>
       <use xlink:href="#DejaVuSans-30" transform="translate(127.246094 0)"/>
      </g>
     </g>
    </g>
    <g id="xtick_23">
     <g id="line2d_54">
      <g>
       <use xlink:href="#m57893aeb0f" x="823.097625" y="564.04" style="stroke: #000000; stroke-width: 0.8"/>
      </g>
     </g>
     <g id="text_49">
      <!-- 200 -->
      <g transform="translate(813.553875 578.638438) scale(0.1 -0.1)">
       <use xlink:href="#DejaVuSans-32"/>
       <use xlink:href="#DejaVuSans-30" transform="translate(63.623047 0)"/>
       <use xlink:href="#DejaVuSans-30" transform="translate(127.246094 0)"/>
      </g>
     </g>
    </g>
    <g id="xtick_24">
     <g id="line2d_55">
      <g>
       <use xlink:href="#m57893aeb0f" x="1017.130625" y="564.04" style="stroke: #000000; stroke-width: 0.8"/>
      </g>
     </g>
     <g id="text_50">
      <!-- 250 -->
      <g transform="translate(1007.586875 578.638438) scale(0.1 -0.1)">
       <use xlink:href="#DejaVuSans-32"/>
       <use xlink:href="#DejaVuSans-35" transform="translate(63.623047 0)"/>
       <use xlink:href="#DejaVuSans-30" transform="translate(127.246094 0)"/>
      </g>
     </g>
    </g>
    <g id="text_51">
     <!-- Time [s] -->
     <g transform="translate(511.719219 592.316563) scale(0.1 -0.1)">
      <use xlink:href="#DejaVuSans-54"/>
      <use xlink:href="#DejaVuSans-69" transform="translate(57.958984 0)"/>
      <use xlink:href="#DejaVuSans-6d" transform="translate(85.742188 0)"/>
      <use xlink:href="#DejaVuSans-65" transform="translate(183.154297 0)"/>
      <use xlink:href="#DejaVuSans-20" transform="translate(244.677734 0)"/>
      <use xlink:href="#DejaVuSans-5b" transform="translate(276.464844 0)"/>
      <use xlink:href="#DejaVuSans-73" transform="translate(315.478516 0)"/>
      <use xlink:href="#DejaVuSans-5d" transform="translate(367.578125 0)"/>
     </g>
    </g>
   </g>
   <g id="matplotlib.axis_8">
    <g id="ytick_14">
     <g id="line2d_56">
      <g>
       <use xlink:href="#m2b94f47a16" x="46.965625" y="562.699167" style="stroke: #000000; stroke-width: 0.8"/>
      </g>
     </g>
     <g id="text_52">
      <!-- 0 -->
      <g transform="translate(33.603125 566.498385) scale(0.1 -0.1)">
       <use xlink:href="#DejaVuSans-30"/>
      </g>
     </g>
    </g>
    <g id="ytick_15">
     <g id="line2d_57">
      <g>
       <use xlink:href="#m2b94f47a16" x="46.965625" y="549.290833" style="stroke: #000000; stroke-width: 0.8"/>
      </g>
     </g>
     <g id="text_53">
      <!-- 1 -->
      <g transform="translate(33.603125 553.090052) scale(0.1 -0.1)">
       <use xlink:href="#DejaVuSans-31"/>
      </g>
     </g>
    </g>
    <g id="text_54">
     <!-- Value of Man FF  -->
     <g transform="translate(27.523438 597.200469) rotate(-90) scale(0.1 -0.1)">
      <use xlink:href="#DejaVuSans-56"/>
      <use xlink:href="#DejaVuSans-61" transform="translate(60.658203 0)"/>
      <use xlink:href="#DejaVuSans-6c" transform="translate(121.9375 0)"/>
      <use xlink:href="#DejaVuSans-75" transform="translate(149.720703 0)"/>
      <use xlink:href="#DejaVuSans-65" transform="translate(213.099609 0)"/>
      <use xlink:href="#DejaVuSans-20" transform="translate(274.623047 0)"/>
      <use xlink:href="#DejaVuSans-6f" transform="translate(306.410156 0)"/>
      <use xlink:href="#DejaVuSans-66" transform="translate(367.591797 0)"/>
      <use xlink:href="#DejaVuSans-20" transform="translate(402.796875 0)"/>
      <use xlink:href="#DejaVuSans-4d" transform="translate(434.583984 0)"/>
      <use xlink:href="#DejaVuSans-61" transform="translate(520.863281 0)"/>
      <use xlink:href="#DejaVuSans-6e" transform="translate(582.142578 0)"/>
      <use xlink:href="#DejaVuSans-20" transform="translate(645.521484 0)"/>
      <use xlink:href="#DejaVuSans-46" transform="translate(677.308594 0)"/>
      <use xlink:href="#DejaVuSans-46" transform="translate(734.828125 0)"/>
      <use xlink:href="#DejaVuSans-20" transform="translate(792.347656 0)"/>
     </g>
    </g>
   </g>
   <g id="line2d_58">
    <path d="M 46.965625 562.699167 
L 861.904225 562.699167 
L 861.904225 549.290833 
L 939.517425 549.290833 
L 939.517425 562.699167 
L 1017.130625 562.699167 
L 1017.130625 562.699167 
" clip-path="url(#p7ca9dfa38e)" style="fill: none; stroke: #ff0000; stroke-width: 1.5; stroke-linecap: square"/>
   </g>
   <g id="patch_21">
    <path d="M 46.965625 564.04 
L 46.965625 547.95 
" style="fill: none; stroke: #000000; stroke-width: 0.8; stroke-linejoin: miter; stroke-linecap: square"/>
   </g>
   <g id="patch_22">
    <path d="M 1017.130625 564.04 
L 1017.130625 547.95 
" style="fill: none; stroke: #000000; stroke-width: 0.8; stroke-linejoin: miter; stroke-linecap: square"/>
   </g>
   <g id="patch_23">
    <path d="M 46.965625 564.04 
L 1017.130625 564.04 
" style="fill: none; stroke: #000000; stroke-width: 0.8; stroke-linejoin: miter; stroke-linecap: square"/>
   </g>
   <g id="patch_24">
    <path d="M 46.965625 547.95 
L 1017.130625 547.95 
" style="fill: none; stroke: #000000; stroke-width: 0.8; stroke-linejoin: miter; stroke-linecap: square"/>
   </g>
   <g id="legend_4">
    <g id="patch_25">
     <path d="M 53.965625 559.04 
L 118.5625 559.04 
Q 120.5625 559.04 120.5625 557.04 
L 120.5625 543.361875 
Q 120.5625 541.361875 118.5625 541.361875 
L 53.965625 541.361875 
Q 51.965625 541.361875 51.965625 543.361875 
L 51.965625 557.04 
Q 51.965625 559.04 53.965625 559.04 
z
" style="fill: #ffffff; opacity: 0.8; stroke: #cccccc; stroke-linejoin: miter"/>
    </g>
    <g id="line2d_59">
     <path d="M 55.965625 549.460313 
L 65.965625 549.460313 
L 65.965625 549.460313 
L 75.965625 549.460313 
L 75.965625 549.460313 
" style="fill: none; stroke: #ff0000; stroke-width: 1.5; stroke-linecap: square"/>
    </g>
    <g id="text_55">
     <!-- ManFF -->
     <g transform="translate(83.965625 552.960313) scale(0.1 -0.1)">
      <use xlink:href="#DejaVuSans-4d"/>
      <use xlink:href="#DejaVuSans-61" transform="translate(86.279297 0)"/>
      <use xlink:href="#DejaVuSans-6e" transform="translate(147.558594 0)"/>
      <use xlink:href="#DejaVuSans-46" transform="translate(210.9375 0)"/>
      <use xlink:href="#DejaVuSans-46" transform="translate(268.457031 0)"/>
     </g>
    </g>
   </g>
  </g>
 </g>
 <defs>
  <clipPath id="pa599ecc987">
   <rect x="46.965625" y="7.2" width="970.165" height="247.84"/>
  </clipPath>
  <clipPath id="p9a2cb2866b">
   <rect x="46.965625" y="316.2" width="970.165" height="93.34"/>
  </clipPath>
  <clipPath id="p12051c9e15">
   <rect x="46.965625" y="470.7" width="970.165" height="16.09"/>
  </clipPath>
  <clipPath id="p7ca9dfa38e">
   <rect x="46.965625" y="547.95" width="970.165" height="16.09"/>
  </clipPath>
 </defs>
</svg>
