<?xml version="1.0" encoding="utf-8" standalone="no"?>
<!DOCTYPE svg PUBLIC "-//W3C//DTD SVG 1.1//EN"
  "http://www.w3.org/Graphics/SVG/1.1/DTD/svg11.dtd">
<svg xmlns:xlink="http://www.w3.org/1999/xlink" width="735.323437pt" height="488.27625pt" viewBox="0 0 735.323437 488.27625" xmlns="http://www.w3.org/2000/svg" version="1.1">
 <metadata>
  <rdf:RDF xmlns:dc="http://purl.org/dc/elements/1.1/" xmlns:cc="http://creativecommons.org/ns#" xmlns:rdf="http://www.w3.org/1999/02/22-rdf-syntax-ns#">
   <cc:Work>
    <dc:type rdf:resource="http://purl.org/dc/dcmitype/StillImage"/>
    <dc:date>2026-04-01T16:48:13.160170</dc:date>
    <dc:format>image/svg+xml</dc:format>
    <dc:creator>
     <cc:Agent>
      <dc:title>Matplotlib v3.10.6, https://matplotlib.org/</dc:title>
     </cc:Agent>
    </dc:creator>
   </cc:Work>
  </rdf:RDF>
 </metadata>
 <defs>
  <style type="text/css">*{stroke-linejoin: round; stroke-linecap: butt}</style>
 </defs>
 <g id="figure_1">
  <g id="patch_1">
   <path d="M 0 488.27625 
L 735.323437 488.27625 
L 735.323437 0 
L 0 0 
z
" style="fill: #ffffff"/>
  </g>
  <g id="axes_1">
   <g id="patch_2">
    <path d="M 58.523438 450.72 
L 728.123438 450.72 
L 728.123438 7.2 
L 58.523438 7.2 
z
" style="fill: #ffffff"/>
   </g>
   <g id="matplotlib.axis_1">
    <g id="xtick_1">
     <g id="line2d_1">
      <path d="M 58.523438 450.72 
L 58.523438 7.2 
" clip-path="url(#p6c5568386b)" style="fill: none; stroke: #b0b0b0; stroke-width: 0.8; stroke-linecap: square"/>
     </g>
     <g id="line2d_2">
      <defs>
       <path id="m76b6bc4124" d="M 0 0 
L 0 3.5 
" style="stroke: #000000; stroke-width: 0.8"/>
      </defs>
      <g>
       <use xlink:href="#m76b6bc4124" x="58.523438" y="450.72" style="stroke: #000000; stroke-width: 0.8"/>
      </g>
     </g>
     <g id="text_1">
      <!-- 0 -->
      <g transform="translate(55.342188 465.318437) scale(0.1 -0.1)">
       <defs>
        <path id="DejaVuSans-30" d="M 2034 4250 
Q 1547 4250 1301 3770 
Q 1056 3291 1056 2328 
Q 1056 1369 1301 889 
Q 1547 409 2034 409 
Q 2525 409 2770 889 
Q 3016 1369 3016 2328 
Q 3016 3291 2770 3770 
Q 2525 4250 2034 4250 
z
M 2034 4750 
Q 2819 4750 3233 4129 
Q 3647 3509 3647 2328 
Q 3647 1150 3233 529 
Q 2819 -91 2034 -91 
Q 1250 -91 836 529 
Q 422 1150 422 2328 
Q 422 3509 836 4129 
Q 1250 4750 2034 4750 
z
" transform="scale(0.015625)"/>
       </defs>
       <use xlink:href="#DejaVuSans-30"/>
      </g>
     </g>
    </g>
    <g id="xtick_2">
     <g id="line2d_3">
      <path d="M 144.923438 450.72 
L 144.923438 7.2 
" clip-path="url(#p6c5568386b)" style="fill: none; stroke: #b0b0b0; stroke-width: 0.8; stroke-linecap: square"/>
     </g>
     <g id="line2d_4">
      <g>
       <use xlink:href="#m76b6bc4124" x="144.923438" y="450.72" style="stroke: #000000; stroke-width: 0.8"/>
      </g>
     </g>
     <g id="text_2">
      <!-- 200 -->
      <g transform="translate(135.379688 465.318437) scale(0.1 -0.1)">
       <defs>
        <path id="DejaVuSans-32" d="M 1228 531 
L 3431 531 
L 3431 0 
L 469 0 
L 469 531 
Q 828 903 1448 1529 
Q 2069 2156 2228 2338 
Q 2531 2678 2651 2914 
Q 2772 3150 2772 3378 
Q 2772 3750 2511 3984 
Q 2250 4219 1831 4219 
Q 1534 4219 1204 4116 
Q 875 4013 500 3803 
L 500 4441 
Q 881 4594 1212 4672 
Q 1544 4750 1819 4750 
Q 2544 4750 2975 4387 
Q 3406 4025 3406 3419 
Q 3406 3131 3298 2873 
Q 3191 2616 2906 2266 
Q 2828 2175 2409 1742 
Q 1991 1309 1228 531 
z
" transform="scale(0.015625)"/>
       </defs>
       <use xlink:href="#DejaVuSans-32"/>
       <use xlink:href="#DejaVuSans-30" transform="translate(63.623047 0)"/>
       <use xlink:href="#DejaVuSans-30" transform="translate(127.246094 0)"/>
      </g>
     </g>
    </g>
    <g id="xtick_3">
     <g id="line2d_5">
      <path d="M 231.323438 450.72 
L 231.323438 7.2 
" clip-path="url(#p6c5568386b)" style="fill: none; stroke: #b0b0b0; stroke-width: 0.8; stroke-linecap: square"/>
     </g>
     <g id="line2d_6">
      <g>
       <use xlink:href="#m76b6bc4124" x="231.323438" y="450.72" style="stroke: #000000; stroke-width: 0.8"/>
      </g>
     </g>
     <g id="text_3">
      <!-- 400 -->
      <g transform="translate(221.779688 465.318437) scale(0.1 -0.1)">
       <defs>
        <path id="DejaVuSans-34" d="M 2419 4116 
L 825 1625 
L 2419 1625 
L 2419 4116 
z
M 2253 4666 
L 3047 4666 
L 3047 1625 
L 3713 1625 
L 3713 1100 
L 3047 1100 
L 3047 0 
L 2419 0 
L 2419 1100 
L 313 1100 
L 313 1709 
L 2253 4666 
z
" transform="scale(0.015625)"/>
       </defs>
       <use xlink:href="#DejaVuSans-34"/>
       <use xlink:href="#DejaVuSans-30" transform="translate(63.623047 0)"/>
       <use xlink:href="#DejaVuSans-30" transform="translate(127.246094 0)"/>
      </g>
     </g>
    </g>
    <g id="xtick_4">
     <g id="line2d_7">
      <path d="M 317.723437 450.72 
L 317.723437 7.2 
" clip-path="url(#p6c5568386b)" style="fill: none; stroke: #b0b0b0; stroke-width: 0.8; stroke-linecap: square"/>
     </g>
     <g id="line2d_8">
      <g>
       <use xlink:href="#m76b6bc4124" x="317.723437" y="450.72" style="stroke: #000000; stroke-width: 0.8"/>
      </g>
     </g>
     <g id="text_4">
      <!-- 600 -->
      <g transform="translate(308.179688 465.318437) scale(0.1 -0.1)">
       <defs>
        <path id="DejaVuSans-36" d="M 2113 2584 
Q 1688 2584 1439 2293 
Q 1191 2003 1191 1497 
Q 1191 994 1439 701 
Q 1688 409 2113 409 
Q 2538 409 2786 701 
Q 3034 994 3034 1497 
Q 3034 2003 2786 2293 
Q 2538 2584 2113 2584 
z
M 3366 4563 
L 3366 3988 
Q 3128 4100 2886 4159 
Q 2644 4219 2406 4219 
Q 1781 4219 1451 3797 
Q 1122 3375 1075 2522 
Q 1259 2794 1537 2939 
Q 1816 3084 2150 3084 
Q 2853 3084 3261 2657 
Q 3669 2231 3669 1497 
Q 3669 778 3244 343 
Q 2819 -91 2113 -91 
Q 1303 -91 875 529 
Q 447 1150 447 2328 
Q 447 3434 972 4092 
Q 1497 4750 2381 4750 
Q 2619 4750 2861 4703 
Q 3103 4656 3366 4563 
z
" transform="scale(0.015625)"/>
       </defs>
       <use xlink:href="#DejaVuSans-36"/>
       <use xlink:href="#DejaVuSans-30" transform="translate(63.623047 0)"/>
       <use xlink:href="#DejaVuSans-30" transform="translate(127.246094 0)"/>
      </g>
     </g>
    </g>
    <g id="xtick_5">
     <g id="line2d_9">
      <path d="M 404.123438 450.72 
L 404.123438 7.2 
" clip-path="url(#p6c5568386b)" style="fill: none; stroke: #b0b0b0; stroke-width: 0.8; stroke-linecap: square"/>
     </g>
     <g id="line2d_10">
      <g>
       <use xlink:href="#m76b6bc4124" x="404.123438" y="450.72" style="stroke: #000000; stroke-width: 0.8"/>
      </g>
     </g>
     <g id="text_5">
      <!-- 800 -->
      <g transform="translate(394.579688 465.318437) scale(0.1 -0.1)">
       <defs>
        <path id="DejaVuSans-38" d="M 2034 2216 
Q 1584 2216 1326 1975 
Q 1069 1734 1069 1313 
Q 1069 891 1326 650 
Q 1584 409 2034 409 
Q 2484 409 2743 651 
Q 3003 894 3003 1313 
Q 3003 1734 2745 1975 
Q 2488 2216 2034 2216 
z
M 1403 2484 
Q 997 2584 770 2862 
Q 544 3141 544 3541 
Q 544 4100 942 4425 
Q 1341 4750 2034 4750 
Q 2731 4750 3128 4425 
Q 3525 4100 3525 3541 
Q 3525 3141 3298 2862 
Q 3072 2584 2669 2484 
Q 3125 2378 3379 2068 
Q 3634 1759 3634 1313 
Q 3634 634 3220 271 
Q 2806 -91 2034 -91 
Q 1263 -91 848 271 
Q 434 634 434 1313 
Q 434 1759 690 2068 
Q 947 2378 1403 2484 
z
M 1172 3481 
Q 1172 3119 1398 2916 
Q 1625 2713 2034 2713 
Q 2441 2713 2670 2916 
Q 2900 3119 2900 3481 
Q 2900 3844 2670 4047 
Q 2441 4250 2034 4250 
Q 1625 4250 1398 4047 
Q 1172 3844 1172 3481 
z
" transform="scale(0.015625)"/>
       </defs>
       <use xlink:href="#DejaVuSans-38"/>
       <use xlink:href="#DejaVuSans-30" transform="translate(63.623047 0)"/>
       <use xlink:href="#DejaVuSans-30" transform="translate(127.246094 0)"/>
      </g>
     </g>
    </g>
    <g id="xtick_6">
     <g id="line2d_11">
      <path d="M 490.523438 450.72 
L 490.523438 7.2 
" clip-path="url(#p6c5568386b)" style="fill: none; stroke: #b0b0b0; stroke-width: 0.8; stroke-linecap: square"/>
     </g>
     <g id="line2d_12">
      <g>
       <use xlink:href="#m76b6bc4124" x="490.523438" y="450.72" style="stroke: #000000; stroke-width: 0.8"/>
      </g>
     </g>
     <g id="text_6">
      <!-- 1000 -->
      <g transform="translate(477.798437 465.318437) scale(0.1 -0.1)">
       <defs>
        <path id="DejaVuSans-31" d="M 794 531 
L 1825 531 
L 1825 4091 
L 703 3866 
L 703 4441 
L 1819 4666 
L 2450 4666 
L 2450 531 
L 3481 531 
L 3481 0 
L 794 0 
L 794 531 
z
" transform="scale(0.015625)"/>
       </defs>
       <use xlink:href="#DejaVuSans-31"/>
       <use xlink:href="#DejaVuSans-30" transform="translate(63.623047 0)"/>
       <use xlink:href="#DejaVuSans-30" transform="translate(127.246094 0)"/>
       <use xlink:href="#DejaVuSans-30" transform="translate(190.869141 0)"/>
      </g>
     </g>
    </g>
    <g id="xtick_7">
     <g id="line2d_13">
      <path d="M 576.923437 450.72 
L 576.923437 7.2 
" clip-path="url(#p6c5568386b)" style="fill: none; stroke: #b0b0b0; stroke-width: 0.8; stroke-linecap: square"/>
     </g>
     <g id="line2d_14">
      <g>
       <use xlink:href="#m76b6bc4124" x="576.923437" y="450.72" style="stroke: #000000; stroke-width: 0.8"/>
      </g>
     </g>
     <g id="text_7">
      <!-- 1200 -->
      <g transform="translate(564.198437 465.318437) scale(0.1 -0.1)">
       <use xlink:href="#DejaVuSans-31"/>
       <use xlink:href="#DejaVuSans-32" transform="translate(63.623047 0)"/>
       <use xlink:href="#DejaVuSans-30" transform="translate(127.246094 0)"/>
       <use xlink:href="#DejaVuSans-30" transform="translate(190.869141 0)"/>
      </g>
     </g>
    </g>
    <g id="xtick_8">
     <g id="line2d_15">
      <path d="M 663.323437 450.72 
L 663.323437 7.2 
" clip-path="url(#p6c5568386b)" style="fill: none; stroke: #b0b0b0; stroke-width: 0.8; stroke-linecap: square"/>
     </g>
     <g id="line2d_16">
      <g>
       <use xlink:href="#m76b6bc4124" x="663.323437" y="450.72" style="stroke: #000000; stroke-width: 0.8"/>
      </g>
     </g>
     <g id="text_8">
      <!-- 1400 -->
      <g transform="translate(650.598437 465.318437) scale(0.1 -0.1)">
       <use xlink:href="#DejaVuSans-31"/>
       <use xlink:href="#DejaVuSans-34" transform="translate(63.623047 0)"/>
       <use xlink:href="#DejaVuSans-30" transform="translate(127.246094 0)"/>
       <use xlink:href="#DejaVuSans-30" transform="translate(190.869141 0)"/>
      </g>
     </g>
    </g>
    <g id="text_9">
     <!-- Time [s] -->
     <g transform="translate(372.994531 478.996562) scale(0.1 -0.1)">
      <defs>
       <path id="DejaVuSans-54" d="M -19 4666 
L 3928 4666 
L 3928 4134 
L 2272 4134 
L 2272 0 
L 1638 0 
L 1638 4134 
L -19 4134 
L -19 4666 
z
" transform="scale(0.015625)"/>
       <path id="DejaVuSans-69" d="M 603 3500 
L 1178 3500 
L 1178 0 
L 603 0 
L 603 3500 
z
M 603 4863 
L 1178 4863 
L 1178 4134 
L 603 4134 
L 603 4863 
z
" transform="scale(0.015625)"/>
       <path id="DejaVuSans-6d" d="M 3328 2828 
Q 3544 3216 3844 3400 
Q 4144 3584 4550 3584 
Q 5097 3584 5394 3201 
Q 5691 2819 5691 2113 
L 5691 0 
L 5113 0 
L 5113 2094 
Q 5113 2597 4934 2840 
Q 4756 3084 4391 3084 
Q 3944 3084 3684 2787 
Q 3425 2491 3425 1978 
L 3425 0 
L 2847 0 
L 2847 2094 
Q 2847 2600 2669 2842 
Q 2491 3084 2119 3084 
Q 1678 3084 1418 2786 
Q 1159 2488 1159 1978 
L 1159 0 
L 581 0 
L 581 3500 
L 1159 3500 
L 1159 2956 
Q 1356 3278 1631 3431 
Q 1906 3584 2284 3584 
Q 2666 3584 2933 3390 
Q 3200 3197 3328 2828 
z
" transform="scale(0.015625)"/>
       <path id="DejaVuSans-65" d="M 3597 1894 
L 3597 1613 
L 953 1613 
Q 991 1019 1311 708 
Q 1631 397 2203 397 
Q 2534 397 2845 478 
Q 3156 559 3463 722 
L 3463 178 
Q 3153 47 2828 -22 
Q 2503 -91 2169 -91 
Q 1331 -91 842 396 
Q 353 884 353 1716 
Q 353 2575 817 3079 
Q 1281 3584 2069 3584 
Q 2775 3584 3186 3129 
Q 3597 2675 3597 1894 
z
M 3022 2063 
Q 3016 2534 2758 2815 
Q 2500 3097 2075 3097 
Q 1594 3097 1305 2825 
Q 1016 2553 972 2059 
L 3022 2063 
z
" transform="scale(0.015625)"/>
       <path id="DejaVuSans-20" transform="scale(0.015625)"/>
       <path id="DejaVuSans-5b" d="M 550 4863 
L 1875 4863 
L 1875 4416 
L 1125 4416 
L 1125 -397 
L 1875 -397 
L 1875 -844 
L 550 -844 
L 550 4863 
z
" transform="scale(0.015625)"/>
       <path id="DejaVuSans-73" d="M 2834 3397 
L 2834 2853 
Q 2591 2978 2328 3040 
Q 2066 3103 1784 3103 
Q 1356 3103 1142 2972 
Q 928 2841 928 2578 
Q 928 2378 1081 2264 
Q 1234 2150 1697 2047 
L 1894 2003 
Q 2506 1872 2764 1633 
Q 3022 1394 3022 966 
Q 3022 478 2636 193 
Q 2250 -91 1575 -91 
Q 1294 -91 989 -36 
Q 684 19 347 128 
L 347 722 
Q 666 556 975 473 
Q 1284 391 1588 391 
Q 1994 391 2212 530 
Q 2431 669 2431 922 
Q 2431 1156 2273 1281 
Q 2116 1406 1581 1522 
L 1381 1569 
Q 847 1681 609 1914 
Q 372 2147 372 2553 
Q 372 3047 722 3315 
Q 1072 3584 1716 3584 
Q 2034 3584 2315 3537 
Q 2597 3491 2834 3397 
z
" transform="scale(0.015625)"/>
       <path id="DejaVuSans-5d" d="M 1947 4863 
L 1947 -844 
L 622 -844 
L 622 -397 
L 1369 -397 
L 1369 4416 
L 622 4416 
L 622 4863 
L 1947 4863 
z
" transform="scale(0.015625)"/>
      </defs>
      <use xlink:href="#DejaVuSans-54"/>
      <use xlink:href="#DejaVuSans-69" transform="translate(57.958984 0)"/>
      <use xlink:href="#DejaVuSans-6d" transform="translate(85.742188 0)"/>
      <use xlink:href="#DejaVuSans-65" transform="translate(183.154297 0)"/>
      <use xlink:href="#DejaVuSans-20" transform="translate(244.677734 0)"/>
      <use xlink:href="#DejaVuSans-5b" transform="translate(276.464844 0)"/>
      <use xlink:href="#DejaVuSans-73" transform="translate(315.478516 0)"/>
      <use xlink:href="#DejaVuSans-5d" transform="translate(367.578125 0)"/>
     </g>
    </g>
   </g>
   <g id="matplotlib.axis_2">
    <g id="ytick_1">
     <g id="line2d_17">
      <path d="M 58.523438 428.599207 
L 728.123438 428.599207 
" clip-path="url(#p6c5568386b)" style="fill: none; stroke: #b0b0b0; stroke-width: 0.8; stroke-linecap: square"/>
     </g>
     <g id="line2d_18">
      <defs>
       <path id="mdec6986be8" d="M 0 0 
L -3.5 0 
" style="stroke: #000000; stroke-width: 0.8"/>
      </defs>
      <g>
       <use xlink:href="#mdec6986be8" x="58.523438" y="428.599207" style="stroke: #000000; stroke-width: 0.8"/>
      </g>
     </g>
     <g id="text_10">
      <!-- −1.00 -->
      <g transform="translate(20.878125 432.398426) scale(0.1 -0.1)">
       <defs>
        <path id="DejaVuSans-2212" d="M 678 2272 
L 4684 2272 
L 4684 1741 
L 678 1741 
L 678 2272 
z
" transform="scale(0.015625)"/>
        <path id="DejaVuSans-2e" d="M 684 794 
L 1344 794 
L 1344 0 
L 684 0 
L 684 794 
z
" transform="scale(0.015625)"/>
       </defs>
       <use xlink:href="#DejaVuSans-2212"/>
       <use xlink:href="#DejaVuSans-31" transform="translate(83.789062 0)"/>
       <use xlink:href="#DejaVuSans-2e" transform="translate(147.412109 0)"/>
       <use xlink:href="#DejaVuSans-30" transform="translate(179.199219 0)"/>
       <use xlink:href="#DejaVuSans-30" transform="translate(242.822266 0)"/>
      </g>
     </g>
    </g>
    <g id="ytick_2">
     <g id="line2d_19">
      <path d="M 58.523438 378.938299 
L 728.123438 378.938299 
" clip-path="url(#p6c5568386b)" style="fill: none; stroke: #b0b0b0; stroke-width: 0.8; stroke-linecap: square"/>
     </g>
     <g id="line2d_20">
      <g>
       <use xlink:href="#mdec6986be8" x="58.523438" y="378.938299" style="stroke: #000000; stroke-width: 0.8"/>
      </g>
     </g>
     <g id="text_11">
      <!-- −0.75 -->
      <g transform="translate(20.878125 382.737518) scale(0.1 -0.1)">
       <defs>
        <path id="DejaVuSans-37" d="M 525 4666 
L 3525 4666 
L 3525 4397 
L 1831 0 
L 1172 0 
L 2766 4134 
L 525 4134 
L 525 4666 
z
" transform="scale(0.015625)"/>
        <path id="DejaVuSans-35" d="M 691 4666 
L 3169 4666 
L 3169 4134 
L 1269 4134 
L 1269 2991 
Q 1406 3038 1543 3061 
Q 1681 3084 1819 3084 
Q 2600 3084 3056 2656 
Q 3513 2228 3513 1497 
Q 3513 744 3044 326 
Q 2575 -91 1722 -91 
Q 1428 -91 1123 -41 
Q 819 9 494 109 
L 494 744 
Q 775 591 1075 516 
Q 1375 441 1709 441 
Q 2250 441 2565 725 
Q 2881 1009 2881 1497 
Q 2881 1984 2565 2268 
Q 2250 2553 1709 2553 
Q 1456 2553 1204 2497 
Q 953 2441 691 2322 
L 691 4666 
z
" transform="scale(0.015625)"/>
       </defs>
       <use xlink:href="#DejaVuSans-2212"/>
       <use xlink:href="#DejaVuSans-30" transform="translate(83.789062 0)"/>
       <use xlink:href="#DejaVuSans-2e" transform="translate(147.412109 0)"/>
       <use xlink:href="#DejaVuSans-37" transform="translate(179.199219 0)"/>
       <use xlink:href="#DejaVuSans-35" transform="translate(242.822266 0)"/>
      </g>
     </g>
    </g>
    <g id="ytick_3">
     <g id="line2d_21">
      <path d="M 58.523438 329.277392 
L 728.123438 329.277392 
" clip-path="url(#p6c5568386b)" style="fill: none; stroke: #b0b0b0; stroke-width: 0.8; stroke-linecap: square"/>
     </g>
     <g id="line2d_22">
      <g>
       <use xlink:href="#mdec6986be8" x="58.523438" y="329.277392" style="stroke: #000000; stroke-width: 0.8"/>
      </g>
     </g>
     <g id="text_12">
      <!-- −0.50 -->
      <g transform="translate(20.878125 333.07661) scale(0.1 -0.1)">
       <use xlink:href="#DejaVuSans-2212"/>
       <use xlink:href="#DejaVuSans-30" transform="translate(83.789062 0)"/>
       <use xlink:href="#DejaVuSans-2e" transform="translate(147.412109 0)"/>
       <use xlink:href="#DejaVuSans-35" transform="translate(179.199219 0)"/>
       <use xlink:href="#DejaVuSans-30" transform="translate(242.822266 0)"/>
      </g>
     </g>
    </g>
    <g id="ytick_4">
     <g id="line2d_23">
      <path d="M 58.523438 279.616484 
L 728.123438 279.616484 
" clip-path="url(#p6c5568386b)" style="fill: none; stroke: #b0b0b0; stroke-width: 0.8; stroke-linecap: square"/>
     </g>
     <g id="line2d_24">
      <g>
       <use xlink:href="#mdec6986be8" x="58.523438" y="279.616484" style="stroke: #000000; stroke-width: 0.8"/>
      </g>
     </g>
     <g id="text_13">
      <!-- −0.25 -->
      <g transform="translate(20.878125 283.415703) scale(0.1 -0.1)">
       <use xlink:href="#DejaVuSans-2212"/>
       <use xlink:href="#DejaVuSans-30" transform="translate(83.789062 0)"/>
       <use xlink:href="#DejaVuSans-2e" transform="translate(147.412109 0)"/>
       <use xlink:href="#DejaVuSans-32" transform="translate(179.199219 0)"/>
       <use xlink:href="#DejaVuSans-35" transform="translate(242.822266 0)"/>
      </g>
     </g>
    </g>
    <g id="ytick_5">
     <g id="line2d_25">
      <path d="M 58.523438 229.955577 
L 728.123438 229.955577 
" clip-path="url(#p6c5568386b)" style="fill: none; stroke: #b0b0b0; stroke-width: 0.8; stroke-linecap: square"/>
     </g>
     <g id="line2d_26">
      <g>
       <use xlink:href="#mdec6986be8" x="58.523438" y="229.955577" style="stroke: #000000; stroke-width: 0.8"/>
      </g>
     </g>
     <g id="text_14">
      <!-- 0.00 -->
      <g transform="translate(29.257812 233.754795) scale(0.1 -0.1)">
       <use xlink:href="#DejaVuSans-30"/>
       <use xlink:href="#DejaVuSans-2e" transform="translate(63.623047 0)"/>
       <use xlink:href="#DejaVuSans-30" transform="translate(95.410156 0)"/>
       <use xlink:href="#DejaVuSans-30" transform="translate(159.033203 0)"/>
      </g>
     </g>
    </g>
    <g id="ytick_6">
     <g id="line2d_27">
      <path d="M 58.523438 180.294669 
L 728.123438 180.294669 
" clip-path="url(#p6c5568386b)" style="fill: none; stroke: #b0b0b0; stroke-width: 0.8; stroke-linecap: square"/>
     </g>
     <g id="line2d_28">
      <g>
       <use xlink:href="#mdec6986be8" x="58.523438" y="180.294669" style="stroke: #000000; stroke-width: 0.8"/>
      </g>
     </g>
     <g id="text_15">
      <!-- 0.25 -->
      <g transform="translate(29.257812 184.093888) scale(0.1 -0.1)">
       <use xlink:href="#DejaVuSans-30"/>
       <use xlink:href="#DejaVuSans-2e" transform="translate(63.623047 0)"/>
       <use xlink:href="#DejaVuSans-32" transform="translate(95.410156 0)"/>
       <use xlink:href="#DejaVuSans-35" transform="translate(159.033203 0)"/>
      </g>
     </g>
    </g>
    <g id="ytick_7">
     <g id="line2d_29">
      <path d="M 58.523438 130.633761 
L 728.123438 130.633761 
" clip-path="url(#p6c5568386b)" style="fill: none; stroke: #b0b0b0; stroke-width: 0.8; stroke-linecap: square"/>
     </g>
     <g id="line2d_30">
      <g>
       <use xlink:href="#mdec6986be8" x="58.523438" y="130.633761" style="stroke: #000000; stroke-width: 0.8"/>
      </g>
     </g>
     <g id="text_16">
      <!-- 0.50 -->
      <g transform="translate(29.257812 134.43298) scale(0.1 -0.1)">
       <use xlink:href="#DejaVuSans-30"/>
       <use xlink:href="#DejaVuSans-2e" transform="translate(63.623047 0)"/>
       <use xlink:href="#DejaVuSans-35" transform="translate(95.410156 0)"/>
       <use xlink:href="#DejaVuSans-30" transform="translate(159.033203 0)"/>
      </g>
     </g>
    </g>
    <g id="ytick_8">
     <g id="line2d_31">
      <path d="M 58.523438 80.972854 
L 728.123438 80.972854 
" clip-path="url(#p6c5568386b)" style="fill: none; stroke: #b0b0b0; stroke-width: 0.8; stroke-linecap: square"/>
     </g>
     <g id="line2d_32">
      <g>
       <use xlink:href="#mdec6986be8" x="58.523438" y="80.972854" style="stroke: #000000; stroke-width: 0.8"/>
      </g>
     </g>
     <g id="text_17">
      <!-- 0.75 -->
      <g transform="translate(29.257812 84.772073) scale(0.1 -0.1)">
       <use xlink:href="#DejaVuSans-30"/>
       <use xlink:href="#DejaVuSans-2e" transform="translate(63.623047 0)"/>
       <use xlink:href="#DejaVuSans-37" transform="translate(95.410156 0)"/>
       <use xlink:href="#DejaVuSans-35" transform="translate(159.033203 0)"/>
      </g>
     </g>
    </g>
    <g id="ytick_9">
     <g id="line2d_33">
      <path d="M 58.523438 31.311946 
L 728.123438 31.311946 
" clip-path="url(#p6c5568386b)" style="fill: none; stroke: #b0b0b0; stroke-width: 0.8; stroke-linecap: square"/>
     </g>
     <g id="line2d_34">
      <g>
       <use xlink:href="#mdec6986be8" x="58.523438" y="31.311946" style="stroke: #000000; stroke-width: 0.8"/>
      </g>
     </g>
     <g id="text_18">
      <!-- 1.00 -->
      <g transform="translate(29.257812 35.111165) scale(0.1 -0.1)">
       <use xlink:href="#DejaVuSans-31"/>
       <use xlink:href="#DejaVuSans-2e" transform="translate(63.623047 0)"/>
       <use xlink:href="#DejaVuSans-30" transform="translate(95.410156 0)"/>
       <use xlink:href="#DejaVuSans-30" transform="translate(159.033203 0)"/>
      </g>
     </g>
    </g>
    <g id="text_19">
     <!-- PV [°C] -->
     <g transform="translate(14.798437 246.877187) rotate(-90) scale(0.1 -0.1)">
      <defs>
       <path id="DejaVuSans-50" d="M 1259 4147 
L 1259 2394 
L 2053 2394 
Q 2494 2394 2734 2622 
Q 2975 2850 2975 3272 
Q 2975 3691 2734 3919 
Q 2494 4147 2053 4147 
L 1259 4147 
z
M 628 4666 
L 2053 4666 
Q 2838 4666 3239 4311 
Q 3641 3956 3641 3272 
Q 3641 2581 3239 2228 
Q 2838 1875 2053 1875 
L 1259 1875 
L 1259 0 
L 628 0 
L 628 4666 
z
" transform="scale(0.015625)"/>
       <path id="DejaVuSans-56" d="M 1831 0 
L 50 4666 
L 709 4666 
L 2188 738 
L 3669 4666 
L 4325 4666 
L 2547 0 
L 1831 0 
z
" transform="scale(0.015625)"/>
       <path id="DejaVuSans-b0" d="M 1600 4347 
Q 1350 4347 1178 4173 
Q 1006 4000 1006 3750 
Q 1006 3503 1178 3333 
Q 1350 3163 1600 3163 
Q 1850 3163 2022 3333 
Q 2194 3503 2194 3750 
Q 2194 3997 2020 4172 
Q 1847 4347 1600 4347 
z
M 1600 4750 
Q 1800 4750 1984 4673 
Q 2169 4597 2303 4453 
Q 2447 4313 2519 4134 
Q 2591 3956 2591 3750 
Q 2591 3338 2302 3052 
Q 2013 2766 1594 2766 
Q 1172 2766 890 3047 
Q 609 3328 609 3750 
Q 609 4169 896 4459 
Q 1184 4750 1600 4750 
z
" transform="scale(0.015625)"/>
       <path id="DejaVuSans-43" d="M 4122 4306 
L 4122 3641 
Q 3803 3938 3442 4084 
Q 3081 4231 2675 4231 
Q 1875 4231 1450 3742 
Q 1025 3253 1025 2328 
Q 1025 1406 1450 917 
Q 1875 428 2675 428 
Q 3081 428 3442 575 
Q 3803 722 4122 1019 
L 4122 359 
Q 3791 134 3420 21 
Q 3050 -91 2638 -91 
Q 1578 -91 968 557 
Q 359 1206 359 2328 
Q 359 3453 968 4101 
Q 1578 4750 2638 4750 
Q 3056 4750 3426 4639 
Q 3797 4528 4122 4306 
z
" transform="scale(0.015625)"/>
      </defs>
      <use xlink:href="#DejaVuSans-50"/>
      <use xlink:href="#DejaVuSans-56" transform="translate(60.302734 0)"/>
      <use xlink:href="#DejaVuSans-20" transform="translate(128.710938 0)"/>
      <use xlink:href="#DejaVuSans-5b" transform="translate(160.498047 0)"/>
      <use xlink:href="#DejaVuSans-b0" transform="translate(199.511719 0)"/>
      <use xlink:href="#DejaVuSans-43" transform="translate(249.511719 0)"/>
      <use xlink:href="#DejaVuSans-5d" transform="translate(319.335938 0)"/>
     </g>
    </g>
   </g>
   <g id="line2d_35">
    <path d="M 58.523438 229.955577 
L 85.307437 230.189446 
L 86.171437 229.821979 
L 87.035438 229.447241 
L 87.899438 229.360978 
L 88.763437 229.682305 
L 89.627437 230.44607 
L 90.491438 231.647736 
L 91.355437 233.265142 
L 92.219437 235.270082 
L 93.515437 238.938795 
L 94.811437 243.306287 
L 96.539437 250.032179 
L 98.699438 259.560309 
L 101.291438 272.115295 
L 105.611437 294.363811 
L 111.659437 325.393648 
L 115.115437 342.019926 
L 118.139437 355.569926 
L 121.163438 368.049865 
L 123.755437 377.835078 
L 126.347437 386.750301 
L 128.939437 394.785758 
L 131.099437 400.811536 
L 133.259437 406.234701 
L 135.419438 411.065515 
L 137.579437 415.317058 
L 139.739438 419.004579 
L 141.467438 421.559813 
L 143.195437 423.774094 
L 144.923438 425.657032 
L 146.651437 427.218512 
L 148.379437 428.468618 
L 150.107438 429.417552 
L 151.835438 430.075581 
L 153.563437 430.452982 
L 155.291438 430.56 
L 157.019437 430.406811 
L 158.747437 430.003493 
L 160.475437 429.36 
L 162.203438 428.486142 
L 163.931438 427.391569 
L 166.091437 425.727386 
L 168.251438 423.751217 
L 170.411438 421.480676 
L 173.003438 418.391516 
L 175.595438 414.931681 
L 178.187437 411.128697 
L 181.211437 406.293396 
L 184.667438 400.290829 
L 188.123437 393.834255 
L 192.011437 386.094321 
L 196.331437 376.986092 
L 201.083438 366.453095 
L 206.699437 353.456399 
L 213.611437 336.87298 
L 223.547438 312.395921 
L 241.691438 267.635414 
L 250.331437 246.976798 
L 257.675437 229.987046 
L 264.587437 214.571276 
L 271.067437 200.683574 
L 277.115437 188.25082 
L 282.731437 177.184904 
L 288.347437 166.593643 
L 293.963437 156.485345 
L 299.147438 147.586826 
L 304.331437 139.103628 
L 309.515437 131.033683 
L 314.699437 123.372832 
L 319.883438 116.115099 
L 325.067437 109.252948 
L 330.251438 102.777509 
L 335.435437 96.678791 
L 340.619438 90.945877 
L 345.803437 85.567094 
L 350.987437 80.53017 
L 356.171438 75.822379 
L 361.355437 71.430666 
L 366.539438 67.341762 
L 371.723437 63.542282 
L 376.907438 60.018817 
L 382.091437 56.758014 
L 387.275438 53.746644 
L 392.891437 50.750677 
L 398.507437 48.015866 
L 404.123438 45.526328 
L 409.739438 43.266622 
L 415.787438 41.072987 
L 421.835438 39.110579 
L 428.315437 37.245006 
L 434.795437 35.604848 
L 441.707437 34.082198 
L 449.051438 32.696936 
L 456.827437 31.46452 
L 465.035438 30.395706 
L 473.675437 29.496445 
L 483.179438 28.738206 
L 493.547438 28.144544 
L 504.779437 27.728175 
L 517.739438 27.480892 
L 532.427437 27.429072 
L 550.571438 27.597374 
L 575.195438 28.064635 
L 681.035437 30.314532 
L 720.779437 30.8001 
L 728.123438 30.867156 
L 728.123438 30.867156 
" clip-path="url(#p6c5568386b)" style="fill: none; stroke: #1f77b4; stroke-width: 1.5; stroke-linecap: square"/>
   </g>
   <g id="line2d_36">
    <path d="M 58.523438 229.955577 
L 85.307437 230.213058 
L 85.739438 230.060065 
L 86.603437 229.42669 
L 87.899438 228.030049 
L 91.355437 224.057975 
L 93.083438 222.51122 
L 94.379437 221.611541 
L 95.675438 220.931821 
L 96.971438 220.456611 
L 98.699438 220.103932 
L 100.427437 220.020492 
L 102.155438 220.150143 
L 104.315438 220.53303 
L 107.339438 221.325665 
L 116.843437 224.016335 
L 119.867437 224.567514 
L 122.891437 224.873585 
L 125.483437 224.920748 
L 128.075437 224.759859 
L 130.667438 224.387609 
L 133.259437 223.804736 
L 135.851438 223.015015 
L 138.875438 221.840374 
L 141.899438 220.404759 
L 144.923438 218.722486 
L 148.379437 216.517871 
L 151.835438 214.035756 
L 155.723437 210.942425 
L 159.611437 207.564014 
L 163.931438 203.51712 
L 168.683437 198.760529 
L 174.299438 192.800906 
L 180.779438 185.573794 
L 188.987437 176.053383 
L 203.675437 158.582539 
L 216.635437 143.307311 
L 225.707437 132.952655 
L 233.483438 124.399095 
L 240.827438 116.644284 
L 247.739438 109.663257 
L 254.219437 103.41663 
L 260.699437 97.470191 
L 267.179438 91.831031 
L 273.659437 86.502528 
L 279.707437 81.809744 
L 285.755437 77.38576 
L 291.803437 73.226811 
L 297.851437 69.327641 
L 303.899437 65.681755 
L 309.947437 62.281633 
L 316.427437 58.901881 
L 322.907438 55.783605 
L 329.387437 52.915108 
L 335.867437 50.284258 
L 342.779437 47.725991 
L 349.691438 45.408828 
L 356.603437 43.317605 
L 363.947437 41.326475 
L 371.723437 39.4582 
L 379.499437 37.816834 
L 387.707437 36.308866 
L 396.347438 34.947055 
L 405.419438 33.740137 
L 415.355437 32.649964 
L 425.723437 31.737419 
L 436.955438 30.970757 
L 449.483437 30.343467 
L 463.307437 29.877549 
L 479.291437 29.568645 
L 498.299438 29.434653 
L 522.491438 29.50154 
L 559.211437 29.852578 
L 653.387438 30.815988 
L 710.843437 31.130323 
L 728.123438 31.187654 
L 728.123438 31.187654 
" clip-path="url(#p6c5568386b)" style="fill: none; stroke: #ff7f0e; stroke-width: 1.5; stroke-linecap: square"/>
   </g>
   <g id="line2d_37">
    <path d="M 58.523438 229.955577 
L 85.307437 230.230715 
L 85.739438 230.077927 
L 86.603437 229.387501 
L 87.467438 228.298201 
L 88.763437 226.14407 
L 90.491438 222.673859 
L 93.515437 215.883302 
L 98.699438 204.172544 
L 102.155438 196.922896 
L 105.611437 190.189788 
L 109.067437 183.910396 
L 112.955438 177.286677 
L 117.275438 170.353579 
L 122.459438 162.483829 
L 128.075437 154.383339 
L 134.123437 146.058426 
L 140.171437 138.094531 
L 146.651437 129.936404 
L 152.699437 122.664067 
L 158.747437 115.721272 
L 164.795437 109.109493 
L 170.843437 102.829897 
L 176.891437 96.882297 
L 182.939437 91.264744 
L 188.555438 86.340698 
L 194.171437 81.693631 
L 199.787438 77.318024 
L 205.403437 73.207345 
L 211.019438 69.354202 
L 217.067438 65.483367 
L 223.115437 61.890938 
L 229.163437 58.565462 
L 235.211437 55.495058 
L 241.259437 52.667567 
L 247.739438 49.893686 
L 254.219437 47.36935 
L 260.699437 45.079468 
L 267.611437 42.878585 
L 274.523438 40.90985 
L 281.867437 39.053238 
L 289.643438 37.329882 
L 297.419437 35.833815 
L 305.627437 34.477605 
L 314.267438 33.27187 
L 323.771437 32.17821 
L 333.707437 31.26226 
L 344.507437 30.49267 
L 356.171438 29.883647 
L 369.131438 29.427952 
L 384.251438 29.126869 
L 401.963437 29.006933 
L 423.995437 29.090321 
L 456.395438 29.458421 
L 556.619438 30.714464 
L 608.459438 31.067768 
L 672.395437 31.268217 
L 728.123438 31.324841 
L 728.123438 31.324841 
" clip-path="url(#p6c5568386b)" style="fill: none; stroke: #2ca02c; stroke-width: 1.5; stroke-linecap: square"/>
   </g>
   <g id="line2d_38">
    <path d="M 58.523438 229.955577 
L 85.307437 230.246356 
L 85.739438 230.112104 
L 86.603437 229.487089 
L 87.467438 228.468807 
L 88.331437 227.138998 
L 89.627437 224.700631 
L 91.355437 220.872363 
L 93.947438 214.422944 
L 104.315438 187.83575 
L 108.203438 178.807099 
L 112.091437 170.39356 
L 115.979437 162.528753 
L 119.867437 155.138131 
L 124.187438 147.403172 
L 128.507437 140.102476 
L 133.259437 132.512219 
L 138.011437 125.337194 
L 142.763438 118.54428 
L 147.515438 112.11008 
L 152.699437 105.479693 
L 157.883438 99.237588 
L 163.067437 93.368484 
L 168.251438 87.85841 
L 173.435437 82.693962 
L 178.619438 77.861925 
L 183.803438 73.349102 
L 188.987437 69.142257 
L 194.171437 65.228122 
L 199.355437 61.593436 
L 204.539437 58.224993 
L 209.723437 55.109701 
L 215.339438 52.005479 
L 220.955437 49.167027 
L 226.571438 46.578542 
L 232.187437 44.224636 
L 238.235437 41.934882 
L 244.283437 39.88187 
L 250.763438 37.925288 
L 257.243438 36.200304 
L 264.155438 34.593843 
L 271.499437 33.126866 
L 278.843437 31.882624 
L 286.619438 30.782162 
L 295.259437 29.790743 
L 304.331437 28.977947 
L 314.267438 28.316904 
L 325.067437 27.825617 
L 337.163437 27.503316 
L 350.987437 27.364216 
L 367.403437 27.429899 
L 388.571438 27.752319 
L 422.699437 28.529886 
L 481.019437 29.844922 
L 519.467437 30.470794 
L 560.075438 30.905056 
L 608.027438 31.186667 
L 673.259437 31.329623 
L 728.123438 31.350976 
L 728.123438 31.350976 
" clip-path="url(#p6c5568386b)" style="fill: none; stroke: #d62728; stroke-width: 1.5; stroke-linecap: square"/>
   </g>
   <g id="line2d_39">
    <path d="M 58.523438 229.955577 
L 85.307437 230.18862 
L 86.171437 229.84442 
L 87.035438 229.101619 
L 87.899438 228.030595 
L 89.195437 225.934737 
L 90.491438 223.389993 
L 92.219437 219.504323 
L 94.811437 213.034343 
L 106.043437 184.110618 
L 109.499437 176.053559 
L 112.955438 168.501266 
L 116.843437 160.560676 
L 120.731437 153.138784 
L 124.619438 146.164846 
L 128.939437 138.868304 
L 133.259437 131.985421 
L 138.011437 124.835104 
L 142.763438 118.082016 
L 147.515438 111.694552 
L 152.267437 105.650216 
L 157.451437 99.428058 
L 162.635437 93.5769 
L 167.819437 88.081886 
L 173.003438 82.929383 
L 178.187437 78.106266 
L 183.371438 73.599574 
L 188.555438 69.396351 
L 193.739438 65.483614 
L 198.923438 61.848371 
L 204.107438 58.477662 
L 209.291438 55.358618 
L 214.907437 52.248892 
L 220.523438 49.403665 
L 226.139437 46.807349 
L 231.755437 44.444745 
L 237.803438 42.144856 
L 243.851438 40.0811 
L 250.331437 38.112532 
L 256.811438 36.375254 
L 263.723437 34.755529 
L 271.067437 33.274477 
L 278.411438 32.016355 
L 286.187437 30.90157 
L 294.827437 29.894855 
L 303.899437 29.066857 
L 313.835438 28.390317 
L 324.635438 27.883672 
L 336.731437 27.546088 
L 350.555437 27.392015 
L 366.971437 27.443244 
L 387.707437 27.743735 
L 420.107438 28.464555 
L 483.179438 29.876747 
L 522.059438 30.49649 
L 563.099438 30.922846 
L 611.915437 31.197634 
L 678.875437 31.333371 
L 728.123438 31.350856 
L 728.123438 31.350856 
" clip-path="url(#p6c5568386b)" style="fill: none; stroke: #9467bd; stroke-width: 1.5; stroke-linecap: square"/>
   </g>
   <g id="line2d_40">
    <path d="M 58.523438 229.955577 
L 85.307437 230.123696 
L 86.171437 229.812023 
L 87.035438 229.133647 
L 87.899438 228.145882 
L 89.195437 226.189608 
L 90.491438 223.782985 
L 92.219437 220.057261 
L 94.379437 214.841083 
L 98.267437 204.70014 
L 104.747437 187.782692 
L 108.635437 178.295956 
L 112.091437 170.406427 
L 115.547438 163.02159 
L 119.435438 155.26889 
L 123.323437 148.036685 
L 127.211438 141.255887 
L 131.531437 134.178045 
L 135.851438 127.5166 
L 140.603437 120.610147 
L 145.355437 114.098087 
L 150.107438 107.946169 
L 154.859438 102.130034 
L 160.043437 96.147118 
L 165.227438 90.524366 
L 170.411438 85.246689 
L 175.595438 80.300521 
L 180.779438 75.672962 
L 185.963437 71.351341 
L 191.147437 67.323018 
L 196.331437 63.575329 
L 201.515437 60.095596 
L 206.699437 56.871175 
L 212.315438 53.651604 
L 217.931437 50.701169 
L 223.547438 48.004377 
L 229.163437 45.546083 
L 235.211437 43.148507 
L 241.259437 40.992598 
L 247.739438 38.931362 
L 254.219437 37.107575 
L 261.131438 35.402191 
L 268.043437 33.922813 
L 275.387438 32.575222 
L 283.163437 31.374612 
L 291.371437 30.331692 
L 300.011437 29.452568 
L 309.515437 28.709611 
L 319.883438 28.126161 
L 331.547438 27.703316 
L 344.507437 27.46422 
L 359.627437 27.416814 
L 378.203438 27.594521 
L 403.691438 28.081455 
L 506.507437 30.266414 
L 546.251438 30.76589 
L 591.179437 31.1008 
L 648.635437 31.293163 
L 728.123438 31.350695 
L 728.123438 31.350695 
" clip-path="url(#p6c5568386b)" style="fill: none; stroke: #8c564b; stroke-width: 1.5; stroke-linecap: square"/>
   </g>
   <g id="line2d_41">
    <path d="M 58.523438 229.955577 
L 85.307437 230.076107 
L 86.171437 229.788354 
L 87.035438 229.158468 
L 87.899438 228.234928 
L 89.195437 226.389927 
L 90.491438 224.098201 
L 92.219437 220.513383 
L 94.379437 215.43441 
L 97.403437 207.686017 
L 106.907438 182.886567 
L 110.795437 173.545309 
L 114.251438 165.788051 
L 117.707437 158.534103 
L 121.163438 151.746399 
L 125.051438 144.609027 
L 128.939437 137.934675 
L 133.259437 130.987889 
L 137.579437 124.468202 
L 142.331437 117.725669 
L 147.083438 111.381232 
L 151.835438 105.396597 
L 156.587437 99.744403 
L 161.771437 93.93418 
L 166.955438 88.476245 
L 172.139437 83.354807 
L 177.323438 78.556122 
L 182.507437 74.067416 
L 187.691438 69.876293 
L 192.875438 65.970454 
L 198.059438 62.337591 
L 203.243437 58.965374 
L 208.427437 55.841487 
L 214.043438 52.723318 
L 219.659437 49.866844 
L 225.275438 47.256943 
L 230.891437 44.878831 
L 236.939437 42.560505 
L 242.987437 40.476908 
L 249.467437 38.48593 
L 255.947438 36.725434 
L 262.859438 35.080439 
L 270.203438 33.572364 
L 277.547438 32.287403 
L 285.323438 31.144748 
L 293.963437 30.108087 
L 303.035438 29.250144 
L 312.971437 28.542896 
L 323.771437 28.005629 
L 335.867437 27.637371 
L 349.259437 27.455608 
L 365.243437 27.468496 
L 385.115437 27.71722 
L 414.491438 28.330371 
L 490.523438 29.992736 
L 529.835438 30.577368 
L 572.171438 30.978097 
L 623.147438 31.228557 
L 695.723438 31.342388 
L 728.123438 31.350489 
L 728.123438 31.350489 
" clip-path="url(#p6c5568386b)" style="fill: none; stroke: #e377c2; stroke-width: 1.5; stroke-linecap: square"/>
   </g>
   <g id="line2d_42">
    <path d="M 58.523438 229.955577 
L 85.307437 230.039688 
L 86.171437 229.770264 
L 87.035438 229.178172 
L 87.899438 228.305608 
L 89.195437 226.551083 
L 90.491438 224.355712 
L 92.219437 220.893988 
L 94.379437 215.943164 
L 97.403437 208.305608 
L 109.499437 176.956664 
L 113.387438 167.8605 
L 116.843437 160.32104 
L 120.299437 153.276519 
L 123.755437 146.688629 
L 127.643438 139.766258 
L 131.531437 133.299225 
L 135.851438 126.57654 
L 140.171437 120.276102 
L 144.491438 114.344379 
L 149.243437 108.196791 
L 153.995437 102.405674 
L 158.747437 96.941865 
L 163.931438 91.329705 
L 169.115437 86.06096 
L 174.299438 81.119245 
L 179.483437 76.490634 
L 184.667438 72.162444 
L 189.851438 68.122528 
L 195.035438 64.358918 
L 200.219437 60.859665 
L 205.403437 57.6128 
L 211.019438 54.366308 
L 216.635437 51.386865 
L 222.251438 48.65952 
L 227.867437 46.169578 
L 233.915437 43.737132 
L 239.963437 41.545929 
L 246.443437 39.446795 
L 252.923438 37.585377 
L 259.835438 35.840488 
L 266.747437 34.322565 
L 274.091437 32.935359 
L 281.867437 31.694577 
L 290.075438 30.611476 
L 298.715438 29.692731 
L 308.219438 28.909528 
L 318.587438 28.28627 
L 329.819437 27.836963 
L 342.347438 27.558667 
L 357.035438 27.461944 
L 374.747437 27.579195 
L 398.075438 27.97172 
L 445.163437 29.048641 
L 490.955438 29.991289 
L 530.267437 30.5741 
L 572.603438 30.974845 
L 624.011437 31.227739 
L 696.587437 31.341964 
L 728.123438 31.350235 
L 728.123438 31.350235 
" clip-path="url(#p6c5568386b)" style="fill: none; stroke: #7f7f7f; stroke-width: 1.5; stroke-linecap: square"/>
   </g>
   <g id="line2d_43">
    <path d="M 58.523438 229.955577 
L 85.739438 229.92431 
L 86.603437 229.510968 
L 87.467438 228.810059 
L 88.331437 227.857008 
L 89.627437 226.022651 
L 90.923438 223.783079 
L 92.651438 220.29826 
L 94.811437 215.350926 
L 97.835437 207.737297 
L 110.795437 174.201291 
L 114.683437 165.156472 
L 118.139437 157.660127 
L 121.595438 150.659079 
L 125.051438 144.118153 
L 128.939437 137.255805 
L 132.827438 130.858174 
L 136.715438 124.866807 
L 141.035438 118.624749 
L 145.355437 112.76453 
L 150.107438 106.706033 
L 154.859438 101.010249 
L 159.611437 95.644016 
L 164.795437 90.137346 
L 169.979438 84.970519 
L 175.163437 80.125551 
L 180.347438 75.58771 
L 185.531437 71.34404 
L 190.715438 67.382463 
L 195.899438 63.691259 
L 201.083438 60.258816 
L 206.699437 56.818883 
L 212.315438 53.654267 
L 217.931437 50.750275 
L 223.547438 48.092355 
L 229.595438 45.488747 
L 235.643438 43.136423 
L 241.691438 41.018392 
L 248.171437 38.990429 
L 254.651437 37.193202 
L 261.563437 35.50964 
L 268.907438 33.961614 
L 276.251438 32.638048 
L 284.027438 31.456249 
L 292.235437 30.42692 
L 301.307437 29.51802 
L 310.811438 28.788549 
L 321.179438 28.21302 
L 332.843437 27.792589 
L 345.803437 27.550369 
L 360.923437 27.494313 
L 379.499437 27.657544 
L 404.987437 28.123095 
L 512.987437 30.335949 
L 553.595438 30.813428 
L 600.251437 31.131288 
L 660.731437 31.306648 
L 728.123438 31.349931 
L 728.123438 31.349931 
" clip-path="url(#p6c5568386b)" style="fill: none; stroke: #bcbd22; stroke-width: 1.5; stroke-linecap: square"/>
   </g>
   <g id="line2d_44">
    <path d="M 58.523438 229.955577 
L 85.739438 229.90677 
L 86.603437 229.512222 
L 87.467438 228.841292 
L 88.331437 227.926155 
L 89.627437 226.157809 
L 90.923438 223.989065 
L 92.651438 220.597438 
L 94.811437 215.753106 
L 97.403437 209.350715 
L 102.155438 196.853563 
L 108.203438 181.033214 
L 112.091437 171.44229 
L 115.979437 162.465782 
L 119.435438 155.026753 
L 122.891437 148.081272 
L 126.347437 141.596576 
L 130.235437 134.801047 
L 134.123437 128.476062 
L 138.011437 122.564092 
L 142.331437 116.417958 
L 146.651437 110.660488 
L 151.403437 104.72057 
L 156.155438 99.146424 
L 160.907438 93.902221 
L 166.091437 88.52652 
L 171.275438 83.486326 
L 176.459437 78.762218 
L 181.643438 74.338643 
L 186.827438 70.202288 
L 192.011437 66.341036 
L 197.195437 62.743338 
L 202.379437 59.397864 
L 207.995438 56.045163 
L 213.611437 52.960949 
L 219.227438 50.130968 
L 224.843437 47.541077 
L 230.891437 45.004483 
L 236.939437 42.713122 
L 242.987437 40.650418 
L 249.467437 38.675917 
L 255.947438 36.926571 
L 262.859438 35.288413 
L 270.203438 33.782751 
L 277.979438 32.426692 
L 286.187437 31.232826 
L 294.827437 30.209051 
L 303.899437 29.358566 
L 313.835438 28.653809 
L 324.635438 28.11412 
L 336.731437 27.738629 
L 350.555437 27.542292 
L 366.539438 27.544503 
L 386.843437 27.783684 
L 416.651437 28.384603 
L 494.843437 30.040781 
L 534.587438 30.60826 
L 577.787438 30.997956 
L 630.491437 31.239987 
L 706.523438 31.344671 
L 728.123438 31.349577 
L 728.123438 31.349577 
" clip-path="url(#p6c5568386b)" style="fill: none; stroke: #17becf; stroke-width: 1.5; stroke-linecap: square"/>
   </g>
   <g id="line2d_45">
    <path d="M 58.523438 229.886451 
L 79.691438 229.886451 
L 80.123437 31.311946 
L 728.123438 31.311946 
L 728.123438 31.311946 
" clip-path="url(#p6c5568386b)" style="fill: none; stroke-dasharray: 7.4,3.2; stroke-dashoffset: 0; stroke: #000000; stroke-width: 2"/>
   </g>
   <g id="patch_3">
    <path d="M 58.523438 450.72 
L 58.523438 7.2 
" style="fill: none; stroke: #000000; stroke-width: 0.8; stroke-linejoin: miter; stroke-linecap: square"/>
   </g>
   <g id="patch_4">
    <path d="M 728.123438 450.72 
L 728.123438 7.2 
" style="fill: none; stroke: #000000; stroke-width: 0.8; stroke-linejoin: miter; stroke-linecap: square"/>
   </g>
   <g id="patch_5">
    <path d="M 58.523438 450.72 
L 728.123438 450.72 
" style="fill: none; stroke: #000000; stroke-width: 0.8; stroke-linejoin: miter; stroke-linecap: square"/>
   </g>
   <g id="patch_6">
    <path d="M 58.523438 7.2 
L 728.123438 7.2 
" style="fill: none; stroke: #000000; stroke-width: 0.8; stroke-linejoin: miter; stroke-linecap: square"/>
   </g>
   <g id="legend_1">
    <g id="patch_7">
     <path d="M 651.892187 445.72 
L 721.123438 445.72 
Q 723.123438 445.72 723.123438 443.72 
L 723.123438 283.260625 
Q 723.123438 281.260625 721.123438 281.260625 
L 651.892187 281.260625 
Q 649.892187 281.260625 649.892187 283.260625 
L 649.892187 443.72 
Q 649.892187 445.72 651.892187 445.72 
z
" style="fill: #ffffff; opacity: 0.8; stroke: #cccccc; stroke-linejoin: miter"/>
    </g>
    <g id="line2d_46">
     <path d="M 653.892187 289.359062 
L 663.892187 289.359062 
L 673.892187 289.359062 
" style="fill: none; stroke: #1f77b4; stroke-width: 1.5; stroke-linecap: square"/>
    </g>
    <g id="text_20">
     <!-- α = 0.1 -->
     <g transform="translate(681.892187 292.859062) scale(0.1 -0.1)">
      <defs>
       <path id="DejaVuSans-3b1" d="M 2644 1628 
L 2506 2350 
Q 2366 3091 1809 3091 
Q 1391 3091 1200 2747 
Q 959 2316 959 1747 
Q 959 1059 1194 731 
Q 1431 397 1809 397 
Q 2228 397 2453 1063 
L 2644 1628 
z
M 2966 2584 
L 3275 3500 
L 3788 3500 
L 3147 1603 
L 3272 919 
Q 3300 766 3409 638 
Q 3538 488 3638 488 
L 3913 488 
L 3913 0 
L 3569 0 
Q 3275 0 3013 263 
Q 2884 394 2831 669 
Q 2688 322 2394 50 
Q 2256 -78 1809 -78 
Q 1075 -78 719 397 
Q 353 888 353 1747 
Q 353 2666 750 3097 
Q 1191 3578 1809 3578 
Q 2781 3578 2966 2584 
z
" transform="scale(0.015625)"/>
       <path id="DejaVuSans-3d" d="M 678 2906 
L 4684 2906 
L 4684 2381 
L 678 2381 
L 678 2906 
z
M 678 1631 
L 4684 1631 
L 4684 1100 
L 678 1100 
L 678 1631 
z
" transform="scale(0.015625)"/>
      </defs>
      <use xlink:href="#DejaVuSans-3b1"/>
      <use xlink:href="#DejaVuSans-20" transform="translate(65.917969 0)"/>
      <use xlink:href="#DejaVuSans-3d" transform="translate(97.705078 0)"/>
      <use xlink:href="#DejaVuSans-20" transform="translate(181.494141 0)"/>
      <use xlink:href="#DejaVuSans-30" transform="translate(213.28125 0)"/>
      <use xlink:href="#DejaVuSans-2e" transform="translate(276.904297 0)"/>
      <use xlink:href="#DejaVuSans-31" transform="translate(308.691406 0)"/>
     </g>
    </g>
    <g id="line2d_47">
     <path d="M 653.892187 304.037187 
L 663.892187 304.037187 
L 673.892187 304.037187 
" style="fill: none; stroke: #ff7f0e; stroke-width: 1.5; stroke-linecap: square"/>
    </g>
    <g id="text_21">
     <!-- α = 0.2 -->
     <g transform="translate(681.892187 307.537187) scale(0.1 -0.1)">
      <use xlink:href="#DejaVuSans-3b1"/>
      <use xlink:href="#DejaVuSans-20" transform="translate(65.917969 0)"/>
      <use xlink:href="#DejaVuSans-3d" transform="translate(97.705078 0)"/>
      <use xlink:href="#DejaVuSans-20" transform="translate(181.494141 0)"/>
      <use xlink:href="#DejaVuSans-30" transform="translate(213.28125 0)"/>
      <use xlink:href="#DejaVuSans-2e" transform="translate(276.904297 0)"/>
      <use xlink:href="#DejaVuSans-32" transform="translate(308.691406 0)"/>
     </g>
    </g>
    <g id="line2d_48">
     <path d="M 653.892187 318.715312 
L 663.892187 318.715312 
L 673.892187 318.715312 
" style="fill: none; stroke: #2ca02c; stroke-width: 1.5; stroke-linecap: square"/>
    </g>
    <g id="text_22">
     <!-- α = 0.3 -->
     <g transform="translate(681.892187 322.215312) scale(0.1 -0.1)">
      <defs>
       <path id="DejaVuSans-33" d="M 2597 2516 
Q 3050 2419 3304 2112 
Q 3559 1806 3559 1356 
Q 3559 666 3084 287 
Q 2609 -91 1734 -91 
Q 1441 -91 1130 -33 
Q 819 25 488 141 
L 488 750 
Q 750 597 1062 519 
Q 1375 441 1716 441 
Q 2309 441 2620 675 
Q 2931 909 2931 1356 
Q 2931 1769 2642 2001 
Q 2353 2234 1838 2234 
L 1294 2234 
L 1294 2753 
L 1863 2753 
Q 2328 2753 2575 2939 
Q 2822 3125 2822 3475 
Q 2822 3834 2567 4026 
Q 2313 4219 1838 4219 
Q 1578 4219 1281 4162 
Q 984 4106 628 3988 
L 628 4550 
Q 988 4650 1302 4700 
Q 1616 4750 1894 4750 
Q 2613 4750 3031 4423 
Q 3450 4097 3450 3541 
Q 3450 3153 3228 2886 
Q 3006 2619 2597 2516 
z
" transform="scale(0.015625)"/>
      </defs>
      <use xlink:href="#DejaVuSans-3b1"/>
      <use xlink:href="#DejaVuSans-20" transform="translate(65.917969 0)"/>
      <use xlink:href="#DejaVuSans-3d" transform="translate(97.705078 0)"/>
      <use xlink:href="#DejaVuSans-20" transform="translate(181.494141 0)"/>
      <use xlink:href="#DejaVuSans-30" transform="translate(213.28125 0)"/>
      <use xlink:href="#DejaVuSans-2e" transform="translate(276.904297 0)"/>
      <use xlink:href="#DejaVuSans-33" transform="translate(308.691406 0)"/>
     </g>
    </g>
    <g id="line2d_49">
     <path d="M 653.892187 333.393437 
L 663.892187 333.393437 
L 673.892187 333.393437 
" style="fill: none; stroke: #d62728; stroke-width: 1.5; stroke-linecap: square"/>
    </g>
    <g id="text_23">
     <!-- α = 0.4 -->
     <g transform="translate(681.892187 336.893437) scale(0.1 -0.1)">
      <use xlink:href="#DejaVuSans-3b1"/>
      <use xlink:href="#DejaVuSans-20" transform="translate(65.917969 0)"/>
      <use xlink:href="#DejaVuSans-3d" transform="translate(97.705078 0)"/>
      <use xlink:href="#DejaVuSans-20" transform="translate(181.494141 0)"/>
      <use xlink:href="#DejaVuSans-30" transform="translate(213.28125 0)"/>
      <use xlink:href="#DejaVuSans-2e" transform="translate(276.904297 0)"/>
      <use xlink:href="#DejaVuSans-34" transform="translate(308.691406 0)"/>
     </g>
    </g>
    <g id="line2d_50">
     <path d="M 653.892187 348.071562 
L 663.892187 348.071562 
L 673.892187 348.071562 
" style="fill: none; stroke: #9467bd; stroke-width: 1.5; stroke-linecap: square"/>
    </g>
    <g id="text_24">
     <!-- α = 0.5 -->
     <g transform="translate(681.892187 351.571562) scale(0.1 -0.1)">
      <use xlink:href="#DejaVuSans-3b1"/>
      <use xlink:href="#DejaVuSans-20" transform="translate(65.917969 0)"/>
      <use xlink:href="#DejaVuSans-3d" transform="translate(97.705078 0)"/>
      <use xlink:href="#DejaVuSans-20" transform="translate(181.494141 0)"/>
      <use xlink:href="#DejaVuSans-30" transform="translate(213.28125 0)"/>
      <use xlink:href="#DejaVuSans-2e" transform="translate(276.904297 0)"/>
      <use xlink:href="#DejaVuSans-35" transform="translate(308.691406 0)"/>
     </g>
    </g>
    <g id="line2d_51">
     <path d="M 653.892187 362.749687 
L 663.892187 362.749687 
L 673.892187 362.749687 
" style="fill: none; stroke: #8c564b; stroke-width: 1.5; stroke-linecap: square"/>
    </g>
    <g id="text_25">
     <!-- α = 0.6 -->
     <g transform="translate(681.892187 366.249687) scale(0.1 -0.1)">
      <use xlink:href="#DejaVuSans-3b1"/>
      <use xlink:href="#DejaVuSans-20" transform="translate(65.917969 0)"/>
      <use xlink:href="#DejaVuSans-3d" transform="translate(97.705078 0)"/>
      <use xlink:href="#DejaVuSans-20" transform="translate(181.494141 0)"/>
      <use xlink:href="#DejaVuSans-30" transform="translate(213.28125 0)"/>
      <use xlink:href="#DejaVuSans-2e" transform="translate(276.904297 0)"/>
      <use xlink:href="#DejaVuSans-36" transform="translate(308.691406 0)"/>
     </g>
    </g>
    <g id="line2d_52">
     <path d="M 653.892187 377.427812 
L 663.892187 377.427812 
L 673.892187 377.427812 
" style="fill: none; stroke: #e377c2; stroke-width: 1.5; stroke-linecap: square"/>
    </g>
    <g id="text_26">
     <!-- α = 0.7 -->
     <g transform="translate(681.892187 380.927812) scale(0.1 -0.1)">
      <use xlink:href="#DejaVuSans-3b1"/>
      <use xlink:href="#DejaVuSans-20" transform="translate(65.917969 0)"/>
      <use xlink:href="#DejaVuSans-3d" transform="translate(97.705078 0)"/>
      <use xlink:href="#DejaVuSans-20" transform="translate(181.494141 0)"/>
      <use xlink:href="#DejaVuSans-30" transform="translate(213.28125 0)"/>
      <use xlink:href="#DejaVuSans-2e" transform="translate(276.904297 0)"/>
      <use xlink:href="#DejaVuSans-37" transform="translate(308.691406 0)"/>
     </g>
    </g>
    <g id="line2d_53">
     <path d="M 653.892187 392.105937 
L 663.892187 392.105937 
L 673.892187 392.105937 
" style="fill: none; stroke: #7f7f7f; stroke-width: 1.5; stroke-linecap: square"/>
    </g>
    <g id="text_27">
     <!-- α = 0.8 -->
     <g transform="translate(681.892187 395.605937) scale(0.1 -0.1)">
      <use xlink:href="#DejaVuSans-3b1"/>
      <use xlink:href="#DejaVuSans-20" transform="translate(65.917969 0)"/>
      <use xlink:href="#DejaVuSans-3d" transform="translate(97.705078 0)"/>
      <use xlink:href="#DejaVuSans-20" transform="translate(181.494141 0)"/>
      <use xlink:href="#DejaVuSans-30" transform="translate(213.28125 0)"/>
      <use xlink:href="#DejaVuSans-2e" transform="translate(276.904297 0)"/>
      <use xlink:href="#DejaVuSans-38" transform="translate(308.691406 0)"/>
     </g>
    </g>
    <g id="line2d_54">
     <path d="M 653.892187 406.784062 
L 663.892187 406.784062 
L 673.892187 406.784062 
" style="fill: none; stroke: #bcbd22; stroke-width: 1.5; stroke-linecap: square"/>
    </g>
    <g id="text_28">
     <!-- α = 0.9 -->
     <g transform="translate(681.892187 410.284062) scale(0.1 -0.1)">
      <defs>
       <path id="DejaVuSans-39" d="M 703 97 
L 703 672 
Q 941 559 1184 500 
Q 1428 441 1663 441 
Q 2288 441 2617 861 
Q 2947 1281 2994 2138 
Q 2813 1869 2534 1725 
Q 2256 1581 1919 1581 
Q 1219 1581 811 2004 
Q 403 2428 403 3163 
Q 403 3881 828 4315 
Q 1253 4750 1959 4750 
Q 2769 4750 3195 4129 
Q 3622 3509 3622 2328 
Q 3622 1225 3098 567 
Q 2575 -91 1691 -91 
Q 1453 -91 1209 -44 
Q 966 3 703 97 
z
M 1959 2075 
Q 2384 2075 2632 2365 
Q 2881 2656 2881 3163 
Q 2881 3666 2632 3958 
Q 2384 4250 1959 4250 
Q 1534 4250 1286 3958 
Q 1038 3666 1038 3163 
Q 1038 2656 1286 2365 
Q 1534 2075 1959 2075 
z
" transform="scale(0.015625)"/>
      </defs>
      <use xlink:href="#DejaVuSans-3b1"/>
      <use xlink:href="#DejaVuSans-20" transform="translate(65.917969 0)"/>
      <use xlink:href="#DejaVuSans-3d" transform="translate(97.705078 0)"/>
      <use xlink:href="#DejaVuSans-20" transform="translate(181.494141 0)"/>
      <use xlink:href="#DejaVuSans-30" transform="translate(213.28125 0)"/>
      <use xlink:href="#DejaVuSans-2e" transform="translate(276.904297 0)"/>
      <use xlink:href="#DejaVuSans-39" transform="translate(308.691406 0)"/>
     </g>
    </g>
    <g id="line2d_55">
     <path d="M 653.892187 421.462187 
L 663.892187 421.462187 
L 673.892187 421.462187 
" style="fill: none; stroke: #17becf; stroke-width: 1.5; stroke-linecap: square"/>
    </g>
    <g id="text_29">
     <!-- α = 1.0 -->
     <g transform="translate(681.892187 424.962187) scale(0.1 -0.1)">
      <use xlink:href="#DejaVuSans-3b1"/>
      <use xlink:href="#DejaVuSans-20" transform="translate(65.917969 0)"/>
      <use xlink:href="#DejaVuSans-3d" transform="translate(97.705078 0)"/>
      <use xlink:href="#DejaVuSans-20" transform="translate(181.494141 0)"/>
      <use xlink:href="#DejaVuSans-31" transform="translate(213.28125 0)"/>
      <use xlink:href="#DejaVuSans-2e" transform="translate(276.904297 0)"/>
      <use xlink:href="#DejaVuSans-30" transform="translate(308.691406 0)"/>
     </g>
    </g>
    <g id="line2d_56">
     <path d="M 653.892187 436.140312 
L 663.892187 436.140312 
L 673.892187 436.140312 
" style="fill: none; stroke-dasharray: 7.4,3.2; stroke-dashoffset: 0; stroke: #000000; stroke-width: 2"/>
    </g>
    <g id="text_30">
     <!-- SP -->
     <g transform="translate(681.892187 439.640312) scale(0.1 -0.1)">
      <defs>
       <path id="DejaVuSans-53" d="M 3425 4513 
L 3425 3897 
Q 3066 4069 2747 4153 
Q 2428 4238 2131 4238 
Q 1616 4238 1336 4038 
Q 1056 3838 1056 3469 
Q 1056 3159 1242 3001 
Q 1428 2844 1947 2747 
L 2328 2669 
Q 3034 2534 3370 2195 
Q 3706 1856 3706 1288 
Q 3706 609 3251 259 
Q 2797 -91 1919 -91 
Q 1588 -91 1214 -16 
Q 841 59 441 206 
L 441 856 
Q 825 641 1194 531 
Q 1563 422 1919 422 
Q 2459 422 2753 634 
Q 3047 847 3047 1241 
Q 3047 1584 2836 1778 
Q 2625 1972 2144 2069 
L 1759 2144 
Q 1053 2284 737 2584 
Q 422 2884 422 3419 
Q 422 4038 858 4394 
Q 1294 4750 2059 4750 
Q 2388 4750 2728 4690 
Q 3069 4631 3425 4513 
z
" transform="scale(0.015625)"/>
      </defs>
      <use xlink:href="#DejaVuSans-53"/>
      <use xlink:href="#DejaVuSans-50" transform="translate(63.476562 0)"/>
     </g>
    </g>
   </g>
  </g>
 </g>
 <defs>
  <clipPath id="p6c5568386b">
   <rect x="58.523438" y="7.2" width="669.6" height="443.52"/>
  </clipPath>
 </defs>
</svg>
