<?xml version="1.0" encoding="utf-8" standalone="no"?>
<!DOCTYPE svg PUBLIC "-//W3C//DTD SVG 1.1//EN"
  "http://www.w3.org/Graphics/SVG/1.1/DTD/svg11.dtd">
<svg xmlns:xlink="http://www.w3.org/1999/xlink" width="723.765625pt" height="488.27625pt" viewBox="0 0 723.765625 488.27625" xmlns="http://www.w3.org/2000/svg" version="1.1">
 <metadata>
  <rdf:RDF xmlns:dc="http://purl.org/dc/elements/1.1/" xmlns:cc="http://creativecommons.org/ns#" xmlns:rdf="http://www.w3.org/1999/02/22-rdf-syntax-ns#">
   <cc:Work>
    <dc:type rdf:resource="http://purl.org/dc/dcmitype/StillImage"/>
    <dc:date>2026-04-01T16:48:13.783678</dc:date>
    <dc:format>image/svg+xml</dc:format>
    <dc:creator>
     <cc:Agent>
      <dc:title>Matplotlib v3.10.6, https://matplotlib.org/</dc:title>
     </cc:Agent>
    </dc:creator>
   </cc:Work>
  </rdf:RDF>
 </metadata>
 <defs>
  <style type="text/css">*{stroke-linejoin: round; stroke-linecap: butt}</style>
 </defs>
 <g id="figure_1">
  <g id="patch_1">
   <path d="M 0 488.27625 
L 723.765625 488.27625 
L 723.765625 0 
L 0 0 
z
" style="fill: #ffffff"/>
  </g>
  <g id="axes_1">
   <g id="patch_2">
    <path d="M 46.965625 450.72 
L 716.565625 450.72 
L 716.565625 7.2 
L 46.965625 7.2 
z
" style="fill: #ffffff"/>
   </g>
   <g id="matplotlib.axis_1">
    <g id="xtick_1">
     <g id="line2d_1">
      <path d="M 46.965625 450.72 
L 46.965625 7.2 
" clip-path="url(#p22c13fc79b)" style="fill: none; stroke: #b0b0b0; stroke-width: 0.8; stroke-linecap: square"/>
     </g>
     <g id="line2d_2">
      <defs>
       <path id="mb6539ed53f" d="M 0 0 
L 0 3.5 
" style="stroke: #000000; stroke-width: 0.8"/>
      </defs>
      <g>
       <use xlink:href="#mb6539ed53f" x="46.965625" y="450.72" style="stroke: #000000; stroke-width: 0.8"/>
      </g>
     </g>
     <g id="text_1">
      <!-- 0 -->
      <g transform="translate(43.784375 465.318437) scale(0.1 -0.1)">
       <defs>
        <path id="DejaVuSans-30" d="M 2034 4250 
Q 1547 4250 1301 3770 
Q 1056 3291 1056 2328 
Q 1056 1369 1301 889 
Q 1547 409 2034 409 
Q 2525 409 2770 889 
Q 3016 1369 3016 2328 
Q 3016 3291 2770 3770 
Q 2525 4250 2034 4250 
z
M 2034 4750 
Q 2819 4750 3233 4129 
Q 3647 3509 3647 2328 
Q 3647 1150 3233 529 
Q 2819 -91 2034 -91 
Q 1250 -91 836 529 
Q 422 1150 422 2328 
Q 422 3509 836 4129 
Q 1250 4750 2034 4750 
z
" transform="scale(0.015625)"/>
       </defs>
       <use xlink:href="#DejaVuSans-30"/>
      </g>
     </g>
    </g>
    <g id="xtick_2">
     <g id="line2d_3">
      <path d="M 133.365625 450.72 
L 133.365625 7.2 
" clip-path="url(#p22c13fc79b)" style="fill: none; stroke: #b0b0b0; stroke-width: 0.8; stroke-linecap: square"/>
     </g>
     <g id="line2d_4">
      <g>
       <use xlink:href="#mb6539ed53f" x="133.365625" y="450.72" style="stroke: #000000; stroke-width: 0.8"/>
      </g>
     </g>
     <g id="text_2">
      <!-- 200 -->
      <g transform="translate(123.821875 465.318437) scale(0.1 -0.1)">
       <defs>
        <path id="DejaVuSans-32" d="M 1228 531 
L 3431 531 
L 3431 0 
L 469 0 
L 469 531 
Q 828 903 1448 1529 
Q 2069 2156 2228 2338 
Q 2531 2678 2651 2914 
Q 2772 3150 2772 3378 
Q 2772 3750 2511 3984 
Q 2250 4219 1831 4219 
Q 1534 4219 1204 4116 
Q 875 4013 500 3803 
L 500 4441 
Q 881 4594 1212 4672 
Q 1544 4750 1819 4750 
Q 2544 4750 2975 4387 
Q 3406 4025 3406 3419 
Q 3406 3131 3298 2873 
Q 3191 2616 2906 2266 
Q 2828 2175 2409 1742 
Q 1991 1309 1228 531 
z
" transform="scale(0.015625)"/>
       </defs>
       <use xlink:href="#DejaVuSans-32"/>
       <use xlink:href="#DejaVuSans-30" transform="translate(63.623047 0)"/>
       <use xlink:href="#DejaVuSans-30" transform="translate(127.246094 0)"/>
      </g>
     </g>
    </g>
    <g id="xtick_3">
     <g id="line2d_5">
      <path d="M 219.765625 450.72 
L 219.765625 7.2 
" clip-path="url(#p22c13fc79b)" style="fill: none; stroke: #b0b0b0; stroke-width: 0.8; stroke-linecap: square"/>
     </g>
     <g id="line2d_6">
      <g>
       <use xlink:href="#mb6539ed53f" x="219.765625" y="450.72" style="stroke: #000000; stroke-width: 0.8"/>
      </g>
     </g>
     <g id="text_3">
      <!-- 400 -->
      <g transform="translate(210.221875 465.318437) scale(0.1 -0.1)">
       <defs>
        <path id="DejaVuSans-34" d="M 2419 4116 
L 825 1625 
L 2419 1625 
L 2419 4116 
z
M 2253 4666 
L 3047 4666 
L 3047 1625 
L 3713 1625 
L 3713 1100 
L 3047 1100 
L 3047 0 
L 2419 0 
L 2419 1100 
L 313 1100 
L 313 1709 
L 2253 4666 
z
" transform="scale(0.015625)"/>
       </defs>
       <use xlink:href="#DejaVuSans-34"/>
       <use xlink:href="#DejaVuSans-30" transform="translate(63.623047 0)"/>
       <use xlink:href="#DejaVuSans-30" transform="translate(127.246094 0)"/>
      </g>
     </g>
    </g>
    <g id="xtick_4">
     <g id="line2d_7">
      <path d="M 306.165625 450.72 
L 306.165625 7.2 
" clip-path="url(#p22c13fc79b)" style="fill: none; stroke: #b0b0b0; stroke-width: 0.8; stroke-linecap: square"/>
     </g>
     <g id="line2d_8">
      <g>
       <use xlink:href="#mb6539ed53f" x="306.165625" y="450.72" style="stroke: #000000; stroke-width: 0.8"/>
      </g>
     </g>
     <g id="text_4">
      <!-- 600 -->
      <g transform="translate(296.621875 465.318437) scale(0.1 -0.1)">
       <defs>
        <path id="DejaVuSans-36" d="M 2113 2584 
Q 1688 2584 1439 2293 
Q 1191 2003 1191 1497 
Q 1191 994 1439 701 
Q 1688 409 2113 409 
Q 2538 409 2786 701 
Q 3034 994 3034 1497 
Q 3034 2003 2786 2293 
Q 2538 2584 2113 2584 
z
M 3366 4563 
L 3366 3988 
Q 3128 4100 2886 4159 
Q 2644 4219 2406 4219 
Q 1781 4219 1451 3797 
Q 1122 3375 1075 2522 
Q 1259 2794 1537 2939 
Q 1816 3084 2150 3084 
Q 2853 3084 3261 2657 
Q 3669 2231 3669 1497 
Q 3669 778 3244 343 
Q 2819 -91 2113 -91 
Q 1303 -91 875 529 
Q 447 1150 447 2328 
Q 447 3434 972 4092 
Q 1497 4750 2381 4750 
Q 2619 4750 2861 4703 
Q 3103 4656 3366 4563 
z
" transform="scale(0.015625)"/>
       </defs>
       <use xlink:href="#DejaVuSans-36"/>
       <use xlink:href="#DejaVuSans-30" transform="translate(63.623047 0)"/>
       <use xlink:href="#DejaVuSans-30" transform="translate(127.246094 0)"/>
      </g>
     </g>
    </g>
    <g id="xtick_5">
     <g id="line2d_9">
      <path d="M 392.565625 450.72 
L 392.565625 7.2 
" clip-path="url(#p22c13fc79b)" style="fill: none; stroke: #b0b0b0; stroke-width: 0.8; stroke-linecap: square"/>
     </g>
     <g id="line2d_10">
      <g>
       <use xlink:href="#mb6539ed53f" x="392.565625" y="450.72" style="stroke: #000000; stroke-width: 0.8"/>
      </g>
     </g>
     <g id="text_5">
      <!-- 800 -->
      <g transform="translate(383.021875 465.318437) scale(0.1 -0.1)">
       <defs>
        <path id="DejaVuSans-38" d="M 2034 2216 
Q 1584 2216 1326 1975 
Q 1069 1734 1069 1313 
Q 1069 891 1326 650 
Q 1584 409 2034 409 
Q 2484 409 2743 651 
Q 3003 894 3003 1313 
Q 3003 1734 2745 1975 
Q 2488 2216 2034 2216 
z
M 1403 2484 
Q 997 2584 770 2862 
Q 544 3141 544 3541 
Q 544 4100 942 4425 
Q 1341 4750 2034 4750 
Q 2731 4750 3128 4425 
Q 3525 4100 3525 3541 
Q 3525 3141 3298 2862 
Q 3072 2584 2669 2484 
Q 3125 2378 3379 2068 
Q 3634 1759 3634 1313 
Q 3634 634 3220 271 
Q 2806 -91 2034 -91 
Q 1263 -91 848 271 
Q 434 634 434 1313 
Q 434 1759 690 2068 
Q 947 2378 1403 2484 
z
M 1172 3481 
Q 1172 3119 1398 2916 
Q 1625 2713 2034 2713 
Q 2441 2713 2670 2916 
Q 2900 3119 2900 3481 
Q 2900 3844 2670 4047 
Q 2441 4250 2034 4250 
Q 1625 4250 1398 4047 
Q 1172 3844 1172 3481 
z
" transform="scale(0.015625)"/>
       </defs>
       <use xlink:href="#DejaVuSans-38"/>
       <use xlink:href="#DejaVuSans-30" transform="translate(63.623047 0)"/>
       <use xlink:href="#DejaVuSans-30" transform="translate(127.246094 0)"/>
      </g>
     </g>
    </g>
    <g id="xtick_6">
     <g id="line2d_11">
      <path d="M 478.965625 450.72 
L 478.965625 7.2 
" clip-path="url(#p22c13fc79b)" style="fill: none; stroke: #b0b0b0; stroke-width: 0.8; stroke-linecap: square"/>
     </g>
     <g id="line2d_12">
      <g>
       <use xlink:href="#mb6539ed53f" x="478.965625" y="450.72" style="stroke: #000000; stroke-width: 0.8"/>
      </g>
     </g>
     <g id="text_6">
      <!-- 1000 -->
      <g transform="translate(466.240625 465.318437) scale(0.1 -0.1)">
       <defs>
        <path id="DejaVuSans-31" d="M 794 531 
L 1825 531 
L 1825 4091 
L 703 3866 
L 703 4441 
L 1819 4666 
L 2450 4666 
L 2450 531 
L 3481 531 
L 3481 0 
L 794 0 
L 794 531 
z
" transform="scale(0.015625)"/>
       </defs>
       <use xlink:href="#DejaVuSans-31"/>
       <use xlink:href="#DejaVuSans-30" transform="translate(63.623047 0)"/>
       <use xlink:href="#DejaVuSans-30" transform="translate(127.246094 0)"/>
       <use xlink:href="#DejaVuSans-30" transform="translate(190.869141 0)"/>
      </g>
     </g>
    </g>
    <g id="xtick_7">
     <g id="line2d_13">
      <path d="M 565.365625 450.72 
L 565.365625 7.2 
" clip-path="url(#p22c13fc79b)" style="fill: none; stroke: #b0b0b0; stroke-width: 0.8; stroke-linecap: square"/>
     </g>
     <g id="line2d_14">
      <g>
       <use xlink:href="#mb6539ed53f" x="565.365625" y="450.72" style="stroke: #000000; stroke-width: 0.8"/>
      </g>
     </g>
     <g id="text_7">
      <!-- 1200 -->
      <g transform="translate(552.640625 465.318437) scale(0.1 -0.1)">
       <use xlink:href="#DejaVuSans-31"/>
       <use xlink:href="#DejaVuSans-32" transform="translate(63.623047 0)"/>
       <use xlink:href="#DejaVuSans-30" transform="translate(127.246094 0)"/>
       <use xlink:href="#DejaVuSans-30" transform="translate(190.869141 0)"/>
      </g>
     </g>
    </g>
    <g id="xtick_8">
     <g id="line2d_15">
      <path d="M 651.765625 450.72 
L 651.765625 7.2 
" clip-path="url(#p22c13fc79b)" style="fill: none; stroke: #b0b0b0; stroke-width: 0.8; stroke-linecap: square"/>
     </g>
     <g id="line2d_16">
      <g>
       <use xlink:href="#mb6539ed53f" x="651.765625" y="450.72" style="stroke: #000000; stroke-width: 0.8"/>
      </g>
     </g>
     <g id="text_8">
      <!-- 1400 -->
      <g transform="translate(639.040625 465.318437) scale(0.1 -0.1)">
       <use xlink:href="#DejaVuSans-31"/>
       <use xlink:href="#DejaVuSans-34" transform="translate(63.623047 0)"/>
       <use xlink:href="#DejaVuSans-30" transform="translate(127.246094 0)"/>
       <use xlink:href="#DejaVuSans-30" transform="translate(190.869141 0)"/>
      </g>
     </g>
    </g>
    <g id="text_9">
     <!-- Time [s] -->
     <g transform="translate(361.436719 478.996562) scale(0.1 -0.1)">
      <defs>
       <path id="DejaVuSans-54" d="M -19 4666 
L 3928 4666 
L 3928 4134 
L 2272 4134 
L 2272 0 
L 1638 0 
L 1638 4134 
L -19 4134 
L -19 4666 
z
" transform="scale(0.015625)"/>
       <path id="DejaVuSans-69" d="M 603 3500 
L 1178 3500 
L 1178 0 
L 603 0 
L 603 3500 
z
M 603 4863 
L 1178 4863 
L 1178 4134 
L 603 4134 
L 603 4863 
z
" transform="scale(0.015625)"/>
       <path id="DejaVuSans-6d" d="M 3328 2828 
Q 3544 3216 3844 3400 
Q 4144 3584 4550 3584 
Q 5097 3584 5394 3201 
Q 5691 2819 5691 2113 
L 5691 0 
L 5113 0 
L 5113 2094 
Q 5113 2597 4934 2840 
Q 4756 3084 4391 3084 
Q 3944 3084 3684 2787 
Q 3425 2491 3425 1978 
L 3425 0 
L 2847 0 
L 2847 2094 
Q 2847 2600 2669 2842 
Q 2491 3084 2119 3084 
Q 1678 3084 1418 2786 
Q 1159 2488 1159 1978 
L 1159 0 
L 581 0 
L 581 3500 
L 1159 3500 
L 1159 2956 
Q 1356 3278 1631 3431 
Q 1906 3584 2284 3584 
Q 2666 3584 2933 3390 
Q 3200 3197 3328 2828 
z
" transform="scale(0.015625)"/>
       <path id="DejaVuSans-65" d="M 3597 1894 
L 3597 1613 
L 953 1613 
Q 991 1019 1311 708 
Q 1631 397 2203 397 
Q 2534 397 2845 478 
Q 3156 559 3463 722 
L 3463 178 
Q 3153 47 2828 -22 
Q 2503 -91 2169 -91 
Q 1331 -91 842 396 
Q 353 884 353 1716 
Q 353 2575 817 3079 
Q 1281 3584 2069 3584 
Q 2775 3584 3186 3129 
Q 3597 2675 3597 1894 
z
M 3022 2063 
Q 3016 2534 2758 2815 
Q 2500 3097 2075 3097 
Q 1594 3097 1305 2825 
Q 1016 2553 972 2059 
L 3022 2063 
z
" transform="scale(0.015625)"/>
       <path id="DejaVuSans-20" transform="scale(0.015625)"/>
       <path id="DejaVuSans-5b" d="M 550 4863 
L 1875 4863 
L 1875 4416 
L 1125 4416 
L 1125 -397 
L 1875 -397 
L 1875 -844 
L 550 -844 
L 550 4863 
z
" transform="scale(0.015625)"/>
       <path id="DejaVuSans-73" d="M 2834 3397 
L 2834 2853 
Q 2591 2978 2328 3040 
Q 2066 3103 1784 3103 
Q 1356 3103 1142 2972 
Q 928 2841 928 2578 
Q 928 2378 1081 2264 
Q 1234 2150 1697 2047 
L 1894 2003 
Q 2506 1872 2764 1633 
Q 3022 1394 3022 966 
Q 3022 478 2636 193 
Q 2250 -91 1575 -91 
Q 1294 -91 989 -36 
Q 684 19 347 128 
L 347 722 
Q 666 556 975 473 
Q 1284 391 1588 391 
Q 1994 391 2212 530 
Q 2431 669 2431 922 
Q 2431 1156 2273 1281 
Q 2116 1406 1581 1522 
L 1381 1569 
Q 847 1681 609 1914 
Q 372 2147 372 2553 
Q 372 3047 722 3315 
Q 1072 3584 1716 3584 
Q 2034 3584 2315 3537 
Q 2597 3491 2834 3397 
z
" transform="scale(0.015625)"/>
       <path id="DejaVuSans-5d" d="M 1947 4863 
L 1947 -844 
L 622 -844 
L 622 -397 
L 1369 -397 
L 1369 4416 
L 622 4416 
L 622 4863 
L 1947 4863 
z
" transform="scale(0.015625)"/>
      </defs>
      <use xlink:href="#DejaVuSans-54"/>
      <use xlink:href="#DejaVuSans-69" transform="translate(57.958984 0)"/>
      <use xlink:href="#DejaVuSans-6d" transform="translate(85.742188 0)"/>
      <use xlink:href="#DejaVuSans-65" transform="translate(183.154297 0)"/>
      <use xlink:href="#DejaVuSans-20" transform="translate(244.677734 0)"/>
      <use xlink:href="#DejaVuSans-5b" transform="translate(276.464844 0)"/>
      <use xlink:href="#DejaVuSans-73" transform="translate(315.478516 0)"/>
      <use xlink:href="#DejaVuSans-5d" transform="translate(367.578125 0)"/>
     </g>
    </g>
   </g>
   <g id="matplotlib.axis_2">
    <g id="ytick_1">
     <g id="line2d_17">
      <path d="M 46.965625 374.253983 
L 716.565625 374.253983 
" clip-path="url(#p22c13fc79b)" style="fill: none; stroke: #b0b0b0; stroke-width: 0.8; stroke-linecap: square"/>
     </g>
     <g id="line2d_18">
      <defs>
       <path id="m8940fe48e3" d="M 0 0 
L -3.5 0 
" style="stroke: #000000; stroke-width: 0.8"/>
      </defs>
      <g>
       <use xlink:href="#m8940fe48e3" x="46.965625" y="374.253983" style="stroke: #000000; stroke-width: 0.8"/>
      </g>
     </g>
     <g id="text_10">
      <!-- 20 -->
      <g transform="translate(27.240625 378.053201) scale(0.1 -0.1)">
       <use xlink:href="#DejaVuSans-32"/>
       <use xlink:href="#DejaVuSans-30" transform="translate(63.623047 0)"/>
      </g>
     </g>
    </g>
    <g id="ytick_2">
     <g id="line2d_19">
      <path d="M 46.965625 287.530487 
L 716.565625 287.530487 
" clip-path="url(#p22c13fc79b)" style="fill: none; stroke: #b0b0b0; stroke-width: 0.8; stroke-linecap: square"/>
     </g>
     <g id="line2d_20">
      <g>
       <use xlink:href="#m8940fe48e3" x="46.965625" y="287.530487" style="stroke: #000000; stroke-width: 0.8"/>
      </g>
     </g>
     <g id="text_11">
      <!-- 40 -->
      <g transform="translate(27.240625 291.329706) scale(0.1 -0.1)">
       <use xlink:href="#DejaVuSans-34"/>
       <use xlink:href="#DejaVuSans-30" transform="translate(63.623047 0)"/>
      </g>
     </g>
    </g>
    <g id="ytick_3">
     <g id="line2d_21">
      <path d="M 46.965625 200.806991 
L 716.565625 200.806991 
" clip-path="url(#p22c13fc79b)" style="fill: none; stroke: #b0b0b0; stroke-width: 0.8; stroke-linecap: square"/>
     </g>
     <g id="line2d_22">
      <g>
       <use xlink:href="#m8940fe48e3" x="46.965625" y="200.806991" style="stroke: #000000; stroke-width: 0.8"/>
      </g>
     </g>
     <g id="text_12">
      <!-- 60 -->
      <g transform="translate(27.240625 204.60621) scale(0.1 -0.1)">
       <use xlink:href="#DejaVuSans-36"/>
       <use xlink:href="#DejaVuSans-30" transform="translate(63.623047 0)"/>
      </g>
     </g>
    </g>
    <g id="ytick_4">
     <g id="line2d_23">
      <path d="M 46.965625 114.083496 
L 716.565625 114.083496 
" clip-path="url(#p22c13fc79b)" style="fill: none; stroke: #b0b0b0; stroke-width: 0.8; stroke-linecap: square"/>
     </g>
     <g id="line2d_24">
      <g>
       <use xlink:href="#m8940fe48e3" x="46.965625" y="114.083496" style="stroke: #000000; stroke-width: 0.8"/>
      </g>
     </g>
     <g id="text_13">
      <!-- 80 -->
      <g transform="translate(27.240625 117.882714) scale(0.1 -0.1)">
       <use xlink:href="#DejaVuSans-38"/>
       <use xlink:href="#DejaVuSans-30" transform="translate(63.623047 0)"/>
      </g>
     </g>
    </g>
    <g id="ytick_5">
     <g id="line2d_25">
      <path d="M 46.965625 27.36 
L 716.565625 27.36 
" clip-path="url(#p22c13fc79b)" style="fill: none; stroke: #b0b0b0; stroke-width: 0.8; stroke-linecap: square"/>
     </g>
     <g id="line2d_26">
      <g>
       <use xlink:href="#m8940fe48e3" x="46.965625" y="27.36" style="stroke: #000000; stroke-width: 0.8"/>
      </g>
     </g>
     <g id="text_14">
      <!-- 100 -->
      <g transform="translate(20.878125 31.159219) scale(0.1 -0.1)">
       <use xlink:href="#DejaVuSans-31"/>
       <use xlink:href="#DejaVuSans-30" transform="translate(63.623047 0)"/>
       <use xlink:href="#DejaVuSans-30" transform="translate(127.246094 0)"/>
      </g>
     </g>
    </g>
    <g id="text_15">
     <!-- MV [%] -->
     <g transform="translate(14.798438 246.935781) rotate(-90) scale(0.1 -0.1)">
      <defs>
       <path id="DejaVuSans-4d" d="M 628 4666 
L 1569 4666 
L 2759 1491 
L 3956 4666 
L 4897 4666 
L 4897 0 
L 4281 0 
L 4281 4097 
L 3078 897 
L 2444 897 
L 1241 4097 
L 1241 0 
L 628 0 
L 628 4666 
z
" transform="scale(0.015625)"/>
       <path id="DejaVuSans-56" d="M 1831 0 
L 50 4666 
L 709 4666 
L 2188 738 
L 3669 4666 
L 4325 4666 
L 2547 0 
L 1831 0 
z
" transform="scale(0.015625)"/>
       <path id="DejaVuSans-25" d="M 4653 2053 
Q 4381 2053 4226 1822 
Q 4072 1591 4072 1178 
Q 4072 772 4226 539 
Q 4381 306 4653 306 
Q 4919 306 5073 539 
Q 5228 772 5228 1178 
Q 5228 1588 5073 1820 
Q 4919 2053 4653 2053 
z
M 4653 2450 
Q 5147 2450 5437 2106 
Q 5728 1763 5728 1178 
Q 5728 594 5436 251 
Q 5144 -91 4653 -91 
Q 4153 -91 3862 251 
Q 3572 594 3572 1178 
Q 3572 1766 3864 2108 
Q 4156 2450 4653 2450 
z
M 1428 4353 
Q 1159 4353 1004 4120 
Q 850 3888 850 3481 
Q 850 3069 1003 2837 
Q 1156 2606 1428 2606 
Q 1700 2606 1854 2837 
Q 2009 3069 2009 3481 
Q 2009 3884 1853 4118 
Q 1697 4353 1428 4353 
z
M 4250 4750 
L 4750 4750 
L 1831 -91 
L 1331 -91 
L 4250 4750 
z
M 1428 4750 
Q 1922 4750 2215 4408 
Q 2509 4066 2509 3481 
Q 2509 2891 2217 2550 
Q 1925 2209 1428 2209 
Q 931 2209 642 2551 
Q 353 2894 353 3481 
Q 353 4063 643 4406 
Q 934 4750 1428 4750 
z
" transform="scale(0.015625)"/>
      </defs>
      <use xlink:href="#DejaVuSans-4d"/>
      <use xlink:href="#DejaVuSans-56" transform="translate(86.279297 0)"/>
      <use xlink:href="#DejaVuSans-20" transform="translate(154.6875 0)"/>
      <use xlink:href="#DejaVuSans-5b" transform="translate(186.474609 0)"/>
      <use xlink:href="#DejaVuSans-25" transform="translate(225.488281 0)"/>
      <use xlink:href="#DejaVuSans-5d" transform="translate(320.507812 0)"/>
     </g>
    </g>
   </g>
   <g id="line2d_27">
    <path d="M 46.965625 244.255924 
L 68.133625 244.243883 
L 68.565625 27.36 
L 68.997625 150.607944 
L 69.429625 236.53533 
L 69.861625 296.406993 
L 70.293625 338.087591 
L 70.725625 367.067915 
L 71.157625 387.181415 
L 71.589625 401.104453 
L 72.021625 410.705557 
L 72.453625 417.28926 
L 72.885625 421.766334 
L 73.317625 424.772644 
L 73.749625 426.752125 
L 74.613625 429.14462 
L 75.045625 429.971777 
L 75.477625 430.441431 
L 75.909625 430.56 
L 76.341625 430.363116 
L 76.773625 429.897386 
L 77.637625 428.346329 
L 78.501625 426.231683 
L 80.229625 421.149222 
L 84.549625 407.211464 
L 88.869625 393.621735 
L 93.189625 380.799667 
L 97.509625 368.6927 
L 101.829625 357.222184 
L 106.581625 345.268143 
L 111.333625 333.953782 
L 116.085625 323.237597 
L 120.837625 313.088305 
L 125.589625 303.480936 
L 130.341625 294.394334 
L 135.093625 285.809577 
L 139.845625 277.708999 
L 144.597625 270.075594 
L 149.349625 262.892681 
L 154.101625 256.143708 
L 158.853625 249.812173 
L 163.605625 243.881599 
L 168.357625 238.335541 
L 173.109625 233.157625 
L 177.861625 228.331587 
L 182.613625 223.841322 
L 187.365625 219.670931 
L 192.117625 215.804768 
L 196.869625 212.22748 
L 201.621625 208.924045 
L 206.373625 205.879807 
L 211.125625 203.080499 
L 216.309625 200.289791 
L 221.493625 197.75671 
L 226.677625 195.464509 
L 232.293625 193.234474 
L 237.909625 191.248695 
L 243.525625 189.488534 
L 249.573625 187.825003 
L 256.053625 186.286506 
L 262.533625 184.97669 
L 269.445625 183.806224 
L 276.789625 182.791189 
L 284.565625 181.942601 
L 292.773625 181.266285 
L 301.845625 180.742775 
L 311.781625 180.394755 
L 323.013625 180.23052 
L 335.973625 180.27393 
L 351.525625 180.56121 
L 371.829625 181.174164 
L 414.165625 182.743799 
L 450.885625 183.986247 
L 481.989625 184.810717 
L 513.525625 185.421016 
L 548.517625 185.869724 
L 589.989625 186.170309 
L 645.285625 186.332464 
L 716.565625 186.362033 
L 716.565625 186.362033 
" clip-path="url(#p22c13fc79b)" style="fill: none; stroke: #1f77b4; stroke-width: 1.5; stroke-linecap: square"/>
   </g>
   <g id="line2d_28">
    <path d="M 46.965625 244.260317 
L 68.133625 244.248469 
L 68.565625 27.36 
L 69.429625 104.6998 
L 70.293625 156.733194 
L 71.157625 191.656856 
L 72.021625 215.012579 
L 72.885625 230.547186 
L 73.749625 240.793915 
L 74.613625 247.701156 
L 75.477625 252.800921 
L 76.341625 256.421054 
L 77.205625 258.868676 
L 78.069625 260.409129 
L 78.933625 261.260734 
L 79.797625 261.597335 
L 80.661625 261.553881 
L 81.525625 261.2314 
L 82.821625 260.383024 
L 84.549625 258.82852 
L 87.141625 256.064263 
L 96.645625 245.596681 
L 100.965625 241.257525 
L 105.717625 236.811713 
L 110.469625 232.672099 
L 115.653625 228.467797 
L 120.837625 224.558315 
L 126.021625 220.920143 
L 131.637625 217.26369 
L 137.253625 213.884842 
L 142.869625 210.766972 
L 148.485625 207.895054 
L 154.533625 205.06123 
L 160.581625 202.479823 
L 166.629625 200.134939 
L 173.109625 197.867656 
L 179.589625 195.836207 
L 186.501625 193.909666 
L 193.413625 192.211429 
L 200.757625 190.635687 
L 208.533625 189.200211 
L 216.741625 187.918521 
L 225.381625 186.799671 
L 234.453625 185.848194 
L 244.389625 185.03322 
L 255.189625 184.375965 
L 267.285625 183.873387 
L 280.677625 183.546759 
L 296.229625 183.397516 
L 315.237625 183.450239 
L 340.725625 183.762689 
L 400.341625 184.80435 
L 447.861625 185.491676 
L 493.221625 185.920078 
L 546.357625 186.189063 
L 619.797625 186.317822 
L 716.565625 186.328905 
L 716.565625 186.328905 
" clip-path="url(#p22c13fc79b)" style="fill: none; stroke: #ff7f0e; stroke-width: 1.5; stroke-linecap: square"/>
   </g>
   <g id="line2d_29">
    <path d="M 46.965625 244.261484 
L 68.133625 244.250548 
L 68.565625 27.36 
L 69.429625 66.92044 
L 70.293625 96.955735 
L 71.157625 119.71433 
L 72.021625 136.913917 
L 72.885625 149.86672 
L 73.749625 159.575207 
L 74.613625 166.985721 
L 75.477625 173.065623 
L 76.341625 178.01304 
L 77.205625 182.007545 
L 78.069625 185.207857 
L 78.933625 187.751659 
L 79.797625 189.756668 
L 80.661625 191.32222 
L 81.525625 192.530119 
L 82.389625 193.447104 
L 83.253625 194.127726 
L 84.549625 194.800881 
L 85.845625 195.15884 
L 87.141625 195.289018 
L 88.869625 195.217403 
L 91.029625 194.878542 
L 94.485625 194.048926 
L 109.173625 190.22007 
L 115.653625 188.861599 
L 122.565625 187.635587 
L 130.341625 186.488791 
L 138.549625 185.503565 
L 147.621625 184.642272 
L 157.557625 183.930225 
L 168.357625 183.384398 
L 180.453625 183.00222 
L 194.277625 182.797308 
L 210.261625 182.787718 
L 230.565625 183.008801 
L 260.805625 183.587201 
L 337.701625 185.128757 
L 378.309625 185.670909 
L 422.805625 186.036338 
L 478.101625 186.255278 
L 561.909625 186.338074 
L 716.565625 186.315209 
L 716.565625 186.315209 
" clip-path="url(#p22c13fc79b)" style="fill: none; stroke: #2ca02c; stroke-width: 1.5; stroke-linecap: square"/>
   </g>
   <g id="line2d_30">
    <path d="M 46.965625 244.260942 
L 68.133625 244.251321 
L 68.565625 52.80728 
L 69.429625 76.580855 
L 70.293625 95.795995 
L 71.157625 111.298602 
L 72.021625 123.777603 
L 72.885625 133.794084 
L 73.749625 141.805011 
L 75.045625 151.230807 
L 76.341625 158.771243 
L 77.637625 164.748864 
L 78.933625 169.450071 
L 80.229625 173.121544 
L 81.525625 175.96988 
L 82.821625 178.162214 
L 84.117625 179.832692 
L 85.413625 181.089062 
L 86.709625 182.017842 
L 88.005625 182.688417 
L 89.733625 183.275244 
L 91.461625 183.602411 
L 93.621625 183.759008 
L 96.213625 183.710035 
L 100.101625 183.382333 
L 120.405625 181.304041 
L 129.045625 180.797417 
L 138.549625 180.468461 
L 149.781625 180.313122 
L 162.741625 180.365016 
L 178.725625 180.66538 
L 199.893625 181.304453 
L 299.685625 184.612692 
L 331.221625 185.275198 
L 365.349625 185.764875 
L 405.093625 186.104409 
L 456.069625 186.303134 
L 535.989625 186.363205 
L 716.565625 186.312828 
L 716.565625 186.312828 
" clip-path="url(#p22c13fc79b)" style="fill: none; stroke: #d62728; stroke-width: 1.5; stroke-linecap: square"/>
   </g>
   <g id="line2d_31">
    <path d="M 46.965625 244.249425 
L 68.133625 244.239652 
L 68.565625 77.163644 
L 69.861625 99.766642 
L 71.157625 117.129741 
L 72.453625 130.407077 
L 73.749625 140.498579 
L 75.045625 148.394827 
L 76.341625 155.032181 
L 77.637625 160.5711 
L 78.933625 165.164365 
L 80.229625 168.952587 
L 81.525625 172.061248 
L 82.821625 174.598183 
L 84.117625 176.655178 
L 85.413625 178.310331 
L 86.709625 179.630009 
L 88.005625 180.670509 
L 89.301625 181.479488 
L 91.029625 182.266637 
L 92.757625 182.7914 
L 94.917625 183.171763 
L 97.509625 183.343579 
L 100.533625 183.293881 
L 104.853625 182.976322 
L 125.589625 181.144822 
L 134.229625 180.726245 
L 144.165625 180.470607 
L 155.829625 180.398959 
L 169.653625 180.540009 
L 187.365625 180.95547 
L 213.285625 181.812701 
L 278.517625 184.042786 
L 310.053625 184.849951 
L 342.453625 185.45348 
L 378.309625 185.892628 
L 421.077625 186.184554 
L 478.533625 186.337549 
L 583.077625 186.351033 
L 716.565625 186.313043 
L 716.565625 186.313043 
" clip-path="url(#p22c13fc79b)" style="fill: none; stroke: #9467bd; stroke-width: 1.5; stroke-linecap: square"/>
   </g>
   <g id="line2d_32">
    <path d="M 46.965625 244.238566 
L 68.133625 244.227931 
L 68.565625 93.943218 
L 69.861625 109.940734 
L 71.157625 122.70093 
L 72.453625 132.833684 
L 73.749625 140.83398 
L 75.477625 149.319705 
L 76.773625 154.735004 
L 78.069625 159.418858 
L 79.365625 163.447806 
L 80.661625 166.896998 
L 81.957625 169.836753 
L 83.253625 172.330293 
L 84.549625 174.434146 
L 85.845625 176.198741 
L 87.141625 177.668943 
L 88.869625 179.239363 
L 90.597625 180.438385 
L 92.325625 181.335026 
L 94.053625 181.987235 
L 96.213625 182.531702 
L 98.373625 182.846151 
L 100.965625 183.004042 
L 104.421625 182.968234 
L 109.173625 182.669876 
L 130.773625 181.032623 
L 139.845625 180.683321 
L 150.213625 180.507147 
L 162.741625 180.523792 
L 178.293625 180.779333 
L 199.029625 181.361506 
L 240.069625 182.799087 
L 278.949625 184.056292 
L 310.917625 184.864175 
L 343.749625 185.466474 
L 380.037625 185.902318 
L 423.237625 186.189732 
L 481.557625 186.338949 
L 589.557625 186.348858 
L 716.565625 186.313263 
L 716.565625 186.313263 
" clip-path="url(#p22c13fc79b)" style="fill: none; stroke: #8c564b; stroke-width: 1.5; stroke-linecap: square"/>
   </g>
   <g id="line2d_33">
    <path d="M 46.965625 244.230983 
L 68.133625 244.219604 
L 68.565625 106.207742 
L 69.861625 118.011549 
L 71.157625 127.677718 
L 72.453625 135.55801 
L 73.749625 141.946299 
L 75.477625 148.947347 
L 77.205625 155.00323 
L 78.933625 160.182799 
L 80.661625 164.572656 
L 82.389625 168.264203 
L 84.117625 171.343784 
L 85.845625 173.890805 
L 87.573625 175.977558 
L 89.301625 177.669223 
L 91.029625 179.02403 
L 92.757625 180.093578 
L 94.485625 180.923246 
L 96.645625 181.682867 
L 98.805625 182.195214 
L 101.397625 182.559958 
L 104.421625 182.735048 
L 108.309625 182.70163 
L 113.925625 182.384877 
L 134.229625 181.038657 
L 143.733625 180.720803 
L 154.533625 180.587462 
L 167.493625 180.656218 
L 183.909625 180.975124 
L 206.805625 181.659316 
L 294.069625 184.4647 
L 326.469625 185.171153 
L 360.597625 185.688747 
L 399.909625 186.054431 
L 449.157625 186.276814 
L 522.165625 186.360771 
L 716.565625 186.313484 
L 716.565625 186.313484 
" clip-path="url(#p22c13fc79b)" style="fill: none; stroke: #e377c2; stroke-width: 1.5; stroke-linecap: square"/>
   </g>
   <g id="line2d_34">
    <path d="M 46.965625 244.225528 
L 68.133625 244.213482 
L 68.565625 115.563566 
L 69.861625 124.540088 
L 71.157625 132.032158 
L 72.453625 138.256599 
L 73.749625 143.398564 
L 75.909625 150.528234 
L 77.637625 155.545614 
L 79.365625 159.967462 
L 81.093625 163.828908 
L 82.821625 167.174151 
L 84.549625 170.049155 
L 86.277625 172.499803 
L 88.005625 174.570833 
L 89.733625 176.305016 
L 91.461625 177.742602 
L 93.189625 178.920968 
L 94.917625 179.874428 
L 97.077625 180.797202 
L 99.237625 181.471223 
L 101.829625 182.017303 
L 104.421625 182.340858 
L 107.877625 182.521289 
L 112.197625 182.483469 
L 118.245625 182.179215 
L 138.117625 181.041298 
L 148.053625 180.767201 
L 159.285625 180.684191 
L 173.109625 180.814948 
L 191.253625 181.226503 
L 218.901625 182.10558 
L 280.245625 184.097179 
L 313.077625 184.902117 
L 346.341625 185.491982 
L 383.493625 185.920837 
L 427.989625 186.201086 
L 488.469625 186.342 
L 605.541625 186.343503 
L 716.565625 186.313707 
L 716.565625 186.313707 
" clip-path="url(#p22c13fc79b)" style="fill: none; stroke: #7f7f7f; stroke-width: 1.5; stroke-linecap: square"/>
   </g>
   <g id="line2d_35">
    <path d="M 46.965625 244.221542 
L 68.133625 244.208877 
L 68.565625 122.935832 
L 69.861625 129.916595 
L 71.157625 135.824978 
L 72.453625 140.801787 
L 73.749625 144.969338 
L 75.909625 150.888989 
L 78.069625 156.208915 
L 80.229625 160.897451 
L 82.389625 164.968961 
L 84.117625 167.805352 
L 85.845625 170.292199 
L 87.573625 172.454859 
L 89.301625 174.320006 
L 91.029625 175.914694 
L 93.189625 177.56836 
L 95.349625 178.891332 
L 97.509625 179.930637 
L 99.669625 180.729445 
L 102.261625 181.425131 
L 104.853625 181.889589 
L 107.877625 182.206166 
L 111.333625 182.350947 
L 116.085625 182.30544 
L 123.429625 181.965107 
L 140.709625 181.103887 
L 151.077625 180.848506 
L 162.741625 180.791479 
L 176.997625 180.955816 
L 196.005625 181.413577 
L 227.541625 182.430401 
L 278.517625 184.052166 
L 311.781625 184.871203 
L 345.477625 185.473164 
L 382.629625 185.906937 
L 427.125625 186.192832 
L 487.173625 186.338592 
L 600.789625 186.345231 
L 716.565625 186.313932 
L 716.565625 186.313932 
" clip-path="url(#p22c13fc79b)" style="fill: none; stroke: #bcbd22; stroke-width: 1.5; stroke-linecap: square"/>
   </g>
   <g id="line2d_36">
    <path d="M 46.965625 244.218875 
L 68.133625 244.205664 
L 68.565625 128.895257 
L 69.861625 134.415083 
L 71.157625 139.135202 
L 72.453625 143.150975 
L 73.749625 146.546394 
L 76.773625 153.347011 
L 79.365625 158.593409 
L 81.525625 162.488446 
L 83.685625 165.940339 
L 85.845625 168.958463 
L 88.005625 171.563575 
L 90.165625 173.783967 
L 92.325625 175.652434 
L 94.485625 177.203954 
L 96.645625 178.473954 
L 98.805625 179.497062 
L 101.397625 180.445135 
L 103.989625 181.137613 
L 107.013625 181.685068 
L 110.469625 182.045997 
L 114.357625 182.209355 
L 119.541625 182.173173 
L 127.317625 181.861207 
L 144.597625 181.129237 
L 155.397625 180.921614 
L 167.493625 180.91357 
L 182.613625 181.13607 
L 203.349625 181.678969 
L 250.005625 183.198869 
L 288.453625 184.322061 
L 321.717625 185.067569 
L 356.277625 185.615484 
L 395.157625 186.003243 
L 443.109625 186.24782 
L 511.797625 186.354214 
L 692.805625 186.31859 
L 716.565625 186.314157 
L 716.565625 186.314157 
" clip-path="url(#p22c13fc79b)" style="fill: none; stroke: #17becf; stroke-width: 1.5; stroke-linecap: square"/>
   </g>
   <g id="patch_3">
    <path d="M 46.965625 450.72 
L 46.965625 7.2 
" style="fill: none; stroke: #000000; stroke-width: 0.8; stroke-linejoin: miter; stroke-linecap: square"/>
   </g>
   <g id="patch_4">
    <path d="M 716.565625 450.72 
L 716.565625 7.2 
" style="fill: none; stroke: #000000; stroke-width: 0.8; stroke-linejoin: miter; stroke-linecap: square"/>
   </g>
   <g id="patch_5">
    <path d="M 46.965625 450.72 
L 716.565625 450.72 
" style="fill: none; stroke: #000000; stroke-width: 0.8; stroke-linejoin: miter; stroke-linecap: square"/>
   </g>
   <g id="patch_6">
    <path d="M 46.965625 7.2 
L 716.565625 7.2 
" style="fill: none; stroke: #000000; stroke-width: 0.8; stroke-linejoin: miter; stroke-linecap: square"/>
   </g>
   <g id="legend_1">
    <g id="patch_7">
     <path d="M 640.334375 161.98125 
L 709.565625 161.98125 
Q 711.565625 161.98125 711.565625 159.98125 
L 711.565625 14.2 
Q 711.565625 12.2 709.565625 12.2 
L 640.334375 12.2 
Q 638.334375 12.2 638.334375 14.2 
L 638.334375 159.98125 
Q 638.334375 161.98125 640.334375 161.98125 
z
" style="fill: #ffffff; opacity: 0.8; stroke: #cccccc; stroke-linejoin: miter"/>
    </g>
    <g id="line2d_37">
     <path d="M 642.334375 20.298437 
L 652.334375 20.298437 
L 662.334375 20.298437 
" style="fill: none; stroke: #1f77b4; stroke-width: 1.5; stroke-linecap: square"/>
    </g>
    <g id="text_16">
     <!-- α = 0.1 -->
     <g transform="translate(670.334375 23.798437) scale(0.1 -0.1)">
      <defs>
       <path id="DejaVuSans-3b1" d="M 2644 1628 
L 2506 2350 
Q 2366 3091 1809 3091 
Q 1391 3091 1200 2747 
Q 959 2316 959 1747 
Q 959 1059 1194 731 
Q 1431 397 1809 397 
Q 2228 397 2453 1063 
L 2644 1628 
z
M 2966 2584 
L 3275 3500 
L 3788 3500 
L 3147 1603 
L 3272 919 
Q 3300 766 3409 638 
Q 3538 488 3638 488 
L 3913 488 
L 3913 0 
L 3569 0 
Q 3275 0 3013 263 
Q 2884 394 2831 669 
Q 2688 322 2394 50 
Q 2256 -78 1809 -78 
Q 1075 -78 719 397 
Q 353 888 353 1747 
Q 353 2666 750 3097 
Q 1191 3578 1809 3578 
Q 2781 3578 2966 2584 
z
" transform="scale(0.015625)"/>
       <path id="DejaVuSans-3d" d="M 678 2906 
L 4684 2906 
L 4684 2381 
L 678 2381 
L 678 2906 
z
M 678 1631 
L 4684 1631 
L 4684 1100 
L 678 1100 
L 678 1631 
z
" transform="scale(0.015625)"/>
       <path id="DejaVuSans-2e" d="M 684 794 
L 1344 794 
L 1344 0 
L 684 0 
L 684 794 
z
" transform="scale(0.015625)"/>
      </defs>
      <use xlink:href="#DejaVuSans-3b1"/>
      <use xlink:href="#DejaVuSans-20" transform="translate(65.917969 0)"/>
      <use xlink:href="#DejaVuSans-3d" transform="translate(97.705078 0)"/>
      <use xlink:href="#DejaVuSans-20" transform="translate(181.494141 0)"/>
      <use xlink:href="#DejaVuSans-30" transform="translate(213.28125 0)"/>
      <use xlink:href="#DejaVuSans-2e" transform="translate(276.904297 0)"/>
      <use xlink:href="#DejaVuSans-31" transform="translate(308.691406 0)"/>
     </g>
    </g>
    <g id="line2d_38">
     <path d="M 642.334375 34.976562 
L 652.334375 34.976562 
L 662.334375 34.976562 
" style="fill: none; stroke: #ff7f0e; stroke-width: 1.5; stroke-linecap: square"/>
    </g>
    <g id="text_17">
     <!-- α = 0.2 -->
     <g transform="translate(670.334375 38.476562) scale(0.1 -0.1)">
      <use xlink:href="#DejaVuSans-3b1"/>
      <use xlink:href="#DejaVuSans-20" transform="translate(65.917969 0)"/>
      <use xlink:href="#DejaVuSans-3d" transform="translate(97.705078 0)"/>
      <use xlink:href="#DejaVuSans-20" transform="translate(181.494141 0)"/>
      <use xlink:href="#DejaVuSans-30" transform="translate(213.28125 0)"/>
      <use xlink:href="#DejaVuSans-2e" transform="translate(276.904297 0)"/>
      <use xlink:href="#DejaVuSans-32" transform="translate(308.691406 0)"/>
     </g>
    </g>
    <g id="line2d_39">
     <path d="M 642.334375 49.654688 
L 652.334375 49.654688 
L 662.334375 49.654688 
" style="fill: none; stroke: #2ca02c; stroke-width: 1.5; stroke-linecap: square"/>
    </g>
    <g id="text_18">
     <!-- α = 0.3 -->
     <g transform="translate(670.334375 53.154688) scale(0.1 -0.1)">
      <defs>
       <path id="DejaVuSans-33" d="M 2597 2516 
Q 3050 2419 3304 2112 
Q 3559 1806 3559 1356 
Q 3559 666 3084 287 
Q 2609 -91 1734 -91 
Q 1441 -91 1130 -33 
Q 819 25 488 141 
L 488 750 
Q 750 597 1062 519 
Q 1375 441 1716 441 
Q 2309 441 2620 675 
Q 2931 909 2931 1356 
Q 2931 1769 2642 2001 
Q 2353 2234 1838 2234 
L 1294 2234 
L 1294 2753 
L 1863 2753 
Q 2328 2753 2575 2939 
Q 2822 3125 2822 3475 
Q 2822 3834 2567 4026 
Q 2313 4219 1838 4219 
Q 1578 4219 1281 4162 
Q 984 4106 628 3988 
L 628 4550 
Q 988 4650 1302 4700 
Q 1616 4750 1894 4750 
Q 2613 4750 3031 4423 
Q 3450 4097 3450 3541 
Q 3450 3153 3228 2886 
Q 3006 2619 2597 2516 
z
" transform="scale(0.015625)"/>
      </defs>
      <use xlink:href="#DejaVuSans-3b1"/>
      <use xlink:href="#DejaVuSans-20" transform="translate(65.917969 0)"/>
      <use xlink:href="#DejaVuSans-3d" transform="translate(97.705078 0)"/>
      <use xlink:href="#DejaVuSans-20" transform="translate(181.494141 0)"/>
      <use xlink:href="#DejaVuSans-30" transform="translate(213.28125 0)"/>
      <use xlink:href="#DejaVuSans-2e" transform="translate(276.904297 0)"/>
      <use xlink:href="#DejaVuSans-33" transform="translate(308.691406 0)"/>
     </g>
    </g>
    <g id="line2d_40">
     <path d="M 642.334375 64.332812 
L 652.334375 64.332812 
L 662.334375 64.332812 
" style="fill: none; stroke: #d62728; stroke-width: 1.5; stroke-linecap: square"/>
    </g>
    <g id="text_19">
     <!-- α = 0.4 -->
     <g transform="translate(670.334375 67.832812) scale(0.1 -0.1)">
      <use xlink:href="#DejaVuSans-3b1"/>
      <use xlink:href="#DejaVuSans-20" transform="translate(65.917969 0)"/>
      <use xlink:href="#DejaVuSans-3d" transform="translate(97.705078 0)"/>
      <use xlink:href="#DejaVuSans-20" transform="translate(181.494141 0)"/>
      <use xlink:href="#DejaVuSans-30" transform="translate(213.28125 0)"/>
      <use xlink:href="#DejaVuSans-2e" transform="translate(276.904297 0)"/>
      <use xlink:href="#DejaVuSans-34" transform="translate(308.691406 0)"/>
     </g>
    </g>
    <g id="line2d_41">
     <path d="M 642.334375 79.010938 
L 652.334375 79.010938 
L 662.334375 79.010938 
" style="fill: none; stroke: #9467bd; stroke-width: 1.5; stroke-linecap: square"/>
    </g>
    <g id="text_20">
     <!-- α = 0.5 -->
     <g transform="translate(670.334375 82.510938) scale(0.1 -0.1)">
      <defs>
       <path id="DejaVuSans-35" d="M 691 4666 
L 3169 4666 
L 3169 4134 
L 1269 4134 
L 1269 2991 
Q 1406 3038 1543 3061 
Q 1681 3084 1819 3084 
Q 2600 3084 3056 2656 
Q 3513 2228 3513 1497 
Q 3513 744 3044 326 
Q 2575 -91 1722 -91 
Q 1428 -91 1123 -41 
Q 819 9 494 109 
L 494 744 
Q 775 591 1075 516 
Q 1375 441 1709 441 
Q 2250 441 2565 725 
Q 2881 1009 2881 1497 
Q 2881 1984 2565 2268 
Q 2250 2553 1709 2553 
Q 1456 2553 1204 2497 
Q 953 2441 691 2322 
L 691 4666 
z
" transform="scale(0.015625)"/>
      </defs>
      <use xlink:href="#DejaVuSans-3b1"/>
      <use xlink:href="#DejaVuSans-20" transform="translate(65.917969 0)"/>
      <use xlink:href="#DejaVuSans-3d" transform="translate(97.705078 0)"/>
      <use xlink:href="#DejaVuSans-20" transform="translate(181.494141 0)"/>
      <use xlink:href="#DejaVuSans-30" transform="translate(213.28125 0)"/>
      <use xlink:href="#DejaVuSans-2e" transform="translate(276.904297 0)"/>
      <use xlink:href="#DejaVuSans-35" transform="translate(308.691406 0)"/>
     </g>
    </g>
    <g id="line2d_42">
     <path d="M 642.334375 93.689062 
L 652.334375 93.689062 
L 662.334375 93.689062 
" style="fill: none; stroke: #8c564b; stroke-width: 1.5; stroke-linecap: square"/>
    </g>
    <g id="text_21">
     <!-- α = 0.6 -->
     <g transform="translate(670.334375 97.189062) scale(0.1 -0.1)">
      <use xlink:href="#DejaVuSans-3b1"/>
      <use xlink:href="#DejaVuSans-20" transform="translate(65.917969 0)"/>
      <use xlink:href="#DejaVuSans-3d" transform="translate(97.705078 0)"/>
      <use xlink:href="#DejaVuSans-20" transform="translate(181.494141 0)"/>
      <use xlink:href="#DejaVuSans-30" transform="translate(213.28125 0)"/>
      <use xlink:href="#DejaVuSans-2e" transform="translate(276.904297 0)"/>
      <use xlink:href="#DejaVuSans-36" transform="translate(308.691406 0)"/>
     </g>
    </g>
    <g id="line2d_43">
     <path d="M 642.334375 108.367188 
L 652.334375 108.367188 
L 662.334375 108.367188 
" style="fill: none; stroke: #e377c2; stroke-width: 1.5; stroke-linecap: square"/>
    </g>
    <g id="text_22">
     <!-- α = 0.7 -->
     <g transform="translate(670.334375 111.867188) scale(0.1 -0.1)">
      <defs>
       <path id="DejaVuSans-37" d="M 525 4666 
L 3525 4666 
L 3525 4397 
L 1831 0 
L 1172 0 
L 2766 4134 
L 525 4134 
L 525 4666 
z
" transform="scale(0.015625)"/>
      </defs>
      <use xlink:href="#DejaVuSans-3b1"/>
      <use xlink:href="#DejaVuSans-20" transform="translate(65.917969 0)"/>
      <use xlink:href="#DejaVuSans-3d" transform="translate(97.705078 0)"/>
      <use xlink:href="#DejaVuSans-20" transform="translate(181.494141 0)"/>
      <use xlink:href="#DejaVuSans-30" transform="translate(213.28125 0)"/>
      <use xlink:href="#DejaVuSans-2e" transform="translate(276.904297 0)"/>
      <use xlink:href="#DejaVuSans-37" transform="translate(308.691406 0)"/>
     </g>
    </g>
    <g id="line2d_44">
     <path d="M 642.334375 123.045312 
L 652.334375 123.045312 
L 662.334375 123.045312 
" style="fill: none; stroke: #7f7f7f; stroke-width: 1.5; stroke-linecap: square"/>
    </g>
    <g id="text_23">
     <!-- α = 0.8 -->
     <g transform="translate(670.334375 126.545312) scale(0.1 -0.1)">
      <use xlink:href="#DejaVuSans-3b1"/>
      <use xlink:href="#DejaVuSans-20" transform="translate(65.917969 0)"/>
      <use xlink:href="#DejaVuSans-3d" transform="translate(97.705078 0)"/>
      <use xlink:href="#DejaVuSans-20" transform="translate(181.494141 0)"/>
      <use xlink:href="#DejaVuSans-30" transform="translate(213.28125 0)"/>
      <use xlink:href="#DejaVuSans-2e" transform="translate(276.904297 0)"/>
      <use xlink:href="#DejaVuSans-38" transform="translate(308.691406 0)"/>
     </g>
    </g>
    <g id="line2d_45">
     <path d="M 642.334375 137.723437 
L 652.334375 137.723437 
L 662.334375 137.723437 
" style="fill: none; stroke: #bcbd22; stroke-width: 1.5; stroke-linecap: square"/>
    </g>
    <g id="text_24">
     <!-- α = 0.9 -->
     <g transform="translate(670.334375 141.223437) scale(0.1 -0.1)">
      <defs>
       <path id="DejaVuSans-39" d="M 703 97 
L 703 672 
Q 941 559 1184 500 
Q 1428 441 1663 441 
Q 2288 441 2617 861 
Q 2947 1281 2994 2138 
Q 2813 1869 2534 1725 
Q 2256 1581 1919 1581 
Q 1219 1581 811 2004 
Q 403 2428 403 3163 
Q 403 3881 828 4315 
Q 1253 4750 1959 4750 
Q 2769 4750 3195 4129 
Q 3622 3509 3622 2328 
Q 3622 1225 3098 567 
Q 2575 -91 1691 -91 
Q 1453 -91 1209 -44 
Q 966 3 703 97 
z
M 1959 2075 
Q 2384 2075 2632 2365 
Q 2881 2656 2881 3163 
Q 2881 3666 2632 3958 
Q 2384 4250 1959 4250 
Q 1534 4250 1286 3958 
Q 1038 3666 1038 3163 
Q 1038 2656 1286 2365 
Q 1534 2075 1959 2075 
z
" transform="scale(0.015625)"/>
      </defs>
      <use xlink:href="#DejaVuSans-3b1"/>
      <use xlink:href="#DejaVuSans-20" transform="translate(65.917969 0)"/>
      <use xlink:href="#DejaVuSans-3d" transform="translate(97.705078 0)"/>
      <use xlink:href="#DejaVuSans-20" transform="translate(181.494141 0)"/>
      <use xlink:href="#DejaVuSans-30" transform="translate(213.28125 0)"/>
      <use xlink:href="#DejaVuSans-2e" transform="translate(276.904297 0)"/>
      <use xlink:href="#DejaVuSans-39" transform="translate(308.691406 0)"/>
     </g>
    </g>
    <g id="line2d_46">
     <path d="M 642.334375 152.401562 
L 652.334375 152.401562 
L 662.334375 152.401562 
" style="fill: none; stroke: #17becf; stroke-width: 1.5; stroke-linecap: square"/>
    </g>
    <g id="text_25">
     <!-- α = 1.0 -->
     <g transform="translate(670.334375 155.901562) scale(0.1 -0.1)">
      <use xlink:href="#DejaVuSans-3b1"/>
      <use xlink:href="#DejaVuSans-20" transform="translate(65.917969 0)"/>
      <use xlink:href="#DejaVuSans-3d" transform="translate(97.705078 0)"/>
      <use xlink:href="#DejaVuSans-20" transform="translate(181.494141 0)"/>
      <use xlink:href="#DejaVuSans-31" transform="translate(213.28125 0)"/>
      <use xlink:href="#DejaVuSans-2e" transform="translate(276.904297 0)"/>
      <use xlink:href="#DejaVuSans-30" transform="translate(308.691406 0)"/>
     </g>
    </g>
   </g>
  </g>
 </g>
 <defs>
  <clipPath id="p22c13fc79b">
   <rect x="46.965625" y="7.2" width="669.6" height="443.52"/>
  </clipPath>
 </defs>
</svg>
