<?xml version="1.0" encoding="utf-8" standalone="no"?>
<!DOCTYPE svg PUBLIC "-//W3C//DTD SVG 1.1//EN"
  "http://www.w3.org/Graphics/SVG/1.1/DTD/svg11.dtd">
<svg xmlns:xlink="http://www.w3.org/1999/xlink" width="723.765625pt" height="488.27625pt" viewBox="0 0 723.765625 488.27625" xmlns="http://www.w3.org/2000/svg" version="1.1">
 <metadata>
  <rdf:RDF xmlns:dc="http://purl.org/dc/elements/1.1/" xmlns:cc="http://creativecommons.org/ns#" xmlns:rdf="http://www.w3.org/1999/02/22-rdf-syntax-ns#">
   <cc:Work>
    <dc:type rdf:resource="http://purl.org/dc/dcmitype/StillImage"/>
    <dc:date>2026-04-01T16:48:31.231468</dc:date>
    <dc:format>image/svg+xml</dc:format>
    <dc:creator>
     <cc:Agent>
      <dc:title>Matplotlib v3.10.6, https://matplotlib.org/</dc:title>
     </cc:Agent>
    </dc:creator>
   </cc:Work>
  </rdf:RDF>
 </metadata>
 <defs>
  <style type="text/css">*{stroke-linejoin: round; stroke-linecap: butt}</style>
 </defs>
 <g id="figure_1">
  <g id="patch_1">
   <path d="M 0 488.27625 
L 723.765625 488.27625 
L 723.765625 0 
L 0 0 
z
" style="fill: #ffffff"/>
  </g>
  <g id="axes_1">
   <g id="patch_2">
    <path d="M 46.965625 450.72 
L 716.565625 450.72 
L 716.565625 7.2 
L 46.965625 7.2 
z
" style="fill: #ffffff"/>
   </g>
   <g id="matplotlib.axis_1">
    <g id="xtick_1">
     <g id="line2d_1">
      <path d="M 46.965625 450.72 
L 46.965625 7.2 
" clip-path="url(#pd389b8553a)" style="fill: none; stroke: #b0b0b0; stroke-width: 0.8; stroke-linecap: square"/>
     </g>
     <g id="line2d_2">
      <defs>
       <path id="m13577319d0" d="M 0 0 
L 0 3.5 
" style="stroke: #000000; stroke-width: 0.8"/>
      </defs>
      <g>
       <use xlink:href="#m13577319d0" x="46.965625" y="450.72" style="stroke: #000000; stroke-width: 0.8"/>
      </g>
     </g>
     <g id="text_1">
      <!-- 0 -->
      <g transform="translate(43.784375 465.318437) scale(0.1 -0.1)">
       <defs>
        <path id="DejaVuSans-30" d="M 2034 4250 
Q 1547 4250 1301 3770 
Q 1056 3291 1056 2328 
Q 1056 1369 1301 889 
Q 1547 409 2034 409 
Q 2525 409 2770 889 
Q 3016 1369 3016 2328 
Q 3016 3291 2770 3770 
Q 2525 4250 2034 4250 
z
M 2034 4750 
Q 2819 4750 3233 4129 
Q 3647 3509 3647 2328 
Q 3647 1150 3233 529 
Q 2819 -91 2034 -91 
Q 1250 -91 836 529 
Q 422 1150 422 2328 
Q 422 3509 836 4129 
Q 1250 4750 2034 4750 
z
" transform="scale(0.015625)"/>
       </defs>
       <use xlink:href="#DejaVuSans-30"/>
      </g>
     </g>
    </g>
    <g id="xtick_2">
     <g id="line2d_3">
      <path d="M 133.365625 450.72 
L 133.365625 7.2 
" clip-path="url(#pd389b8553a)" style="fill: none; stroke: #b0b0b0; stroke-width: 0.8; stroke-linecap: square"/>
     </g>
     <g id="line2d_4">
      <g>
       <use xlink:href="#m13577319d0" x="133.365625" y="450.72" style="stroke: #000000; stroke-width: 0.8"/>
      </g>
     </g>
     <g id="text_2">
      <!-- 200 -->
      <g transform="translate(123.821875 465.318437) scale(0.1 -0.1)">
       <defs>
        <path id="DejaVuSans-32" d="M 1228 531 
L 3431 531 
L 3431 0 
L 469 0 
L 469 531 
Q 828 903 1448 1529 
Q 2069 2156 2228 2338 
Q 2531 2678 2651 2914 
Q 2772 3150 2772 3378 
Q 2772 3750 2511 3984 
Q 2250 4219 1831 4219 
Q 1534 4219 1204 4116 
Q 875 4013 500 3803 
L 500 4441 
Q 881 4594 1212 4672 
Q 1544 4750 1819 4750 
Q 2544 4750 2975 4387 
Q 3406 4025 3406 3419 
Q 3406 3131 3298 2873 
Q 3191 2616 2906 2266 
Q 2828 2175 2409 1742 
Q 1991 1309 1228 531 
z
" transform="scale(0.015625)"/>
       </defs>
       <use xlink:href="#DejaVuSans-32"/>
       <use xlink:href="#DejaVuSans-30" transform="translate(63.623047 0)"/>
       <use xlink:href="#DejaVuSans-30" transform="translate(127.246094 0)"/>
      </g>
     </g>
    </g>
    <g id="xtick_3">
     <g id="line2d_5">
      <path d="M 219.765625 450.72 
L 219.765625 7.2 
" clip-path="url(#pd389b8553a)" style="fill: none; stroke: #b0b0b0; stroke-width: 0.8; stroke-linecap: square"/>
     </g>
     <g id="line2d_6">
      <g>
       <use xlink:href="#m13577319d0" x="219.765625" y="450.72" style="stroke: #000000; stroke-width: 0.8"/>
      </g>
     </g>
     <g id="text_3">
      <!-- 400 -->
      <g transform="translate(210.221875 465.318437) scale(0.1 -0.1)">
       <defs>
        <path id="DejaVuSans-34" d="M 2419 4116 
L 825 1625 
L 2419 1625 
L 2419 4116 
z
M 2253 4666 
L 3047 4666 
L 3047 1625 
L 3713 1625 
L 3713 1100 
L 3047 1100 
L 3047 0 
L 2419 0 
L 2419 1100 
L 313 1100 
L 313 1709 
L 2253 4666 
z
" transform="scale(0.015625)"/>
       </defs>
       <use xlink:href="#DejaVuSans-34"/>
       <use xlink:href="#DejaVuSans-30" transform="translate(63.623047 0)"/>
       <use xlink:href="#DejaVuSans-30" transform="translate(127.246094 0)"/>
      </g>
     </g>
    </g>
    <g id="xtick_4">
     <g id="line2d_7">
      <path d="M 306.165625 450.72 
L 306.165625 7.2 
" clip-path="url(#pd389b8553a)" style="fill: none; stroke: #b0b0b0; stroke-width: 0.8; stroke-linecap: square"/>
     </g>
     <g id="line2d_8">
      <g>
       <use xlink:href="#m13577319d0" x="306.165625" y="450.72" style="stroke: #000000; stroke-width: 0.8"/>
      </g>
     </g>
     <g id="text_4">
      <!-- 600 -->
      <g transform="translate(296.621875 465.318437) scale(0.1 -0.1)">
       <defs>
        <path id="DejaVuSans-36" d="M 2113 2584 
Q 1688 2584 1439 2293 
Q 1191 2003 1191 1497 
Q 1191 994 1439 701 
Q 1688 409 2113 409 
Q 2538 409 2786 701 
Q 3034 994 3034 1497 
Q 3034 2003 2786 2293 
Q 2538 2584 2113 2584 
z
M 3366 4563 
L 3366 3988 
Q 3128 4100 2886 4159 
Q 2644 4219 2406 4219 
Q 1781 4219 1451 3797 
Q 1122 3375 1075 2522 
Q 1259 2794 1537 2939 
Q 1816 3084 2150 3084 
Q 2853 3084 3261 2657 
Q 3669 2231 3669 1497 
Q 3669 778 3244 343 
Q 2819 -91 2113 -91 
Q 1303 -91 875 529 
Q 447 1150 447 2328 
Q 447 3434 972 4092 
Q 1497 4750 2381 4750 
Q 2619 4750 2861 4703 
Q 3103 4656 3366 4563 
z
" transform="scale(0.015625)"/>
       </defs>
       <use xlink:href="#DejaVuSans-36"/>
       <use xlink:href="#DejaVuSans-30" transform="translate(63.623047 0)"/>
       <use xlink:href="#DejaVuSans-30" transform="translate(127.246094 0)"/>
      </g>
     </g>
    </g>
    <g id="xtick_5">
     <g id="line2d_9">
      <path d="M 392.565625 450.72 
L 392.565625 7.2 
" clip-path="url(#pd389b8553a)" style="fill: none; stroke: #b0b0b0; stroke-width: 0.8; stroke-linecap: square"/>
     </g>
     <g id="line2d_10">
      <g>
       <use xlink:href="#m13577319d0" x="392.565625" y="450.72" style="stroke: #000000; stroke-width: 0.8"/>
      </g>
     </g>
     <g id="text_5">
      <!-- 800 -->
      <g transform="translate(383.021875 465.318437) scale(0.1 -0.1)">
       <defs>
        <path id="DejaVuSans-38" d="M 2034 2216 
Q 1584 2216 1326 1975 
Q 1069 1734 1069 1313 
Q 1069 891 1326 650 
Q 1584 409 2034 409 
Q 2484 409 2743 651 
Q 3003 894 3003 1313 
Q 3003 1734 2745 1975 
Q 2488 2216 2034 2216 
z
M 1403 2484 
Q 997 2584 770 2862 
Q 544 3141 544 3541 
Q 544 4100 942 4425 
Q 1341 4750 2034 4750 
Q 2731 4750 3128 4425 
Q 3525 4100 3525 3541 
Q 3525 3141 3298 2862 
Q 3072 2584 2669 2484 
Q 3125 2378 3379 2068 
Q 3634 1759 3634 1313 
Q 3634 634 3220 271 
Q 2806 -91 2034 -91 
Q 1263 -91 848 271 
Q 434 634 434 1313 
Q 434 1759 690 2068 
Q 947 2378 1403 2484 
z
M 1172 3481 
Q 1172 3119 1398 2916 
Q 1625 2713 2034 2713 
Q 2441 2713 2670 2916 
Q 2900 3119 2900 3481 
Q 2900 3844 2670 4047 
Q 2441 4250 2034 4250 
Q 1625 4250 1398 4047 
Q 1172 3844 1172 3481 
z
" transform="scale(0.015625)"/>
       </defs>
       <use xlink:href="#DejaVuSans-38"/>
       <use xlink:href="#DejaVuSans-30" transform="translate(63.623047 0)"/>
       <use xlink:href="#DejaVuSans-30" transform="translate(127.246094 0)"/>
      </g>
     </g>
    </g>
    <g id="xtick_6">
     <g id="line2d_11">
      <path d="M 478.965625 450.72 
L 478.965625 7.2 
" clip-path="url(#pd389b8553a)" style="fill: none; stroke: #b0b0b0; stroke-width: 0.8; stroke-linecap: square"/>
     </g>
     <g id="line2d_12">
      <g>
       <use xlink:href="#m13577319d0" x="478.965625" y="450.72" style="stroke: #000000; stroke-width: 0.8"/>
      </g>
     </g>
     <g id="text_6">
      <!-- 1000 -->
      <g transform="translate(466.240625 465.318437) scale(0.1 -0.1)">
       <defs>
        <path id="DejaVuSans-31" d="M 794 531 
L 1825 531 
L 1825 4091 
L 703 3866 
L 703 4441 
L 1819 4666 
L 2450 4666 
L 2450 531 
L 3481 531 
L 3481 0 
L 794 0 
L 794 531 
z
" transform="scale(0.015625)"/>
       </defs>
       <use xlink:href="#DejaVuSans-31"/>
       <use xlink:href="#DejaVuSans-30" transform="translate(63.623047 0)"/>
       <use xlink:href="#DejaVuSans-30" transform="translate(127.246094 0)"/>
       <use xlink:href="#DejaVuSans-30" transform="translate(190.869141 0)"/>
      </g>
     </g>
    </g>
    <g id="xtick_7">
     <g id="line2d_13">
      <path d="M 565.365625 450.72 
L 565.365625 7.2 
" clip-path="url(#pd389b8553a)" style="fill: none; stroke: #b0b0b0; stroke-width: 0.8; stroke-linecap: square"/>
     </g>
     <g id="line2d_14">
      <g>
       <use xlink:href="#m13577319d0" x="565.365625" y="450.72" style="stroke: #000000; stroke-width: 0.8"/>
      </g>
     </g>
     <g id="text_7">
      <!-- 1200 -->
      <g transform="translate(552.640625 465.318437) scale(0.1 -0.1)">
       <use xlink:href="#DejaVuSans-31"/>
       <use xlink:href="#DejaVuSans-32" transform="translate(63.623047 0)"/>
       <use xlink:href="#DejaVuSans-30" transform="translate(127.246094 0)"/>
       <use xlink:href="#DejaVuSans-30" transform="translate(190.869141 0)"/>
      </g>
     </g>
    </g>
    <g id="xtick_8">
     <g id="line2d_15">
      <path d="M 651.765625 450.72 
L 651.765625 7.2 
" clip-path="url(#pd389b8553a)" style="fill: none; stroke: #b0b0b0; stroke-width: 0.8; stroke-linecap: square"/>
     </g>
     <g id="line2d_16">
      <g>
       <use xlink:href="#m13577319d0" x="651.765625" y="450.72" style="stroke: #000000; stroke-width: 0.8"/>
      </g>
     </g>
     <g id="text_8">
      <!-- 1400 -->
      <g transform="translate(639.040625 465.318437) scale(0.1 -0.1)">
       <use xlink:href="#DejaVuSans-31"/>
       <use xlink:href="#DejaVuSans-34" transform="translate(63.623047 0)"/>
       <use xlink:href="#DejaVuSans-30" transform="translate(127.246094 0)"/>
       <use xlink:href="#DejaVuSans-30" transform="translate(190.869141 0)"/>
      </g>
     </g>
    </g>
    <g id="text_9">
     <!-- Time [s] -->
     <g transform="translate(361.436719 478.996562) scale(0.1 -0.1)">
      <defs>
       <path id="DejaVuSans-54" d="M -19 4666 
L 3928 4666 
L 3928 4134 
L 2272 4134 
L 2272 0 
L 1638 0 
L 1638 4134 
L -19 4134 
L -19 4666 
z
" transform="scale(0.015625)"/>
       <path id="DejaVuSans-69" d="M 603 3500 
L 1178 3500 
L 1178 0 
L 603 0 
L 603 3500 
z
M 603 4863 
L 1178 4863 
L 1178 4134 
L 603 4134 
L 603 4863 
z
" transform="scale(0.015625)"/>
       <path id="DejaVuSans-6d" d="M 3328 2828 
Q 3544 3216 3844 3400 
Q 4144 3584 4550 3584 
Q 5097 3584 5394 3201 
Q 5691 2819 5691 2113 
L 5691 0 
L 5113 0 
L 5113 2094 
Q 5113 2597 4934 2840 
Q 4756 3084 4391 3084 
Q 3944 3084 3684 2787 
Q 3425 2491 3425 1978 
L 3425 0 
L 2847 0 
L 2847 2094 
Q 2847 2600 2669 2842 
Q 2491 3084 2119 3084 
Q 1678 3084 1418 2786 
Q 1159 2488 1159 1978 
L 1159 0 
L 581 0 
L 581 3500 
L 1159 3500 
L 1159 2956 
Q 1356 3278 1631 3431 
Q 1906 3584 2284 3584 
Q 2666 3584 2933 3390 
Q 3200 3197 3328 2828 
z
" transform="scale(0.015625)"/>
       <path id="DejaVuSans-65" d="M 3597 1894 
L 3597 1613 
L 953 1613 
Q 991 1019 1311 708 
Q 1631 397 2203 397 
Q 2534 397 2845 478 
Q 3156 559 3463 722 
L 3463 178 
Q 3153 47 2828 -22 
Q 2503 -91 2169 -91 
Q 1331 -91 842 396 
Q 353 884 353 1716 
Q 353 2575 817 3079 
Q 1281 3584 2069 3584 
Q 2775 3584 3186 3129 
Q 3597 2675 3597 1894 
z
M 3022 2063 
Q 3016 2534 2758 2815 
Q 2500 3097 2075 3097 
Q 1594 3097 1305 2825 
Q 1016 2553 972 2059 
L 3022 2063 
z
" transform="scale(0.015625)"/>
       <path id="DejaVuSans-20" transform="scale(0.015625)"/>
       <path id="DejaVuSans-5b" d="M 550 4863 
L 1875 4863 
L 1875 4416 
L 1125 4416 
L 1125 -397 
L 1875 -397 
L 1875 -844 
L 550 -844 
L 550 4863 
z
" transform="scale(0.015625)"/>
       <path id="DejaVuSans-73" d="M 2834 3397 
L 2834 2853 
Q 2591 2978 2328 3040 
Q 2066 3103 1784 3103 
Q 1356 3103 1142 2972 
Q 928 2841 928 2578 
Q 928 2378 1081 2264 
Q 1234 2150 1697 2047 
L 1894 2003 
Q 2506 1872 2764 1633 
Q 3022 1394 3022 966 
Q 3022 478 2636 193 
Q 2250 -91 1575 -91 
Q 1294 -91 989 -36 
Q 684 19 347 128 
L 347 722 
Q 666 556 975 473 
Q 1284 391 1588 391 
Q 1994 391 2212 530 
Q 2431 669 2431 922 
Q 2431 1156 2273 1281 
Q 2116 1406 1581 1522 
L 1381 1569 
Q 847 1681 609 1914 
Q 372 2147 372 2553 
Q 372 3047 722 3315 
Q 1072 3584 1716 3584 
Q 2034 3584 2315 3537 
Q 2597 3491 2834 3397 
z
" transform="scale(0.015625)"/>
       <path id="DejaVuSans-5d" d="M 1947 4863 
L 1947 -844 
L 622 -844 
L 622 -397 
L 1369 -397 
L 1369 4416 
L 622 4416 
L 622 4863 
L 1947 4863 
z
" transform="scale(0.015625)"/>
      </defs>
      <use xlink:href="#DejaVuSans-54"/>
      <use xlink:href="#DejaVuSans-69" transform="translate(57.958984 0)"/>
      <use xlink:href="#DejaVuSans-6d" transform="translate(85.742188 0)"/>
      <use xlink:href="#DejaVuSans-65" transform="translate(183.154297 0)"/>
      <use xlink:href="#DejaVuSans-20" transform="translate(244.677734 0)"/>
      <use xlink:href="#DejaVuSans-5b" transform="translate(276.464844 0)"/>
      <use xlink:href="#DejaVuSans-73" transform="translate(315.478516 0)"/>
      <use xlink:href="#DejaVuSans-5d" transform="translate(367.578125 0)"/>
     </g>
    </g>
   </g>
   <g id="matplotlib.axis_2">
    <g id="ytick_1">
     <g id="line2d_17">
      <path d="M 46.965625 430.429372 
L 716.565625 430.429372 
" clip-path="url(#pd389b8553a)" style="fill: none; stroke: #b0b0b0; stroke-width: 0.8; stroke-linecap: square"/>
     </g>
     <g id="line2d_18">
      <defs>
       <path id="m24bcd187cc" d="M 0 0 
L -3.5 0 
" style="stroke: #000000; stroke-width: 0.8"/>
      </defs>
      <g>
       <use xlink:href="#m24bcd187cc" x="46.965625" y="430.429372" style="stroke: #000000; stroke-width: 0.8"/>
      </g>
     </g>
     <g id="text_10">
      <!-- 50 -->
      <g transform="translate(27.240625 434.22859) scale(0.1 -0.1)">
       <defs>
        <path id="DejaVuSans-35" d="M 691 4666 
L 3169 4666 
L 3169 4134 
L 1269 4134 
L 1269 2991 
Q 1406 3038 1543 3061 
Q 1681 3084 1819 3084 
Q 2600 3084 3056 2656 
Q 3513 2228 3513 1497 
Q 3513 744 3044 326 
Q 2575 -91 1722 -91 
Q 1428 -91 1123 -41 
Q 819 9 494 109 
L 494 744 
Q 775 591 1075 516 
Q 1375 441 1709 441 
Q 2250 441 2565 725 
Q 2881 1009 2881 1497 
Q 2881 1984 2565 2268 
Q 2250 2553 1709 2553 
Q 1456 2553 1204 2497 
Q 953 2441 691 2322 
L 691 4666 
z
" transform="scale(0.015625)"/>
       </defs>
       <use xlink:href="#DejaVuSans-35"/>
       <use xlink:href="#DejaVuSans-30" transform="translate(63.623047 0)"/>
      </g>
     </g>
    </g>
    <g id="ytick_2">
     <g id="line2d_19">
      <path d="M 46.965625 349.815497 
L 716.565625 349.815497 
" clip-path="url(#pd389b8553a)" style="fill: none; stroke: #b0b0b0; stroke-width: 0.8; stroke-linecap: square"/>
     </g>
     <g id="line2d_20">
      <g>
       <use xlink:href="#m24bcd187cc" x="46.965625" y="349.815497" style="stroke: #000000; stroke-width: 0.8"/>
      </g>
     </g>
     <g id="text_11">
      <!-- 60 -->
      <g transform="translate(27.240625 353.614716) scale(0.1 -0.1)">
       <use xlink:href="#DejaVuSans-36"/>
       <use xlink:href="#DejaVuSans-30" transform="translate(63.623047 0)"/>
      </g>
     </g>
    </g>
    <g id="ytick_3">
     <g id="line2d_21">
      <path d="M 46.965625 269.201623 
L 716.565625 269.201623 
" clip-path="url(#pd389b8553a)" style="fill: none; stroke: #b0b0b0; stroke-width: 0.8; stroke-linecap: square"/>
     </g>
     <g id="line2d_22">
      <g>
       <use xlink:href="#m24bcd187cc" x="46.965625" y="269.201623" style="stroke: #000000; stroke-width: 0.8"/>
      </g>
     </g>
     <g id="text_12">
      <!-- 70 -->
      <g transform="translate(27.240625 273.000842) scale(0.1 -0.1)">
       <defs>
        <path id="DejaVuSans-37" d="M 525 4666 
L 3525 4666 
L 3525 4397 
L 1831 0 
L 1172 0 
L 2766 4134 
L 525 4134 
L 525 4666 
z
" transform="scale(0.015625)"/>
       </defs>
       <use xlink:href="#DejaVuSans-37"/>
       <use xlink:href="#DejaVuSans-30" transform="translate(63.623047 0)"/>
      </g>
     </g>
    </g>
    <g id="ytick_4">
     <g id="line2d_23">
      <path d="M 46.965625 188.587749 
L 716.565625 188.587749 
" clip-path="url(#pd389b8553a)" style="fill: none; stroke: #b0b0b0; stroke-width: 0.8; stroke-linecap: square"/>
     </g>
     <g id="line2d_24">
      <g>
       <use xlink:href="#m24bcd187cc" x="46.965625" y="188.587749" style="stroke: #000000; stroke-width: 0.8"/>
      </g>
     </g>
     <g id="text_13">
      <!-- 80 -->
      <g transform="translate(27.240625 192.386967) scale(0.1 -0.1)">
       <use xlink:href="#DejaVuSans-38"/>
       <use xlink:href="#DejaVuSans-30" transform="translate(63.623047 0)"/>
      </g>
     </g>
    </g>
    <g id="ytick_5">
     <g id="line2d_25">
      <path d="M 46.965625 107.973874 
L 716.565625 107.973874 
" clip-path="url(#pd389b8553a)" style="fill: none; stroke: #b0b0b0; stroke-width: 0.8; stroke-linecap: square"/>
     </g>
     <g id="line2d_26">
      <g>
       <use xlink:href="#m24bcd187cc" x="46.965625" y="107.973874" style="stroke: #000000; stroke-width: 0.8"/>
      </g>
     </g>
     <g id="text_14">
      <!-- 90 -->
      <g transform="translate(27.240625 111.773093) scale(0.1 -0.1)">
       <defs>
        <path id="DejaVuSans-39" d="M 703 97 
L 703 672 
Q 941 559 1184 500 
Q 1428 441 1663 441 
Q 2288 441 2617 861 
Q 2947 1281 2994 2138 
Q 2813 1869 2534 1725 
Q 2256 1581 1919 1581 
Q 1219 1581 811 2004 
Q 403 2428 403 3163 
Q 403 3881 828 4315 
Q 1253 4750 1959 4750 
Q 2769 4750 3195 4129 
Q 3622 3509 3622 2328 
Q 3622 1225 3098 567 
Q 2575 -91 1691 -91 
Q 1453 -91 1209 -44 
Q 966 3 703 97 
z
M 1959 2075 
Q 2384 2075 2632 2365 
Q 2881 2656 2881 3163 
Q 2881 3666 2632 3958 
Q 2384 4250 1959 4250 
Q 1534 4250 1286 3958 
Q 1038 3666 1038 3163 
Q 1038 2656 1286 2365 
Q 1534 2075 1959 2075 
z
" transform="scale(0.015625)"/>
       </defs>
       <use xlink:href="#DejaVuSans-39"/>
       <use xlink:href="#DejaVuSans-30" transform="translate(63.623047 0)"/>
      </g>
     </g>
    </g>
    <g id="ytick_6">
     <g id="line2d_27">
      <path d="M 46.965625 27.36 
L 716.565625 27.36 
" clip-path="url(#pd389b8553a)" style="fill: none; stroke: #b0b0b0; stroke-width: 0.8; stroke-linecap: square"/>
     </g>
     <g id="line2d_28">
      <g>
       <use xlink:href="#m24bcd187cc" x="46.965625" y="27.36" style="stroke: #000000; stroke-width: 0.8"/>
      </g>
     </g>
     <g id="text_15">
      <!-- 100 -->
      <g transform="translate(20.878125 31.159219) scale(0.1 -0.1)">
       <use xlink:href="#DejaVuSans-31"/>
       <use xlink:href="#DejaVuSans-30" transform="translate(63.623047 0)"/>
       <use xlink:href="#DejaVuSans-30" transform="translate(127.246094 0)"/>
      </g>
     </g>
    </g>
    <g id="text_16">
     <!-- MV [%] -->
     <g transform="translate(14.798438 246.935781) rotate(-90) scale(0.1 -0.1)">
      <defs>
       <path id="DejaVuSans-4d" d="M 628 4666 
L 1569 4666 
L 2759 1491 
L 3956 4666 
L 4897 4666 
L 4897 0 
L 4281 0 
L 4281 4097 
L 3078 897 
L 2444 897 
L 1241 4097 
L 1241 0 
L 628 0 
L 628 4666 
z
" transform="scale(0.015625)"/>
       <path id="DejaVuSans-56" d="M 1831 0 
L 50 4666 
L 709 4666 
L 2188 738 
L 3669 4666 
L 4325 4666 
L 2547 0 
L 1831 0 
z
" transform="scale(0.015625)"/>
       <path id="DejaVuSans-25" d="M 4653 2053 
Q 4381 2053 4226 1822 
Q 4072 1591 4072 1178 
Q 4072 772 4226 539 
Q 4381 306 4653 306 
Q 4919 306 5073 539 
Q 5228 772 5228 1178 
Q 5228 1588 5073 1820 
Q 4919 2053 4653 2053 
z
M 4653 2450 
Q 5147 2450 5437 2106 
Q 5728 1763 5728 1178 
Q 5728 594 5436 251 
Q 5144 -91 4653 -91 
Q 4153 -91 3862 251 
Q 3572 594 3572 1178 
Q 3572 1766 3864 2108 
Q 4156 2450 4653 2450 
z
M 1428 4353 
Q 1159 4353 1004 4120 
Q 850 3888 850 3481 
Q 850 3069 1003 2837 
Q 1156 2606 1428 2606 
Q 1700 2606 1854 2837 
Q 2009 3069 2009 3481 
Q 2009 3884 1853 4118 
Q 1697 4353 1428 4353 
z
M 4250 4750 
L 4750 4750 
L 1831 -91 
L 1331 -91 
L 4250 4750 
z
M 1428 4750 
Q 1922 4750 2215 4408 
Q 2509 4066 2509 3481 
Q 2509 2891 2217 2550 
Q 1925 2209 1428 2209 
Q 931 2209 642 2551 
Q 353 2894 353 3481 
Q 353 4063 643 4406 
Q 934 4750 1428 4750 
z
" transform="scale(0.015625)"/>
      </defs>
      <use xlink:href="#DejaVuSans-4d"/>
      <use xlink:href="#DejaVuSans-56" transform="translate(86.279297 0)"/>
      <use xlink:href="#DejaVuSans-20" transform="translate(154.6875 0)"/>
      <use xlink:href="#DejaVuSans-5b" transform="translate(186.474609 0)"/>
      <use xlink:href="#DejaVuSans-25" transform="translate(225.488281 0)"/>
      <use xlink:href="#DejaVuSans-5d" transform="translate(320.507812 0)"/>
     </g>
    </g>
   </g>
   <g id="line2d_29">
    <path d="M 46.965625 430.430475 
L 68.133625 430.429918 
L 68.565625 27.36 
L 69.861625 61.748672 
L 71.157625 91.155733 
L 72.453625 116.175213 
L 73.749625 137.33031 
L 75.477625 163.49921 
L 82.821625 279.099008 
L 84.981625 308.060129 
L 86.709625 328.473298 
L 88.437625 346.20986 
L 89.733625 357.693601 
L 91.029625 367.608 
L 92.325625 375.971151 
L 93.621625 382.822959 
L 94.917625 388.221852 
L 95.781625 391.049845 
L 96.645625 393.289686 
L 97.509625 394.968485 
L 98.373625 396.115059 
L 99.237625 396.759596 
L 100.101625 396.933333 
L 100.965625 396.668258 
L 101.829625 395.996828 
L 102.693625 394.951707 
L 103.557625 393.565529 
L 104.853625 390.917497 
L 106.149625 387.682036 
L 107.877625 382.632711 
L 110.037625 375.462601 
L 113.493625 362.953287 
L 118.245625 345.84293 
L 120.837625 337.367293 
L 122.997625 331.018743 
L 125.157625 325.414715 
L 126.885625 321.498473 
L 128.613625 318.093257 
L 130.341625 315.191959 
L 132.069625 312.776893 
L 133.797625 310.82187 
L 135.525625 309.294146 
L 136.821625 308.406356 
L 138.117625 307.720891 
L 139.845625 307.091141 
L 141.573625 306.747229 
L 143.301625 306.646925 
L 145.029625 306.749235 
L 147.189625 307.102956 
L 149.781625 307.767099 
L 153.669625 309.038773 
L 161.445625 311.654029 
L 165.333625 312.700232 
L 169.221625 313.49559 
L 173.109625 314.048048 
L 177.429625 314.424856 
L 183.045625 314.662026 
L 204.213625 315.291536 
L 212.421625 315.890435 
L 225.813625 317.133207 
L 241.797625 318.555447 
L 255.189625 319.507742 
L 270.309625 320.352721 
L 288.453625 321.137486 
L 307.893625 321.754133 
L 329.493625 322.212989 
L 356.277625 322.548413 
L 392.133625 322.760799 
L 450.453625 322.855226 
L 687.621625 322.853786 
L 716.565625 322.853642 
L 716.565625 322.853642 
" clip-path="url(#pd389b8553a)" style="fill: none; stroke: #1f77b4; stroke-width: 1.5; stroke-linecap: square"/>
   </g>
   <g id="line2d_30">
    <path d="M 46.965625 430.435146 
L 68.133625 430.431692 
L 68.565625 27.36 
L 69.861625 49.019762 
L 71.157625 67.541832 
L 72.453625 83.300365 
L 73.749625 96.624898 
L 75.477625 113.12267 
L 78.933625 149.089028 
L 82.821625 189.160209 
L 85.413625 213.765351 
L 87.573625 232.396198 
L 89.733625 249.095093 
L 91.461625 260.997309 
L 93.189625 271.596496 
L 94.917625 280.917301 
L 96.645625 289.007795 
L 98.373625 295.933843 
L 100.101625 301.77417 
L 101.397625 305.49423 
L 102.693625 308.691439 
L 103.989625 311.405473 
L 105.285625 313.67622 
L 106.581625 315.543236 
L 107.877625 317.04529 
L 109.173625 318.219992 
L 110.469625 319.103483 
L 111.765625 319.730202 
L 113.061625 320.132698 
L 114.357625 320.341499 
L 116.085625 320.367416 
L 117.813625 320.160693 
L 119.973625 319.657685 
L 122.565625 318.814674 
L 127.317625 316.978957 
L 132.069625 315.209204 
L 135.525625 314.141348 
L 138.981625 313.319928 
L 142.437625 312.757985 
L 145.893625 312.443237 
L 149.349625 312.347828 
L 153.237625 312.457892 
L 157.989625 312.828448 
L 164.037625 313.538961 
L 179.589625 315.706839 
L 190.389625 317.044306 
L 201.189625 318.144097 
L 213.285625 319.142653 
L 227.541625 320.089114 
L 243.525625 320.925517 
L 260.805625 321.607993 
L 280.245625 322.147494 
L 302.709625 322.541603 
L 330.789625 322.802123 
L 370.533625 322.928205 
L 451.749625 322.907082 
L 687.189625 322.8531 
L 716.565625 322.853149 
L 716.565625 322.853149 
" clip-path="url(#pd389b8553a)" style="fill: none; stroke: #ff7f0e; stroke-width: 1.5; stroke-linecap: square"/>
   </g>
   <g id="line2d_31">
    <path d="M 46.965625 430.456419 
L 68.133625 430.445296 
L 68.565625 100.246033 
L 69.861625 116.053973 
L 71.157625 129.571876 
L 72.453625 141.072821 
L 73.749625 150.797319 
L 76.773625 171.653779 
L 81.093625 201.382982 
L 83.685625 217.830721 
L 86.277625 232.753693 
L 88.437625 243.891495 
L 90.597625 253.811609 
L 92.757625 262.529259 
L 94.485625 268.670232 
L 96.213625 274.110085 
L 97.941625 278.892713 
L 99.669625 283.066489 
L 101.397625 286.682279 
L 103.125625 289.791829 
L 104.853625 292.446475 
L 106.581625 294.696149 
L 108.309625 296.588615 
L 110.037625 298.168926 
L 111.765625 299.479049 
L 113.925625 300.795309 
L 116.085625 301.817505 
L 118.245625 302.60525 
L 120.837625 303.313053 
L 123.861625 303.904048 
L 127.749625 304.432931 
L 135.525625 305.198883 
L 144.165625 306.133523 
L 151.509625 307.158137 
L 160.581625 308.661825 
L 192.117625 314.092172 
L 203.349625 315.702613 
L 215.013625 317.145278 
L 227.109625 318.411243 
L 239.637625 319.500548 
L 253.029625 320.445071 
L 267.717625 321.255781 
L 283.701625 321.914224 
L 301.845625 322.435441 
L 323.013625 322.814674 
L 349.365625 323.051478 
L 385.221625 323.133547 
L 456.501625 323.020747 
L 586.533625 322.866281 
L 716.565625 322.851083 
L 716.565625 322.851083 
" clip-path="url(#pd389b8553a)" style="fill: none; stroke: #2ca02c; stroke-width: 1.5; stroke-linecap: square"/>
   </g>
   <g id="line2d_32">
    <path d="M 46.965625 430.487038 
L 68.133625 430.469201 
L 68.565625 170.50029 
L 69.861625 182.945506 
L 71.157625 193.587763 
L 72.453625 202.642055 
L 73.749625 210.297742 
L 78.501625 234.686119 
L 81.093625 246.753438 
L 83.253625 255.872448 
L 85.413625 264.077226 
L 87.573625 271.356719 
L 89.733625 277.732792 
L 91.461625 282.212889 
L 93.189625 286.173784 
L 94.917625 289.650119 
L 96.645625 292.67905 
L 98.373625 295.298897 
L 100.101625 297.548071 
L 101.829625 299.464244 
L 103.557625 301.083724 
L 105.285625 302.440997 
L 107.445625 303.817922 
L 109.605625 304.893542 
L 111.765625 305.719901 
L 114.357625 306.446915 
L 116.949625 306.949503 
L 120.405625 307.367935 
L 124.725625 307.632901 
L 131.637625 307.791382 
L 143.301625 308.067332 
L 151.509625 308.500786 
L 160.581625 309.211148 
L 172.245625 310.361655 
L 201.189625 313.541635 
L 221.493625 315.618388 
L 239.205625 317.2076 
L 256.485625 318.534089 
L 273.765625 319.63946 
L 291.909625 320.576756 
L 311.349625 321.354689 
L 332.517625 321.976314 
L 356.709625 322.45721 
L 385.221625 322.792512 
L 421.509625 322.984222 
L 475.941625 323.0245 
L 716.565625 322.855499 
L 716.565625 322.855499 
" clip-path="url(#pd389b8553a)" style="fill: none; stroke: #d62728; stroke-width: 1.5; stroke-linecap: square"/>
   </g>
   <g id="line2d_33">
    <path d="M 46.965625 430.522579 
L 68.133625 430.498019 
L 68.565625 216.12431 
L 69.861625 226.386226 
L 71.157625 235.161404 
L 72.453625 242.627133 
L 73.749625 248.939559 
L 76.773625 261.582594 
L 78.933625 269.789517 
L 81.093625 277.195194 
L 83.253625 283.776808 
L 85.413625 289.546568 
L 87.141625 293.600777 
L 88.869625 297.18275 
L 90.597625 300.321991 
L 92.325625 303.050632 
L 94.053625 305.402146 
L 95.781625 307.410329 
L 97.509625 309.108513 
L 99.237625 310.528975 
L 100.965625 311.702506 
L 103.125625 312.866173 
L 105.285625 313.741455 
L 107.445625 314.375511 
L 110.037625 314.876723 
L 112.629625 315.153783 
L 115.653625 315.264183 
L 119.541625 315.173345 
L 125.157625 314.782439 
L 144.597625 313.232562 
L 152.805625 312.903685 
L 161.445625 312.791319 
L 171.381625 312.900163 
L 183.045625 313.262136 
L 198.165625 313.971464 
L 220.629625 315.277497 
L 273.333625 318.403261 
L 298.389625 319.625828 
L 322.581625 320.584826 
L 347.637625 321.355405 
L 374.853625 321.966175 
L 405.525625 322.425921 
L 442.245625 322.743379 
L 489.765625 322.918149 
L 566.661625 322.948518 
L 716.565625 322.871852 
L 716.565625 322.871852 
" clip-path="url(#pd389b8553a)" style="fill: none; stroke: #9467bd; stroke-width: 1.5; stroke-linecap: square"/>
   </g>
   <g id="line2d_34">
    <path d="M 46.965625 430.56 
L 68.133625 430.541741 
L 68.565625 248.156237 
L 69.861625 256.886896 
L 71.157625 264.352648 
L 72.453625 270.704328 
L 73.749625 276.074782 
L 75.909625 283.75663 
L 78.069625 290.680429 
L 80.229625 296.807712 
L 82.389625 302.15108 
L 84.117625 305.886498 
L 85.845625 309.170225 
L 87.573625 312.031645 
L 89.301625 314.502224 
L 91.029625 316.614349 
L 92.757625 318.40043 
L 94.485625 319.892216 
L 96.213625 321.120284 
L 97.941625 322.113682 
L 100.101625 323.066795 
L 102.261625 323.744736 
L 104.421625 324.191653 
L 107.013625 324.477974 
L 109.605625 324.546906 
L 112.629625 324.418657 
L 116.517625 324.021547 
L 121.701625 323.2509 
L 145.461625 319.417069 
L 153.237625 318.512616 
L 161.445625 317.776646 
L 170.517625 317.190439 
L 180.453625 316.77447 
L 191.685625 316.530834 
L 204.645625 316.479719 
L 219.765625 316.6487 
L 238.773625 317.095172 
L 266.421625 317.991836 
L 336.837625 320.351338 
L 370.533625 321.206907 
L 404.661625 321.848961 
L 442.245625 322.328201 
L 486.309625 322.659226 
L 543.333625 322.851528 
L 634.485625 322.907554 
L 716.565625 322.886515 
L 716.565625 322.886515 
" clip-path="url(#pd389b8553a)" style="fill: none; stroke: #8c564b; stroke-width: 1.5; stroke-linecap: square"/>
   </g>
   <g id="line2d_35">
    <path d="M 46.965625 430.493185 
L 68.133625 430.504785 
L 68.565625 271.801108 
L 69.861625 279.399544 
L 71.157625 285.897281 
L 72.453625 291.42557 
L 73.749625 296.100009 
L 75.909625 302.718716 
L 78.069625 308.543349 
L 79.797625 312.638761 
L 81.525625 316.255248 
L 83.253625 319.420956 
L 84.981625 322.166886 
L 86.709625 324.525525 
L 88.437625 326.529822 
L 90.165625 328.212383 
L 91.893625 329.604873 
L 93.621625 330.737584 
L 95.349625 331.639134 
L 97.509625 332.481567 
L 99.669625 333.052367 
L 101.829625 333.394529 
L 104.421625 333.556742 
L 107.013625 333.501683 
L 110.037625 333.22698 
L 113.925625 332.636006 
L 119.109625 331.59331 
L 129.477625 329.202328 
L 139.413625 327.008631 
L 147.621625 325.422503 
L 155.829625 324.064374 
L 164.469625 322.866591 
L 173.541625 321.835868 
L 183.477625 320.936535 
L 194.277625 320.189132 
L 205.941625 319.606199 
L 218.901625 319.181838 
L 233.589625 318.926673 
L 250.869625 318.858774 
L 271.605625 319.008454 
L 299.685625 319.448538 
L 436.197625 321.883484 
L 484.149625 322.350388 
L 539.877625 322.661406 
L 613.749625 322.835013 
L 716.565625 322.88039 
L 716.565625 322.88039 
" clip-path="url(#pd389b8553a)" style="fill: none; stroke: #e377c2; stroke-width: 1.5; stroke-linecap: square"/>
   </g>
   <g id="line2d_36">
    <path d="M 46.965625 430.317896 
L 68.133625 430.370494 
L 68.565625 289.90594 
L 69.861625 296.633472 
L 71.157625 302.38677 
L 72.453625 307.281999 
L 73.749625 311.421475 
L 75.909625 317.236981 
L 77.637625 321.315629 
L 79.365625 324.906204 
L 81.093625 328.038133 
L 82.821625 330.744954 
L 84.549625 333.061174 
L 86.277625 335.021195 
L 88.005625 336.658635 
L 89.733625 338.005821 
L 91.461625 339.093426 
L 93.189625 339.950241 
L 95.349625 340.737292 
L 97.509625 341.253103 
L 99.669625 341.540301 
L 102.261625 341.635944 
L 104.853625 341.512864 
L 107.877625 341.155932 
L 111.765625 340.453119 
L 116.517625 339.35639 
L 124.725625 337.18713 
L 138.117625 333.661758 
L 146.757625 331.632156 
L 155.397625 329.839105 
L 164.037625 328.273886 
L 173.109625 326.853424 
L 183.045625 325.530162 
L 193.413625 324.376218 
L 204.645625 323.352706 
L 216.741625 322.476648 
L 230.133625 321.73778 
L 244.821625 321.158072 
L 261.237625 320.738945 
L 280.245625 320.484961 
L 302.709625 320.414239 
L 331.653625 320.55581 
L 377.877625 321.034071 
L 475.077625 322.057202 
L 539.013625 322.473484 
L 614.181625 322.728628 
L 716.565625 322.847439 
L 716.565625 322.847439 
" clip-path="url(#pd389b8553a)" style="fill: none; stroke: #7f7f7f; stroke-width: 1.5; stroke-linecap: square"/>
   </g>
   <g id="line2d_37">
    <path d="M 46.965625 430.094446 
L 68.133625 430.180992 
L 68.565625 304.19562 
L 69.861625 310.231981 
L 71.157625 315.394512 
L 72.453625 319.787404 
L 73.749625 323.502426 
L 75.477625 327.7158 
L 77.205625 331.424386 
L 78.933625 334.657251 
L 80.661625 337.448841 
L 82.389625 339.835952 
L 84.117625 341.85511 
L 85.845625 343.541657 
L 87.573625 344.929316 
L 89.301625 346.049893 
L 91.029625 346.933085 
L 92.757625 347.606391 
L 94.917625 348.191153 
L 97.077625 348.531812 
L 99.237625 348.667734 
L 101.829625 348.608857 
L 104.853625 348.297868 
L 108.309625 347.703889 
L 112.629625 346.716988 
L 118.677625 345.075127 
L 144.165625 337.884756 
L 152.805625 335.792918 
L 161.877625 333.828618 
L 171.381625 332.008404 
L 181.317625 330.340524 
L 191.685625 328.828926 
L 202.917625 327.425096 
L 214.581625 326.193874 
L 227.109625 325.09584 
L 240.501625 324.143819 
L 255.189625 323.323216 
L 271.605625 322.635636 
L 289.749625 322.10271 
L 310.485625 321.719468 
L 335.109625 321.492684 
L 366.213625 321.440302 
L 410.709625 321.608911 
L 615.477625 322.631481 
L 716.565625 322.797643 
L 716.565625 322.797643 
" clip-path="url(#pd389b8553a)" style="fill: none; stroke: #bcbd22; stroke-width: 1.5; stroke-linecap: square"/>
   </g>
   <g id="line2d_38">
    <path d="M 46.965625 429.914802 
L 68.133625 430.013016 
L 68.565625 315.800584 
L 69.861625 321.27415 
L 71.157625 325.955544 
L 72.453625 329.93922 
L 73.749625 333.308372 
L 75.477625 337.114812 
L 77.205625 340.430409 
L 78.933625 343.290883 
L 80.661625 345.734537 
L 82.389625 347.800077 
L 84.117625 349.524769 
L 85.845625 350.943851 
L 87.573625 352.090316 
L 89.301625 352.994783 
L 91.029625 353.685456 
L 93.189625 354.287238 
L 95.349625 354.640401 
L 97.509625 354.784834 
L 100.101625 354.731387 
L 103.125625 354.420611 
L 106.581625 353.81925 
L 110.901625 352.812185 
L 116.517625 351.250047 
L 128.181625 347.695988 
L 139.413625 344.373607 
L 148.917625 341.798213 
L 157.989625 339.565765 
L 167.493625 337.455335 
L 177.429625 335.479841 
L 187.797625 333.647053 
L 198.597625 331.961845 
L 210.261625 330.372028 
L 222.357625 328.948446 
L 235.317625 327.647972 
L 249.141625 326.48506 
L 264.261625 325.441729 
L 280.677625 324.538178 
L 298.821625 323.769636 
L 319.125625 323.140493 
L 342.021625 322.658274 
L 369.237625 322.315723 
L 402.933625 322.126376 
L 448.725625 322.109163 
L 534.693625 322.346332 
L 680.277625 322.702491 
L 716.565625 322.750412 
L 716.565625 322.750412 
" clip-path="url(#pd389b8553a)" style="fill: none; stroke: #17becf; stroke-width: 1.5; stroke-linecap: square"/>
   </g>
   <g id="patch_3">
    <path d="M 46.965625 450.72 
L 46.965625 7.2 
" style="fill: none; stroke: #000000; stroke-width: 0.8; stroke-linejoin: miter; stroke-linecap: square"/>
   </g>
   <g id="patch_4">
    <path d="M 716.565625 450.72 
L 716.565625 7.2 
" style="fill: none; stroke: #000000; stroke-width: 0.8; stroke-linejoin: miter; stroke-linecap: square"/>
   </g>
   <g id="patch_5">
    <path d="M 46.965625 450.72 
L 716.565625 450.72 
" style="fill: none; stroke: #000000; stroke-width: 0.8; stroke-linejoin: miter; stroke-linecap: square"/>
   </g>
   <g id="patch_6">
    <path d="M 46.965625 7.2 
L 716.565625 7.2 
" style="fill: none; stroke: #000000; stroke-width: 0.8; stroke-linejoin: miter; stroke-linecap: square"/>
   </g>
   <g id="legend_1">
    <g id="patch_7">
     <path d="M 641.007812 161.98125 
L 709.565625 161.98125 
Q 711.565625 161.98125 711.565625 159.98125 
L 711.565625 14.2 
Q 711.565625 12.2 709.565625 12.2 
L 641.007812 12.2 
Q 639.007812 12.2 639.007812 14.2 
L 639.007812 159.98125 
Q 639.007812 161.98125 641.007812 161.98125 
z
" style="fill: #ffffff; opacity: 0.8; stroke: #cccccc; stroke-linejoin: miter"/>
    </g>
    <g id="line2d_39">
     <path d="M 643.007812 20.298437 
L 653.007812 20.298437 
L 663.007812 20.298437 
" style="fill: none; stroke: #1f77b4; stroke-width: 1.5; stroke-linecap: square"/>
    </g>
    <g id="text_17">
     <!-- γ = 0.1 -->
     <g transform="translate(671.007812 23.798437) scale(0.1 -0.1)">
      <defs>
       <path id="DejaVuSans-3b3" d="M 1128 2950 
L 1894 788 
L 2988 3500 
L 3597 3500 
L 2181 0 
L 2181 -1331 
L 1606 -1331 
L 1606 0 
L 688 2613 
Q 550 3006 253 3006 
L 100 3006 
L 100 3500 
L 319 3500 
Q 934 3500 1128 2950 
z
" transform="scale(0.015625)"/>
       <path id="DejaVuSans-3d" d="M 678 2906 
L 4684 2906 
L 4684 2381 
L 678 2381 
L 678 2906 
z
M 678 1631 
L 4684 1631 
L 4684 1100 
L 678 1100 
L 678 1631 
z
" transform="scale(0.015625)"/>
       <path id="DejaVuSans-2e" d="M 684 794 
L 1344 794 
L 1344 0 
L 684 0 
L 684 794 
z
" transform="scale(0.015625)"/>
      </defs>
      <use xlink:href="#DejaVuSans-3b3"/>
      <use xlink:href="#DejaVuSans-20" transform="translate(59.179688 0)"/>
      <use xlink:href="#DejaVuSans-3d" transform="translate(90.966797 0)"/>
      <use xlink:href="#DejaVuSans-20" transform="translate(174.755859 0)"/>
      <use xlink:href="#DejaVuSans-30" transform="translate(206.542969 0)"/>
      <use xlink:href="#DejaVuSans-2e" transform="translate(270.166016 0)"/>
      <use xlink:href="#DejaVuSans-31" transform="translate(301.953125 0)"/>
     </g>
    </g>
    <g id="line2d_40">
     <path d="M 643.007812 34.976562 
L 653.007812 34.976562 
L 663.007812 34.976562 
" style="fill: none; stroke: #ff7f0e; stroke-width: 1.5; stroke-linecap: square"/>
    </g>
    <g id="text_18">
     <!-- γ = 0.2 -->
     <g transform="translate(671.007812 38.476562) scale(0.1 -0.1)">
      <use xlink:href="#DejaVuSans-3b3"/>
      <use xlink:href="#DejaVuSans-20" transform="translate(59.179688 0)"/>
      <use xlink:href="#DejaVuSans-3d" transform="translate(90.966797 0)"/>
      <use xlink:href="#DejaVuSans-20" transform="translate(174.755859 0)"/>
      <use xlink:href="#DejaVuSans-30" transform="translate(206.542969 0)"/>
      <use xlink:href="#DejaVuSans-2e" transform="translate(270.166016 0)"/>
      <use xlink:href="#DejaVuSans-32" transform="translate(301.953125 0)"/>
     </g>
    </g>
    <g id="line2d_41">
     <path d="M 643.007812 49.654688 
L 653.007812 49.654688 
L 663.007812 49.654688 
" style="fill: none; stroke: #2ca02c; stroke-width: 1.5; stroke-linecap: square"/>
    </g>
    <g id="text_19">
     <!-- γ = 0.3 -->
     <g transform="translate(671.007812 53.154688) scale(0.1 -0.1)">
      <defs>
       <path id="DejaVuSans-33" d="M 2597 2516 
Q 3050 2419 3304 2112 
Q 3559 1806 3559 1356 
Q 3559 666 3084 287 
Q 2609 -91 1734 -91 
Q 1441 -91 1130 -33 
Q 819 25 488 141 
L 488 750 
Q 750 597 1062 519 
Q 1375 441 1716 441 
Q 2309 441 2620 675 
Q 2931 909 2931 1356 
Q 2931 1769 2642 2001 
Q 2353 2234 1838 2234 
L 1294 2234 
L 1294 2753 
L 1863 2753 
Q 2328 2753 2575 2939 
Q 2822 3125 2822 3475 
Q 2822 3834 2567 4026 
Q 2313 4219 1838 4219 
Q 1578 4219 1281 4162 
Q 984 4106 628 3988 
L 628 4550 
Q 988 4650 1302 4700 
Q 1616 4750 1894 4750 
Q 2613 4750 3031 4423 
Q 3450 4097 3450 3541 
Q 3450 3153 3228 2886 
Q 3006 2619 2597 2516 
z
" transform="scale(0.015625)"/>
      </defs>
      <use xlink:href="#DejaVuSans-3b3"/>
      <use xlink:href="#DejaVuSans-20" transform="translate(59.179688 0)"/>
      <use xlink:href="#DejaVuSans-3d" transform="translate(90.966797 0)"/>
      <use xlink:href="#DejaVuSans-20" transform="translate(174.755859 0)"/>
      <use xlink:href="#DejaVuSans-30" transform="translate(206.542969 0)"/>
      <use xlink:href="#DejaVuSans-2e" transform="translate(270.166016 0)"/>
      <use xlink:href="#DejaVuSans-33" transform="translate(301.953125 0)"/>
     </g>
    </g>
    <g id="line2d_42">
     <path d="M 643.007812 64.332812 
L 653.007812 64.332812 
L 663.007812 64.332812 
" style="fill: none; stroke: #d62728; stroke-width: 1.5; stroke-linecap: square"/>
    </g>
    <g id="text_20">
     <!-- γ = 0.4 -->
     <g transform="translate(671.007812 67.832812) scale(0.1 -0.1)">
      <use xlink:href="#DejaVuSans-3b3"/>
      <use xlink:href="#DejaVuSans-20" transform="translate(59.179688 0)"/>
      <use xlink:href="#DejaVuSans-3d" transform="translate(90.966797 0)"/>
      <use xlink:href="#DejaVuSans-20" transform="translate(174.755859 0)"/>
      <use xlink:href="#DejaVuSans-30" transform="translate(206.542969 0)"/>
      <use xlink:href="#DejaVuSans-2e" transform="translate(270.166016 0)"/>
      <use xlink:href="#DejaVuSans-34" transform="translate(301.953125 0)"/>
     </g>
    </g>
    <g id="line2d_43">
     <path d="M 643.007812 79.010938 
L 653.007812 79.010938 
L 663.007812 79.010938 
" style="fill: none; stroke: #9467bd; stroke-width: 1.5; stroke-linecap: square"/>
    </g>
    <g id="text_21">
     <!-- γ = 0.5 -->
     <g transform="translate(671.007812 82.510938) scale(0.1 -0.1)">
      <use xlink:href="#DejaVuSans-3b3"/>
      <use xlink:href="#DejaVuSans-20" transform="translate(59.179688 0)"/>
      <use xlink:href="#DejaVuSans-3d" transform="translate(90.966797 0)"/>
      <use xlink:href="#DejaVuSans-20" transform="translate(174.755859 0)"/>
      <use xlink:href="#DejaVuSans-30" transform="translate(206.542969 0)"/>
      <use xlink:href="#DejaVuSans-2e" transform="translate(270.166016 0)"/>
      <use xlink:href="#DejaVuSans-35" transform="translate(301.953125 0)"/>
     </g>
    </g>
    <g id="line2d_44">
     <path d="M 643.007812 93.689062 
L 653.007812 93.689062 
L 663.007812 93.689062 
" style="fill: none; stroke: #8c564b; stroke-width: 1.5; stroke-linecap: square"/>
    </g>
    <g id="text_22">
     <!-- γ = 0.6 -->
     <g transform="translate(671.007812 97.189062) scale(0.1 -0.1)">
      <use xlink:href="#DejaVuSans-3b3"/>
      <use xlink:href="#DejaVuSans-20" transform="translate(59.179688 0)"/>
      <use xlink:href="#DejaVuSans-3d" transform="translate(90.966797 0)"/>
      <use xlink:href="#DejaVuSans-20" transform="translate(174.755859 0)"/>
      <use xlink:href="#DejaVuSans-30" transform="translate(206.542969 0)"/>
      <use xlink:href="#DejaVuSans-2e" transform="translate(270.166016 0)"/>
      <use xlink:href="#DejaVuSans-36" transform="translate(301.953125 0)"/>
     </g>
    </g>
    <g id="line2d_45">
     <path d="M 643.007812 108.367188 
L 653.007812 108.367188 
L 663.007812 108.367188 
" style="fill: none; stroke: #e377c2; stroke-width: 1.5; stroke-linecap: square"/>
    </g>
    <g id="text_23">
     <!-- γ = 0.7 -->
     <g transform="translate(671.007812 111.867188) scale(0.1 -0.1)">
      <use xlink:href="#DejaVuSans-3b3"/>
      <use xlink:href="#DejaVuSans-20" transform="translate(59.179688 0)"/>
      <use xlink:href="#DejaVuSans-3d" transform="translate(90.966797 0)"/>
      <use xlink:href="#DejaVuSans-20" transform="translate(174.755859 0)"/>
      <use xlink:href="#DejaVuSans-30" transform="translate(206.542969 0)"/>
      <use xlink:href="#DejaVuSans-2e" transform="translate(270.166016 0)"/>
      <use xlink:href="#DejaVuSans-37" transform="translate(301.953125 0)"/>
     </g>
    </g>
    <g id="line2d_46">
     <path d="M 643.007812 123.045312 
L 653.007812 123.045312 
L 663.007812 123.045312 
" style="fill: none; stroke: #7f7f7f; stroke-width: 1.5; stroke-linecap: square"/>
    </g>
    <g id="text_24">
     <!-- γ = 0.8 -->
     <g transform="translate(671.007812 126.545312) scale(0.1 -0.1)">
      <use xlink:href="#DejaVuSans-3b3"/>
      <use xlink:href="#DejaVuSans-20" transform="translate(59.179688 0)"/>
      <use xlink:href="#DejaVuSans-3d" transform="translate(90.966797 0)"/>
      <use xlink:href="#DejaVuSans-20" transform="translate(174.755859 0)"/>
      <use xlink:href="#DejaVuSans-30" transform="translate(206.542969 0)"/>
      <use xlink:href="#DejaVuSans-2e" transform="translate(270.166016 0)"/>
      <use xlink:href="#DejaVuSans-38" transform="translate(301.953125 0)"/>
     </g>
    </g>
    <g id="line2d_47">
     <path d="M 643.007812 137.723437 
L 653.007812 137.723437 
L 663.007812 137.723437 
" style="fill: none; stroke: #bcbd22; stroke-width: 1.5; stroke-linecap: square"/>
    </g>
    <g id="text_25">
     <!-- γ = 0.9 -->
     <g transform="translate(671.007812 141.223437) scale(0.1 -0.1)">
      <use xlink:href="#DejaVuSans-3b3"/>
      <use xlink:href="#DejaVuSans-20" transform="translate(59.179688 0)"/>
      <use xlink:href="#DejaVuSans-3d" transform="translate(90.966797 0)"/>
      <use xlink:href="#DejaVuSans-20" transform="translate(174.755859 0)"/>
      <use xlink:href="#DejaVuSans-30" transform="translate(206.542969 0)"/>
      <use xlink:href="#DejaVuSans-2e" transform="translate(270.166016 0)"/>
      <use xlink:href="#DejaVuSans-39" transform="translate(301.953125 0)"/>
     </g>
    </g>
    <g id="line2d_48">
     <path d="M 643.007812 152.401562 
L 653.007812 152.401562 
L 663.007812 152.401562 
" style="fill: none; stroke: #17becf; stroke-width: 1.5; stroke-linecap: square"/>
    </g>
    <g id="text_26">
     <!-- γ = 1.0 -->
     <g transform="translate(671.007812 155.901562) scale(0.1 -0.1)">
      <use xlink:href="#DejaVuSans-3b3"/>
      <use xlink:href="#DejaVuSans-20" transform="translate(59.179688 0)"/>
      <use xlink:href="#DejaVuSans-3d" transform="translate(90.966797 0)"/>
      <use xlink:href="#DejaVuSans-20" transform="translate(174.755859 0)"/>
      <use xlink:href="#DejaVuSans-31" transform="translate(206.542969 0)"/>
      <use xlink:href="#DejaVuSans-2e" transform="translate(270.166016 0)"/>
      <use xlink:href="#DejaVuSans-30" transform="translate(301.953125 0)"/>
     </g>
    </g>
   </g>
  </g>
 </g>
 <defs>
  <clipPath id="pd389b8553a">
   <rect x="46.965625" y="7.2" width="669.6" height="443.52"/>
  </clipPath>
 </defs>
</svg>
