<?xml version="1.0" encoding="utf-8" standalone="no"?>
<!DOCTYPE svg PUBLIC "-//W3C//DTD SVG 1.1//EN"
  "http://www.w3.org/Graphics/SVG/1.1/DTD/svg11.dtd">
<svg xmlns:xlink="http://www.w3.org/1999/xlink" width="720.58125pt" height="503.394375pt" viewBox="0 0 720.58125 503.394375" xmlns="http://www.w3.org/2000/svg" version="1.1">
 <metadata>
  <rdf:RDF xmlns:dc="http://purl.org/dc/elements/1.1/" xmlns:cc="http://creativecommons.org/ns#" xmlns:rdf="http://www.w3.org/1999/02/22-rdf-syntax-ns#">
   <cc:Work>
    <dc:type rdf:resource="http://purl.org/dc/dcmitype/StillImage"/>
    <dc:date>2026-04-01T16:48:30.810786</dc:date>
    <dc:format>image/svg+xml</dc:format>
    <dc:creator>
     <cc:Agent>
      <dc:title>Matplotlib v3.10.6, https://matplotlib.org/</dc:title>
     </cc:Agent>
    </dc:creator>
   </cc:Work>
  </rdf:RDF>
 </metadata>
 <defs>
  <style type="text/css">*{stroke-linejoin: round; stroke-linecap: butt}</style>
 </defs>
 <g id="figure_1">
  <g id="patch_1">
   <path d="M 0 503.394375 
L 720.58125 503.394375 
L 720.58125 0 
L 0 0 
z
" style="fill: #ffffff"/>
  </g>
  <g id="axes_1">
   <g id="patch_2">
    <path d="M 43.78125 465.838125 
L 713.38125 465.838125 
L 713.38125 22.318125 
L 43.78125 22.318125 
z
" style="fill: #ffffff"/>
   </g>
   <g id="matplotlib.axis_1">
    <g id="xtick_1">
     <g id="line2d_1">
      <path d="M 43.78125 465.838125 
L 43.78125 22.318125 
" clip-path="url(#p3e4741e4de)" style="fill: none; stroke: #b0b0b0; stroke-width: 0.8; stroke-linecap: square"/>
     </g>
     <g id="line2d_2">
      <defs>
       <path id="mdbd39e6299" d="M 0 0 
L 0 3.5 
" style="stroke: #000000; stroke-width: 0.8"/>
      </defs>
      <g>
       <use xlink:href="#mdbd39e6299" x="43.78125" y="465.838125" style="stroke: #000000; stroke-width: 0.8"/>
      </g>
     </g>
     <g id="text_1">
      <!-- 0 -->
      <g transform="translate(40.6 480.436562) scale(0.1 -0.1)">
       <defs>
        <path id="DejaVuSans-30" d="M 2034 4250 
Q 1547 4250 1301 3770 
Q 1056 3291 1056 2328 
Q 1056 1369 1301 889 
Q 1547 409 2034 409 
Q 2525 409 2770 889 
Q 3016 1369 3016 2328 
Q 3016 3291 2770 3770 
Q 2525 4250 2034 4250 
z
M 2034 4750 
Q 2819 4750 3233 4129 
Q 3647 3509 3647 2328 
Q 3647 1150 3233 529 
Q 2819 -91 2034 -91 
Q 1250 -91 836 529 
Q 422 1150 422 2328 
Q 422 3509 836 4129 
Q 1250 4750 2034 4750 
z
" transform="scale(0.015625)"/>
       </defs>
       <use xlink:href="#DejaVuSans-30"/>
      </g>
     </g>
    </g>
    <g id="xtick_2">
     <g id="line2d_3">
      <path d="M 130.18125 465.838125 
L 130.18125 22.318125 
" clip-path="url(#p3e4741e4de)" style="fill: none; stroke: #b0b0b0; stroke-width: 0.8; stroke-linecap: square"/>
     </g>
     <g id="line2d_4">
      <g>
       <use xlink:href="#mdbd39e6299" x="130.18125" y="465.838125" style="stroke: #000000; stroke-width: 0.8"/>
      </g>
     </g>
     <g id="text_2">
      <!-- 200 -->
      <g transform="translate(120.6375 480.436562) scale(0.1 -0.1)">
       <defs>
        <path id="DejaVuSans-32" d="M 1228 531 
L 3431 531 
L 3431 0 
L 469 0 
L 469 531 
Q 828 903 1448 1529 
Q 2069 2156 2228 2338 
Q 2531 2678 2651 2914 
Q 2772 3150 2772 3378 
Q 2772 3750 2511 3984 
Q 2250 4219 1831 4219 
Q 1534 4219 1204 4116 
Q 875 4013 500 3803 
L 500 4441 
Q 881 4594 1212 4672 
Q 1544 4750 1819 4750 
Q 2544 4750 2975 4387 
Q 3406 4025 3406 3419 
Q 3406 3131 3298 2873 
Q 3191 2616 2906 2266 
Q 2828 2175 2409 1742 
Q 1991 1309 1228 531 
z
" transform="scale(0.015625)"/>
       </defs>
       <use xlink:href="#DejaVuSans-32"/>
       <use xlink:href="#DejaVuSans-30" transform="translate(63.623047 0)"/>
       <use xlink:href="#DejaVuSans-30" transform="translate(127.246094 0)"/>
      </g>
     </g>
    </g>
    <g id="xtick_3">
     <g id="line2d_5">
      <path d="M 216.58125 465.838125 
L 216.58125 22.318125 
" clip-path="url(#p3e4741e4de)" style="fill: none; stroke: #b0b0b0; stroke-width: 0.8; stroke-linecap: square"/>
     </g>
     <g id="line2d_6">
      <g>
       <use xlink:href="#mdbd39e6299" x="216.58125" y="465.838125" style="stroke: #000000; stroke-width: 0.8"/>
      </g>
     </g>
     <g id="text_3">
      <!-- 400 -->
      <g transform="translate(207.0375 480.436562) scale(0.1 -0.1)">
       <defs>
        <path id="DejaVuSans-34" d="M 2419 4116 
L 825 1625 
L 2419 1625 
L 2419 4116 
z
M 2253 4666 
L 3047 4666 
L 3047 1625 
L 3713 1625 
L 3713 1100 
L 3047 1100 
L 3047 0 
L 2419 0 
L 2419 1100 
L 313 1100 
L 313 1709 
L 2253 4666 
z
" transform="scale(0.015625)"/>
       </defs>
       <use xlink:href="#DejaVuSans-34"/>
       <use xlink:href="#DejaVuSans-30" transform="translate(63.623047 0)"/>
       <use xlink:href="#DejaVuSans-30" transform="translate(127.246094 0)"/>
      </g>
     </g>
    </g>
    <g id="xtick_4">
     <g id="line2d_7">
      <path d="M 302.98125 465.838125 
L 302.98125 22.318125 
" clip-path="url(#p3e4741e4de)" style="fill: none; stroke: #b0b0b0; stroke-width: 0.8; stroke-linecap: square"/>
     </g>
     <g id="line2d_8">
      <g>
       <use xlink:href="#mdbd39e6299" x="302.98125" y="465.838125" style="stroke: #000000; stroke-width: 0.8"/>
      </g>
     </g>
     <g id="text_4">
      <!-- 600 -->
      <g transform="translate(293.4375 480.436562) scale(0.1 -0.1)">
       <defs>
        <path id="DejaVuSans-36" d="M 2113 2584 
Q 1688 2584 1439 2293 
Q 1191 2003 1191 1497 
Q 1191 994 1439 701 
Q 1688 409 2113 409 
Q 2538 409 2786 701 
Q 3034 994 3034 1497 
Q 3034 2003 2786 2293 
Q 2538 2584 2113 2584 
z
M 3366 4563 
L 3366 3988 
Q 3128 4100 2886 4159 
Q 2644 4219 2406 4219 
Q 1781 4219 1451 3797 
Q 1122 3375 1075 2522 
Q 1259 2794 1537 2939 
Q 1816 3084 2150 3084 
Q 2853 3084 3261 2657 
Q 3669 2231 3669 1497 
Q 3669 778 3244 343 
Q 2819 -91 2113 -91 
Q 1303 -91 875 529 
Q 447 1150 447 2328 
Q 447 3434 972 4092 
Q 1497 4750 2381 4750 
Q 2619 4750 2861 4703 
Q 3103 4656 3366 4563 
z
" transform="scale(0.015625)"/>
       </defs>
       <use xlink:href="#DejaVuSans-36"/>
       <use xlink:href="#DejaVuSans-30" transform="translate(63.623047 0)"/>
       <use xlink:href="#DejaVuSans-30" transform="translate(127.246094 0)"/>
      </g>
     </g>
    </g>
    <g id="xtick_5">
     <g id="line2d_9">
      <path d="M 389.38125 465.838125 
L 389.38125 22.318125 
" clip-path="url(#p3e4741e4de)" style="fill: none; stroke: #b0b0b0; stroke-width: 0.8; stroke-linecap: square"/>
     </g>
     <g id="line2d_10">
      <g>
       <use xlink:href="#mdbd39e6299" x="389.38125" y="465.838125" style="stroke: #000000; stroke-width: 0.8"/>
      </g>
     </g>
     <g id="text_5">
      <!-- 800 -->
      <g transform="translate(379.8375 480.436562) scale(0.1 -0.1)">
       <defs>
        <path id="DejaVuSans-38" d="M 2034 2216 
Q 1584 2216 1326 1975 
Q 1069 1734 1069 1313 
Q 1069 891 1326 650 
Q 1584 409 2034 409 
Q 2484 409 2743 651 
Q 3003 894 3003 1313 
Q 3003 1734 2745 1975 
Q 2488 2216 2034 2216 
z
M 1403 2484 
Q 997 2584 770 2862 
Q 544 3141 544 3541 
Q 544 4100 942 4425 
Q 1341 4750 2034 4750 
Q 2731 4750 3128 4425 
Q 3525 4100 3525 3541 
Q 3525 3141 3298 2862 
Q 3072 2584 2669 2484 
Q 3125 2378 3379 2068 
Q 3634 1759 3634 1313 
Q 3634 634 3220 271 
Q 2806 -91 2034 -91 
Q 1263 -91 848 271 
Q 434 634 434 1313 
Q 434 1759 690 2068 
Q 947 2378 1403 2484 
z
M 1172 3481 
Q 1172 3119 1398 2916 
Q 1625 2713 2034 2713 
Q 2441 2713 2670 2916 
Q 2900 3119 2900 3481 
Q 2900 3844 2670 4047 
Q 2441 4250 2034 4250 
Q 1625 4250 1398 4047 
Q 1172 3844 1172 3481 
z
" transform="scale(0.015625)"/>
       </defs>
       <use xlink:href="#DejaVuSans-38"/>
       <use xlink:href="#DejaVuSans-30" transform="translate(63.623047 0)"/>
       <use xlink:href="#DejaVuSans-30" transform="translate(127.246094 0)"/>
      </g>
     </g>
    </g>
    <g id="xtick_6">
     <g id="line2d_11">
      <path d="M 475.78125 465.838125 
L 475.78125 22.318125 
" clip-path="url(#p3e4741e4de)" style="fill: none; stroke: #b0b0b0; stroke-width: 0.8; stroke-linecap: square"/>
     </g>
     <g id="line2d_12">
      <g>
       <use xlink:href="#mdbd39e6299" x="475.78125" y="465.838125" style="stroke: #000000; stroke-width: 0.8"/>
      </g>
     </g>
     <g id="text_6">
      <!-- 1000 -->
      <g transform="translate(463.05625 480.436562) scale(0.1 -0.1)">
       <defs>
        <path id="DejaVuSans-31" d="M 794 531 
L 1825 531 
L 1825 4091 
L 703 3866 
L 703 4441 
L 1819 4666 
L 2450 4666 
L 2450 531 
L 3481 531 
L 3481 0 
L 794 0 
L 794 531 
z
" transform="scale(0.015625)"/>
       </defs>
       <use xlink:href="#DejaVuSans-31"/>
       <use xlink:href="#DejaVuSans-30" transform="translate(63.623047 0)"/>
       <use xlink:href="#DejaVuSans-30" transform="translate(127.246094 0)"/>
       <use xlink:href="#DejaVuSans-30" transform="translate(190.869141 0)"/>
      </g>
     </g>
    </g>
    <g id="xtick_7">
     <g id="line2d_13">
      <path d="M 562.18125 465.838125 
L 562.18125 22.318125 
" clip-path="url(#p3e4741e4de)" style="fill: none; stroke: #b0b0b0; stroke-width: 0.8; stroke-linecap: square"/>
     </g>
     <g id="line2d_14">
      <g>
       <use xlink:href="#mdbd39e6299" x="562.18125" y="465.838125" style="stroke: #000000; stroke-width: 0.8"/>
      </g>
     </g>
     <g id="text_7">
      <!-- 1200 -->
      <g transform="translate(549.45625 480.436562) scale(0.1 -0.1)">
       <use xlink:href="#DejaVuSans-31"/>
       <use xlink:href="#DejaVuSans-32" transform="translate(63.623047 0)"/>
       <use xlink:href="#DejaVuSans-30" transform="translate(127.246094 0)"/>
       <use xlink:href="#DejaVuSans-30" transform="translate(190.869141 0)"/>
      </g>
     </g>
    </g>
    <g id="xtick_8">
     <g id="line2d_15">
      <path d="M 648.58125 465.838125 
L 648.58125 22.318125 
" clip-path="url(#p3e4741e4de)" style="fill: none; stroke: #b0b0b0; stroke-width: 0.8; stroke-linecap: square"/>
     </g>
     <g id="line2d_16">
      <g>
       <use xlink:href="#mdbd39e6299" x="648.58125" y="465.838125" style="stroke: #000000; stroke-width: 0.8"/>
      </g>
     </g>
     <g id="text_8">
      <!-- 1400 -->
      <g transform="translate(635.85625 480.436562) scale(0.1 -0.1)">
       <use xlink:href="#DejaVuSans-31"/>
       <use xlink:href="#DejaVuSans-34" transform="translate(63.623047 0)"/>
       <use xlink:href="#DejaVuSans-30" transform="translate(127.246094 0)"/>
       <use xlink:href="#DejaVuSans-30" transform="translate(190.869141 0)"/>
      </g>
     </g>
    </g>
    <g id="text_9">
     <!-- Time [s] -->
     <g transform="translate(358.252344 494.114687) scale(0.1 -0.1)">
      <defs>
       <path id="DejaVuSans-54" d="M -19 4666 
L 3928 4666 
L 3928 4134 
L 2272 4134 
L 2272 0 
L 1638 0 
L 1638 4134 
L -19 4134 
L -19 4666 
z
" transform="scale(0.015625)"/>
       <path id="DejaVuSans-69" d="M 603 3500 
L 1178 3500 
L 1178 0 
L 603 0 
L 603 3500 
z
M 603 4863 
L 1178 4863 
L 1178 4134 
L 603 4134 
L 603 4863 
z
" transform="scale(0.015625)"/>
       <path id="DejaVuSans-6d" d="M 3328 2828 
Q 3544 3216 3844 3400 
Q 4144 3584 4550 3584 
Q 5097 3584 5394 3201 
Q 5691 2819 5691 2113 
L 5691 0 
L 5113 0 
L 5113 2094 
Q 5113 2597 4934 2840 
Q 4756 3084 4391 3084 
Q 3944 3084 3684 2787 
Q 3425 2491 3425 1978 
L 3425 0 
L 2847 0 
L 2847 2094 
Q 2847 2600 2669 2842 
Q 2491 3084 2119 3084 
Q 1678 3084 1418 2786 
Q 1159 2488 1159 1978 
L 1159 0 
L 581 0 
L 581 3500 
L 1159 3500 
L 1159 2956 
Q 1356 3278 1631 3431 
Q 1906 3584 2284 3584 
Q 2666 3584 2933 3390 
Q 3200 3197 3328 2828 
z
" transform="scale(0.015625)"/>
       <path id="DejaVuSans-65" d="M 3597 1894 
L 3597 1613 
L 953 1613 
Q 991 1019 1311 708 
Q 1631 397 2203 397 
Q 2534 397 2845 478 
Q 3156 559 3463 722 
L 3463 178 
Q 3153 47 2828 -22 
Q 2503 -91 2169 -91 
Q 1331 -91 842 396 
Q 353 884 353 1716 
Q 353 2575 817 3079 
Q 1281 3584 2069 3584 
Q 2775 3584 3186 3129 
Q 3597 2675 3597 1894 
z
M 3022 2063 
Q 3016 2534 2758 2815 
Q 2500 3097 2075 3097 
Q 1594 3097 1305 2825 
Q 1016 2553 972 2059 
L 3022 2063 
z
" transform="scale(0.015625)"/>
       <path id="DejaVuSans-20" transform="scale(0.015625)"/>
       <path id="DejaVuSans-5b" d="M 550 4863 
L 1875 4863 
L 1875 4416 
L 1125 4416 
L 1125 -397 
L 1875 -397 
L 1875 -844 
L 550 -844 
L 550 4863 
z
" transform="scale(0.015625)"/>
       <path id="DejaVuSans-73" d="M 2834 3397 
L 2834 2853 
Q 2591 2978 2328 3040 
Q 2066 3103 1784 3103 
Q 1356 3103 1142 2972 
Q 928 2841 928 2578 
Q 928 2378 1081 2264 
Q 1234 2150 1697 2047 
L 1894 2003 
Q 2506 1872 2764 1633 
Q 3022 1394 3022 966 
Q 3022 478 2636 193 
Q 2250 -91 1575 -91 
Q 1294 -91 989 -36 
Q 684 19 347 128 
L 347 722 
Q 666 556 975 473 
Q 1284 391 1588 391 
Q 1994 391 2212 530 
Q 2431 669 2431 922 
Q 2431 1156 2273 1281 
Q 2116 1406 1581 1522 
L 1381 1569 
Q 847 1681 609 1914 
Q 372 2147 372 2553 
Q 372 3047 722 3315 
Q 1072 3584 1716 3584 
Q 2034 3584 2315 3537 
Q 2597 3491 2834 3397 
z
" transform="scale(0.015625)"/>
       <path id="DejaVuSans-5d" d="M 1947 4863 
L 1947 -844 
L 622 -844 
L 622 -397 
L 1369 -397 
L 1369 4416 
L 622 4416 
L 622 4863 
L 1947 4863 
z
" transform="scale(0.015625)"/>
      </defs>
      <use xlink:href="#DejaVuSans-54"/>
      <use xlink:href="#DejaVuSans-69" transform="translate(57.958984 0)"/>
      <use xlink:href="#DejaVuSans-6d" transform="translate(85.742188 0)"/>
      <use xlink:href="#DejaVuSans-65" transform="translate(183.154297 0)"/>
      <use xlink:href="#DejaVuSans-20" transform="translate(244.677734 0)"/>
      <use xlink:href="#DejaVuSans-5b" transform="translate(276.464844 0)"/>
      <use xlink:href="#DejaVuSans-73" transform="translate(315.478516 0)"/>
      <use xlink:href="#DejaVuSans-5d" transform="translate(367.578125 0)"/>
     </g>
    </g>
   </g>
   <g id="matplotlib.axis_2">
    <g id="ytick_1">
     <g id="line2d_17">
      <path d="M 43.78125 442.82061 
L 713.38125 442.82061 
" clip-path="url(#p3e4741e4de)" style="fill: none; stroke: #b0b0b0; stroke-width: 0.8; stroke-linecap: square"/>
     </g>
     <g id="line2d_18">
      <defs>
       <path id="m73de809512" d="M 0 0 
L -3.5 0 
" style="stroke: #000000; stroke-width: 0.8"/>
      </defs>
      <g>
       <use xlink:href="#m73de809512" x="43.78125" y="442.82061" style="stroke: #000000; stroke-width: 0.8"/>
      </g>
     </g>
     <g id="text_10">
      <!-- 0.0 -->
      <g transform="translate(20.878125 446.619828) scale(0.1 -0.1)">
       <defs>
        <path id="DejaVuSans-2e" d="M 684 794 
L 1344 794 
L 1344 0 
L 684 0 
L 684 794 
z
" transform="scale(0.015625)"/>
       </defs>
       <use xlink:href="#DejaVuSans-30"/>
       <use xlink:href="#DejaVuSans-2e" transform="translate(63.623047 0)"/>
       <use xlink:href="#DejaVuSans-30" transform="translate(95.410156 0)"/>
      </g>
     </g>
    </g>
    <g id="ytick_2">
     <g id="line2d_19">
      <path d="M 43.78125 364.965522 
L 713.38125 364.965522 
" clip-path="url(#p3e4741e4de)" style="fill: none; stroke: #b0b0b0; stroke-width: 0.8; stroke-linecap: square"/>
     </g>
     <g id="line2d_20">
      <g>
       <use xlink:href="#m73de809512" x="43.78125" y="364.965522" style="stroke: #000000; stroke-width: 0.8"/>
      </g>
     </g>
     <g id="text_11">
      <!-- 0.2 -->
      <g transform="translate(20.878125 368.764741) scale(0.1 -0.1)">
       <use xlink:href="#DejaVuSans-30"/>
       <use xlink:href="#DejaVuSans-2e" transform="translate(63.623047 0)"/>
       <use xlink:href="#DejaVuSans-32" transform="translate(95.410156 0)"/>
      </g>
     </g>
    </g>
    <g id="ytick_3">
     <g id="line2d_21">
      <path d="M 43.78125 287.110435 
L 713.38125 287.110435 
" clip-path="url(#p3e4741e4de)" style="fill: none; stroke: #b0b0b0; stroke-width: 0.8; stroke-linecap: square"/>
     </g>
     <g id="line2d_22">
      <g>
       <use xlink:href="#m73de809512" x="43.78125" y="287.110435" style="stroke: #000000; stroke-width: 0.8"/>
      </g>
     </g>
     <g id="text_12">
      <!-- 0.4 -->
      <g transform="translate(20.878125 290.909654) scale(0.1 -0.1)">
       <use xlink:href="#DejaVuSans-30"/>
       <use xlink:href="#DejaVuSans-2e" transform="translate(63.623047 0)"/>
       <use xlink:href="#DejaVuSans-34" transform="translate(95.410156 0)"/>
      </g>
     </g>
    </g>
    <g id="ytick_4">
     <g id="line2d_23">
      <path d="M 43.78125 209.255348 
L 713.38125 209.255348 
" clip-path="url(#p3e4741e4de)" style="fill: none; stroke: #b0b0b0; stroke-width: 0.8; stroke-linecap: square"/>
     </g>
     <g id="line2d_24">
      <g>
       <use xlink:href="#m73de809512" x="43.78125" y="209.255348" style="stroke: #000000; stroke-width: 0.8"/>
      </g>
     </g>
     <g id="text_13">
      <!-- 0.6 -->
      <g transform="translate(20.878125 213.054567) scale(0.1 -0.1)">
       <use xlink:href="#DejaVuSans-30"/>
       <use xlink:href="#DejaVuSans-2e" transform="translate(63.623047 0)"/>
       <use xlink:href="#DejaVuSans-36" transform="translate(95.410156 0)"/>
      </g>
     </g>
    </g>
    <g id="ytick_5">
     <g id="line2d_25">
      <path d="M 43.78125 131.400261 
L 713.38125 131.400261 
" clip-path="url(#p3e4741e4de)" style="fill: none; stroke: #b0b0b0; stroke-width: 0.8; stroke-linecap: square"/>
     </g>
     <g id="line2d_26">
      <g>
       <use xlink:href="#m73de809512" x="43.78125" y="131.400261" style="stroke: #000000; stroke-width: 0.8"/>
      </g>
     </g>
     <g id="text_14">
      <!-- 0.8 -->
      <g transform="translate(20.878125 135.199479) scale(0.1 -0.1)">
       <use xlink:href="#DejaVuSans-30"/>
       <use xlink:href="#DejaVuSans-2e" transform="translate(63.623047 0)"/>
       <use xlink:href="#DejaVuSans-38" transform="translate(95.410156 0)"/>
      </g>
     </g>
    </g>
    <g id="ytick_6">
     <g id="line2d_27">
      <path d="M 43.78125 53.545173 
L 713.38125 53.545173 
" clip-path="url(#p3e4741e4de)" style="fill: none; stroke: #b0b0b0; stroke-width: 0.8; stroke-linecap: square"/>
     </g>
     <g id="line2d_28">
      <g>
       <use xlink:href="#m73de809512" x="43.78125" y="53.545173" style="stroke: #000000; stroke-width: 0.8"/>
      </g>
     </g>
     <g id="text_15">
      <!-- 1.0 -->
      <g transform="translate(20.878125 57.344392) scale(0.1 -0.1)">
       <use xlink:href="#DejaVuSans-31"/>
       <use xlink:href="#DejaVuSans-2e" transform="translate(63.623047 0)"/>
       <use xlink:href="#DejaVuSans-30" transform="translate(95.410156 0)"/>
      </g>
     </g>
    </g>
    <g id="text_16">
     <!-- PV [°C] -->
     <g transform="translate(14.798438 261.995312) rotate(-90) scale(0.1 -0.1)">
      <defs>
       <path id="DejaVuSans-50" d="M 1259 4147 
L 1259 2394 
L 2053 2394 
Q 2494 2394 2734 2622 
Q 2975 2850 2975 3272 
Q 2975 3691 2734 3919 
Q 2494 4147 2053 4147 
L 1259 4147 
z
M 628 4666 
L 2053 4666 
Q 2838 4666 3239 4311 
Q 3641 3956 3641 3272 
Q 3641 2581 3239 2228 
Q 2838 1875 2053 1875 
L 1259 1875 
L 1259 0 
L 628 0 
L 628 4666 
z
" transform="scale(0.015625)"/>
       <path id="DejaVuSans-56" d="M 1831 0 
L 50 4666 
L 709 4666 
L 2188 738 
L 3669 4666 
L 4325 4666 
L 2547 0 
L 1831 0 
z
" transform="scale(0.015625)"/>
       <path id="DejaVuSans-b0" d="M 1600 4347 
Q 1350 4347 1178 4173 
Q 1006 4000 1006 3750 
Q 1006 3503 1178 3333 
Q 1350 3163 1600 3163 
Q 1850 3163 2022 3333 
Q 2194 3503 2194 3750 
Q 2194 3997 2020 4172 
Q 1847 4347 1600 4347 
z
M 1600 4750 
Q 1800 4750 1984 4673 
Q 2169 4597 2303 4453 
Q 2447 4313 2519 4134 
Q 2591 3956 2591 3750 
Q 2591 3338 2302 3052 
Q 2013 2766 1594 2766 
Q 1172 2766 890 3047 
Q 609 3328 609 3750 
Q 609 4169 896 4459 
Q 1184 4750 1600 4750 
z
" transform="scale(0.015625)"/>
       <path id="DejaVuSans-43" d="M 4122 4306 
L 4122 3641 
Q 3803 3938 3442 4084 
Q 3081 4231 2675 4231 
Q 1875 4231 1450 3742 
Q 1025 3253 1025 2328 
Q 1025 1406 1450 917 
Q 1875 428 2675 428 
Q 3081 428 3442 575 
Q 3803 722 4122 1019 
L 4122 359 
Q 3791 134 3420 21 
Q 3050 -91 2638 -91 
Q 1578 -91 968 557 
Q 359 1206 359 2328 
Q 359 3453 968 4101 
Q 1578 4750 2638 4750 
Q 3056 4750 3426 4639 
Q 3797 4528 4122 4306 
z
" transform="scale(0.015625)"/>
      </defs>
      <use xlink:href="#DejaVuSans-50"/>
      <use xlink:href="#DejaVuSans-56" transform="translate(60.302734 0)"/>
      <use xlink:href="#DejaVuSans-20" transform="translate(128.710938 0)"/>
      <use xlink:href="#DejaVuSans-5b" transform="translate(160.498047 0)"/>
      <use xlink:href="#DejaVuSans-b0" transform="translate(199.511719 0)"/>
      <use xlink:href="#DejaVuSans-43" transform="translate(249.511719 0)"/>
      <use xlink:href="#DejaVuSans-5d" transform="translate(319.335938 0)"/>
     </g>
    </g>
   </g>
   <g id="line2d_29">
    <path d="M 43.78125 442.82061 
L 70.56525 442.822376 
L 70.99725 442.517005 
L 71.42925 441.928164 
L 72.29325 439.981257 
L 73.15725 437.132015 
L 74.02125 433.512983 
L 75.31725 426.892164 
L 76.61325 419.133098 
L 78.34125 407.49606 
L 81.36525 385.167535 
L 85.68525 353.084527 
L 88.27725 335.541775 
L 90.43725 322.479595 
L 92.16525 313.187871 
L 93.89325 304.968862 
L 95.62125 297.818901 
L 97.34925 291.700727 
L 99.07725 286.55035 
L 100.37325 283.272568 
L 101.66925 280.450911 
L 102.96525 278.040975 
L 104.26125 275.996246 
L 105.55725 274.269153 
L 107.28525 272.378112 
L 109.01325 270.856223 
L 111.17325 269.312467 
L 114.19725 267.485611 
L 117.65325 265.368403 
L 119.81325 263.811858 
L 121.97325 261.966109 
L 124.13325 259.769795 
L 126.29325 257.185587 
L 128.45325 254.197601 
L 130.61325 250.808408 
L 132.77325 247.035866 
L 135.36525 242.04562 
L 138.38925 235.672851 
L 141.84525 227.820593 
L 146.59725 216.390035 
L 159.12525 185.938649 
L 163.44525 176.125611 
L 167.76525 166.877582 
L 171.65325 159.068417 
L 175.54125 151.743571 
L 179.42925 144.881526 
L 183.31725 138.45077 
L 187.20525 132.416262 
L 191.52525 126.134754 
L 195.84525 120.259591 
L 200.16525 114.757676 
L 204.48525 109.60385 
L 208.80525 104.779677 
L 213.12525 100.271594 
L 217.44525 96.068968 
L 221.76525 92.162384 
L 226.08525 88.542349 
L 230.40525 85.198473 
L 234.72525 82.119097 
L 239.04525 79.291266 
L 243.79725 76.454424 
L 248.54925 73.88534 
L 253.30125 71.563999 
L 258.48525 69.290943 
L 263.66925 67.264479 
L 269.28525 65.32054 
L 274.90125 63.611628 
L 280.94925 62.005863 
L 287.42925 60.524728 
L 294.34125 59.18429 
L 301.68525 57.995012 
L 309.46125 56.961685 
L 318.10125 56.042724 
L 327.60525 55.260732 
L 338.40525 54.603457 
L 350.93325 54.075872 
L 365.62125 53.688135 
L 384.19725 53.432017 
L 410.11725 53.317975 
L 458.50125 53.374063 
L 584.21325 53.531095 
L 713.38125 53.545298 
L 713.38125 53.545298 
" clip-path="url(#p3e4741e4de)" style="fill: none; stroke: #1f77b4; stroke-width: 1.5; stroke-linecap: square"/>
   </g>
   <g id="line2d_30">
    <path d="M 43.78125 442.82061 
L 70.56525 442.818589 
L 70.99725 442.513145 
L 71.42925 441.920872 
L 71.86125 441.059303 
L 72.72525 438.593721 
L 73.58925 435.238529 
L 74.45325 431.102829 
L 75.74925 423.645864 
L 77.04525 414.934607 
L 78.77325 401.792077 
L 80.93325 383.628899 
L 84.82125 348.564986 
L 89.57325 305.976325 
L 92.59725 280.809802 
L 95.18925 260.986962 
L 97.78125 242.962809 
L 99.94125 229.354408 
L 102.10125 217.009527 
L 104.26125 205.875346 
L 106.42125 195.876235 
L 108.58125 186.921632 
L 110.74125 178.912531 
L 112.90125 171.746716 
L 115.06125 165.322848 
L 117.22125 159.543553 
L 119.38125 154.317639 
L 121.97325 148.659993 
L 124.56525 143.551368 
L 127.58925 138.140102 
L 130.61325 133.185105 
L 134.06925 127.939535 
L 137.95725 122.427801 
L 142.70925 116.096128 
L 147.89325 109.577025 
L 153.07725 103.412194 
L 158.26125 97.602754 
L 163.01325 92.609887 
L 167.76525 87.95608 
L 172.08525 84.032128 
L 176.40525 80.405504 
L 180.72525 77.07479 
L 185.04525 74.033001 
L 189.36525 71.268711 
L 193.68525 68.767325 
L 198.00525 66.512271 
L 202.75725 64.295306 
L 207.50925 62.331702 
L 212.26125 60.598628 
L 217.44525 58.945582 
L 223.06125 57.405349 
L 228.67725 56.096565 
L 234.72525 54.915147 
L 241.20525 53.87865 
L 248.11725 52.998688 
L 255.89325 52.244826 
L 264.10125 51.674429 
L 273.60525 51.246752 
L 284.40525 50.994858 
L 297.36525 50.92919 
L 313.78125 51.082903 
L 339.70125 51.579652 
L 395.42925 52.675468 
L 430.85325 53.115824 
L 471.89325 53.393126 
L 528.48525 53.533727 
L 650.74125 53.554137 
L 713.38125 53.54834 
L 713.38125 53.54834 
" clip-path="url(#p3e4741e4de)" style="fill: none; stroke: #ff7f0e; stroke-width: 1.5; stroke-linecap: square"/>
   </g>
   <g id="line2d_31">
    <path d="M 43.78125 442.82061 
L 70.56525 442.831018 
L 70.99725 442.580864 
L 71.42925 442.095245 
L 72.29325 440.472463 
L 73.15725 438.065255 
L 74.02125 434.965588 
L 75.31725 429.195541 
L 76.61325 422.293171 
L 78.34125 411.682967 
L 80.50125 396.748789 
L 83.52525 373.939323 
L 93.02925 300.842972 
L 96.05325 279.68492 
L 99.07725 260.106719 
L 101.66925 244.643864 
L 104.26125 230.389167 
L 106.85325 217.295563 
L 109.44525 205.292214 
L 112.03725 194.2945 
L 114.62925 184.21158 
L 117.22125 174.951944 
L 119.81325 166.427309 
L 122.83725 157.301212 
L 125.86125 148.945312 
L 128.88525 141.25639 
L 131.90925 134.146387 
L 135.36525 126.63563 
L 138.82125 119.695834 
L 142.27725 113.256625 
L 145.73325 107.263268 
L 149.18925 101.673467 
L 153.07725 95.826866 
L 156.96525 90.4138 
L 160.85325 85.406156 
L 164.74125 80.780994 
L 168.62925 76.518569 
L 172.51725 72.600973 
L 176.40525 69.011249 
L 180.29325 65.732869 
L 184.18125 62.749464 
L 188.06925 60.044736 
L 191.95725 57.602463 
L 195.84525 55.406579 
L 200.16525 53.236456 
L 204.48525 51.329828 
L 208.80525 49.666224 
L 213.12525 48.226004 
L 217.87725 46.877464 
L 222.62925 45.753065 
L 227.81325 44.75622 
L 233.42925 43.916966 
L 239.04525 43.297793 
L 245.09325 42.844706 
L 252.00525 42.558403 
L 259.34925 42.479413 
L 267.55725 42.612091 
L 277.06125 42.989507 
L 288.72525 43.684407 
L 304.70925 44.880058 
L 358.70925 49.090424 
L 378.14925 50.289071 
L 397.15725 51.239221 
L 417.02925 52.010371 
L 438.62925 52.623976 
L 463.25325 53.093553 
L 492.62925 53.419517 
L 530.64525 53.60331 
L 590.69325 53.642584 
L 713.38125 53.565558 
L 713.38125 53.565558 
" clip-path="url(#p3e4741e4de)" style="fill: none; stroke: #2ca02c; stroke-width: 1.5; stroke-linecap: square"/>
   </g>
   <g id="line2d_32">
    <path d="M 43.78125 442.82061 
L 70.56525 442.864198 
L 70.99725 442.667603 
L 71.42925 442.285622 
L 72.29325 441.00868 
L 73.15725 439.114136 
L 74.02125 436.674398 
L 75.31725 432.132541 
L 76.61325 426.699158 
L 78.34125 418.34593 
L 80.50125 406.579292 
L 83.52525 388.560122 
L 95.18925 317.327808 
L 98.64525 298.282475 
L 101.66925 282.759372 
L 104.69325 268.311805 
L 107.71725 254.9012 
L 110.74125 242.461579 
L 113.76525 230.912903 
L 116.78925 220.170401 
L 120.24525 208.773792 
L 123.70125 198.206056 
L 127.15725 188.364767 
L 130.61325 179.162028 
L 134.50125 169.481142 
L 138.38925 160.430708 
L 142.27725 151.943785 
L 146.16525 143.96816 
L 150.05325 136.463171 
L 153.94125 129.396895 
L 158.26125 122.029114 
L 162.58125 115.142909 
L 166.90125 108.714152 
L 171.22125 102.72151 
L 175.54125 97.145292 
L 179.86125 91.966725 
L 184.18125 87.167525 
L 188.50125 82.729686 
L 192.82125 78.635395 
L 197.14125 74.867035 
L 201.46125 71.407233 
L 205.78125 68.23892 
L 210.10125 65.345403 
L 214.42125 62.710429 
L 218.74125 60.318235 
L 223.49325 57.949072 
L 228.24525 55.835779 
L 232.99725 53.959736 
L 238.18125 52.162897 
L 243.36525 50.605463 
L 248.98125 49.164536 
L 254.59725 47.95584 
L 260.64525 46.887601 
L 267.12525 45.982265 
L 274.03725 45.256243 
L 281.38125 44.719537 
L 289.15725 44.37564 
L 297.79725 44.218779 
L 307.30125 44.267197 
L 318.53325 44.553385 
L 331.92525 45.123904 
L 350.50125 46.158825 
L 417.02925 50.057249 
L 440.35725 51.095663 
L 463.68525 51.90987 
L 488.74125 52.556428 
L 516.38925 53.042197 
L 548.78925 53.38292 
L 590.26125 53.584372 
L 653.33325 53.642655 
L 713.38125 53.610745 
L 713.38125 53.610745 
" clip-path="url(#p3e4741e4de)" style="fill: none; stroke: #d62728; stroke-width: 1.5; stroke-linecap: square"/>
   </g>
   <g id="line2d_33">
    <path d="M 43.78125 442.82061 
L 70.56525 442.886783 
L 70.99725 442.724965 
L 71.42925 442.410292 
L 72.29325 441.357983 
L 73.15725 439.796443 
L 74.02125 437.785374 
L 75.31725 434.041322 
L 76.61325 429.562168 
L 78.34125 422.675291 
L 80.50125 412.96919 
L 83.52525 398.079908 
L 96.91725 330.185285 
L 100.37325 314.363267 
L 103.82925 299.53695 
L 107.28525 285.689363 
L 110.74125 272.762912 
L 114.19725 260.680076 
L 117.65325 249.356975 
L 121.54125 237.424942 
L 125.42925 226.245014 
L 129.31725 215.725791 
L 133.63725 204.720804 
L 137.95725 194.354781 
L 142.27725 184.563302 
L 146.59725 175.297174 
L 150.91725 166.518878 
L 155.23725 158.199479 
L 159.98925 149.550987 
L 164.74125 141.405331 
L 169.06125 134.418732 
L 173.38125 127.815968 
L 177.70125 121.583594 
L 182.02125 115.708587 
L 186.34125 110.178104 
L 190.66125 104.979366 
L 194.98125 100.099609 
L 199.30125 95.526083 
L 204.05325 90.833742 
L 208.80525 86.479778 
L 213.55725 82.447593 
L 218.30925 78.72085 
L 223.06125 75.283538 
L 227.81325 72.120018 
L 232.56525 69.21507 
L 237.31725 66.553928 
L 242.50125 63.912142 
L 247.68525 61.525623 
L 252.86925 59.377209 
L 258.48525 57.299415 
L 264.10125 55.461875 
L 270.14925 53.730006 
L 276.19725 52.232549 
L 282.67725 50.86444 
L 289.58925 49.648008 
L 296.50125 48.655663 
L 303.84525 47.818735 
L 312.05325 47.115165 
L 320.69325 46.601824 
L 330.19725 46.26347 
L 340.56525 46.115849 
L 352.66125 46.173191 
L 366.91725 46.474756 
L 385.06125 47.097844 
L 413.57325 48.332084 
L 460.66125 50.354097 
L 489.60525 51.359191 
L 518.11725 52.12658 
L 548.35725 52.715812 
L 582.48525 53.15231 
L 623.52525 53.444427 
L 678.38925 53.596237 
L 713.38125 53.618916 
L 713.38125 53.618916 
" clip-path="url(#p3e4741e4de)" style="fill: none; stroke: #9467bd; stroke-width: 1.5; stroke-linecap: square"/>
   </g>
   <g id="line2d_34">
    <path d="M 43.78125 442.82061 
L 70.56525 443.12152 
L 70.99725 442.986955 
L 71.86125 442.334665 
L 72.72525 441.220734 
L 73.58925 439.6989 
L 74.88525 436.75528 
L 76.18125 433.142825 
L 77.90925 427.490887 
L 80.06925 419.413409 
L 82.66125 408.725897 
L 86.98125 389.728814 
L 94.32525 357.395416 
L 98.64525 339.490245 
L 102.53325 324.346405 
L 106.42125 310.145013 
L 110.30925 296.840688 
L 114.19725 284.357232 
L 118.08525 272.608444 
L 122.40525 260.313823 
L 126.72525 248.71947 
L 131.04525 237.739081 
L 135.79725 226.287597 
L 140.54925 215.424588 
L 145.30125 205.097352 
L 150.05325 195.267137 
L 154.80525 185.905286 
L 159.98925 176.201162 
L 165.17325 167.006603 
L 169.92525 159.010256 
L 174.67725 151.414201 
L 179.42925 144.206623 
L 184.18125 137.375967 
L 188.93325 130.910676 
L 193.68525 124.79908 
L 198.43725 119.029351 
L 203.18925 113.58952 
L 207.94125 108.467512 
L 212.69325 103.6512 
L 217.44525 99.128458 
L 222.19725 94.887212 
L 227.38125 90.567378 
L 232.56525 86.552958 
L 237.74925 82.828866 
L 242.93325 79.380322 
L 248.11725 76.192896 
L 253.30125 73.252533 
L 258.91725 70.330121 
L 264.53325 67.664859 
L 270.14925 65.240558 
L 276.19725 62.881411 
L 282.24525 60.765061 
L 288.29325 58.873745 
L 294.77325 57.077871 
L 301.68525 55.403467 
L 308.59725 53.956021 
L 315.94125 52.643222 
L 323.71725 51.480345 
L 331.92525 50.478275 
L 340.56525 49.643397 
L 350.06925 48.950783 
L 360.43725 48.424522 
L 371.66925 48.078418 
L 384.62925 47.911132 
L 399.31725 47.95116 
L 417.02925 48.228188 
L 440.78925 48.836008 
L 551.38125 51.946689 
L 587.23725 52.580361 
L 626.54925 53.047811 
L 672.77325 53.366464 
L 713.38125 53.508129 
L 713.38125 53.508129 
" clip-path="url(#p3e4741e4de)" style="fill: none; stroke: #8c564b; stroke-width: 1.5; stroke-linecap: square"/>
   </g>
   <g id="line2d_35">
    <path d="M 43.78125 442.82061 
L 70.56525 443.368888 
L 71.42925 443.028807 
L 72.29325 442.260428 
L 73.15725 441.113267 
L 74.02125 439.631718 
L 75.31725 436.868248 
L 76.61325 433.557896 
L 78.34125 428.463121 
L 80.50125 421.273506 
L 83.09325 411.844684 
L 87.41325 395.184627 
L 94.75725 366.842849 
L 99.07725 351.054794 
L 102.96525 337.608116 
L 106.85325 324.898418 
L 110.74125 312.888431 
L 115.06125 300.291389 
L 119.38125 288.392734 
L 123.70125 277.105633 
L 128.45325 265.306476 
L 133.20525 254.074638 
L 138.38925 242.395502 
L 143.57325 231.257393 
L 148.75725 220.618045 
L 153.94125 210.4478 
L 159.55725 199.935056 
L 165.17325 189.928402 
L 170.35725 181.127242 
L 175.54125 172.733545 
L 180.72525 164.73741 
L 185.90925 157.129045 
L 191.09325 149.898474 
L 196.27725 143.035414 
L 201.46125 136.529238 
L 206.64525 130.369003 
L 211.82925 124.543495 
L 217.01325 119.0413 
L 222.19725 113.850867 
L 227.38125 108.96057 
L 232.56525 104.358775 
L 237.74925 100.033883 
L 243.36525 95.647713 
L 248.98125 91.558545 
L 254.59725 87.752138 
L 260.21325 84.214522 
L 265.82925 80.932031 
L 271.44525 77.891336 
L 277.49325 74.872293 
L 283.54125 72.102951 
L 289.58925 69.568157 
L 296.06925 67.096006 
L 302.54925 64.859122 
L 309.46125 62.713886 
L 316.37325 60.79857 
L 323.71725 58.995307 
L 331.49325 57.324007 
L 339.70125 55.800843 
L 347.90925 54.500708 
L 356.98125 53.295422 
L 366.48525 52.263467 
L 376.85325 51.372244 
L 387.65325 50.667351 
L 399.74925 50.10558 
L 413.14125 49.713664 
L 428.26125 49.500402 
L 445.97325 49.481446 
L 468.00525 49.694034 
L 499.10925 50.240204 
L 605.38125 52.265179 
L 651.17325 52.823901 
L 701.71725 53.211139 
L 713.38125 53.273022 
L 713.38125 53.273022 
" clip-path="url(#p3e4741e4de)" style="fill: none; stroke: #e377c2; stroke-width: 1.5; stroke-linecap: square"/>
   </g>
   <g id="line2d_36">
    <path d="M 43.78125 442.82061 
L 70.56525 443.498993 
L 71.42925 443.203455 
L 72.29325 442.527777 
L 73.15725 441.515908 
L 74.02125 440.207249 
L 75.31725 437.763959 
L 76.61325 434.835273 
L 78.34125 430.32582 
L 80.50125 423.95888 
L 83.09325 415.602184 
L 87.41325 400.809775 
L 95.62125 372.631545 
L 100.37325 357.220897 
L 104.69325 343.978612 
L 109.01325 331.460257 
L 113.33325 319.610433 
L 118.08525 307.261665 
L 122.83725 295.538791 
L 128.02125 283.365702 
L 133.20525 271.750327 
L 138.82125 259.72103 
L 144.43725 248.211177 
L 150.05325 237.181289 
L 156.10125 225.809944 
L 162.14925 214.943444 
L 167.76525 205.292082 
L 173.38125 196.053925 
L 178.99725 187.220863 
L 184.61325 178.785033 
L 190.22925 170.738346 
L 195.84525 163.072259 
L 201.46125 155.777696 
L 207.07725 148.845058 
L 212.69325 142.264273 
L 218.30925 136.024877 
L 223.92525 130.116087 
L 229.54125 124.52689 
L 235.15725 119.24611 
L 240.77325 114.262478 
L 246.38925 109.564692 
L 252.00525 105.141473 
L 258.05325 100.672207 
L 264.10125 96.494507 
L 270.14925 92.59471 
L 276.19725 88.95939 
L 282.24525 85.575404 
L 288.72525 82.214031 
L 295.20525 79.111092 
L 301.68525 76.251704 
L 308.59725 73.453939 
L 315.50925 70.900106 
L 322.42125 68.57408 
L 329.76525 66.335036 
L 337.54125 64.20602 
L 345.31725 62.306178 
L 353.52525 60.528728 
L 362.16525 58.888295 
L 371.23725 57.396112 
L 380.74125 56.059932 
L 390.67725 54.884036 
L 401.47725 53.831353 
L 413.14125 52.923325 
L 425.66925 52.173748 
L 439.49325 51.573025 
L 455.04525 51.127433 
L 472.75725 50.85112 
L 493.49325 50.757096 
L 519.84525 50.873935 
L 557.86125 51.287434 
L 678.82125 52.727136 
L 713.38125 52.993137 
L 713.38125 52.993137 
" clip-path="url(#p3e4741e4de)" style="fill: none; stroke: #7f7f7f; stroke-width: 1.5; stroke-linecap: square"/>
   </g>
   <g id="line2d_37">
    <path d="M 43.78125 442.82061 
L 70.56525 443.421091 
L 71.42925 443.156452 
L 72.29325 442.550414 
L 73.15725 441.642452 
L 74.02125 440.467956 
L 75.31725 438.274886 
L 76.61325 435.645934 
L 78.34125 431.597737 
L 80.50125 425.881032 
L 83.09325 418.37425 
L 87.41325 405.069157 
L 96.05325 378.318471 
L 100.80525 364.379826 
L 105.12525 352.346177 
L 109.87725 339.79754 
L 114.62925 327.906306 
L 119.38125 316.591528 
L 124.56525 304.814552 
L 130.18125 292.628 
L 135.79725 280.956191 
L 141.84525 268.895664 
L 147.89325 257.316248 
L 153.94125 246.187584 
L 160.42125 234.74316 
L 166.46925 224.496649 
L 172.51725 214.662043 
L 178.56525 205.233074 
L 184.61325 196.203826 
L 190.66125 187.56808 
L 196.70925 179.319 
L 202.75725 171.449022 
L 208.80525 163.949858 
L 214.85325 156.81256 
L 220.90125 150.027604 
L 226.94925 143.584994 
L 232.99725 137.47435 
L 239.04525 131.685006 
L 245.09325 126.206084 
L 251.14125 121.02657 
L 257.18925 116.135382 
L 263.23725 111.521423 
L 269.28525 107.173633 
L 275.76525 102.798185 
L 282.24525 98.702343 
L 288.72525 94.872972 
L 295.20525 91.297179 
L 301.68525 87.962359 
L 308.59725 84.656975 
L 315.50925 81.597278 
L 322.85325 78.599854 
L 330.19725 75.847699 
L 337.54125 73.325203 
L 345.31725 70.888027 
L 353.52525 68.557857 
L 361.73325 66.458041 
L 370.37325 64.476873 
L 379.44525 62.628438 
L 388.94925 60.92378 
L 398.88525 59.370827 
L 409.25325 57.974407 
L 420.48525 56.691029 
L 432.14925 55.580358 
L 445.10925 54.576278 
L 458.93325 53.732933 
L 474.05325 53.035311 
L 490.90125 52.483235 
L 510.34125 52.077693 
L 532.80525 51.838868 
L 560.45325 51.776037 
L 598.03725 51.927999 
L 680.11725 52.551795 
L 713.38125 52.787949 
L 713.38125 52.787949 
" clip-path="url(#p3e4741e4de)" style="fill: none; stroke: #bcbd22; stroke-width: 1.5; stroke-linecap: square"/>
   </g>
   <g id="line2d_38">
    <path d="M 43.78125 442.82061 
L 70.99725 443.016553 
L 71.86125 442.61105 
L 72.72525 441.914843 
L 73.58925 440.961783 
L 74.88525 439.116077 
L 76.18125 436.849274 
L 77.90925 433.300847 
L 80.06925 428.225153 
L 82.66125 421.495171 
L 86.54925 410.689645 
L 97.34925 380.296468 
L 102.10125 367.688075 
L 106.85325 355.704015 
L 111.60525 344.314232 
L 116.78925 332.492494 
L 121.97325 321.21333 
L 127.58925 309.514151 
L 133.63725 297.43095 
L 140.11725 285.000118 
L 146.59725 273.047276 
L 153.07725 261.538331 
L 159.55725 250.453898 
L 166.03725 239.783196 
L 172.51725 229.51992 
L 178.99725 219.659654 
L 185.47725 210.198362 
L 191.95725 201.131579 
L 198.43725 192.454036 
L 204.91725 184.159534 
L 211.39725 176.240954 
L 217.87725 168.690335 
L 224.35725 161.498984 
L 230.83725 154.657588 
L 237.31725 148.156329 
L 243.79725 141.984984 
L 250.27725 136.133025 
L 256.75725 130.589702 
L 263.23725 125.344119 
L 269.71725 120.385301 
L 276.19725 115.702252 
L 282.67725 111.284013 
L 289.15725 107.1197 
L 296.06925 102.945526 
L 302.98125 99.035153 
L 309.89325 95.375956 
L 317.23725 91.749462 
L 324.58125 88.378148 
L 331.92525 85.247996 
L 339.70125 82.181507 
L 347.47725 79.354647 
L 355.68525 76.614217 
L 363.89325 74.107338 
L 372.53325 71.703211 
L 381.60525 69.418836 
L 390.67725 67.361143 
L 400.18125 65.428653 
L 410.11725 63.631429 
L 420.48525 61.976825 
L 431.71725 60.413473 
L 443.38125 59.015222 
L 455.90925 57.739252 
L 469.30125 56.601307 
L 483.98925 55.584352 
L 499.97325 54.709851 
L 517.25325 53.989605 
L 536.69325 53.404372 
L 559.15725 52.957962 
L 585.50925 52.66419 
L 618.34125 52.530311 
L 664.13325 52.584643 
L 713.38125 52.772922 
L 713.38125 52.772922 
" clip-path="url(#p3e4741e4de)" style="fill: none; stroke: #17becf; stroke-width: 1.5; stroke-linecap: square"/>
   </g>
   <g id="line2d_39">
    <path d="M 43.78125 445.678125 
L 64.94925 445.678125 
L 65.38125 53.545173 
L 713.38125 53.545173 
L 713.38125 53.545173 
" clip-path="url(#p3e4741e4de)" style="fill: none; stroke-dasharray: 7.4,3.2; stroke-dashoffset: 0; stroke: #000000; stroke-width: 2"/>
   </g>
   <g id="patch_3">
    <path d="M 43.78125 465.838125 
L 43.78125 22.318125 
" style="fill: none; stroke: #000000; stroke-width: 0.8; stroke-linejoin: miter; stroke-linecap: square"/>
   </g>
   <g id="patch_4">
    <path d="M 713.38125 465.838125 
L 713.38125 22.318125 
" style="fill: none; stroke: #000000; stroke-width: 0.8; stroke-linejoin: miter; stroke-linecap: square"/>
   </g>
   <g id="patch_5">
    <path d="M 43.78125 465.838125 
L 713.38125 465.838125 
" style="fill: none; stroke: #000000; stroke-width: 0.8; stroke-linejoin: miter; stroke-linecap: square"/>
   </g>
   <g id="patch_6">
    <path d="M 43.78125 22.318125 
L 713.38125 22.318125 
" style="fill: none; stroke: #000000; stroke-width: 0.8; stroke-linejoin: miter; stroke-linecap: square"/>
   </g>
   <g id="text_17">
    <!-- Normalized closed-loop step response -->
    <g transform="translate(264.359063 16.318125) scale(0.12 -0.12)">
     <defs>
      <path id="DejaVuSans-4e" d="M 628 4666 
L 1478 4666 
L 3547 763 
L 3547 4666 
L 4159 4666 
L 4159 0 
L 3309 0 
L 1241 3903 
L 1241 0 
L 628 0 
L 628 4666 
z
" transform="scale(0.015625)"/>
      <path id="DejaVuSans-6f" d="M 1959 3097 
Q 1497 3097 1228 2736 
Q 959 2375 959 1747 
Q 959 1119 1226 758 
Q 1494 397 1959 397 
Q 2419 397 2687 759 
Q 2956 1122 2956 1747 
Q 2956 2369 2687 2733 
Q 2419 3097 1959 3097 
z
M 1959 3584 
Q 2709 3584 3137 3096 
Q 3566 2609 3566 1747 
Q 3566 888 3137 398 
Q 2709 -91 1959 -91 
Q 1206 -91 779 398 
Q 353 888 353 1747 
Q 353 2609 779 3096 
Q 1206 3584 1959 3584 
z
" transform="scale(0.015625)"/>
      <path id="DejaVuSans-72" d="M 2631 2963 
Q 2534 3019 2420 3045 
Q 2306 3072 2169 3072 
Q 1681 3072 1420 2755 
Q 1159 2438 1159 1844 
L 1159 0 
L 581 0 
L 581 3500 
L 1159 3500 
L 1159 2956 
Q 1341 3275 1631 3429 
Q 1922 3584 2338 3584 
Q 2397 3584 2469 3576 
Q 2541 3569 2628 3553 
L 2631 2963 
z
" transform="scale(0.015625)"/>
      <path id="DejaVuSans-61" d="M 2194 1759 
Q 1497 1759 1228 1600 
Q 959 1441 959 1056 
Q 959 750 1161 570 
Q 1363 391 1709 391 
Q 2188 391 2477 730 
Q 2766 1069 2766 1631 
L 2766 1759 
L 2194 1759 
z
M 3341 1997 
L 3341 0 
L 2766 0 
L 2766 531 
Q 2569 213 2275 61 
Q 1981 -91 1556 -91 
Q 1019 -91 701 211 
Q 384 513 384 1019 
Q 384 1609 779 1909 
Q 1175 2209 1959 2209 
L 2766 2209 
L 2766 2266 
Q 2766 2663 2505 2880 
Q 2244 3097 1772 3097 
Q 1472 3097 1187 3025 
Q 903 2953 641 2809 
L 641 3341 
Q 956 3463 1253 3523 
Q 1550 3584 1831 3584 
Q 2591 3584 2966 3190 
Q 3341 2797 3341 1997 
z
" transform="scale(0.015625)"/>
      <path id="DejaVuSans-6c" d="M 603 4863 
L 1178 4863 
L 1178 0 
L 603 0 
L 603 4863 
z
" transform="scale(0.015625)"/>
      <path id="DejaVuSans-7a" d="M 353 3500 
L 3084 3500 
L 3084 2975 
L 922 459 
L 3084 459 
L 3084 0 
L 275 0 
L 275 525 
L 2438 3041 
L 353 3041 
L 353 3500 
z
" transform="scale(0.015625)"/>
      <path id="DejaVuSans-64" d="M 2906 2969 
L 2906 4863 
L 3481 4863 
L 3481 0 
L 2906 0 
L 2906 525 
Q 2725 213 2448 61 
Q 2172 -91 1784 -91 
Q 1150 -91 751 415 
Q 353 922 353 1747 
Q 353 2572 751 3078 
Q 1150 3584 1784 3584 
Q 2172 3584 2448 3432 
Q 2725 3281 2906 2969 
z
M 947 1747 
Q 947 1113 1208 752 
Q 1469 391 1925 391 
Q 2381 391 2643 752 
Q 2906 1113 2906 1747 
Q 2906 2381 2643 2742 
Q 2381 3103 1925 3103 
Q 1469 3103 1208 2742 
Q 947 2381 947 1747 
z
" transform="scale(0.015625)"/>
      <path id="DejaVuSans-63" d="M 3122 3366 
L 3122 2828 
Q 2878 2963 2633 3030 
Q 2388 3097 2138 3097 
Q 1578 3097 1268 2742 
Q 959 2388 959 1747 
Q 959 1106 1268 751 
Q 1578 397 2138 397 
Q 2388 397 2633 464 
Q 2878 531 3122 666 
L 3122 134 
Q 2881 22 2623 -34 
Q 2366 -91 2075 -91 
Q 1284 -91 818 406 
Q 353 903 353 1747 
Q 353 2603 823 3093 
Q 1294 3584 2113 3584 
Q 2378 3584 2631 3529 
Q 2884 3475 3122 3366 
z
" transform="scale(0.015625)"/>
      <path id="DejaVuSans-2d" d="M 313 2009 
L 1997 2009 
L 1997 1497 
L 313 1497 
L 313 2009 
z
" transform="scale(0.015625)"/>
      <path id="DejaVuSans-70" d="M 1159 525 
L 1159 -1331 
L 581 -1331 
L 581 3500 
L 1159 3500 
L 1159 2969 
Q 1341 3281 1617 3432 
Q 1894 3584 2278 3584 
Q 2916 3584 3314 3078 
Q 3713 2572 3713 1747 
Q 3713 922 3314 415 
Q 2916 -91 2278 -91 
Q 1894 -91 1617 61 
Q 1341 213 1159 525 
z
M 3116 1747 
Q 3116 2381 2855 2742 
Q 2594 3103 2138 3103 
Q 1681 3103 1420 2742 
Q 1159 2381 1159 1747 
Q 1159 1113 1420 752 
Q 1681 391 2138 391 
Q 2594 391 2855 752 
Q 3116 1113 3116 1747 
z
" transform="scale(0.015625)"/>
      <path id="DejaVuSans-74" d="M 1172 4494 
L 1172 3500 
L 2356 3500 
L 2356 3053 
L 1172 3053 
L 1172 1153 
Q 1172 725 1289 603 
Q 1406 481 1766 481 
L 2356 481 
L 2356 0 
L 1766 0 
Q 1100 0 847 248 
Q 594 497 594 1153 
L 594 3053 
L 172 3053 
L 172 3500 
L 594 3500 
L 594 4494 
L 1172 4494 
z
" transform="scale(0.015625)"/>
      <path id="DejaVuSans-6e" d="M 3513 2113 
L 3513 0 
L 2938 0 
L 2938 2094 
Q 2938 2591 2744 2837 
Q 2550 3084 2163 3084 
Q 1697 3084 1428 2787 
Q 1159 2491 1159 1978 
L 1159 0 
L 581 0 
L 581 3500 
L 1159 3500 
L 1159 2956 
Q 1366 3272 1645 3428 
Q 1925 3584 2291 3584 
Q 2894 3584 3203 3211 
Q 3513 2838 3513 2113 
z
" transform="scale(0.015625)"/>
     </defs>
     <use xlink:href="#DejaVuSans-4e"/>
     <use xlink:href="#DejaVuSans-6f" transform="translate(74.804688 0)"/>
     <use xlink:href="#DejaVuSans-72" transform="translate(135.986328 0)"/>
     <use xlink:href="#DejaVuSans-6d" transform="translate(175.349609 0)"/>
     <use xlink:href="#DejaVuSans-61" transform="translate(272.761719 0)"/>
     <use xlink:href="#DejaVuSans-6c" transform="translate(334.041016 0)"/>
     <use xlink:href="#DejaVuSans-69" transform="translate(361.824219 0)"/>
     <use xlink:href="#DejaVuSans-7a" transform="translate(389.607422 0)"/>
     <use xlink:href="#DejaVuSans-65" transform="translate(442.097656 0)"/>
     <use xlink:href="#DejaVuSans-64" transform="translate(503.621094 0)"/>
     <use xlink:href="#DejaVuSans-20" transform="translate(567.097656 0)"/>
     <use xlink:href="#DejaVuSans-63" transform="translate(598.884766 0)"/>
     <use xlink:href="#DejaVuSans-6c" transform="translate(653.865234 0)"/>
     <use xlink:href="#DejaVuSans-6f" transform="translate(681.648438 0)"/>
     <use xlink:href="#DejaVuSans-73" transform="translate(742.830078 0)"/>
     <use xlink:href="#DejaVuSans-65" transform="translate(794.929688 0)"/>
     <use xlink:href="#DejaVuSans-64" transform="translate(856.453125 0)"/>
     <use xlink:href="#DejaVuSans-2d" transform="translate(919.929688 0)"/>
     <use xlink:href="#DejaVuSans-6c" transform="translate(956.013672 0)"/>
     <use xlink:href="#DejaVuSans-6f" transform="translate(983.796875 0)"/>
     <use xlink:href="#DejaVuSans-6f" transform="translate(1044.978516 0)"/>
     <use xlink:href="#DejaVuSans-70" transform="translate(1106.160156 0)"/>
     <use xlink:href="#DejaVuSans-20" transform="translate(1169.636719 0)"/>
     <use xlink:href="#DejaVuSans-73" transform="translate(1201.423828 0)"/>
     <use xlink:href="#DejaVuSans-74" transform="translate(1253.523438 0)"/>
     <use xlink:href="#DejaVuSans-65" transform="translate(1292.732422 0)"/>
     <use xlink:href="#DejaVuSans-70" transform="translate(1354.255859 0)"/>
     <use xlink:href="#DejaVuSans-20" transform="translate(1417.732422 0)"/>
     <use xlink:href="#DejaVuSans-72" transform="translate(1449.519531 0)"/>
     <use xlink:href="#DejaVuSans-65" transform="translate(1488.382812 0)"/>
     <use xlink:href="#DejaVuSans-73" transform="translate(1549.90625 0)"/>
     <use xlink:href="#DejaVuSans-70" transform="translate(1602.005859 0)"/>
     <use xlink:href="#DejaVuSans-6f" transform="translate(1665.482422 0)"/>
     <use xlink:href="#DejaVuSans-6e" transform="translate(1726.664062 0)"/>
     <use xlink:href="#DejaVuSans-73" transform="translate(1790.042969 0)"/>
     <use xlink:href="#DejaVuSans-65" transform="translate(1842.142578 0)"/>
    </g>
   </g>
   <g id="legend_1">
    <g id="patch_7">
     <path d="M 637.823437 460.838125 
L 706.38125 460.838125 
Q 708.38125 460.838125 708.38125 458.838125 
L 708.38125 298.37875 
Q 708.38125 296.37875 706.38125 296.37875 
L 637.823437 296.37875 
Q 635.823437 296.37875 635.823437 298.37875 
L 635.823437 458.838125 
Q 635.823437 460.838125 637.823437 460.838125 
z
" style="fill: #ffffff; opacity: 0.8; stroke: #cccccc; stroke-linejoin: miter"/>
    </g>
    <g id="line2d_40">
     <path d="M 639.823437 304.477187 
L 649.823437 304.477187 
L 659.823437 304.477187 
" style="fill: none; stroke: #1f77b4; stroke-width: 1.5; stroke-linecap: square"/>
    </g>
    <g id="text_18">
     <!-- γ = 0.1 -->
     <g transform="translate(667.823437 307.977187) scale(0.1 -0.1)">
      <defs>
       <path id="DejaVuSans-3b3" d="M 1128 2950 
L 1894 788 
L 2988 3500 
L 3597 3500 
L 2181 0 
L 2181 -1331 
L 1606 -1331 
L 1606 0 
L 688 2613 
Q 550 3006 253 3006 
L 100 3006 
L 100 3500 
L 319 3500 
Q 934 3500 1128 2950 
z
" transform="scale(0.015625)"/>
       <path id="DejaVuSans-3d" d="M 678 2906 
L 4684 2906 
L 4684 2381 
L 678 2381 
L 678 2906 
z
M 678 1631 
L 4684 1631 
L 4684 1100 
L 678 1100 
L 678 1631 
z
" transform="scale(0.015625)"/>
      </defs>
      <use xlink:href="#DejaVuSans-3b3"/>
      <use xlink:href="#DejaVuSans-20" transform="translate(59.179688 0)"/>
      <use xlink:href="#DejaVuSans-3d" transform="translate(90.966797 0)"/>
      <use xlink:href="#DejaVuSans-20" transform="translate(174.755859 0)"/>
      <use xlink:href="#DejaVuSans-30" transform="translate(206.542969 0)"/>
      <use xlink:href="#DejaVuSans-2e" transform="translate(270.166016 0)"/>
      <use xlink:href="#DejaVuSans-31" transform="translate(301.953125 0)"/>
     </g>
    </g>
    <g id="line2d_41">
     <path d="M 639.823437 319.155312 
L 649.823437 319.155312 
L 659.823437 319.155312 
" style="fill: none; stroke: #ff7f0e; stroke-width: 1.5; stroke-linecap: square"/>
    </g>
    <g id="text_19">
     <!-- γ = 0.2 -->
     <g transform="translate(667.823437 322.655312) scale(0.1 -0.1)">
      <use xlink:href="#DejaVuSans-3b3"/>
      <use xlink:href="#DejaVuSans-20" transform="translate(59.179688 0)"/>
      <use xlink:href="#DejaVuSans-3d" transform="translate(90.966797 0)"/>
      <use xlink:href="#DejaVuSans-20" transform="translate(174.755859 0)"/>
      <use xlink:href="#DejaVuSans-30" transform="translate(206.542969 0)"/>
      <use xlink:href="#DejaVuSans-2e" transform="translate(270.166016 0)"/>
      <use xlink:href="#DejaVuSans-32" transform="translate(301.953125 0)"/>
     </g>
    </g>
    <g id="line2d_42">
     <path d="M 639.823437 333.833437 
L 649.823437 333.833437 
L 659.823437 333.833437 
" style="fill: none; stroke: #2ca02c; stroke-width: 1.5; stroke-linecap: square"/>
    </g>
    <g id="text_20">
     <!-- γ = 0.3 -->
     <g transform="translate(667.823437 337.333437) scale(0.1 -0.1)">
      <defs>
       <path id="DejaVuSans-33" d="M 2597 2516 
Q 3050 2419 3304 2112 
Q 3559 1806 3559 1356 
Q 3559 666 3084 287 
Q 2609 -91 1734 -91 
Q 1441 -91 1130 -33 
Q 819 25 488 141 
L 488 750 
Q 750 597 1062 519 
Q 1375 441 1716 441 
Q 2309 441 2620 675 
Q 2931 909 2931 1356 
Q 2931 1769 2642 2001 
Q 2353 2234 1838 2234 
L 1294 2234 
L 1294 2753 
L 1863 2753 
Q 2328 2753 2575 2939 
Q 2822 3125 2822 3475 
Q 2822 3834 2567 4026 
Q 2313 4219 1838 4219 
Q 1578 4219 1281 4162 
Q 984 4106 628 3988 
L 628 4550 
Q 988 4650 1302 4700 
Q 1616 4750 1894 4750 
Q 2613 4750 3031 4423 
Q 3450 4097 3450 3541 
Q 3450 3153 3228 2886 
Q 3006 2619 2597 2516 
z
" transform="scale(0.015625)"/>
      </defs>
      <use xlink:href="#DejaVuSans-3b3"/>
      <use xlink:href="#DejaVuSans-20" transform="translate(59.179688 0)"/>
      <use xlink:href="#DejaVuSans-3d" transform="translate(90.966797 0)"/>
      <use xlink:href="#DejaVuSans-20" transform="translate(174.755859 0)"/>
      <use xlink:href="#DejaVuSans-30" transform="translate(206.542969 0)"/>
      <use xlink:href="#DejaVuSans-2e" transform="translate(270.166016 0)"/>
      <use xlink:href="#DejaVuSans-33" transform="translate(301.953125 0)"/>
     </g>
    </g>
    <g id="line2d_43">
     <path d="M 639.823437 348.511562 
L 649.823437 348.511562 
L 659.823437 348.511562 
" style="fill: none; stroke: #d62728; stroke-width: 1.5; stroke-linecap: square"/>
    </g>
    <g id="text_21">
     <!-- γ = 0.4 -->
     <g transform="translate(667.823437 352.011562) scale(0.1 -0.1)">
      <use xlink:href="#DejaVuSans-3b3"/>
      <use xlink:href="#DejaVuSans-20" transform="translate(59.179688 0)"/>
      <use xlink:href="#DejaVuSans-3d" transform="translate(90.966797 0)"/>
      <use xlink:href="#DejaVuSans-20" transform="translate(174.755859 0)"/>
      <use xlink:href="#DejaVuSans-30" transform="translate(206.542969 0)"/>
      <use xlink:href="#DejaVuSans-2e" transform="translate(270.166016 0)"/>
      <use xlink:href="#DejaVuSans-34" transform="translate(301.953125 0)"/>
     </g>
    </g>
    <g id="line2d_44">
     <path d="M 639.823437 363.189687 
L 649.823437 363.189687 
L 659.823437 363.189687 
" style="fill: none; stroke: #9467bd; stroke-width: 1.5; stroke-linecap: square"/>
    </g>
    <g id="text_22">
     <!-- γ = 0.5 -->
     <g transform="translate(667.823437 366.689687) scale(0.1 -0.1)">
      <defs>
       <path id="DejaVuSans-35" d="M 691 4666 
L 3169 4666 
L 3169 4134 
L 1269 4134 
L 1269 2991 
Q 1406 3038 1543 3061 
Q 1681 3084 1819 3084 
Q 2600 3084 3056 2656 
Q 3513 2228 3513 1497 
Q 3513 744 3044 326 
Q 2575 -91 1722 -91 
Q 1428 -91 1123 -41 
Q 819 9 494 109 
L 494 744 
Q 775 591 1075 516 
Q 1375 441 1709 441 
Q 2250 441 2565 725 
Q 2881 1009 2881 1497 
Q 2881 1984 2565 2268 
Q 2250 2553 1709 2553 
Q 1456 2553 1204 2497 
Q 953 2441 691 2322 
L 691 4666 
z
" transform="scale(0.015625)"/>
      </defs>
      <use xlink:href="#DejaVuSans-3b3"/>
      <use xlink:href="#DejaVuSans-20" transform="translate(59.179688 0)"/>
      <use xlink:href="#DejaVuSans-3d" transform="translate(90.966797 0)"/>
      <use xlink:href="#DejaVuSans-20" transform="translate(174.755859 0)"/>
      <use xlink:href="#DejaVuSans-30" transform="translate(206.542969 0)"/>
      <use xlink:href="#DejaVuSans-2e" transform="translate(270.166016 0)"/>
      <use xlink:href="#DejaVuSans-35" transform="translate(301.953125 0)"/>
     </g>
    </g>
    <g id="line2d_45">
     <path d="M 639.823437 377.867812 
L 649.823437 377.867812 
L 659.823437 377.867812 
" style="fill: none; stroke: #8c564b; stroke-width: 1.5; stroke-linecap: square"/>
    </g>
    <g id="text_23">
     <!-- γ = 0.6 -->
     <g transform="translate(667.823437 381.367812) scale(0.1 -0.1)">
      <use xlink:href="#DejaVuSans-3b3"/>
      <use xlink:href="#DejaVuSans-20" transform="translate(59.179688 0)"/>
      <use xlink:href="#DejaVuSans-3d" transform="translate(90.966797 0)"/>
      <use xlink:href="#DejaVuSans-20" transform="translate(174.755859 0)"/>
      <use xlink:href="#DejaVuSans-30" transform="translate(206.542969 0)"/>
      <use xlink:href="#DejaVuSans-2e" transform="translate(270.166016 0)"/>
      <use xlink:href="#DejaVuSans-36" transform="translate(301.953125 0)"/>
     </g>
    </g>
    <g id="line2d_46">
     <path d="M 639.823437 392.545937 
L 649.823437 392.545937 
L 659.823437 392.545937 
" style="fill: none; stroke: #e377c2; stroke-width: 1.5; stroke-linecap: square"/>
    </g>
    <g id="text_24">
     <!-- γ = 0.7 -->
     <g transform="translate(667.823437 396.045937) scale(0.1 -0.1)">
      <defs>
       <path id="DejaVuSans-37" d="M 525 4666 
L 3525 4666 
L 3525 4397 
L 1831 0 
L 1172 0 
L 2766 4134 
L 525 4134 
L 525 4666 
z
" transform="scale(0.015625)"/>
      </defs>
      <use xlink:href="#DejaVuSans-3b3"/>
      <use xlink:href="#DejaVuSans-20" transform="translate(59.179688 0)"/>
      <use xlink:href="#DejaVuSans-3d" transform="translate(90.966797 0)"/>
      <use xlink:href="#DejaVuSans-20" transform="translate(174.755859 0)"/>
      <use xlink:href="#DejaVuSans-30" transform="translate(206.542969 0)"/>
      <use xlink:href="#DejaVuSans-2e" transform="translate(270.166016 0)"/>
      <use xlink:href="#DejaVuSans-37" transform="translate(301.953125 0)"/>
     </g>
    </g>
    <g id="line2d_47">
     <path d="M 639.823437 407.224062 
L 649.823437 407.224062 
L 659.823437 407.224062 
" style="fill: none; stroke: #7f7f7f; stroke-width: 1.5; stroke-linecap: square"/>
    </g>
    <g id="text_25">
     <!-- γ = 0.8 -->
     <g transform="translate(667.823437 410.724062) scale(0.1 -0.1)">
      <use xlink:href="#DejaVuSans-3b3"/>
      <use xlink:href="#DejaVuSans-20" transform="translate(59.179688 0)"/>
      <use xlink:href="#DejaVuSans-3d" transform="translate(90.966797 0)"/>
      <use xlink:href="#DejaVuSans-20" transform="translate(174.755859 0)"/>
      <use xlink:href="#DejaVuSans-30" transform="translate(206.542969 0)"/>
      <use xlink:href="#DejaVuSans-2e" transform="translate(270.166016 0)"/>
      <use xlink:href="#DejaVuSans-38" transform="translate(301.953125 0)"/>
     </g>
    </g>
    <g id="line2d_48">
     <path d="M 639.823437 421.902187 
L 649.823437 421.902187 
L 659.823437 421.902187 
" style="fill: none; stroke: #bcbd22; stroke-width: 1.5; stroke-linecap: square"/>
    </g>
    <g id="text_26">
     <!-- γ = 0.9 -->
     <g transform="translate(667.823437 425.402187) scale(0.1 -0.1)">
      <defs>
       <path id="DejaVuSans-39" d="M 703 97 
L 703 672 
Q 941 559 1184 500 
Q 1428 441 1663 441 
Q 2288 441 2617 861 
Q 2947 1281 2994 2138 
Q 2813 1869 2534 1725 
Q 2256 1581 1919 1581 
Q 1219 1581 811 2004 
Q 403 2428 403 3163 
Q 403 3881 828 4315 
Q 1253 4750 1959 4750 
Q 2769 4750 3195 4129 
Q 3622 3509 3622 2328 
Q 3622 1225 3098 567 
Q 2575 -91 1691 -91 
Q 1453 -91 1209 -44 
Q 966 3 703 97 
z
M 1959 2075 
Q 2384 2075 2632 2365 
Q 2881 2656 2881 3163 
Q 2881 3666 2632 3958 
Q 2384 4250 1959 4250 
Q 1534 4250 1286 3958 
Q 1038 3666 1038 3163 
Q 1038 2656 1286 2365 
Q 1534 2075 1959 2075 
z
" transform="scale(0.015625)"/>
      </defs>
      <use xlink:href="#DejaVuSans-3b3"/>
      <use xlink:href="#DejaVuSans-20" transform="translate(59.179688 0)"/>
      <use xlink:href="#DejaVuSans-3d" transform="translate(90.966797 0)"/>
      <use xlink:href="#DejaVuSans-20" transform="translate(174.755859 0)"/>
      <use xlink:href="#DejaVuSans-30" transform="translate(206.542969 0)"/>
      <use xlink:href="#DejaVuSans-2e" transform="translate(270.166016 0)"/>
      <use xlink:href="#DejaVuSans-39" transform="translate(301.953125 0)"/>
     </g>
    </g>
    <g id="line2d_49">
     <path d="M 639.823437 436.580312 
L 649.823437 436.580312 
L 659.823437 436.580312 
" style="fill: none; stroke: #17becf; stroke-width: 1.5; stroke-linecap: square"/>
    </g>
    <g id="text_27">
     <!-- γ = 1.0 -->
     <g transform="translate(667.823437 440.080312) scale(0.1 -0.1)">
      <use xlink:href="#DejaVuSans-3b3"/>
      <use xlink:href="#DejaVuSans-20" transform="translate(59.179688 0)"/>
      <use xlink:href="#DejaVuSans-3d" transform="translate(90.966797 0)"/>
      <use xlink:href="#DejaVuSans-20" transform="translate(174.755859 0)"/>
      <use xlink:href="#DejaVuSans-31" transform="translate(206.542969 0)"/>
      <use xlink:href="#DejaVuSans-2e" transform="translate(270.166016 0)"/>
      <use xlink:href="#DejaVuSans-30" transform="translate(301.953125 0)"/>
     </g>
    </g>
    <g id="line2d_50">
     <path d="M 639.823437 451.258437 
L 649.823437 451.258437 
L 659.823437 451.258437 
" style="fill: none; stroke-dasharray: 7.4,3.2; stroke-dashoffset: 0; stroke: #000000; stroke-width: 2"/>
    </g>
    <g id="text_28">
     <!-- SP -->
     <g transform="translate(667.823437 454.758437) scale(0.1 -0.1)">
      <defs>
       <path id="DejaVuSans-53" d="M 3425 4513 
L 3425 3897 
Q 3066 4069 2747 4153 
Q 2428 4238 2131 4238 
Q 1616 4238 1336 4038 
Q 1056 3838 1056 3469 
Q 1056 3159 1242 3001 
Q 1428 2844 1947 2747 
L 2328 2669 
Q 3034 2534 3370 2195 
Q 3706 1856 3706 1288 
Q 3706 609 3251 259 
Q 2797 -91 1919 -91 
Q 1588 -91 1214 -16 
Q 841 59 441 206 
L 441 856 
Q 825 641 1194 531 
Q 1563 422 1919 422 
Q 2459 422 2753 634 
Q 3047 847 3047 1241 
Q 3047 1584 2836 1778 
Q 2625 1972 2144 2069 
L 1759 2144 
Q 1053 2284 737 2584 
Q 422 2884 422 3419 
Q 422 4038 858 4394 
Q 1294 4750 2059 4750 
Q 2388 4750 2728 4690 
Q 3069 4631 3425 4513 
z
" transform="scale(0.015625)"/>
      </defs>
      <use xlink:href="#DejaVuSans-53"/>
      <use xlink:href="#DejaVuSans-50" transform="translate(63.476562 0)"/>
     </g>
    </g>
   </g>
  </g>
 </g>
 <defs>
  <clipPath id="p3e4741e4de">
   <rect x="43.78125" y="22.318125" width="669.6" height="443.52"/>
  </clipPath>
 </defs>
</svg>
